<?xml version="1.0" standalone="no"?>
<!DOCTYPE svg PUBLIC "-//W3C//DTD SVG 1.1//EN" "http://www.w3.org/Graphics/SVG/1.1/DTD/svg11.dtd" >
<svg xmlns="http://www.w3.org/2000/svg">
<metadata></metadata>
<defs>
<font id="fztanheis-b-gbregular" horiz-adv-x="2048" vert-adv-y="2048" >
<font-face units-per-em="2048" ascent="1632" descent="-416" />
<missing-glyph horiz-adv-x="568" />
<glyph horiz-adv-x="0" vert-adv-y="0" />
<glyph horiz-adv-x="682" />
<glyph unicode=" "  horiz-adv-x="568" />
<glyph unicode="&#x09;" horiz-adv-x="568" />
<glyph unicode="&#xa0;" horiz-adv-x="568" />
<glyph unicode="!" horiz-adv-x="792" d="M224 1552h352l-48 -1224h-256zM240 -104v320h320v-320h-320z" />
<glyph unicode="&#x22;" horiz-adv-x="968" d="M136 1552h320l-64 -664h-192zM504 1552h320l-64 -664h-192z" />
<glyph unicode="#" horiz-adv-x="1136" d="M24 368l40 216h168l56 288h-184l32 224h184l80 456h216l-80 -456h200l80 456h216l-80 -456h168l-40 -224h-168l-48 -288h176l-32 -216h-184l-88 -472h-208l80 472h-200l-80 -472h-216l88 472h-176zM448 584h200l48 288h-200z" />
<glyph unicode="$" horiz-adv-x="1136" d="M24 408l264 80q56 -288 224 -336v472q-472 136 -456 472q24 424 456 472v136h152v-144q360 -64 432 -464l-264 -80q-48 216 -168 264v-408q472 -152 456 -504q-8 -432 -456 -480v-168h-152v176q-416 32 -488 512zM320 1120q0 -120 192 -200v376q-192 -24 -192 -176z M664 152q184 24 184 208q8 152 -184 224v-432z" />
<glyph unicode="%" horiz-adv-x="1816" d="M80 1120q16 464 368 480q344 -16 360 -480q-16 -440 -376 -456q-336 24 -352 456zM296 1128q8 -240 144 -256q136 8 144 264q-8 240 -136 248q-144 0 -152 -256zM360 -144l856 1736h264l-856 -1736h-264zM1024 304q16 448 368 472q352 -24 368 -472q-8 -432 -376 -448 q-344 24 -360 448zM1248 304q8 -232 144 -248q136 8 144 256q-8 240 -136 248q-144 0 -152 -256z" />
<glyph unicode="&#x26;" horiz-adv-x="1592" d="M56 336q0 312 336 504q-136 184 -136 336q40 384 400 408q392 -24 416 -392q8 -272 -280 -432q16 -16 56 -64q136 -128 216 -200q40 104 56 312l272 -40q-24 -240 -120 -464q32 -24 104 -80q160 -120 224 -160l-200 -208q-200 152 -280 232q-216 -216 -544 -216 q-504 16 -520 464zM328 360q16 -224 256 -240q192 0 344 152q-208 192 -376 376q-224 -128 -224 -288zM512 1168q-8 -80 112 -216q200 104 184 232q0 152 -152 152q-144 0 -144 -168z" />
<glyph unicode="'" horiz-adv-x="480" d="M88 1552h320l-64 -664h-192z" />
<glyph unicode="(" horiz-adv-x="680" d="M104 688q16 632 304 1080h224q-304 -496 -312 -1088q0 -584 320 -1048h-232q-296 448 -304 1056z" />
<glyph unicode=")" horiz-adv-x="680" d="M64 -368q304 480 304 1056q-8 576 -304 1080h216q288 -472 304 -1080q-8 -592 -304 -1056h-216z" />
<glyph unicode="*" horiz-adv-x="1136" d="M96 1128l96 312l272 -144l-64 296h328l-64 -304l264 160l96 -312l-288 -24l232 -200l-264 -192l-136 280l-144 -288l-264 192l240 208z" />
<glyph unicode="+" horiz-adv-x="1192" d="M56 608v224h424v472h232v-472h424v-224h-424v-472h-232v472h-424z" />
<glyph unicode="," horiz-adv-x="568" d="M104 -104v344h368v-256q8 -288 -264 -448l-104 104q160 112 176 256h-176z" />
<glyph unicode="-" horiz-adv-x="1192" d="M96 600v232h1008v-232h-1008z" />
<glyph unicode="." horiz-adv-x="568" d="M104 -104v344h360v-344h-360z" />
<glyph unicode="/" horiz-adv-x="904" d="M104 -128l440 1704h264l-440 -1704h-264z" />
<glyph unicode="0" horiz-adv-x="1136" d="M64 720q16 848 504 872q512 -24 520 -872q0 -848 -512 -856t-512 856zM336 720q0 -616 240 -608q232 -8 232 608q0 608 -240 608q-224 -24 -232 -608z" />
<glyph unicode="1" horiz-adv-x="1136" d="M136 832v288q376 160 488 432h232v-1656h-280v1168q-192 -160 -440 -232z" />
<glyph unicode="2" horiz-adv-x="1136" d="M48 72q168 336 480 592q288 240 280 416q0 240 -232 240q-160 -8 -248 -264l-256 112q144 416 536 416q448 -24 480 -488q16 -312 -360 -608q-208 -160 -336 -336h680v-256h-1024v176z" />
<glyph unicode="3" horiz-adv-x="1136" d="M40 336l256 64q48 -280 248 -280q248 0 248 256q-8 240 -248 248h-184v256h128q240 8 248 240q-8 192 -184 200q-184 -8 -224 -256l-264 72q104 440 480 448q456 -16 472 -472q0 -224 -200 -336q256 -112 256 -400q-16 -480 -528 -504q-432 0 -504 464z" />
<glyph unicode="4" horiz-adv-x="1136" d="M48 272v200l672 1080h224v-1016h152v-264h-152v-376h-280v376h-616zM328 536h336v536z" />
<glyph unicode="5" horiz-adv-x="1136" d="M32 336l264 80q48 -312 264 -304q240 8 248 344q-8 288 -248 304q-184 8 -264 -176l-208 40l96 928h824v-264h-576l-32 -312q64 56 184 56q472 -24 496 -568q-8 -584 -512 -600q-456 0 -536 472z" />
<glyph unicode="6" horiz-adv-x="1136" d="M64 640q8 928 552 952q344 0 448 -408l-264 -96q-40 240 -192 240q-240 -16 -264 -440q104 136 280 136q432 -32 456 -568q-16 -576 -512 -592q-512 -8 -504 776zM344 472q8 -352 224 -360q224 8 232 336q0 304 -232 312q-208 -16 -224 -288z" />
<glyph unicode="7" horiz-adv-x="1136" d="M64 1288v264h1000v-208q-408 -544 -544 -1448h-280q128 784 496 1392h-672z" />
<glyph unicode="8" horiz-adv-x="1136" d="M56 360q8 272 232 408q-176 120 -176 344q32 456 456 480q448 -24 464 -480q0 -224 -176 -344q232 -120 232 -408q-16 -480 -520 -496q-496 16 -512 496zM320 360q8 -248 256 -256q232 16 248 256q-8 272 -256 280q-240 -8 -248 -280zM376 1120q8 -232 192 -240 q184 16 192 224q-8 224 -192 232q-168 -8 -192 -216z" />
<glyph unicode="9" horiz-adv-x="1136" d="M48 984q40 568 496 608q552 0 552 -832q0 -904 -568 -896q-376 0 -464 384l248 104q64 -248 224 -240q240 8 272 424q-112 -120 -288 -120q-448 24 -472 568zM312 992q0 -312 232 -320q256 8 264 296q0 360 -256 360q-232 -16 -240 -336z" />
<glyph unicode=":" horiz-adv-x="568" d="M96 -104v344h368v-344h-368zM96 760v360h368v-360h-368z" />
<glyph unicode=";" horiz-adv-x="568" d="M96 -360q160 112 176 256h-168v344h360v-256q8 -288 -264 -448zM104 760v360h360v-360h-360z" />
<glyph unicode="&#x3c;" horiz-adv-x="1192" d="M88 608v224l1016 680v-328l-728 -464l728 -480v-304z" />
<glyph unicode="=" horiz-adv-x="1192" d="M96 360v224h1016v-224h-1016zM96 848v224h1016v-224h-1016z" />
<glyph unicode="&#x3e;" horiz-adv-x="1192" d="M96 -64v304l728 480l-728 464v320l1000 -680v-216z" />
<glyph unicode="?" horiz-adv-x="1024" d="M32 1096q96 480 488 480q424 -24 448 -456q8 -272 -272 -488q-120 -96 -112 -224v-72h-232v80q0 240 192 408q168 144 160 296q-8 184 -184 192q-176 0 -232 -296zM328 -104v296h280v-296h-280z" />
<glyph unicode="@" horiz-adv-x="1992" d="M64 632q64 992 976 1056q856 -48 904 -912q-40 -664 -528 -712q-264 0 -272 184q-120 -176 -320 -176q-352 8 -336 512q56 624 536 664q128 0 200 -96l8 80h248l-88 -744q-8 -56 -8 -96q-8 -80 72 -72q216 32 232 440q-24 664 -656 680q-664 -56 -712 -808 q8 -752 704 -760q376 0 664 208l128 -160q-328 -304 -808 -296q-928 16 -944 1008zM736 568q-16 -256 152 -256q248 48 288 488q-16 192 -136 200q-248 -32 -304 -432z" />
<glyph unicode="A" horiz-adv-x="1472" d="M24 -104l592 1656h240l592 -1656h-288l-128 392h-592l-136 -392h-280zM528 560h416l-208 608z" />
<glyph unicode="B" horiz-adv-x="1360" d="M136 -104v1656h616q464 -24 488 -440q0 -224 -160 -336q216 -136 224 -400q0 -480 -512 -480h-656zM416 144h336q264 8 272 232q-8 232 -296 240h-312v-472zM416 888h296q240 8 248 216q-16 176 -248 184h-296v-400z" />
<glyph unicode="C" horiz-adv-x="1360" d="M80 720q32 808 640 872q448 -8 568 -504l-272 -96q-80 328 -304 328q-336 -32 -352 -600q8 -592 344 -608q264 0 328 400l280 -80q-125 -568 -583 -568h-25q-616 16 -624 856z" />
<glyph unicode="D" horiz-adv-x="1472" d="M136 -104v1656h496q752 -16 768 -832v-17q0 -807 -732 -807h-28h-504zM416 144h240h25q447 0 447 557v19q0 568 -480 568h-232v-1144z" />
<glyph unicode="E" horiz-adv-x="1248" d="M136 -104v1656h992v-264h-712v-400h656v-272h-656v-472h752v-248h-1032z" />
<glyph unicode="F" horiz-adv-x="1136" d="M144 -104v1656h920v-264h-640v-400h536v-264h-536v-728h-280z" />
<glyph unicode="G" horiz-adv-x="1592" d="M88 712q40 824 728 880h15q491 0 641 -504l-272 -104q-94 344 -371 344h-13q-440 -40 -448 -608q16 -576 456 -608q224 0 368 144v288h-424v264h704v-640q-200 -304 -648 -304q-712 32 -736 848z" />
<glyph unicode="H" horiz-adv-x="1472" d="M144 -104v1656h280v-672h632v672h280v-1656h-280v720h-632v-720h-280z" />
<glyph unicode="I" horiz-adv-x="568" d="M144 -104v1656h280v-1656h-280z" />
<glyph unicode="J" horiz-adv-x="1136" d="M8 376l280 48q31 -304 192 -304h8q216 0 216 296v1136h280v-1128v-17q0 -543 -490 -543h-14q-19 -1 -37 -1q-404 0 -435 513z" />
<glyph unicode="K" horiz-adv-x="1360" d="M128 -104v1656h280v-704l584 704h352l-592 -696l608 -960h-328l-456 752l-168 -192v-560h-280z" />
<glyph unicode="L" horiz-adv-x="1136" d="M152 -104v1656h288v-1408h640v-248h-928z" />
<glyph unicode="M" horiz-adv-x="1928" d="M136 -104v1656h352l480 -1240l488 1240h344v-1656h-280v968l16 240l-464 -1208h-208l-464 1192l16 -232v-960h-280z" />
<glyph unicode="N" horiz-adv-x="1592" d="M136 -104v1656h288l760 -1168v1168h280v-1656h-280l-768 1168v-1168h-280z" />
<glyph unicode="O" horiz-adv-x="1592" d="M72 712q40 832 728 880q688 -48 720 -864q-16 -840 -728 -864q-688 40 -720 848zM352 712q16 -576 440 -600q440 24 456 608q-24 576 -448 608q-424 -32 -448 -616z" />
<glyph unicode="P" horiz-adv-x="1248" d="M144 -104v1656h480q536 -16 552 -504q-8 -520 -528 -528h-232v-624h-272zM416 792h232h15q233 0 233 240v16q0 240 -248 240h-232v-496z" />
<glyph unicode="Q" horiz-adv-x="1592" d="M72 712q40 832 736 880q688 -40 720 -872q-8 -592 -440 -776l352 -304l-336 -72l-296 320h-16q-688 32 -720 824zM352 720q24 -552 440 -584q440 24 456 584q-16 584 -448 608q-416 -40 -448 -608z" />
<glyph unicode="R" horiz-adv-x="1360" d="M136 -104v1656h544q544 0 544 -472q0 -384 -344 -472l440 -712h-320l-400 696h-184v-696h-280zM416 856h280q240 8 248 232q0 200 -248 200h-280v-432z" />
<glyph unicode="S" horiz-adv-x="1360" d="M56 400l272 80q63 -360 370 -360h14q304 8 312 248v7q0 162 -352 241q-560 132 -560 469v19q32 456 560 480q504 0 592 -480l-272 -80q-72 296 -312 296q-280 0 -288 -216q-2 -8 -1 -16q0 -117 321 -192q592 -118 592 -525v-11q-16 -472 -584 -488q-23 -1 -45 -1 q-512 0 -619 529z" />
<glyph unicode="T" horiz-adv-x="1248" d="M48 1288v264h1152v-264h-424v-1392h-288v1392h-440z" />
<glyph unicode="U" horiz-adv-x="1592" d="M136 600v952h280v-944v-20q0 -468 356 -468h12h25q375 0 375 469v19v944h280v-944v-17q0 -719 -665 -719h-15q-21 -1 -40 -1q-608 0 -608 694v35z" />
<glyph unicode="V" horiz-adv-x="1472" d="M32 1552h280l432 -1272l416 1272h288l-600 -1656h-224z" />
<glyph unicode="W" d="M32 1552h280l264 -1320l320 1320h264l304 -1304l280 1304h280l-440 -1656h-240l-320 1200l-336 -1200h-240z" />
<glyph unicode="X" horiz-adv-x="1472" d="M32 -104l560 848l-512 808h312l360 -600l352 600h312l-512 -808l544 -848h-320l-384 632l-400 -632h-312z" />
<glyph unicode="Y" horiz-adv-x="1360" d="M24 1552h288l368 -720l368 720h296l-520 -944v-712h-280v704z" />
<glyph unicode="Z" horiz-adv-x="1248" d="M48 96l784 1192h-728v264h1072v-216l-784 -1192h816v-248h-1160v200z" />
<glyph unicode="[" horiz-adv-x="680" d="M136 -328v2088h472v-232h-192v-1624h192v-232h-472z" />
<glyph unicode="\" horiz-adv-x="568" d="M-32 1576h224l440 -1704h-248z" />
<glyph unicode="]" horiz-adv-x="680" d="M80 -96h200v1624h-192v232h472v-2088h-480v232z" />
<glyph unicode="^" horiz-adv-x="568" d="M-24 584l248 968h128l264 -968h-216l-112 616l-120 -616h-192z" />
<glyph unicode="_" horiz-adv-x="1024" d="M0 -160h1024v-232h-1024v232z" />
<glyph unicode="`" horiz-adv-x="568" d="M-40 1552h264l208 -288h-184z" />
<glyph unicode="a" horiz-adv-x="1136" d="M72 224q8 352 384 416q176 24 256 72q-8 184 -176 192q-160 0 -208 -208l-256 72q112 392 464 392q432 -8 440 -528v-416q8 -200 104 -320h-280q-40 48 -56 128q-99 -152 -292 -152h-20q-352 8 -360 352zM328 232q8 -112 144 -120q232 16 248 280v72q-64 -48 -216 -80 q-176 -31 -176 -142v-10z" />
<glyph unicode="b" horiz-adv-x="1248" d="M112 -104v1656h280v-528q128 128 288 128q480 -24 496 -664q-8 -616 -488 -616h-23q-190 0 -273 128v-104h-280zM392 440q0 -336 237 -336h11q256 0 256 384q0 401 -237 401q-9 0 -19 -1q-240 -16 -248 -296v-152z" />
<glyph unicode="c" horiz-adv-x="1024" d="M56 488q16 648 472 672q360 0 440 -400l-256 -88q-32 224 -184 224q-192 -16 -200 -400q0 -384 208 -384q152 0 184 264l264 -64q-77 -449 -431 -449q-12 0 -25 1q-464 8 -472 624z" />
<glyph unicode="d" horiz-adv-x="1248" d="M56 496q16 648 520 664q184 0 288 -136v536h280v-1664h-280v104q-96 -128 -312 -128h-12q-484 0 -484 624zM336 496q0 -392 264 -392q264 8 264 336v160q-8 288 -264 296q-264 -8 -264 -400z" />
<glyph unicode="e" horiz-adv-x="1136" d="M64 488q24 640 520 672q496 -16 504 -672v-88h-744q32 -288 240 -296h12q173 0 220 224l264 -80q-110 -384 -481 -384h-15q-504 16 -520 624zM352 656h448q-8 240 -216 248q-200 -8 -232 -248z" />
<glyph unicode="f" horiz-adv-x="680" d="M0 872v256h136v96q0 360 312 360q120 0 232 -40l-72 -232q-36 18 -76 18q-14 0 -28 -2q-88 0 -88 -96v-104h192v-256h-192v-976h-280v976h-136z" />
<glyph unicode="g" horiz-adv-x="1248" d="M72 512q24 616 504 648q184 0 280 -128v104h280v-1040v-15q0 -521 -551 -521h-17q-256 0 -448 192l144 184q176 -120 304 -120q288 0 288 208q-96 -104 -304 -104q-464 24 -480 592zM336 520q8 -352 264 -368q256 0 256 304v160q-8 280 -240 296q-272 -8 -280 -392z" />
<glyph unicode="h" horiz-adv-x="1248" d="M128 -104v1656h280v-528q128 136 304 136q408 -8 416 -488v-776h-280v760q0 248 -184 248q-240 -16 -256 -272v-736h-280z" />
<glyph unicode="i" horiz-adv-x="568" d="M144 -104v1232h280v-1232h-280zM144 1232v320h280v-320h-280z" />
<glyph unicode="j" horiz-adv-x="568" d="M-16 -400l32 216q36 -18 68 -18q10 0 20 2q64 0 64 80v1248h280v-1248v-17q0 -311 -282 -311h-14q-96 0 -168 48zM168 1232v320h280v-320h-280z" />
<glyph unicode="k" horiz-adv-x="1136" d="M128 -104v1656h280v-808l336 384h368l-448 -488l456 -744h-328l-312 544l-72 -72v-472h-280z" />
<glyph unicode="l" horiz-adv-x="568" d="M152 -104v1656h280v-1656h-280z" />
<glyph unicode="m" horiz-adv-x="1928" d="M136 -104v1232h272v-104q128 136 296 136q240 0 352 -192q136 184 336 192q416 -8 424 -496v-768h-280v752q0 248 -184 248q-224 -16 -240 -256v-744h-280v752q0 248 -165 248h-11q-232 -16 -248 -248v-752h-272z" />
<glyph unicode="n" horiz-adv-x="1248" d="M128 -104v1232h272v-112q144 144 320 144q400 -24 416 -496v-768h-280v760q0 248 -184 248q-256 -16 -272 -272v-736h-272z" />
<glyph unicode="o" horiz-adv-x="1248" d="M64 488q24 640 560 672q536 -24 560 -656q-8 -632 -568 -640q-536 24 -552 624zM344 496q8 -376 280 -392q280 16 288 392q0 408 -280 416q-280 -16 -288 -416z" />
<glyph unicode="p" horiz-adv-x="1248" d="M112 -456v1584h272v-120q128 152 320 152q448 -40 472 -648q-8 -632 -504 -640q-184 0 -280 120v-448h-280zM384 408q8 -296 248 -296q272 0 272 400q-8 384 -264 392q-248 -8 -256 -336v-160z" />
<glyph unicode="q" horiz-adv-x="1248" d="M72 496q16 624 480 656h21q170 0 283 -120v96h280v-1584h-280v448q-112 -120 -288 -120q-496 0 -496 624zM352 504q0 -392 256 -392q240 0 248 296v184q-8 296 -248 304q-248 -16 -256 -392z" />
<glyph unicode="r" horiz-adv-x="792" d="M120 -104v1232h272v-112q96 136 208 136q12 1 23 1q112 0 185 -73l-120 -256q-56 48 -120 48q-176 0 -176 -312v-664h-272z" />
<glyph unicode="s" horiz-adv-x="1024" d="M40 264l248 72q54 -232 221 -232h11q200 0 200 144q0 104 -208 136q-441 77 -441 371q0 10 1 21q24 368 424 384q384 -8 464 -352l-256 -80q-48 176 -192 176q-168 -8 -176 -120q-1 -6 -1 -11q0 -87 233 -133q424 -80 424 -392q-16 -368 -472 -384h-14q-356 0 -466 400z " />
<glyph unicode="t" horiz-adv-x="792" d="M8 880v248h168v296l280 136v-432h232v-248h-232v-696q-1 -9 -1 -17q0 -72 61 -71h12q48 0 144 32l56 -200q-128 -48 -248 -56h-15q-289 0 -289 289v15v704h-168z" />
<glyph unicode="u" horiz-adv-x="1248" d="M120 336v792h280v-768q0 -256 200 -256q248 8 256 264v760h280v-1232h-280v112q-104 -144 -296 -144q-14 -1 -28 -1q-412 0 -413 440q0 16 1 33z" />
<glyph unicode="v" horiz-adv-x="1136" d="M24 1128h288l248 -880l264 880h288l-440 -1232h-232z" />
<glyph unicode="w" horiz-adv-x="1816" d="M24 1128h280l232 -944l224 944h288l208 -936l256 936h288l-424 -1232h-288l-192 912l-208 -912h-280z" />
<glyph unicode="x" horiz-adv-x="1136" d="M16 -104l416 624l-384 608h288l240 -416l232 416h288l-376 -616l400 -616h-312l-232 424l-256 -424h-304z" />
<glyph unicode="y" horiz-adv-x="1136" d="M24 1128h288l272 -808l248 808h288l-448 -1216q-105 -353 -345 -353q-15 0 -31 1q-96 0 -224 64l56 208q8 0 24 -8q64 -24 120 -24h10q73 0 118 112l48 80z" />
<glyph unicode="z" horiz-adv-x="1024" d="M48 96l560 768h-528v264h872v-208l-576 -776h600v-248h-928v200z" />
<glyph unicode="{" horiz-adv-x="680" d="M64 560v232h48q112 -8 104 144v464q-16 376 368 360h48v-232h-48q-128 8 -120 -136v-464q0 -160 -88 -248q88 -80 88 -248v-440q-8 -144 120 -136h48v-232h-48q-384 -16 -368 352v448q8 144 -104 136h-48z" />
<glyph unicode="|" horiz-adv-x="568" d="M168 -384v2096h248v-2096h-248z" />
<glyph unicode="}" horiz-adv-x="680" d="M72 -136h48q104 -8 96 136v432q0 168 88 248q-88 96 -88 248v472q0 144 -96 136h-48v232h48q352 8 344 -360v-464q0 -144 96 -144h40v-232h-40q-96 0 -96 -136v-456q8 -352 -344 -344h-48v232z" />
<glyph unicode="~" horiz-adv-x="1192" d="M112 432v360q120 112 288 128q120 8 256 -72q104 -56 168 -56q160 0 272 216v-360q-88 -128 -272 -136q-144 0 -248 72q-104 56 -184 56q-160 -16 -280 -208z" />
<glyph unicode="&#xa4;" d="M440 976l184 176l120 -136q120 80 288 80q144 0 256 -72l128 128l184 -176l-128 -128q72 -144 72 -264q0 -152 -80 -272l128 -128l-176 -176l-128 128q-144 -72 -256 -72q-128 0 -272 72l-128 -128l-184 176l136 128q-72 120 -72 272q0 136 64 256zM752 584 q16 -272 272 -288q256 16 272 288q-16 272 -264 288q-264 -16 -280 -288z" />
<glyph unicode="&#xa7;" d="M504 672q8 200 248 296q-232 80 -224 264q24 320 488 336q208 0 424 -72l-72 -192q-184 72 -360 72q-224 0 -232 -120q-24 -112 408 -184q352 -64 360 -328q0 -176 -240 -280q256 -80 248 -280q-8 -312 -520 -320q-208 -8 -456 64l64 184q168 -64 360 -64q304 8 304 128 q8 112 -328 152q-480 56 -472 344zM752 704q0 -136 296 -184q240 72 248 208q-8 144 -328 176q-216 -64 -216 -200z" />
<glyph unicode="&#xa8;" d="M696 1264v224h216v-224h-216zM1136 1264v224h216v-224h-216z" />
<glyph unicode="&#xad;" horiz-adv-x="1192" d="M96 600v232h1008v-232h-1008z" />
<glyph unicode="&#xb0;" d="M136 1272q24 296 296 320q288 -16 304 -320q-16 -296 -304 -320q-280 16 -296 320zM296 1272q8 -160 136 -168q136 8 144 168q-8 160 -144 168q-128 -8 -136 -168z" />
<glyph unicode="&#xb1;" d="M528 88v208h992v-208h-992zM528 728v208h384v336h224v-336h384v-208h-384v-336h-224v336h-384z" />
<glyph unicode="&#xb7;" d="M832 712q16 184 200 200q176 -16 192 -200q-16 -176 -192 -192q-184 16 -200 192z" />
<glyph unicode="&#xd7;" d="M536 328l328 320l-328 320l168 168l320 -320l312 336l168 -160l-312 -344l320 -320l-168 -168l-320 320l-320 -320z" />
<glyph unicode="&#xe0;" d="M480 496q24 632 512 664q192 0 296 -136v136h280v-1264h-280v104q-104 -128 -304 -128q-488 16 -504 624zM744 1520h288l184 -288h-184zM760 496q8 -384 264 -392q256 8 264 336v160q-8 288 -264 296q-256 -8 -264 -400z" />
<glyph unicode="&#xe1;" d="M480 496q24 632 512 664q192 0 296 -136v136h280v-1264h-280v104q-104 -128 -304 -128q-488 16 -504 624zM760 496q8 -384 264 -392q256 8 264 336v160q-8 288 -264 296q-256 -8 -264 -400zM824 1232l280 288h184l-184 -288h-280z" />
<glyph unicode="&#xe8;" d="M512 488q24 640 520 672q488 -24 504 -672v-88h-744q16 -288 240 -296q176 -8 224 224l272 -80q-120 -392 -496 -384q-512 16 -520 624zM744 1520h288l184 -288h-184zM800 656h448q-8 240 -216 248q-208 0 -232 -248z" />
<glyph unicode="&#xe9;" d="M512 488q24 640 520 672q488 -24 504 -672v-88h-744q16 -288 240 -296q176 -8 224 224l272 -80q-120 -392 -496 -384q-512 16 -520 624zM800 656h448q-8 240 -216 248q-208 0 -232 -248zM824 1232l280 288h184l-184 -288h-280z" />
<glyph unicode="&#xea;" d="M512 488q24 640 520 672q488 -24 504 -672v-88h-744q16 -288 240 -296q176 -8 224 224l272 -80q-120 -392 -496 -384q-512 16 -520 624zM688 1232l216 288h240l216 -288h-232l-104 168l-104 -168h-232zM800 656h448q-8 240 -216 248q-208 0 -232 -248z" />
<glyph unicode="&#xec;" d="M744 1520h288l184 -288h-184zM888 -104v1232h272v-1232h-272z" />
<glyph unicode="&#xed;" d="M824 1232l280 288h184l-184 -288h-280zM888 -104v1232h272v-1232h-272z" />
<glyph unicode="&#xf2;" d="M464 488q32 632 560 672q536 -32 560 -656q-8 -632 -576 -640q-528 16 -544 624zM744 496q8 -376 272 -392q280 16 288 392q-8 408 -280 416q-272 -16 -280 -416zM744 1520h288l184 -288h-184z" />
<glyph unicode="&#xf3;" d="M464 488q32 632 560 672q536 -32 560 -656q-8 -632 -576 -640q-528 16 -544 624zM744 496q8 -376 272 -392q280 16 288 392q-8 408 -280 416q-272 -16 -280 -416zM824 1232l280 288h184l-184 -288h-280z" />
<glyph unicode="&#xf7;" d="M528 536v224h992v-224h-992zM888 128v248h272v-248h-272zM888 904v248h272v-248h-272z" />
<glyph unicode="&#xf9;" d="M520 360v768h272v-768q8 -256 200 -256q240 16 256 296v728h280v-1232h-280v112q-104 -144 -296 -144q-432 0 -432 496zM744 1520h288l184 -288h-184z" />
<glyph unicode="&#xfa;" d="M520 360v768h272v-768q8 -256 200 -256q240 16 256 296v728h280v-1232h-280v112q-104 -144 -296 -144q-432 0 -432 496zM824 1232l280 288h184l-184 -288h-280z" />
<glyph unicode="&#xfc;" d="M520 360v768h272v-768q8 -256 200 -256q240 16 256 296v728h280v-1232h-280v112q-104 -144 -296 -144q-432 0 -432 496zM768 1184v184h184v-184h-184zM1096 1184v184h184v-184h-184z" />
<glyph unicode="&#x2000;" horiz-adv-x="884" vert-adv-y="0" />
<glyph unicode="&#x2001;" horiz-adv-x="1768" vert-adv-y="0" />
<glyph unicode="&#x2002;" horiz-adv-x="884" vert-adv-y="0" />
<glyph unicode="&#x2003;" horiz-adv-x="1768" vert-adv-y="0" />
<glyph unicode="&#x2004;" horiz-adv-x="589" vert-adv-y="0" />
<glyph unicode="&#x2005;" horiz-adv-x="442" vert-adv-y="0" />
<glyph unicode="&#x2006;" horiz-adv-x="294" vert-adv-y="0" />
<glyph unicode="&#x2007;" horiz-adv-x="294" vert-adv-y="0" />
<glyph unicode="&#x2008;" horiz-adv-x="221" vert-adv-y="0" />
<glyph unicode="&#x2009;" horiz-adv-x="353" vert-adv-y="0" />
<glyph unicode="&#x200a;" horiz-adv-x="98" vert-adv-y="0" />
<glyph unicode="&#x2010;" horiz-adv-x="1192" d="M96 600v232h1008v-232h-1008z" />
<glyph unicode="&#x2011;" horiz-adv-x="1192" d="M96 600v232h1008v-232h-1008z" />
<glyph unicode="&#x2012;" horiz-adv-x="1192" d="M96 600v232h1008v-232h-1008z" />
<glyph unicode="&#x2013;" horiz-adv-x="1208" d="M96 600v232h1024v-232h-1024z" />
<glyph unicode="&#x2014;" d="M0 616v168h2048v-168h-2048z" />
<glyph unicode="&#x2018;" d="M1384 992v296q48 280 280 328v-128q-88 -40 -104 -120v-56h128v-320h-304z" />
<glyph unicode="&#x2019;" d="M360 1296v320h304v-296q-24 -288 -280 -328v128q88 16 104 120v56h-128z" />
<glyph unicode="&#x201c;" d="M1152 1016v296q48 280 280 328v-128q-88 -40 -104 -120v-56h128v-320h-304zM1624 1016v296q24 264 280 328v-128q-40 -24 -64 -48q0 -8 -16 -16q-24 -40 -24 -56v-56h128v-320h-304z" />
<glyph unicode="&#x201d;" d="M128 1320v320h304v-296q-24 -288 -280 -328v128q88 16 104 120v56h-128zM592 1320v320h304v-296q-24 -280 -280 -328v128q40 16 64 48q40 40 40 72v56h-128z" />
<glyph unicode="&#x2026;" d="M208 584v272h264v-272h-264zM896 584v272h264v-272h-264zM1576 584v272h264v-272h-264z" />
<glyph unicode="&#x202f;" horiz-adv-x="353" vert-adv-y="0" />
<glyph unicode="&#x205f;" horiz-adv-x="442" vert-adv-y="0" />
<glyph unicode="&#x20ac;" horiz-adv-x="1624" d="M64 408l56 224h224q-8 48 -8 88q0 48 8 96h-280l56 224h256q152 536 608 552q432 0 568 -504l-280 -96q-72 336 -304 336q-216 -8 -304 -288h472l-56 -224h-456q-8 -48 -8 -96q0 -40 8 -88h432l-56 -224h-344q88 -288 304 -296q272 0 336 400l280 -80 q-128 -584 -608 -568q-488 0 -600 544h-304z" />
<glyph unicode="&#x25fc;" horiz-adv-x="1120" vert-adv-y="2240" d="M0 0v1120h1120v-1120h-1120z" />
</font>
</defs>
</svg>
