<?xml version="1.0" standalone="no"?><!DOCTYPE svg PUBLIC "-//W3C//DTD SVG 1.1//EN" "http://www.w3.org/Graphics/SVG/1.1/DTD/svg11.dtd" ><svg xmlns="http://www.w3.org/2000/svg"><metadata></metadata><defs><font id="fonteditor" horiz-adv-x="1000"><font-face font-family="SN^·ZZOSW5" font-weight="400" font-stretch="normal" units-per-em="1000" panose-1="4 11 5 9 0 0 0 0 0 0" ascent="860" descent="-140" x-height="0" bbox="7 -123 956 842" underline-thickness="50" underline-position="-110" unicode-range="U+0026-ff1a" /><missing-glyph horiz-adv-x="1000"  /><glyph glyph-name="ampersand" unicode="&amp;" d="M471 9 L416 9 Q364 9 325 52 Q269 0 195 0 Q119 0 72 60 Q29 115 29 193 Q29 332 127 410 Q90 499 90 549 Q90 623 134 670 Q179 718 251 718 Q320 718 360 676 Q400 635 400 566 Q400 451 220 379 Q251 316 329 170 Q365 255 371 358 L452 358 Q439 199 375 107 Q398 82 421 82 Q435 82 471 88 L471 9 ZM329 560 Q329 646 251 646 Q162 646 162 538 Q162 509 192 442 Q329 503 329 560 ZM280 111 Q240 186 159 348 Q134 325 117 277 Q102 233 102 195 Q102 148 126 113 Q152 73 194 73 Q238 73 280 111 Z" /><glyph glyph-name="parenleft" unicode="(" d="M382 -54 L328 -101 Q118 90 118 361 Q118 631 327 821 L382 778 Q192 597 192 361 Q192 127 382 -54 Z" /><glyph glyph-name="parenright" unicode=")" d="M382 361 Q382 90 172 -101 L118 -54 Q308 127 308 361 Q308 597 118 778 L173 821 Q382 631 382 361 Z" /><glyph glyph-name="asterisk" unicode="*" d="M494 392 Q494 362 460 351 Q441 345 388 340 Q332 336 289 324 Q336 275 382 225 Q454 148 454 124 Q454 107 436 92 Q417 78 400 78 Q373 78 319 173 Q285 235 251 296 Q218 248 182 179 Q149 114 138 99 Q122 77 103 77 Q84 77 66 92 Q49 108 49 126 Q49 147 121 226 Q166 275 212 324 Q169 336 112 340 Q59 345 40 351 Q7 362 7 392 Q7 412 20 429 Q32 446 51 446 Q58 446 70 442 Q88 436 136 410 Q185 383 227 369 Q225 428 213 504 Q202 577 202 595 Q202 642 250 642 Q298 642 298 595 Q298 577 287 504 Q276 428 274 369 Q316 383 364 410 Q413 436 431 442 Q443 446 450 446 Q469 446 482 429 Q494 412 494 392 Z" /><glyph glyph-name="plus" unicode="+" d="M471 323 L287 323 L287 85 L213 85 L213 323 L29 323 L29 395 L213 395 L213 633 L287 633 L287 395 L471 395 L471 323 Z" /><glyph glyph-name="hyphen" unicode="-" d="M471 323 L29 323 L29 395 L471 395 L471 323 Z" /><glyph glyph-name="period" unicode="." d="M329 110 Q329 92 312 52 Q296 13 283 0 Q215 16 171 48 Q180 91 216 155 Q262 153 329 110 Z" /><glyph glyph-name="slash" unicode="/" d="M467 780 L100 -89 L33 -60 L400 809 L467 780 Z" /><glyph glyph-name="zero" unicode="0" d="M471 329 Q471 215 421 118 Q359 0 256 0 Q133 0 74 121 Q29 213 29 350 Q29 483 72 583 Q130 716 246 716 Q277 716 315 696 Q353 676 369 651 Q359 631 327 607 Q281 645 245 645 Q166 645 127 527 Q99 443 99 343 Q99 244 129 171 Q171 70 255 70 Q323 70 369 174 Q407 259 407 339 Q407 417 396 466 Q385 515 352 584 Q378 604 404 612 Q446 543 460 474 Q471 422 471 329 Z" /><glyph glyph-name="one" unicode="1" d="M326 701 Q326 612 240 3 Q232 1 215 1 Q185 1 173 7 Q194 266 245 624 Q172 607 106 596 Q90 628 90 653 Q124 667 206 689 Q297 713 319 713 Q326 713 326 701 Z" /><glyph glyph-name="two" unicode="2" d="M470 596 Q470 548 369 345 Q303 212 236 78 Q272 72 318 72 Q374 72 423 81 Q434 54 434 32 Q434 29 433 22 Q396 0 297 0 Q262 0 221 8 Q171 18 150 33 Q166 85 289 336 Q404 571 404 590 Q404 614 368 629 Q340 641 311 641 Q204 641 58 544 Q36 571 31 596 Q83 644 161 678 Q244 713 310 713 Q377 713 419 689 Q470 659 470 596 Z" /><glyph glyph-name="three" unicode="3" d="M467 544 Q467 458 346 282 Q438 187 438 104 Q438 50 382 22 Q337 0 277 0 Q259 0 240 2 Q235 19 235 31 Q235 49 237 59 Q296 66 316 72 Q371 87 371 117 Q371 152 267 274 Q347 403 349 407 Q401 499 401 545 Q401 592 370 618 Q338 645 290 645 Q233 645 171 609 Q161 603 68 537 Q46 544 33 582 Q170 714 287 714 Q367 714 417 669 Q467 624 467 544 Z" /><glyph glyph-name="four" unicode="4" d="M469 154 Q450 144 381 130 L371 3 Q352 1 345 1 Q338 1 318 5 Q318 22 321 121 Q279 115 208 115 Q108 115 32 135 Q32 405 118 715 Q156 713 174 703 Q161 640 137 515 Q101 321 95 192 Q115 182 207 182 Q272 182 324 188 L344 440 Q365 441 373 441 Q381 441 400 437 Q400 363 385 195 Q440 203 464 207 Q468 190 469 180 Q470 165 469 154 Z" /><glyph glyph-name="five" unicode="5" d="M469 619 Q469 601 465 591 Q433 588 351 588 Q269 588 136 591 Q121 504 115 465 Q104 394 100 338 Q159 340 182 340 Q282 340 353 305 Q445 260 445 171 Q445 97 400 48 Q355 0 281 0 Q272 23 270 55 Q384 84 384 169 Q384 211 332 240 Q281 270 185 274 Q108 274 31 274 Q31 448 94 712 Q100 713 103 713 Q122 713 152 703 Q148 673 145 657 Q360 657 466 644 Q469 634 469 619 Z" /><glyph glyph-name="six" unicode="6" d="M468 217 Q468 128 409 64 Q350 0 262 0 Q141 0 82 90 Q32 166 32 297 Q32 423 106 541 Q177 655 290 718 Q316 692 321 666 Q225 594 167 502 Q99 397 99 291 Q99 201 134 140 Q178 64 261 64 Q319 64 362 114 Q404 164 404 223 Q404 288 352 321 Q326 338 245 361 Q245 387 256 420 Q357 401 406 362 Q468 312 468 217 Z" /><glyph glyph-name="seven" unicode="7" d="M470 690 Q452 506 413 277 Q374 48 359 5 Q345 4 302 18 Q364 382 400 644 Q355 652 306 652 Q202 652 93 629 L115 430 Q73 419 59 419 Q41 510 30 679 Q54 691 140 702 Q226 712 314 712 Q378 712 397 710 Q440 706 470 690 Z" /><glyph glyph-name="eight" unicode="8" d="M465 641 Q462 610 432 588 Q341 649 264 649 Q210 649 160 615 Q104 578 104 526 Q104 482 130 448 Q148 424 192 391 Q324 465 435 499 Q448 481 453 446 Q337 388 259 352 Q332 310 367 271 Q415 217 415 147 Q415 80 364 38 Q317 0 248 0 Q146 0 98 38 Q43 81 43 180 Q43 223 74 274 Q101 318 139 351 Q36 421 36 526 Q36 613 111 667 Q177 715 268 715 Q316 715 371 694 Q426 673 465 641 ZM351 160 Q351 209 296 252 Q275 269 200 312 Q109 241 109 177 Q109 111 146 85 Q178 63 246 63 Q293 63 322 88 Q351 113 351 160 Z" /><glyph glyph-name="nine" unicode="9" d="M469 438 Q470 393 464 329 Q459 275 454 220 Q449 166 444 110 Q437 28 429 3 Q419 0 402 0 Q385 0 374 6 Q377 66 386 185 Q366 167 326 154 Q285 141 254 141 Q142 141 83 227 Q31 302 31 419 Q31 531 95 618 Q165 715 273 715 Q335 715 391 665 Q437 624 467 559 Q450 536 422 527 Q355 649 273 649 Q195 649 142 569 Q94 498 94 416 Q94 336 132 276 Q176 207 253 207 Q315 207 392 260 Q404 383 413 450 Q431 450 469 445 L469 438 Z" /><glyph glyph-name="equal" unicode="=" d="M471 433 L29 433 L29 506 L471 506 L471 433 ZM471 212 L29 212 L29 285 L471 285 L471 212 Z" /><glyph glyph-name="A" unicode="a" d="M468 5 Q458 1 438 1 Q415 1 405 4 Q405 302 360 488 Q324 638 287 638 Q248 638 192 464 Q158 355 136 254 Q191 247 294 232 Q296 218 294 202 Q292 183 287 171 Q178 179 124 186 Q118 151 93 1 Q57 -1 31 9 Q50 276 135 501 Q216 716 286 716 Q353 716 405 563 Q471 368 468 5 Z" /><glyph glyph-name="B" unicode="b" d="M471 168 Q471 101 442 55 Q408 0 345 0 Q274 0 196 66 Q204 102 227 121 Q295 70 353 70 Q380 70 395 108 Q406 136 406 168 Q406 214 385 256 Q371 284 334 332 Q355 385 376 438 Q400 505 400 546 Q400 596 361 621 Q328 642 275 642 Q239 642 194 621 Q148 600 118 573 Q110 511 103 352 Q98 233 92 17 Q80 11 57 11 Q47 11 31 18 Q30 83 30 146 Q30 405 61 699 Q65 701 75 701 Q106 701 124 692 L123 654 Q149 676 195 693 Q241 710 275 710 Q351 710 404 673 Q463 630 463 557 Q463 462 406 345 Q471 239 471 168 Z" /><glyph glyph-name="C" unicode="c" d="M467 139 Q439 81 386 42 Q329 0 269 0 Q140 0 80 109 Q34 193 34 334 Q34 468 86 578 Q152 718 272 718 Q332 718 389 679 Q446 640 467 584 Q446 563 429 554 Q364 651 274 651 Q185 651 135 530 Q98 439 98 336 Q98 66 268 66 Q342 66 427 171 Q445 164 467 139 Z" /><glyph glyph-name="D" unicode="d" d="M472 338 Q472 205 431 117 Q376 0 258 0 Q234 0 197 11 Q160 22 141 35 Q146 67 164 93 Q216 67 260 67 Q308 67 347 117 Q402 187 402 337 Q402 458 367 533 Q320 636 213 636 Q163 636 102 595 Q97 515 97 408 Q97 354 103 212 Q108 89 106 17 L106 9 Q79 3 63 3 Q53 3 46 6 Q29 218 29 387 Q29 545 46 709 Q54 710 67 710 Q96 710 106 704 Q107 689 106 672 Q118 683 158 694 Q195 704 215 704 Q355 704 420 585 Q472 491 472 338 Z" /><glyph glyph-name="E" unicode="e" d="M472 669 Q472 653 469 638 Q384 633 157 633 Q76 633 32 637 Q29 673 29 669 Q29 690 32 700 Q134 708 257 708 Q382 708 470 697 Q472 685 472 669 ZM374 48 Q374 35 372 21 Q333 9 239 9 Q198 9 137 14 Q57 20 46 30 Q28 88 28 251 Q28 428 39 529 Q45 531 61 531 Q78 531 97 525 Q97 485 94 399 Q158 398 312 385 Q314 380 314 368 Q314 341 310 329 Q247 326 95 329 Q94 295 94 284 Q94 203 103 92 Q153 79 237 79 Q341 78 371 75 Q374 57 374 48 Z" /><glyph glyph-name="F" unicode="f" d="M470 669 Q470 650 466 631 Q84 631 35 647 Q32 658 32 679 Q32 696 36 707 Q87 710 148 710 Q404 710 469 689 Q470 681 470 669 ZM446 302 Q446 296 443 275 Q434 273 374 273 Q256 273 178 286 Q176 300 176 315 Q176 324 179 345 L272 345 Q354 345 445 332 Q446 324 446 302 ZM124 12 Q116 7 93 7 Q73 7 61 11 Q50 222 50 354 Q50 455 54 514 Q75 516 83 516 Q105 516 113 514 Q115 501 119 325 Q124 126 124 12 Z" /><glyph glyph-name="G" unicode="g" d="M412 639 Q399 614 379 595 Q326 648 263 648 Q181 648 134 534 Q98 446 98 350 Q98 258 124 179 Q161 67 233 67 Q294 67 333 97 Q351 75 359 45 Q312 0 228 0 Q120 0 68 130 Q31 223 31 350 Q31 520 106 623 Q173 715 264 715 Q356 715 412 639 ZM470 318 Q470 275 466 181 Q466 141 459 65 Q454 63 431 63 Q409 63 401 68 Q401 94 405 279 Q315 291 233 314 L232 329 Q231 347 239 372 Q357 360 470 332 L470 318 Z" /><glyph glyph-name="H" unicode="h" d="M472 649 Q475 630 463 351 Q452 79 448 52 Q439 48 423 48 Q404 48 395 52 Q393 85 393 136 Q393 217 398 341 Q252 352 173 363 Q170 370 170 394 Q170 415 174 422 Q289 420 400 411 Q410 548 416 651 Q421 653 443 653 Q460 653 472 649 ZM122 708 Q128 655 115 356 Q102 56 92 5 Q82 0 62 0 Q44 0 31 4 Q29 12 29 45 Q29 135 42 420 Q54 679 57 711 Q71 713 87 713 Q109 713 122 708 Z" /><glyph glyph-name="I" unicode="i" d="M456 660 Q456 645 451 630 Q329 630 281 633 Q280 481 259 72 Q358 69 415 64 Q418 52 418 35 Q418 25 413 7 Q367 6 321 6 Q183 6 47 15 Q45 20 45 44 Q45 55 48 73 Q62 75 108 75 Q142 75 193 74 Q193 247 216 636 L61 649 Q59 659 59 679 Q59 693 63 709 Q166 713 453 689 Q456 677 456 660 Z" /><glyph glyph-name="K" unicode="k" d="M469 595 Q284 459 113 352 Q109 266 93 3 Q88 1 61 1 Q46 1 32 5 Q31 34 31 70 Q31 278 66 712 Q83 713 95 712 Q110 711 127 707 Q127 670 117 434 Q146 451 270 536 Q358 596 441 641 Q450 634 458 620 Q466 607 469 595 ZM439 67 Q422 38 393 27 Q262 154 172 272 Q186 291 192 296 Q206 307 216 312 Q233 306 328 199 Q411 105 439 67 Z" /><glyph glyph-name="L" unicode="l" d="M468 47 Q469 35 466 17 Q400 4 254 4 Q97 4 39 22 Q33 75 33 165 Q33 463 75 710 Q81 712 105 712 Q124 712 134 705 Q126 590 117 434 Q102 186 105 79 Q161 72 261 72 Q354 72 463 76 Q466 71 468 47 Z" /><glyph glyph-name="M" unicode="m" d="M469 57 Q466 54 440 52 Q429 51 410 55 Q406 134 406 293 Q406 452 402 532 Q328 468 243 398 Q227 409 191 453 Q160 493 146 516 Q165 546 184 560 Q198 544 247 483 Q365 598 460 650 Q465 648 469 434 Q473 215 469 57 ZM134 708 Q135 661 115 353 Q96 62 89 3 Q79 0 58 0 Q47 0 31 4 Q26 155 45 427 Q62 670 73 711 Q91 714 102 714 Q120 714 134 708 Z" /><glyph glyph-name="O" unicode="o" d="M472 329 Q472 256 442 172 Q407 72 354 48 Q340 58 318 93 Q361 127 385 204 Q406 269 406 334 Q406 415 400 455 Q391 514 362 569 Q383 589 412 600 Q472 507 472 329 ZM375 660 Q365 635 337 610 Q287 641 246 641 Q167 641 126 528 Q97 446 97 349 Q97 244 120 174 Q155 67 238 67 Q262 67 288 77 Q295 59 299 18 Q271 0 219 0 Q154 0 100 74 Q29 172 29 360 Q29 484 74 583 Q133 712 242 712 Q311 712 375 660 Z" /><glyph glyph-name="P" unicode="p" d="M471 457 Q471 342 408 274 Q345 207 230 207 Q196 207 179 213 Q178 232 178 242 Q178 251 181 270 Q210 270 265 275 Q400 298 400 457 Q400 618 145 646 Q143 669 143 679 Q143 687 147 709 Q276 702 364 645 Q471 577 471 457 ZM111 667 Q111 590 105 356 Q101 208 98 127 Q98 85 90 4 Q69 1 60 1 Q41 1 29 5 Q28 78 28 118 Q28 268 34 458 Q35 522 37 586 Q40 665 48 713 Q69 714 80 714 Q96 714 110 710 Q111 694 111 667 Z" /><glyph glyph-name="Q" unicode="q" d="M471 358 Q471 194 390 103 Q400 83 423 25 Q400 3 375 0 Q342 59 318 119 Q359 152 385 228 Q408 296 408 357 Q408 499 360 571 Q384 596 404 602 Q471 514 471 358 ZM368 667 Q361 638 337 615 Q289 642 249 642 Q167 642 125 535 Q95 456 95 358 Q95 261 121 187 Q157 81 235 81 Q261 81 288 95 Q300 63 300 38 Q267 17 219 17 Q113 17 63 151 Q28 246 28 373 Q28 525 96 622 Q160 713 244 713 Q322 713 368 667 Z" /><glyph glyph-name="R" unicode="r" d="M470 442 Q470 280 360 222 Q395 153 433 62 Q410 40 381 34 Q364 54 296 204 Q278 203 250 203 Q211 203 189 210 Q187 222 187 234 Q187 248 191 268 Q189 269 189 268 Q189 267 191 267 L197 267 Q197 267 234 267 Q325 267 364 310 Q403 353 403 445 Q403 536 322 589 Q258 630 157 642 Q155 663 155 672 Q155 687 160 704 Q295 697 376 639 Q470 570 470 442 ZM116 697 Q116 370 91 4 Q77 0 58 0 Q46 0 36 2 Q30 115 30 210 Q30 373 40 535 Q42 594 55 711 Q65 713 74 713 Q97 713 116 707 Q116 707 116 697 Z" /><glyph glyph-name="S" unicode="s" d="M468 632 Q464 600 443 585 Q366 623 336 633 Q287 649 218 649 Q167 649 134 615 Q100 581 100 530 Q100 485 174 429 Q304 332 312 324 Q386 253 386 171 Q386 95 338 47 Q289 -1 213 -1 Q108 -1 37 122 Q59 145 79 157 Q121 108 136 96 Q171 67 213 67 Q260 67 288 96 Q316 125 316 173 Q316 234 242 294 Q174 345 106 396 Q32 459 32 528 Q32 609 86 662 Q140 716 221 716 Q277 716 352 692 Q431 666 468 632 Z" /><glyph glyph-name="T" unicode="t" d="M472 671 Q472 655 470 647 Q440 634 138 634 Q55 634 32 637 Q29 646 29 666 Q29 683 31 693 Q77 706 308 706 Q449 706 470 700 Q472 691 472 671 ZM311 18 Q307 14 285 11 Q264 8 253 11 Q236 71 207 472 Q216 477 239 479 Q254 480 267 476 Q276 442 295 256 Q314 66 311 18 Z" /><glyph glyph-name="U" unicode="u" d="M472 382 Q472 232 431 135 Q375 -1 246 -1 Q125 -1 70 109 Q29 191 29 326 Q29 484 95 709 Q139 704 154 686 Q99 448 99 326 Q99 226 124 161 Q160 67 244 67 Q405 67 405 390 Q405 495 349 652 Q375 674 404 678 Q434 627 454 534 Q472 451 472 382 Z" /><glyph glyph-name="V" unicode="v" d="M472 655 Q461 504 422 357 Q378 191 309 79 Q260 -1 236 -1 Q216 -1 173 99 Q63 356 29 700 Q58 711 81 711 Q131 433 191 238 Q235 95 245 95 Q251 95 284 165 Q386 383 417 667 L422 667 Q458 667 472 655 Z" /><glyph glyph-name="W" unicode="w" d="M470 592 Q471 559 471 526 Q471 364 445 207 Q410 -1 359 -1 Q332 -1 269 180 Q251 145 215 75 Q180 10 156 10 Q113 10 75 234 Q40 443 29 699 Q67 712 90 703 L118 446 Q142 237 168 117 L223 220 Q263 294 275 294 Q284 294 310 227 Q326 187 358 107 Q391 211 417 594 Q430 599 443 597 Q461 594 470 592 Z" /><glyph glyph-name="X" unicode="x" d="M473 79 Q459 52 430 36 Q351 106 241 250 Q211 186 181 122 Q143 44 113 0 Q86 4 63 21 Q98 122 196 313 Q112 443 28 655 Q47 670 79 675 Q120 597 233 385 Q270 465 307 544 Q351 636 389 699 Q422 693 444 676 Q440 660 374 519 Q314 392 280 324 Q348 212 473 79 Z" /><glyph glyph-name="Y" unicode="y" d="M472 599 Q472 554 383 433 Q297 316 246 283 Q250 192 255 5 Q233 0 221 0 Q208 0 189 4 Q184 79 172 304 Q134 368 85 487 Q35 614 24 679 Q64 699 88 699 Q112 619 152 520 Q195 416 228 360 Q271 385 336 476 Q397 561 418 617 Q427 616 448 611 Q453 609 472 599 Z" /><glyph glyph-name="Z" unicode="z" d="M470 678 Q471 670 374 441 Q268 191 238 94 Q253 73 336 74 Q352 74 387 76 Q419 78 437 78 Q440 65 440 19 Q418 6 333 6 Q288 6 237 13 Q159 24 159 45 Q158 108 381 631 Q331 641 221 644 Q139 645 33 648 Q30 657 30 676 Q30 684 33 708 Q93 710 161 710 Q463 710 470 678 Z" /><glyph glyph-name="a" unicode="a" d="M469 39 Q469 15 468 9 Q446 4 419 5 Q414 11 407 55 Q344 23 325 16 Q282 0 235 0 Q148 0 90 59 Q31 118 31 206 Q31 297 89 358 Q147 418 238 418 Q326 418 365 369 Q362 354 337 329 Q295 356 238 356 Q175 356 133 316 Q91 275 91 212 Q91 154 131 107 Q171 60 228 60 Q300 60 401 129 Q396 309 396 368 L396 408 Q412 412 424 412 Q438 412 448 410 Q454 397 462 234 Q469 91 469 39 Z" /><glyph glyph-name="b" unicode="b" d="M472 197 Q472 108 410 54 Q347 0 257 0 Q195 0 135 42 Q142 67 158 94 Q181 84 206 74 Q230 63 253 63 Q314 63 361 104 Q408 144 408 205 Q408 263 369 309 Q330 355 273 355 Q234 355 207 345 Q180 335 154 325 Q138 349 132 374 Q178 418 279 418 Q364 418 420 349 Q472 284 472 197 ZM102 90 Q102 15 99 6 Q91 0 72 0 Q49 0 42 2 Q28 39 28 387 Q28 579 35 611 Q45 613 61 613 Q78 613 88 608 Q100 535 104 438 Q106 370 104 262 Q102 111 102 90 Z" /><glyph glyph-name="c" unicode="c" d="M450 81 Q376 0 271 0 Q183 0 119 56 Q51 115 51 201 Q51 292 112 356 Q173 420 263 420 Q314 420 365 399 Q422 375 447 336 Q444 330 430 319 Q416 308 409 306 Q341 362 262 362 Q195 362 154 314 Q112 267 112 199 Q112 143 162 100 Q213 57 270 57 Q324 57 419 119 Q435 111 450 81 Z" /><glyph glyph-name="d" unicode="d" d="M472 293 Q475 29 467 5 Q460 0 442 0 Q418 0 412 3 Q402 29 402 311 Q402 556 409 580 Q418 583 438 583 Q455 583 465 581 Q470 549 472 293 ZM383 64 Q326 0 225 0 Q137 0 81 63 Q28 123 28 212 Q28 297 90 358 Q153 420 238 420 Q272 420 315 407 Q363 391 382 369 Q375 332 360 325 Q310 346 300 349 Q273 357 233 357 Q172 357 130 309 Q92 265 92 209 Q92 151 130 106 Q168 62 225 62 Q272 62 359 104 Q373 88 383 64 Z" /><glyph glyph-name="e" unicode="e" d="M466 221 Q466 195 461 193 Q389 165 104 153 Q141 57 254 57 Q283 57 316 64 Q328 52 329 17 Q285 0 239 0 Q153 0 94 54 Q35 109 35 194 Q35 292 94 356 Q153 421 251 421 Q346 421 405 369 Q466 314 466 221 ZM404 235 Q404 290 355 328 Q310 364 254 364 Q190 364 144 318 Q97 273 97 209 Q173 214 404 235 Z" /><glyph glyph-name="g" unicode="g" d="M472 -1 Q472 -44 470 -56 Q466 -81 399 -102 Q340 -120 287 -120 Q269 -120 259 -117 Q255 -109 255 -94 Q255 -75 257 -69 Q283 -65 334 -57 Q378 -49 391 -40 Q408 -29 408 0 Q408 14 405 157 Q403 284 404 352 Q420 356 431 356 Q450 356 458 352 Q472 222 472 -1 ZM370 359 Q365 336 345 316 Q267 351 226 351 Q172 351 130 304 Q89 257 89 202 Q89 143 121 105 Q155 64 212 64 Q243 64 270 72 Q296 81 322 90 Q336 70 342 44 Q321 26 280 13 Q239 0 209 0 Q127 0 76 62 Q28 121 28 205 Q28 287 87 352 Q146 417 227 417 Q310 417 370 359 Z" /><glyph glyph-name="h" unicode="h" d="M470 209 Q470 172 460 102 Q449 22 436 3 Q398 7 381 19 Q401 127 401 207 Q401 261 375 301 Q344 347 289 347 Q235 347 154 315 Q140 330 132 367 Q154 386 204 402 Q254 417 293 417 Q375 417 424 352 Q470 293 470 209 ZM105 332 Q108 26 104 8 Q98 1 74 1 Q50 1 43 2 Q31 24 31 381 Q31 644 37 660 Q46 662 68 662 Q79 662 98 658 Q102 639 105 332 Z" /><glyph glyph-name="i" unicode="i" d="M313 577 Q313 551 291 518 Q273 519 236 532 Q199 545 188 555 Q191 582 211 613 Q227 612 264 599 Q300 586 313 577 ZM279 134 Q279 24 275 6 Q263 2 246 2 Q222 2 216 4 Q205 46 205 287 Q205 395 211 415 Q220 418 242 418 Q257 418 272 413 Q279 271 279 134 Z" /><glyph glyph-name="k" unicode="k" d="M466 371 Q449 354 297 285 Q167 226 107 202 Q106 118 98 4 Q92 0 70 0 Q53 0 43 3 Q35 30 35 184 Q35 407 53 632 Q59 634 82 634 Q101 634 108 632 Q111 616 111 556 Q111 542 106 275 Q197 318 445 417 Q461 398 466 371 ZM453 48 Q434 16 416 11 Q398 17 330 84 Q263 152 252 173 Q261 192 290 212 Q310 201 374 136 Q438 71 453 48 Z" /><glyph glyph-name="l" unicode="l" d="M286 246 Q286 25 281 4 Q269 0 255 0 Q236 0 227 3 Q215 41 215 301 Q215 423 220 628 Q228 631 250 631 Q262 631 278 627 Q286 561 286 246 Z" /><glyph glyph-name="n" unicode="n" d="M471 234 Q471 199 458 113 Q443 18 431 1 Q404 -3 379 14 Q409 186 409 228 Q409 284 373 319 Q337 354 281 354 Q245 354 146 319 Q125 340 125 364 Q146 389 204 404 Q251 417 293 417 Q366 417 418 362 Q471 307 471 234 ZM108 33 Q108 11 107 6 Q97 1 79 1 Q62 1 50 4 Q43 30 35 201 Q29 349 29 413 Q38 417 58 417 Q70 417 86 413 Q93 374 101 218 Q108 78 108 33 Z" /><glyph glyph-name="o" unicode="o" d="M470 200 Q470 149 437 104 Q404 58 356 41 Q343 60 333 85 Q365 103 389 134 Q414 169 414 203 Q414 268 362 322 Q374 337 397 359 Q470 297 470 200 ZM347 392 Q341 357 327 343 Q278 364 239 364 Q176 364 134 315 Q91 266 91 202 Q91 150 135 104 Q179 57 231 57 Q260 57 292 63 Q303 35 303 14 Q278 -1 226 -1 Q149 -1 90 62 Q30 126 30 203 Q30 291 89 356 Q148 422 235 422 Q302 422 347 392 Z" /><glyph glyph-name="p" unicode="p" d="M468 198 Q468 100 406 50 Q349 4 250 4 Q211 4 182 11 Q179 24 179 43 Q179 60 183 72 Q288 72 329 86 Q403 113 403 199 Q403 270 306 314 Q238 344 149 353 Q147 364 147 382 Q147 401 151 412 Q269 411 358 364 Q468 305 468 198 ZM102 275 Q102 251 100 122 Q97 -59 93 -120 Q90 -123 66 -123 Q45 -123 37 -118 Q32 18 32 184 Q32 331 43 414 Q52 415 65 415 Q75 415 98 411 Q102 341 102 275 Z" /><glyph glyph-name="r" unicode="r" d="M443 392 Q443 347 436 337 Q412 340 384 340 Q249 340 135 294 Q165 35 160 13 Q150 7 135 4 Q115 0 107 2 Q86 60 71 205 Q58 329 58 413 Q76 417 88 417 Q99 417 118 415 L126 360 Q218 402 328 402 Q383 402 443 392 Z" /><glyph glyph-name="s" unicode="s" d="M439 362 Q439 352 431 336 Q423 320 415 316 Q287 357 216 357 Q127 357 127 311 Q127 286 185 260 Q273 220 294 206 Q352 166 352 106 Q352 58 310 27 Q272 0 222 0 Q131 0 65 77 Q75 99 103 115 Q168 62 220 62 Q241 62 261 74 Q285 87 285 107 Q285 148 227 177 Q194 194 123 226 Q61 255 61 312 Q61 367 116 395 Q159 418 219 418 Q263 418 334 402 Q417 384 439 362 Z" /><glyph glyph-name="t" unicode="t" d="M470 352 Q470 337 466 326 Q428 325 372 325 Q334 325 299 326 Q264 328 266 328 Q243 168 243 79 Q243 66 254 63 Q257 62 276 62 Q276 62 376 67 Q382 57 382 32 Q382 21 382 21 Q332 0 232 0 Q184 0 180 7 Q172 22 172 73 Q172 155 193 330 Q133 333 34 339 Q31 355 31 366 Q31 375 35 394 Q81 398 205 398 Q212 440 237 550 Q264 550 294 540 Q294 525 287 474 Q278 415 277 398 Q374 391 468 376 Q470 370 470 352 Z" /><glyph glyph-name="u" unicode="u" d="M472 34 Q450 16 419 16 Q412 31 406 58 Q378 32 318 16 Q265 1 221 1 Q116 1 70 61 Q30 114 29 222 Q29 283 70 417 Q96 415 122 399 Q93 270 93 227 Q93 148 117 112 Q147 68 222 68 Q319 68 389 130 L349 395 Q360 409 401 409 Q412 385 442 227 Q470 74 472 34 Z" /><glyph glyph-name="v" unicode="v" d="M474 379 Q441 175 304 47 Q255 1 237 1 Q208 1 150 93 Q110 158 85 212 Q39 313 27 404 Q44 417 78 417 Q126 267 187 161 Q233 81 245 81 Q251 81 282 117 Q381 233 416 388 Q424 390 433 390 Q442 390 474 379 Z" /><glyph glyph-name="w" unicode="w" d="M469 343 Q464 234 426 117 Q387 0 354 0 Q331 0 268 117 L210 46 Q173 2 159 2 Q131 2 88 132 Q45 261 31 402 Q59 416 85 416 Q89 407 120 271 Q147 151 173 94 Q266 207 274 207 Q282 207 309 164 Q336 121 353 95 Q386 174 416 353 Q451 353 469 343 Z" /><glyph glyph-name="y" unicode="y" d="M472 393 Q472 368 353 158 Q231 -57 179 -119 Q151 -104 136 -86 Q191 15 227 76 Q137 185 29 378 Q54 401 75 408 Q217 198 264 140 Q281 163 337 264 Q397 371 427 417 Q456 409 472 393 Z" /><glyph glyph-name="z" unicode="z" d="M442 381 Q442 374 365 252 Q281 119 255 65 Q278 57 321 57 L413 57 Q418 52 418 33 Q418 17 417 12 Q388 0 336 0 Q174 0 174 32 Q174 82 347 341 Q248 344 59 360 Q58 371 58 385 Q58 399 62 412 L124 412 Q216 412 318 404 Q442 395 442 381 Z" /><glyph glyph-name="periodcentered" unicode="·&#x2022;" d="M603 402 Q603 378 581 327 Q559 276 542 259 Q456 279 397 323 Q427 418 458 461 Q519 458 603 402 Z" /><glyph glyph-name="quotedblleft" unicode="&#x201c;" d="M924 686 Q917 635 876 594 Q861 594 828 606 Q796 618 780 628 Q777 641 777 661 Q777 757 823 842 Q853 842 867 830 Q862 801 853 729 Q902 713 924 686 ZM724 686 Q717 635 676 594 Q661 594 628 606 Q596 618 580 628 Q577 641 577 661 Q577 757 623 842 Q654 842 668 830 Q660 784 653 729 Q702 713 724 686 Z" /><glyph glyph-name="quotedblright" unicode="&#x201d;" d="M424 755 Q424 659 378 574 Q347 574 333 586 Q341 632 348 687 Q299 703 277 730 Q284 781 325 822 Q340 822 374 809 Q405 798 421 788 Q424 775 424 755 ZM225 755 Q225 659 179 574 Q148 574 134 586 Q142 632 149 687 Q99 703 77 730 Q84 780 126 822 Q141 822 173 810 Q205 798 221 788 Q225 771 225 755 Z" /><glyph glyph-name="uni300A" unicode="&#x300a;" d="M954 -72 L888 -103 L681 360 L888 823 L954 792 L761 360 L954 -72 ZM818 -72 L752 -103 L545 360 L752 823 L818 792 L625 360 L818 -72 Z" /><glyph glyph-name="uni300B" unicode="&#x300b;" d="M455 360 L248 -103 L182 -72 L375 360 L182 792 L248 823 L455 360 ZM319 360 L112 -103 L46 -72 L239 360 L46 792 L112 823 L319 360 Z" /><glyph glyph-name="uni4E00" unicode="&#x4e00;" d="M176 416 Q481 416 782 405 Q782 393 782 373 Q782 349 778 337 Q400 337 174 344 Q170 352 170 380 Q170 398 176 416 Z" /><glyph glyph-name="uni4E01" unicode="&#x4e01;" d="M154 635 Q514 635 869 616 L869 585 Q869 562 865 550 Q418 550 152 565 Q148 573 148 600 Q148 617 154 635 ZM535 481 Q569 253 584 22 Q559 11 518 11 Q474 11 432 17 Q430 29 430 40 L430 68 Q479 65 504 65 Q489 268 464 466 Q501 481 535 481 Z" /><glyph glyph-name="uni4E03" unicode="&#x4e03;" d="M116 505 Q239 499 361 491 Q368 624 382 705 Q417 705 443 700 Q442 589 440 486 Q639 473 835 456 Q841 441 841 421 Q841 407 835 391 Q634 395 438 409 Q435 250 431 103 Q450 96 680 96 L680 175 Q696 177 708 177 Q724 177 733 174 Q737 155 737 118 Q737 63 730 41 Q695 33 486 33 Q393 37 366 56 Q361 211 360 415 Q236 425 116 439 Q111 456 111 472 Q111 490 116 505 Z" /><glyph glyph-name="uni4E07" unicode="&#x4e07;" d="M369 550 Q272 555 177 563 Q177 602 185 633 Q494 633 795 607 Q795 572 789 538 Q613 538 442 546 Q420 477 397 410 Q564 395 738 358 Q740 269 740 193 Q740 75 726 3 Q668 -5 585 -5 Q580 25 580 54 Q621 58 666 60 Q668 142 668 292 Q518 316 375 345 Q327 208 271 74 Q236 76 205 102 Q281 329 369 550 Z" /><glyph glyph-name="uni4E08" unicode="&#x4e08;" d="M157 600 Q380 589 600 577 Q628 629 657 684 Q691 675 719 656 Q699 613 680 573 Q775 568 867 563 L867 532 Q867 512 861 495 Q750 497 646 501 Q561 325 480 178 Q640 128 797 72 Q790 42 775 15 Q609 56 443 110 Q407 46 372 -12 Q338 -3 317 18 Q339 66 372 133 Q294 160 217 188 Q224 225 239 251 Q324 227 406 201 Q469 328 562 505 Q348 514 152 531 L152 570 Q152 584 157 600 Z" /><glyph glyph-name="uni4E09" unicode="&#x4e09;" d="M309 389 Q507 384 703 358 Q703 329 697 301 Q499 301 303 328 Q303 359 309 389 ZM245 662 Q518 653 796 641 L796 613 Q796 590 792 576 Q520 578 241 594 Q237 606 237 629 Q237 645 245 662 ZM230 101 Q304 103 414 103 Q685 103 793 99 Q794 87 794 71 L794 42 Q752 32 412 32 Q287 32 232 40 Q228 54 228 71 Q228 89 230 101 Z" /><glyph glyph-name="uni4E0A" unicode="&#x4e0a;" d="M427 680 Q447 680 462 672 Q464 593 465 517 Q577 519 708 519 Q803 519 861 512 Q865 503 865 482 Q865 458 861 451 Q847 445 708 445 Q529 445 466 448 L466 379 Q466 241 459 114 Q592 109 722 100 L722 71 Q722 55 716 39 Q445 39 173 57 Q169 76 169 90 Q169 104 171 119 Q281 119 390 116 Q384 243 384 373 Q384 520 394 672 Q412 680 427 680 Z" /><glyph glyph-name="uni4E0B" unicode="&#x4e0b;" d="M420 579 Q274 575 127 574 Q122 606 122 640 Q437 654 834 663 Q838 650 838 631 Q838 605 836 595 Q668 586 496 581 Q504 313 504 33 Q493 27 469 27 Q450 27 436 29 Q421 301 420 579 ZM609 369 Q720 335 825 296 Q817 265 803 237 Q691 268 589 311 Q597 346 609 369 Z" /><glyph glyph-name="uni4E0D" unicode="&#x4e0d;" d="M122 690 Q501 690 874 666 L874 636 Q874 613 870 602 Q400 602 120 621 Q117 629 117 655 Q117 672 122 690 ZM450 555 Q479 539 503 517 Q430 422 352 330 Q236 176 192 147 Q160 159 139 192 Q218 292 296 384 Q401 506 450 555 ZM549 317 Q586 195 609 -3 Q587 -18 494 -18 Q478 -6 478 28 Q494 31 529 39 Q506 173 485 307 Q513 317 549 317 ZM740 281 Q819 253 893 219 Q884 191 866 162 Q776 183 714 219 Q726 256 740 281 Z" /><glyph glyph-name="uni4E0E" unicode="&#x4e0e;" d="M332 660 Q367 660 398 652 Q393 618 389 585 Q565 602 760 602 Q762 590 762 574 L762 545 Q568 522 378 521 Q367 453 354 384 Q581 376 811 359 Q808 171 752 -11 Q736 -14 697 -14 Q656 -14 588 3 L588 52 Q647 50 699 50 Q718 191 733 304 Q526 308 282 331 Q282 499 332 660 ZM150 210 Q392 210 628 176 L628 151 Q628 136 622 121 Q387 121 152 154 Q148 171 148 184 Q148 197 150 210 Z" /><glyph glyph-name="uni4E13" unicode="&#x4e13;" d="M256 615 Q368 615 478 610 Q504 674 531 734 Q566 729 592 716 Q577 660 559 607 Q667 601 774 591 Q774 562 769 533 Q649 533 535 538 Q522 501 507 466 Q501 451 495 438 Q657 449 822 454 Q826 440 826 424 L826 392 Q645 377 464 366 Q458 352 452 339 Q440 314 428 282 Q584 277 747 254 Q708 154 617 34 Q655 18 691 3 Q683 -24 666 -52 Q528 -20 433 33 Q445 68 458 92 Q507 76 553 58 Q601 125 647 194 Q511 203 394 216 Q392 212 390 209 Q358 216 328 229 Q353 296 378 361 Q276 356 175 352 Q170 384 170 415 Q287 425 405 432 Q427 488 449 542 Q348 546 249 555 Q249 589 256 615 Z" /><glyph glyph-name="uni4E16" unicode="&#x4e16;" d="M463 640 Q494 636 526 628 Q521 573 515 518 Q606 515 694 511 Q700 564 706 617 Q741 614 774 610 Q770 558 765 508 Q821 505 876 501 L876 471 Q876 448 873 437 Q814 437 758 437 Q747 325 732 207 Q573 214 414 250 Q424 352 435 442 Q357 444 288 447 Q275 292 262 137 Q451 117 652 102 Q652 71 641 39 Q402 45 185 88 Q196 269 214 451 Q164 453 120 456 Q117 464 117 490 Q117 507 122 525 Q173 525 222 524 Q228 588 235 650 Q274 646 304 639 Q299 580 294 523 Q371 522 445 520 Q454 584 463 640 ZM687 438 Q591 439 507 440 Q499 369 491 296 Q576 285 673 275 Q679 355 687 438 Z" /><glyph glyph-name="uni4E18" unicode="&#x4e18;" d="M754 696 Q760 680 760 666 Q762 656 762 632 Q501 592 243 572 Q235 590 235 608 L235 638 Q496 674 754 696 ZM395 440 Q580 440 827 422 Q827 392 821 358 Q605 358 393 378 L393 412 Q393 426 395 440 ZM832 96 Q837 80 837 67 Q839 57 839 33 Q511 16 186 7 Q178 25 178 42 L178 71 Q228 73 276 75 Q253 270 245 466 Q274 472 309 476 Q335 276 344 78 Q500 85 654 90 Q655 224 665 295 Q680 297 700 297 Q717 297 733 291 Q733 201 724 92 Q778 94 832 96 Z" /><glyph glyph-name="uni4E1A" unicode="&#x4e1a;" d="M796 482 Q834 473 856 447 Q810 340 727 227 Q692 234 674 258 Q716 366 796 482 ZM235 471 Q297 358 323 267 Q305 252 267 237 Q216 315 176 441 Q202 461 235 471 ZM144 136 Q272 136 398 132 Q367 399 353 667 Q386 673 421 675 Q454 402 469 129 Q505 128 540 126 Q553 429 585 696 Q602 697 622 697 Q645 696 653 692 Q643 407 612 122 Q743 115 870 103 L870 73 Q870 57 864 40 Q506 40 146 73 Q142 92 142 107 Q142 121 144 136 Z" /><glyph glyph-name="uni4E1C" unicode="&#x4e1c;" d="M212 606 Q318 606 421 603 Q455 662 492 723 Q518 714 547 697 Q521 646 497 601 Q680 595 859 582 L859 555 Q859 534 856 524 Q631 524 459 530 Q410 438 365 357 Q454 353 541 347 Q539 401 538 450 Q569 454 600 454 Q606 408 611 343 Q711 338 809 331 Q809 303 803 277 Q699 278 615 280 Q623 163 631 -4 Q617 -13 591 -13 Q540 -13 508 -9 Q501 14 501 44 Q529 44 557 46 Q549 173 544 283 Q336 291 266 312 Q303 392 372 518 Q377 526 381 533 Q287 538 211 544 Q207 551 207 575 Q207 590 212 606 ZM277 184 Q315 175 338 149 Q308 92 254 32 Q219 40 200 64 Q226 122 277 184 ZM773 209 Q833 178 901 127 Q891 102 869 72 Q799 101 737 153 Q756 185 773 209 Z" /><glyph glyph-name="uni4E1D" unicode="&#x4e1d;" d="M275 708 Q308 700 333 689 Q294 583 246 473 Q292 471 342 468 Q372 519 405 573 Q432 564 461 546 Q387 404 322 287 Q384 284 448 280 Q448 251 442 224 Q264 225 220 240 Q250 305 307 407 Q308 408 308 408 Q231 411 163 420 Q212 567 275 708 ZM620 716 Q653 708 678 696 Q638 591 591 481 Q637 479 690 475 Q720 527 754 581 Q782 572 811 554 Q734 411 666 295 Q729 292 792 288 Q792 259 787 232 Q609 233 565 248 Q596 312 654 415 Q655 416 655 416 Q577 418 507 428 Q557 575 620 716 ZM173 138 Q500 138 818 113 Q818 80 813 49 Q482 49 166 73 Q166 109 173 138 Z" /><glyph glyph-name="uni4E2B" unicode="&#x4e2b;" d="M499 481 Q598 587 745 718 Q777 703 805 681 Q696 551 536 424 Q540 340 540 269 Q540 124 531 13 Q523 9 496 9 Q475 9 466 13 Q457 127 457 262 Q457 365 463 476 Q480 481 499 481 ZM222 703 Q337 604 430 480 Q411 460 382 440 Q267 522 172 663 Q196 687 222 703 Z" /><glyph glyph-name="uni4E2D" unicode="&#x4e2d;" d="M572 612 Q743 612 834 608 Q851 586 853 389 Q853 243 847 208 Q750 179 541 176 Q541 103 541 7 Q532 1 507 1 Q481 1 471 5 Q464 77 461 175 Q210 176 137 202 Q131 276 131 405 Q131 476 140 598 L208 598 Q203 414 203 260 Q285 245 459 245 Q458 303 458 369 Q458 439 459 540 Q371 536 307 536 L307 601 Q385 607 460 610 Q461 664 462 725 Q482 729 501 729 Q520 729 538 725 Q538 662 538 611 Q556 612 572 612 ZM538 543 Q539 410 539 367 Q540 335 540 246 Q741 251 781 263 L781 400 Q781 433 771 540 Q715 542 550 544 Q544 544 538 543 Z" /><glyph glyph-name="uni4E30" unicode="&#x4e30;" d="M814 238 Q818 223 818 206 L818 173 Q669 167 521 162 Q520 77 519 2 Q511 -2 484 -2 Q464 -2 456 2 Q451 79 448 159 Q319 155 191 153 Q186 187 186 220 Q316 225 445 229 Q443 283 442 338 L429 338 Q304 338 249 346 Q246 360 246 377 Q246 395 247 406 Q322 408 431 408 L442 408 Q441 449 441 488 Q441 505 441 521 Q317 526 196 536 Q196 569 202 596 Q325 596 443 591 Q444 644 447 697 Q463 701 482 701 Q502 701 517 697 Q520 640 521 588 Q657 582 790 571 Q790 541 785 513 Q652 513 523 518 Q523 506 523 494 L523 408 Q670 406 737 400 Q739 389 739 373 L739 344 Q710 339 523 338 Q522 283 522 232 Q667 235 814 238 Z" /><glyph glyph-name="uni4E32" unicode="&#x4e32;" d="M374 652 Q414 652 450 651 Q448 693 446 733 Q477 738 510 740 Q514 694 518 649 Q675 644 770 625 Q776 581 776 522 Q776 461 768 436 Q707 422 537 419 Q540 379 542 340 Q670 334 799 325 Q811 299 811 222 Q811 162 807 111 Q793 95 556 92 Q559 39 561 -13 Q536 -22 497 -22 Q492 36 487 91 Q426 90 355 90 Q251 90 192 102 Q176 199 176 329 L235 329 Q245 234 245 164 Q313 157 423 157 Q454 157 482 157 Q477 219 473 279 Q402 283 334 287 Q334 320 336 348 Q402 346 468 344 Q465 382 463 419 Q461 419 460 419 Q275 419 231 442 Q225 487 225 522 Q225 568 226 632 Q242 636 257 636 Q277 636 287 634 Q297 538 297 493 Q354 486 458 486 Q459 486 459 486 Q456 539 453 591 Q415 593 374 595 Q373 608 373 625 Q373 639 374 652 ZM524 587 Q528 536 532 486 Q658 487 710 490 Q711 533 711 574 Q681 577 524 587 ZM546 275 Q550 216 553 158 Q678 159 745 161 Q745 210 739 266 Q641 270 546 275 Z" /><glyph glyph-name="uni4E34" unicode="&#x4e34;" d="M142 499 Q159 499 174 493 Q174 386 166 252 Q154 248 131 248 Q109 248 99 255 Q99 415 108 497 Q123 499 142 499 ZM276 608 Q299 608 310 604 Q326 369 326 90 Q313 86 290 86 Q262 86 253 88 Q239 365 239 602 Q246 606 276 608 ZM541 703 Q579 700 605 682 Q593 654 567 595 Q713 582 851 561 Q851 536 843 503 Q697 503 541 534 Q514 469 479 386 Q445 392 418 407 Q453 533 541 703 ZM616 458 Q685 448 754 431 Q751 401 739 373 Q692 373 601 398 Q606 432 616 458 ZM606 275 Q562 279 522 283 L522 312 Q522 325 526 336 Q667 336 839 321 Q849 279 849 116 Q849 53 839 34 Q788 21 588 21 Q485 21 439 35 Q429 69 429 107 Q429 201 433 304 Q445 308 460 308 Q478 308 490 304 Q498 229 498 88 Q623 87 777 87 Q779 177 779 262 Q723 265 671 269 Q670 201 658 118 Q648 115 627 115 Q606 115 597 122 Q597 218 606 275 Z" /><glyph glyph-name="uni4E38" unicode="&#x4e38;" d="M175 624 Q292 604 413 581 Q433 634 455 688 Q494 684 521 666 Q508 629 487 567 Q635 538 789 505 Q756 302 722 117 Q782 106 845 93 Q841 61 829 33 Q743 41 641 70 Q678 344 700 446 Q620 458 461 489 Q429 392 384 258 Q429 245 473 231 Q471 201 458 174 Q417 174 360 187 Q337 117 312 41 Q277 47 250 63 Q265 133 286 207 Q239 221 186 241 Q191 275 201 301 Q254 291 307 278 Q340 387 384 504 Q258 529 160 556 Q163 592 175 624 Z" /><glyph glyph-name="uni4E39" unicode="&#x4e39;" d="M526 686 Q645 686 731 687 Q756 489 766 287 Q816 289 865 290 Q869 279 869 261 Q869 238 867 228 Q817 225 769 223 Q774 110 774 -2 Q713 -15 649 -15 Q640 2 638 37 Q669 42 705 46 Q702 133 697 219 Q511 211 323 207 Q318 102 312 -1 Q305 -5 279 -5 Q259 -5 246 1 Q248 106 251 205 Q193 204 136 203 Q132 233 132 264 Q192 267 253 270 Q260 451 271 618 Q288 620 306 620 Q328 618 336 614 Q333 443 326 273 Q501 280 694 285 Q684 455 668 624 Q618 616 523 616 Q463 612 384 611 Q377 640 377 675 Q437 682 526 686 ZM458 511 Q525 480 586 426 Q573 396 549 377 Q481 413 426 462 Q441 489 458 511 Z" /><glyph glyph-name="uni4E3A" unicode="&#x4e3a;" d="M141 536 Q268 531 394 523 Q428 619 468 721 Q507 717 535 699 Q515 638 476 517 Q644 504 810 485 Q830 327 830 10 Q818 4 755 4 Q699 4 667 13 Q665 25 665 42 Q665 58 667 69 Q717 69 763 68 Q759 260 746 419 Q601 428 452 442 Q396 267 311 -3 Q276 3 249 19 Q289 212 369 450 Q255 461 137 474 Q135 495 135 509 Q135 519 141 536 ZM543 335 Q595 278 636 208 Q615 189 585 175 Q530 234 493 302 Q514 319 543 335 ZM257 730 Q326 702 385 651 Q377 625 358 598 Q303 619 234 671 Q242 702 257 730 Z" /><glyph glyph-name="uni4E3B" unicode="&#x4e3b;" d="M503 506 Q524 506 540 498 Q542 399 543 303 Q645 300 755 294 Q755 264 749 229 Q644 229 544 232 L544 190 Q544 117 538 50 Q636 53 738 53 Q740 41 740 24 L740 -6 Q500 -30 265 -30 Q259 1 259 34 Q358 42 463 47 Q458 115 458 184 L458 234 Q330 238 204 246 L204 281 Q204 296 206 310 Q324 310 460 306 Q463 402 469 498 Q487 506 503 506 ZM184 641 Q319 641 453 637 Q422 679 398 725 Q421 744 454 761 Q505 702 545 634 Q693 629 839 619 L839 589 Q839 566 836 555 Q426 555 182 572 Q178 580 178 607 Q178 624 184 641 Z" /><glyph glyph-name="uni4E3D" unicode="&#x4e3d;" d="M114 704 Q495 694 877 678 Q883 661 883 641 Q883 626 877 609 Q489 613 114 634 Q109 653 109 669 Q109 688 114 704 ZM534 469 Q570 467 599 463 Q592 231 578 3 Q544 7 513 11 Q521 248 534 469 ZM634 523 Q730 523 838 515 Q838 188 825 -21 Q714 -21 694 -8 Q694 14 696 33 Q733 33 762 31 Q764 256 766 458 Q697 460 632 466 Q630 479 630 494 Q630 513 634 523 ZM669 317 Q699 281 722 237 Q700 217 670 203 Q638 240 617 283 Q639 301 669 317 ZM154 469 Q189 467 218 463 Q211 231 197 3 Q164 7 132 11 Q141 248 154 469 ZM253 523 Q349 523 458 515 Q458 188 445 -21 Q333 -21 313 -8 Q313 14 315 33 Q352 33 382 31 Q383 256 385 458 Q316 460 251 466 Q249 479 249 494 Q249 513 253 523 ZM288 317 Q318 281 341 237 Q319 217 289 203 Q257 240 236 283 Q258 301 288 317 Z" /><glyph glyph-name="uni4E43" unicode="&#x4e43;" d="M322 475 Q362 471 390 453 Q356 366 238 54 Q202 60 174 76 Q216 245 322 475 ZM209 666 Q489 660 782 634 Q782 583 760 477 Q750 411 725 332 Q781 322 835 309 L835 178 Q833 84 818 38 Q808 33 760 33 Q712 33 679 42 Q675 55 675 68 Q677 84 681 95 L759 95 Q764 172 764 248 Q684 269 603 289 Q603 320 614 348 Q636 346 657 343 Q678 465 700 565 Q503 578 205 602 Q203 615 203 633 Q203 650 209 666 Z" /><glyph glyph-name="uni4E45" unicode="&#x4e45;" d="M619 766 Q649 747 671 719 Q572 631 466 543 Q646 496 785 438 Q712 292 634 169 Q731 119 827 61 Q815 35 792 8 Q682 54 594 109 Q548 40 501 -21 Q469 -6 451 14 Q560 202 685 404 Q543 445 398 488 Q280 393 153 298 Q121 320 106 354 Q347 556 619 766 Z" /><glyph glyph-name="uni4E49" unicode="&#x4e49;" d="M256 558 Q377 452 499 340 Q609 478 739 633 Q769 616 795 594 Q680 440 559 285 Q685 170 812 49 Q802 29 771 3 Q636 106 508 221 Q417 106 324 -8 Q293 7 269 33 Q349 146 448 275 Q325 389 206 515 Q233 542 256 558 ZM450 699 Q511 640 561 566 Q542 546 512 526 Q451 574 400 659 Q424 683 450 699 Z" /><glyph glyph-name="uni4E4B" unicode="&#x4e4b;" d="M379 735 Q491 699 597 657 Q588 622 573 590 Q459 622 357 668 Q366 708 379 735 ZM210 499 Q482 497 753 464 Q722 296 667 134 Q636 138 603 153 Q632 276 662 400 Q435 419 207 437 Q207 466 210 499 ZM345 168 Q533 100 717 31 Q708 0 694 -25 Q525 22 376 78 Q345 28 310 -16 Q273 -1 254 21 Q294 94 345 168 Z" /><glyph glyph-name="uni4E50" unicode="&#x4e50;" d="M767 726 Q773 710 773 697 Q775 687 775 663 Q466 620 162 599 Q154 616 154 634 L154 663 Q462 702 767 726 ZM203 568 L239 564 Q239 493 227 407 Q280 393 433 390 Q423 483 413 574 Q451 584 483 584 Q499 486 510 389 Q739 389 820 403 Q828 370 828 337 Q756 312 520 309 Q538 147 546 -19 Q480 -42 372 -42 Q361 -22 359 15 Q417 26 472 30 Q457 170 442 309 Q227 312 147 335 Q147 446 164 566 Q176 568 203 568 ZM235 204 Q272 197 304 180 Q281 102 248 7 Q209 9 180 28 Q201 123 235 204 ZM751 217 Q773 179 790 142 Q809 105 822 73 Q793 51 756 44 Q710 115 683 190 Q719 207 751 217 Z" /><glyph glyph-name="uni4E56" unicode="&#x4e56;" d="M769 728 Q773 694 773 664 Q660 650 549 641 Q550 569 550 513 Q703 509 852 502 Q852 470 847 440 Q696 440 550 443 L550 338 Q552 278 552 -8 Q543 -14 521 -14 Q496 -14 487 -10 Q475 119 475 340 Q475 385 476 445 Q310 448 148 456 Q148 491 155 519 Q318 519 476 515 Q477 571 478 635 Q357 625 237 619 Q229 647 229 683 Q506 710 769 728 ZM148 313 Q224 310 302 298 Q306 349 310 397 Q327 399 346 399 Q369 397 377 393 Q373 220 358 46 Q350 42 324 42 Q303 42 290 48 Q291 64 291 79 Q226 64 154 57 Q148 83 144 119 Q215 135 294 147 Q296 191 298 231 Q217 234 146 251 Q146 283 148 313 ZM719 230 Q712 175 705 120 Q772 107 844 97 Q844 69 834 41 Q726 44 627 76 Q642 233 671 393 Q709 389 739 382 Q734 336 727 291 Q796 286 868 273 Q868 248 862 217 Q786 217 719 230 Z" /><glyph glyph-name="uni4E5D" unicode="&#x4e5d;" d="M143 557 Q265 549 384 538 Q422 624 461 707 Q500 701 524 682 Q496 605 466 530 Q627 515 784 496 Q778 313 753 125 Q806 117 859 111 Q859 80 849 49 Q746 57 676 74 Q688 252 708 430 Q572 442 437 457 Q351 243 247 34 Q212 36 181 62 Q262 266 351 466 Q243 478 137 492 Q137 523 143 557 Z" /><glyph glyph-name="uni4E5F" unicode="&#x4e5f;" d="M550 699 Q569 699 583 696 Q588 599 588 518 Q699 525 808 529 Q820 438 824 309 Q796 301 761 301 Q753 385 742 460 Q665 453 588 447 Q587 344 583 262 Q575 258 551 258 Q531 258 524 262 Q515 346 513 442 Q419 436 326 433 Q333 242 333 115 Q357 113 378 113 Q499 117 629 121 Q631 101 631 90 Q631 75 627 60 Q543 48 345 48 Q293 48 267 58 Q258 131 251 431 Q194 429 138 429 Q134 460 134 486 Q193 491 251 496 Q252 634 257 644 Q277 648 287 648 Q306 648 318 644 Q321 569 324 501 Q419 508 512 514 Q512 603 518 696 Q533 699 550 699 Z" /><glyph glyph-name="uni4E60" unicode="&#x4e60;" d="M388 479 Q474 467 575 405 Q569 380 556 358 Q452 367 372 430 Q378 457 388 479 ZM585 290 Q607 271 620 242 Q554 202 484 167 Q445 148 413 130 Q377 110 340 95 Q317 118 306 144 Q335 165 372 187 Q406 207 440 225 Q474 242 510 260 Q546 275 585 290 ZM202 631 Q496 621 794 593 Q814 416 814 64 Q802 58 740 58 Q682 58 650 69 Q648 81 648 99 Q648 114 650 126 Q698 125 742 122 Q738 343 724 527 Q472 541 198 569 Q196 590 196 604 Q196 613 202 631 Z" /><glyph glyph-name="uni4E61" unicode="&#x4e61;" d="M485 704 Q515 684 535 660 Q498 603 383 479 Q423 459 466 432 Q430 374 385 325 Q430 303 476 278 Q468 244 452 220 Q323 262 293 293 Q324 339 372 394 Q299 437 275 464 Q399 622 485 704 ZM701 387 Q729 375 749 358 Q642 252 529 155 Q379 23 300 -29 Q274 -15 260 12 Q464 211 701 387 Z" /><glyph glyph-name="uni4E66" unicode="&#x4e66;" d="M482 720 Q499 720 512 716 Q515 629 517 539 Q618 533 720 524 Q720 423 711 344 Q750 343 788 340 Q806 261 806 103 Q795 97 736 97 L671 97 Q669 109 669 125 Q669 140 671 151 Q708 153 743 158 Q740 223 727 277 Q625 281 521 288 Q523 130 523 -37 Q512 -41 493 -41 Q476 -41 460 -39 Q447 88 445 292 Q328 299 208 308 Q207 328 207 341 Q207 350 212 367 Q328 364 445 359 L445 473 Q351 479 259 485 Q257 498 257 518 Q257 533 261 549 Q354 547 446 543 Q448 665 452 716 Q465 720 482 720 ZM520 355 Q586 352 650 348 Q652 403 652 457 Q585 462 518 467 Q519 411 520 355 ZM700 654 Q769 627 835 593 Q825 561 805 529 Q725 549 670 585 Q684 626 700 654 Z" /><glyph glyph-name="uni4E70" unicode="&#x4e70;" d="M774 274 Q776 262 776 245 L776 214 Q617 199 462 192 Q422 97 372 -23 Q339 -18 313 -3 Q338 88 378 189 Q298 187 220 187 Q213 218 213 250 Q310 259 409 264 Q457 375 520 498 Q557 495 583 478 Q557 417 494 268 Q631 274 774 274 ZM643 122 Q714 90 778 37 Q765 8 742 -11 Q670 24 612 73 Q626 101 643 122 ZM177 671 Q471 671 806 651 Q806 579 781 460 Q750 462 720 474 Q730 536 734 583 Q444 589 175 613 Q175 648 177 671 ZM340 565 Q390 549 445 525 Q441 498 427 469 Q369 480 322 507 Q328 540 340 565 ZM226 461 Q298 434 361 386 Q353 361 334 333 Q275 353 203 403 Q211 434 226 461 Z" /><glyph glyph-name="uni4E73" unicode="&#x4e73;" d="M478 710 Q485 682 485 650 Q311 603 134 591 Q121 613 121 652 Q292 688 478 710 ZM496 567 Q530 560 552 543 Q538 495 510 444 Q477 453 453 470 Q469 520 496 567 ZM332 566 Q365 559 386 543 Q375 498 353 451 Q321 460 297 476 Q310 523 332 566 ZM194 548 Q218 515 227 449 Q201 435 175 432 Q148 473 143 534 Q165 544 194 548 ZM185 394 Q284 394 453 363 Q453 340 399 224 Q405 212 410 201 Q489 200 527 197 Q529 186 529 170 L529 141 Q514 135 433 132 Q449 69 449 -1 Q421 -13 382 -13 Q328 -13 308 -3 Q308 21 310 36 Q337 40 369 40 Q363 86 353 131 L325 131 Q200 131 145 139 Q141 152 141 170 Q141 188 143 199 Q217 201 327 201 L334 201 Q329 219 323 235 Q336 270 349 303 Q266 318 185 331 L185 394 ZM678 567 Q704 566 733 558 Q716 367 695 174 Q757 161 814 158 Q814 178 815 201 Q830 203 841 203 Q860 201 867 197 Q867 177 865 156 Q865 129 858 102 Q735 102 622 131 Q622 186 678 567 Z" /><glyph glyph-name="uni4E7E" unicode="&#x4e7e;" d="M150 694 Q236 691 320 684 Q330 719 340 754 Q372 750 401 738 Q396 706 391 677 Q473 668 554 655 Q554 626 548 598 Q462 598 377 604 Q368 561 359 521 Q454 516 534 508 Q534 285 514 179 Q483 170 378 168 Q379 137 380 106 Q450 106 478 102 Q480 91 480 75 L480 47 Q469 37 382 37 Q383 4 383 -28 Q372 -34 349 -34 Q330 -34 317 -32 Q313 4 311 38 Q240 39 202 45 Q199 58 199 75 Q199 92 201 104 Q247 105 307 106 Q305 137 305 167 L288 167 Q187 167 117 188 Q100 315 95 489 Q126 493 158 493 Q164 444 167 394 Q229 395 310 395 Q338 395 349 391 Q351 380 351 365 L351 338 Q346 328 308 328 Q222 328 172 332 Q175 288 177 243 Q329 236 456 236 Q456 317 463 449 Q335 454 230 470 Q230 500 232 527 Q260 526 286 525 Q292 568 302 611 Q223 619 144 633 Q144 665 150 694 ZM688 572 Q721 565 748 550 Q735 516 721 481 Q798 468 875 448 Q873 419 860 391 Q801 391 696 420 Q681 383 664 345 Q630 347 604 364 Q636 476 688 572 ZM603 266 Q724 264 859 255 Q846 176 822 52 Q848 46 888 41 Q886 9 877 -19 Q780 -11 738 0 Q755 95 776 194 Q685 199 597 209 Q597 238 603 266 Z" /><glyph glyph-name="uni4E86" unicode="&#x4e86;" d="M189 689 Q449 683 761 663 Q722 505 617 329 Q652 142 660 -13 Q625 -24 582 -24 Q537 -24 494 -18 L494 36 Q535 40 583 40 Q554 190 537 333 Q593 462 662 591 Q431 601 187 614 Q183 626 183 652 Q183 685 189 689 Z" /><glyph glyph-name="uni4E88" unicode="&#x4e88;" d="M185 714 Q598 710 729 691 Q723 604 659 472 Q689 462 717 453 Q710 423 695 395 Q560 427 423 475 Q430 512 445 538 Q522 516 597 492 Q620 561 643 628 Q364 642 183 655 Q181 671 181 687 Q183 700 185 714 ZM821 355 Q823 320 823 297 Q823 246 819 207 Q809 203 784 203 Q760 203 751 209 Q752 249 752 291 Q481 279 211 268 Q207 289 207 300 Q207 315 209 328 Q514 355 821 355 ZM514 234 Q547 65 547 -28 Q512 -34 479 -34 Q424 -34 407 -24 Q403 -18 403 -3 Q403 13 405 23 Q440 21 475 21 Q469 125 456 226 Q483 232 514 234 Z" /><glyph glyph-name="uni4E8B" unicode="&#x4e8b;" d="M852 713 Q855 699 855 683 L855 651 Q685 644 515 639 Q517 614 519 589 Q636 583 755 574 Q766 561 766 524 Q766 466 762 417 Q750 400 531 396 Q533 370 534 345 Q631 338 740 328 Q747 293 749 234 Q783 234 816 235 Q820 224 820 207 Q820 185 818 176 Q782 175 749 174 Q747 95 736 68 Q713 51 637 51 Q589 51 546 52 Q548 14 549 -23 Q490 -43 427 -43 Q420 -23 417 2 Q448 9 481 14 Q480 35 479 55 Q378 61 309 74 Q306 86 306 99 Q306 118 310 124 Q394 120 476 117 Q475 144 473 168 Q325 166 175 165 Q171 193 171 223 Q312 226 469 229 Q468 258 466 285 Q350 292 223 304 Q223 337 228 358 Q329 358 462 350 Q461 373 460 395 L400 395 Q301 395 245 406 Q226 476 226 570 L283 570 Q296 509 296 466 Q358 458 456 458 Q454 495 452 531 Q400 534 349 538 Q349 569 351 596 Q400 595 449 592 Q447 615 446 637 Q302 633 159 630 Q154 662 154 694 Q298 699 442 703 Q440 735 438 765 Q467 773 504 776 Q507 740 510 705 Q679 710 852 713 ZM523 527 Q525 492 527 458 Q645 459 702 464 Q702 489 696 518 Q609 522 523 527 ZM537 281 Q538 255 539 230 Q604 231 670 232 Q670 254 669 275 Q605 277 537 281 ZM670 172 Q605 170 542 169 Q543 141 544 115 Q609 113 671 112 Q671 142 670 172 Z" /><glyph glyph-name="uni4E8C" unicode="&#x4e8c;" d="M200 174 Q508 174 811 152 L811 121 Q811 98 807 86 Q425 86 198 104 Q194 112 194 139 Q194 156 200 174 ZM262 624 Q512 615 767 603 L767 570 Q767 545 762 528 Q513 530 257 546 Q253 561 253 586 Q253 605 262 624 Z" /><glyph glyph-name="uni4E91" unicode="&#x4e91;" d="M262 656 Q526 651 776 641 Q776 613 767 576 Q520 576 255 589 Q255 626 262 656 ZM302 330 Q226 329 150 328 Q146 359 146 392 Q447 405 825 414 Q829 401 829 383 Q829 358 827 348 Q609 337 387 332 Q358 215 329 124 Q487 102 638 76 Q636 50 627 15 Q441 29 236 75 Q257 183 302 330 ZM776 174 Q805 136 817 62 Q784 43 750 40 Q717 87 711 155 Q739 168 776 174 Z" /><glyph glyph-name="uni4E94" unicode="&#x4e94;" d="M459 555 Q497 553 528 549 Q523 472 515 395 Q647 384 782 367 Q782 328 770 247 Q763 186 745 109 Q729 109 684 120 Q693 222 702 304 Q614 311 508 323 Q495 212 479 102 Q443 107 409 111 Q419 223 431 331 Q343 341 246 352 Q244 364 244 381 Q244 396 249 411 Q343 408 439 401 Q449 479 459 555 ZM163 683 Q448 683 826 661 Q826 632 820 600 Q487 600 161 624 L161 656 Q161 670 163 683 ZM809 78 Q811 66 811 51 L811 23 Q524 5 243 5 Q238 34 238 64 Q506 78 809 78 Z" /><glyph glyph-name="uni4E95" unicode="&#x4e95;" d="M820 220 Q824 186 824 156 Q764 152 706 150 Q700 76 694 5 Q661 9 631 13 Q634 81 638 146 Q506 139 374 134 Q375 71 375 10 Q364 7 347 7 Q331 7 317 8 Q309 62 304 131 Q243 129 183 127 Q175 155 175 191 Q238 194 300 198 Q296 283 296 386 Q296 448 297 498 Q220 504 148 511 L148 547 Q148 560 151 575 Q225 571 298 567 Q300 671 305 717 Q318 720 333 720 Q349 720 362 717 Q365 641 367 563 Q517 555 664 546 Q671 628 677 707 Q711 705 740 701 Q736 621 732 542 Q795 539 856 535 L856 506 Q856 487 850 472 Q788 473 729 475 Q721 344 711 216 Q766 218 820 220 ZM659 478 Q509 484 369 493 Q373 351 374 202 Q510 208 642 213 Q650 348 659 478 Z" /><glyph glyph-name="uni4E9A" unicode="&#x4e9a;" d="M249 691 Q474 691 772 672 Q772 644 766 612 Q504 612 247 634 L247 665 Q247 678 249 691 ZM707 99 Q792 99 844 93 Q847 85 847 66 Q847 45 844 38 Q831 33 707 33 Q241 33 198 38 Q195 49 195 67 Q195 83 200 96 Q428 99 707 99 ZM587 582 Q604 582 617 578 Q626 376 626 142 Q615 139 596 139 Q579 139 565 140 Q552 226 552 374 Q552 529 558 578 Q571 582 587 582 ZM414 582 Q431 582 446 579 Q446 435 442 305 L442 140 Q432 139 413 139 Q396 139 384 142 Q374 219 374 298 Q374 436 384 581 Q398 582 414 582 ZM737 373 Q765 366 793 354 Q780 269 741 218 Q719 218 686 233 Q698 306 737 373 ZM259 368 Q297 301 313 249 Q297 235 263 221 Q231 267 206 340 Q229 359 259 368 Z" /><glyph glyph-name="uni4E9B" unicode="&#x4e9b;" d="M413 543 Q415 466 416 389 L486 389 Q490 376 490 363 Q490 347 488 336 Q465 324 376 324 Q220 324 163 332 Q154 364 152 492 Q154 547 160 608 Q177 611 194 611 Q209 611 228 608 Q230 493 230 389 L348 389 Q332 558 332 731 Q349 733 369 735 Q390 735 403 733 Q408 668 410 603 Q469 604 545 604 Q555 604 559 601 Q561 591 561 576 L561 549 Q559 539 543 539 Q460 539 413 543 ZM747 570 Q821 570 862 568 Q866 556 866 540 Q866 525 864 512 Q827 507 743 507 Q721 507 705 508 Q707 456 709 405 Q729 407 756 407 L800 407 Q802 395 802 380 L802 351 Q796 344 728 344 Q668 344 645 348 Q635 357 635 644 Q649 648 665 648 Q682 648 698 646 Q700 607 702 569 Q721 570 747 570 ZM539 234 Q630 234 685 227 Q688 219 688 198 Q688 176 685 169 Q671 164 539 164 Q371 164 355 169 Q352 181 352 200 Q352 217 357 231 Q439 234 539 234 ZM737 72 Q741 61 741 43 Q741 20 739 10 Q525 -3 301 -6 Q297 24 297 55 Q492 66 737 72 Z" /><glyph glyph-name="uni4EA4" unicode="&#x4ea4;" d="M525 733 Q542 733 558 727 Q558 677 551 620 Q699 613 846 606 L846 579 Q846 558 842 545 Q502 548 154 573 Q150 585 150 606 Q150 621 157 636 Q319 630 480 623 Q481 693 490 731 Q505 733 525 733 ZM651 495 Q744 444 837 382 Q826 358 803 333 Q700 379 619 437 Q634 469 651 495 ZM288 509 Q317 498 341 481 Q284 378 204 264 Q173 275 149 297 Q222 419 288 509 ZM652 294 Q677 279 695 255 Q646 185 569 104 Q639 48 708 -10 Q698 -38 668 -60 Q587 -7 515 49 Q456 -9 385 -71 Q356 -56 344 -28 Q399 39 454 98 Q384 156 321 219 Q339 249 359 267 Q434 212 507 154 Q579 229 652 294 Z" /><glyph glyph-name="uni4EA6" unicode="&#x4ea6;" d="M180 600 Q324 600 465 595 Q467 679 476 725 Q493 727 514 727 Q534 727 551 721 Q551 661 544 592 Q693 586 838 575 Q838 542 832 510 Q740 510 652 512 Q675 277 689 51 Q657 45 624 45 Q592 278 581 514 Q511 516 443 519 Q431 283 396 44 Q389 40 363 40 Q343 40 330 46 Q342 299 375 522 Q272 527 173 534 Q173 571 180 600 ZM255 380 Q283 359 306 331 Q286 303 250 264 Q233 245 212 222 Q190 195 167 176 Q140 195 123 223 Q187 307 255 380 ZM790 373 Q845 306 888 225 Q867 205 837 192 Q779 261 740 340 Q761 358 790 373 Z" /><glyph glyph-name="uni4EA7" unicode="&#x4ea7;" d="M309 665 Q418 662 524 658 Q526 708 535 737 Q551 739 571 739 Q589 739 605 733 Q605 696 599 655 Q703 650 804 645 Q804 618 794 581 Q557 581 302 598 Q302 635 309 665 ZM306 344 Q343 342 372 335 Q352 176 298 -24 Q259 -21 230 -9 Q252 171 306 344 ZM269 442 Q346 442 431 440 Q389 484 361 532 Q384 552 416 569 Q465 519 503 460 Q491 448 476 439 Q531 437 587 435 Q605 504 657 567 Q685 560 713 547 Q698 478 659 432 Q746 429 837 424 Q837 393 831 357 Q546 357 267 377 L267 413 Q267 428 269 442 Z" /><glyph glyph-name="uni4EA8" unicode="&#x4ea8;" d="M504 763 Q522 763 537 757 Q537 718 533 672 Q675 666 817 658 L817 632 Q817 611 813 598 Q502 602 182 627 Q178 638 178 659 Q178 673 185 688 Q323 683 462 676 Q463 731 469 761 Q485 763 504 763 ZM374 566 Q540 566 742 551 Q751 526 751 427 Q751 363 742 344 Q676 335 420 335 Q315 335 268 349 Q258 383 258 421 Q258 473 261 530 Q273 533 289 533 Q306 533 318 530 Q327 486 327 403 Q485 398 679 398 Q681 446 681 490 Q515 498 371 512 L371 541 Q371 555 374 566 ZM300 303 Q424 303 636 291 Q636 270 571 163 Q631 76 631 -34 Q604 -47 565 -47 Q492 -47 466 -31 Q466 -5 468 13 Q507 12 551 12 Q537 93 495 175 Q514 205 533 233 Q415 238 300 242 L300 303 Z" /><glyph glyph-name="uni4EAB" unicode="&#x4eab;" d="M761 154 Q763 143 763 128 L763 100 Q686 92 610 87 Q631 29 631 -34 Q604 -47 565 -47 Q492 -47 466 -31 Q466 -5 468 13 Q507 12 551 12 Q545 47 534 81 Q396 73 262 73 Q256 101 256 131 Q378 143 507 148 Q502 162 495 175 Q514 205 533 233 Q415 238 300 242 L300 303 Q424 303 636 291 Q636 270 571 163 Q576 156 579 151 Q669 154 761 154 ZM504 763 Q522 763 537 757 Q537 717 533 672 Q675 666 817 658 L817 632 Q817 611 813 598 Q502 602 182 627 Q178 638 178 659 Q178 673 185 688 Q323 683 462 676 Q464 731 469 761 Q485 763 504 763 ZM374 566 Q540 566 742 551 Q751 526 751 427 Q751 363 742 344 Q676 335 420 335 Q315 335 268 349 Q258 383 258 421 Q258 473 261 530 Q273 533 289 533 Q306 533 318 530 Q327 486 327 403 Q485 398 679 398 Q681 446 681 490 Q515 498 371 512 L371 541 Q371 555 374 566 Z" /><glyph glyph-name="uni4EAC" unicode="&#x4eac;" d="M482 755 Q501 755 518 749 Q518 707 512 658 Q668 652 824 646 L824 616 Q824 592 819 577 Q490 580 152 599 Q147 612 147 636 Q147 653 156 670 Q294 666 434 661 Q436 720 445 753 Q461 755 482 755 ZM399 526 Q555 524 705 509 Q714 477 714 361 Q714 284 710 247 Q636 240 460 240 Q362 240 276 255 Q262 288 262 368 Q262 410 266 521 Q280 525 301 525 Q317 525 333 521 Q333 478 338 312 Q491 302 643 302 Q647 322 647 361 Q647 400 645 448 Q451 457 402 463 Q397 472 397 496 Q397 511 399 526 ZM692 162 Q766 129 834 71 Q821 41 797 21 Q721 60 660 113 Q675 141 692 162 ZM273 163 Q306 156 334 141 Q305 78 263 2 Q228 4 202 22 Q229 98 273 163 ZM536 209 Q563 30 563 -48 Q536 -57 501 -57 Q457 -57 423 -53 Q415 -32 415 -11 Q447 -3 493 -3 Q483 102 477 203 Q506 209 536 209 Z" /><glyph glyph-name="uni4EAD" unicode="&#x4ead;" d="M507 750 Q525 750 542 744 Q542 708 539 667 Q679 661 816 650 Q816 619 811 589 Q498 589 198 612 Q198 647 205 675 Q335 675 463 670 Q465 719 469 748 Q486 750 507 750 ZM428 564 Q573 563 711 548 Q720 536 720 493 Q720 414 716 376 Q649 371 489 371 Q393 371 310 386 Q296 417 296 494 Q296 510 302 550 Q315 555 335 555 Q350 555 365 550 Q365 528 369 441 Q508 430 645 430 Q650 451 650 493 Q650 491 648 489 Q475 498 431 503 Q426 512 426 536 Q426 550 428 564 ZM546 212 Q633 212 687 205 Q690 197 690 177 Q690 155 687 149 Q674 144 567 144 Q579 77 592 -39 Q571 -47 534 -47 Q490 -47 462 -43 Q456 -23 456 3 Q485 3 514 5 Q500 82 495 144 Q338 145 322 149 Q319 160 319 179 Q319 195 324 208 Q424 212 546 212 ZM180 339 Q198 339 213 333 Q213 253 202 152 Q190 149 167 149 Q143 149 133 156 Q133 275 145 337 Q161 339 180 339 ZM271 335 Q563 335 845 314 Q848 234 848 160 Q838 156 820 156 Q807 156 787 158 Q783 189 780 255 Q528 255 273 276 Q269 289 269 308 Q269 321 271 335 Z" /><glyph glyph-name="uni4EAE" unicode="&#x4eae;" d="M432 545 Q603 545 694 520 Q700 482 700 430 Q700 377 691 356 Q654 341 534 341 Q360 341 318 362 Q312 408 312 444 Q312 478 320 525 Q337 529 353 529 Q374 529 384 527 Q388 447 388 409 Q439 402 532 402 Q603 402 629 405 Q631 439 631 471 Q606 476 432 491 Q430 504 430 520 Q430 532 432 545 ZM284 305 Q566 305 837 295 Q844 213 844 138 Q834 134 817 134 Q805 134 786 136 Q780 167 775 236 Q533 236 286 246 Q283 259 283 277 Q283 290 284 305 ZM202 290 Q224 290 232 286 Q246 199 246 103 Q236 95 215 95 Q199 95 187 99 Q173 191 171 282 Q181 288 202 290 ZM505 760 Q523 760 540 754 Q540 711 537 662 Q692 657 847 651 L847 621 Q847 597 843 582 Q507 585 161 604 Q157 617 157 640 Q157 658 166 675 Q314 671 461 665 Q462 725 467 758 Q484 760 505 760 ZM326 199 Q361 197 389 190 Q373 72 330 -77 Q292 -75 264 -63 Q283 71 326 199 ZM480 182 Q583 178 686 165 Q678 82 669 -2 Q702 -12 745 -19 Q745 -45 739 -70 Q735 -74 682 -74 Q640 -72 600 -60 Q600 33 610 108 Q535 113 471 118 Q471 153 480 182 Z" /><glyph glyph-name="uni4EB2" unicode="&#x4eb2;" d="M501 775 Q519 775 535 769 Q535 731 528 686 Q689 682 849 677 L849 650 Q849 630 846 616 Q503 618 151 633 Q147 644 147 665 Q147 681 154 696 Q305 692 456 688 Q458 743 466 773 Q482 775 501 775 ZM241 433 Q313 435 420 435 Q680 435 783 432 Q785 421 785 405 L785 377 Q752 368 543 366 Q547 320 551 279 Q680 285 814 288 Q817 274 817 259 L817 228 Q687 219 556 213 Q569 53 569 -32 Q540 -42 503 -42 Q469 -42 443 -38 Q435 -16 435 5 Q459 13 495 13 Q490 113 486 210 Q346 204 206 200 Q201 230 201 261 Q342 270 483 276 Q482 321 480 366 L418 366 Q296 366 243 374 Q239 387 239 404 Q239 421 241 433 ZM358 593 Q386 553 397 473 Q370 458 343 455 Q311 505 305 578 Q328 588 358 593 ZM643 593 Q680 590 704 575 Q679 484 661 449 Q625 449 601 464 Q617 538 643 593 ZM701 180 Q773 148 839 92 Q826 62 802 43 Q728 80 669 130 Q684 158 701 180 ZM310 184 Q336 163 359 137 Q340 114 308 83 Q291 67 272 49 Q252 27 231 11 Q204 30 187 57 Q247 125 310 184 Z" /><glyph glyph-name="uni4EBA" unicode="&#x4eba;" d="M544 624 Q576 606 605 581 Q540 480 473 379 Q662 256 852 116 Q841 85 808 61 Q601 178 433 319 Q336 175 235 32 Q201 49 174 77 Q318 313 544 624 Z" /><glyph glyph-name="uni4EBF" unicode="&#x4ebf;" d="M412 635 Q613 629 855 605 Q760 321 668 93 Q731 93 840 85 Q840 56 835 25 Q816 22 791 22 Q582 22 564 35 Q628 240 751 546 Q575 546 412 571 L412 635 ZM352 525 Q366 500 366 467 Q301 442 240 424 Q273 292 289 148 Q259 139 226 139 Q192 271 172 406 Q128 394 86 387 Q75 412 75 442 Q215 511 352 525 Z" /><glyph glyph-name="uni4EC0" unicode="&#x4ec0;" d="M673 684 Q698 682 706 677 Q705 550 704 424 Q791 420 886 414 Q886 385 880 352 Q791 352 703 355 Q700 173 696 -8 Q688 -13 659 -13 Q637 -13 623 -6 Q625 183 627 358 Q530 362 435 369 L435 403 Q435 416 437 430 Q526 430 628 427 Q631 560 634 682 Q653 684 673 684 ZM366 487 Q379 462 379 429 Q320 406 265 390 Q298 255 314 110 Q285 101 252 101 Q216 235 198 371 Q147 358 100 349 Q88 374 88 403 Q228 473 366 487 Z" /><glyph glyph-name="uni4EC1" unicode="&#x4ec1;" d="M418 177 Q648 177 875 156 L875 126 Q875 104 872 93 Q586 93 416 110 Q412 118 412 143 Q412 160 418 177 ZM474 543 Q656 535 842 522 L842 493 Q842 471 838 457 Q656 459 470 476 Q466 488 466 511 Q466 527 474 543 ZM307 542 Q327 519 329 489 Q289 461 245 441 Q278 304 293 156 Q264 147 231 147 Q197 279 178 414 Q142 402 105 393 Q86 412 78 445 Q178 505 307 542 Z" /><glyph glyph-name="uni4EC5" unicode="&#x4ec5;" d="M323 524 Q342 501 344 472 Q304 443 258 423 Q280 289 290 147 Q261 137 228 137 Q205 265 192 396 Q157 383 121 375 Q101 395 93 428 Q194 488 323 524 ZM480 690 Q564 665 656 640 Q790 603 851 583 Q766 400 670 226 Q747 173 822 118 Q812 91 783 70 Q705 114 634 161 Q600 100 566 42 Q531 52 507 69 Q541 136 575 201 Q489 262 412 327 Q429 356 449 374 Q530 322 610 267 Q682 403 755 534 Q593 579 453 628 Q464 661 480 690 Z" /><glyph glyph-name="uni4EC6" unicode="&#x4ec6;" d="M618 690 Q632 567 643 445 Q769 434 888 416 Q888 389 880 354 Q766 354 649 375 Q662 206 670 38 Q645 29 606 29 Q569 354 553 682 Q584 688 618 690 ZM374 529 Q387 504 387 471 Q321 445 261 427 Q295 292 310 148 Q281 139 248 139 Q214 273 195 407 Q150 395 108 387 Q96 412 96 442 Q236 515 374 529 Z" /><glyph glyph-name="uni4ECA" unicode="&#x4eca;" d="M543 758 Q570 738 587 713 Q569 696 552 681 Q729 567 907 439 Q897 409 865 386 Q665 498 500 634 Q342 493 145 340 Q117 362 102 389 Q317 611 543 758 ZM309 247 Q612 243 709 222 Q702 125 635 -31 Q601 -25 571 -10 Q593 73 614 155 Q428 170 307 184 Q305 201 305 218 Q307 232 309 247 ZM474 460 Q539 427 598 371 Q586 344 565 326 Q498 364 445 415 Q458 440 474 460 Z" /><glyph glyph-name="uni4ECE" unicode="&#x4ece;" d="M756 637 Q788 619 816 595 Q739 455 657 312 Q780 225 903 127 Q892 97 859 73 Q729 153 621 249 Q556 135 487 20 Q453 36 427 64 Q554 311 756 637 ZM370 578 Q405 563 431 541 Q379 429 317 315 Q376 279 439 230 Q428 203 405 172 Q340 201 283 247 Q254 192 230 149 Q213 116 199 91 Q186 67 171 47 Q128 60 110 90 Q143 157 231 326 Q297 448 370 578 Z" /><glyph glyph-name="uni4ED1" unicode="&#x4ed1;" d="M544 736 Q578 721 602 702 Q579 681 556 661 Q739 564 904 449 Q893 422 870 395 Q688 489 503 615 Q446 566 388 520 Q244 403 166 356 Q136 374 119 406 Q316 581 544 736 ZM389 459 Q406 459 421 455 Q422 366 423 285 Q557 303 704 317 Q710 290 713 255 Q577 231 424 219 Q424 148 424 85 Q583 85 754 81 Q756 63 756 50 Q756 29 752 14 Q697 10 498 10 Q393 10 357 25 Q347 135 347 206 Q347 316 357 455 Q374 459 389 459 Z" /><glyph glyph-name="uni4ED3" unicode="&#x4ed3;" d="M285 413 Q491 401 701 382 Q701 263 688 159 Q637 152 566 152 Q530 152 505 157 Q503 186 503 209 Q571 211 627 211 Q629 264 633 327 Q505 335 389 343 Q370 204 347 64 Q529 42 722 26 Q722 -4 712 -33 Q481 -27 272 18 Q289 182 320 348 Q298 349 277 351 Q279 388 285 413 ZM558 716 Q578 694 587 663 Q575 656 565 650 Q717 574 855 485 Q844 460 822 435 Q663 511 501 612 Q340 516 177 432 Q160 455 146 488 Q352 617 558 716 Z" /><glyph glyph-name="uni4ED4" unicode="&#x4ed4;" d="M400 338 Q528 338 655 336 Q646 389 636 440 Q679 519 722 600 Q575 610 413 632 Q418 665 426 687 Q621 671 816 648 Q778 534 703 411 Q713 371 721 335 Q820 333 916 330 L916 297 Q916 278 909 260 Q820 260 735 261 Q739 237 742 213 Q757 47 757 23 Q731 15 695 15 Q654 15 623 20 Q621 42 621 66 Q653 69 689 69 Q681 166 667 262 Q534 264 403 268 Q398 289 398 305 Q398 322 400 338 ZM355 531 Q369 506 369 473 Q303 448 244 431 Q277 296 291 152 Q262 143 229 143 Q195 277 176 412 Q132 401 89 393 Q78 418 78 447 Q218 517 355 531 Z" /><glyph glyph-name="uni4ED5" unicode="&#x4ed5;" d="M735 446 Q833 446 892 439 Q896 430 896 407 Q896 383 892 376 Q877 370 735 370 L677 370 Q684 255 685 145 Q767 144 817 138 Q821 130 821 109 Q821 86 817 79 Q803 73 668 73 Q487 73 471 79 Q467 91 467 110 Q467 128 473 142 Q541 144 620 145 Q608 259 601 370 Q415 371 394 376 Q390 389 390 409 Q390 428 396 443 Q490 445 596 446 Q591 546 589 646 Q607 650 622 650 L655 650 Q666 546 672 446 L735 446 ZM306 524 Q326 501 328 472 Q288 443 242 423 Q263 296 274 162 Q245 153 211 153 Q189 273 175 395 Q140 383 104 375 Q85 395 77 428 Q177 488 306 524 Z" /><glyph glyph-name="uni4ED6" unicode="&#x4ed6;" d="M896 483 Q900 398 900 307 Q876 305 835 305 Q831 360 829 417 Q786 415 745 413 Q743 321 734 247 Q726 243 701 243 Q681 243 673 247 Q669 323 668 409 Q599 406 532 404 Q535 263 538 123 Q618 123 706 122 L706 91 Q706 70 702 58 Q557 58 477 61 Q466 225 463 402 Q432 401 403 400 Q397 433 397 466 Q429 468 462 471 Q461 530 461 591 Q493 595 528 595 Q529 534 531 475 Q598 478 668 480 Q669 565 673 655 Q689 659 707 659 Q726 659 740 655 Q745 561 746 482 Q819 483 896 483 ZM352 525 Q366 500 366 467 Q302 443 241 425 Q274 291 289 148 Q259 139 226 139 Q192 272 173 406 Q129 395 86 387 Q75 412 75 442 Q215 511 352 525 Z" /><glyph glyph-name="uni4ED9" unicode="&#x4ed9;" d="M352 525 Q366 500 366 467 Q302 443 241 425 Q274 291 289 148 Q259 139 226 139 Q192 272 173 406 Q129 395 86 387 Q75 412 75 442 Q215 511 352 525 ZM885 414 Q905 288 907 188 Q889 178 846 178 Q821 278 821 408 Q854 414 885 414 ZM647 661 Q668 661 678 657 Q698 446 698 195 Q686 192 665 192 Q639 192 631 193 Q614 442 614 655 Q620 659 647 661 ZM447 423 Q464 423 480 419 Q485 264 485 142 Q649 142 825 148 Q827 131 827 120 Q827 102 823 89 Q762 75 541 75 Q448 75 416 88 Q407 201 407 273 Q407 338 414 419 Q431 423 447 423 Z" /><glyph glyph-name="uni4EE3" unicode="&#x4ee3;" d="M600 554 Q626 493 653 434 Q715 449 778 462 Q792 431 792 396 Q739 379 686 365 Q744 244 811 128 Q844 141 877 157 Q899 134 903 111 Q848 67 782 48 Q686 185 613 347 Q531 326 450 310 Q435 341 431 373 Q505 397 583 417 Q560 472 540 529 Q567 546 600 554 ZM772 660 Q821 610 859 549 Q836 528 806 514 Q754 566 719 626 Q742 644 772 660 ZM331 524 Q350 501 352 472 Q308 442 259 421 Q280 296 290 162 Q261 153 228 153 Q206 273 192 396 Q156 384 117 375 Q97 395 89 428 Q195 488 331 524 Z" /><glyph glyph-name="uni4EEC" unicode="&#x4eec;" d="M303 518 Q323 494 325 465 Q284 436 237 415 Q263 291 275 157 Q246 148 212 148 Q186 268 171 388 Q137 376 101 368 Q82 388 74 421 Q175 481 303 518 ZM498 709 Q550 683 604 650 Q598 634 588 620 Q581 605 569 591 Q512 609 461 649 Q475 684 498 709 ZM709 610 Q801 603 896 586 Q902 422 902 297 Q902 117 892 20 Q855 18 819 18 Q782 18 754 22 Q748 33 748 49 Q748 63 750 72 Q791 74 830 74 Q832 302 832 528 Q770 537 706 552 L706 581 Q706 593 709 610 ZM424 471 Q440 471 453 468 Q459 263 459 26 Q448 22 430 22 Q414 22 399 24 Q392 111 392 260 Q392 418 395 468 Q408 471 424 471 Z" /><glyph glyph-name="uni4EF6" unicode="&#x4ef6;" d="M352 525 Q366 500 366 467 Q302 443 241 425 Q274 291 289 148 Q259 139 226 139 Q192 272 173 406 Q129 395 86 387 Q75 412 75 442 Q215 511 352 525 ZM517 669 Q547 663 574 649 Q557 594 537 536 Q609 533 679 529 Q678 600 678 671 Q693 673 713 674 Q732 674 744 673 Q747 598 749 525 Q832 521 911 515 Q911 490 903 458 Q827 458 751 461 Q754 346 756 231 Q814 233 872 233 Q874 221 874 205 L874 176 Q814 168 756 164 Q757 84 757 6 Q746 1 725 1 Q707 1 695 2 Q691 81 688 158 Q582 150 478 150 Q472 179 472 210 Q576 223 685 228 Q682 346 680 464 Q599 469 517 476 Q485 381 446 277 Q414 280 389 296 Q438 497 517 669 Z" /><glyph glyph-name="uni4EF7" unicode="&#x4ef7;" d="M645 607 Q527 506 411 408 Q378 433 370 459 Q511 604 691 731 Q719 711 733 682 Q716 667 700 654 Q812 558 925 454 Q914 432 881 404 Q758 492 645 607 ZM796 369 Q818 207 819 56 Q808 51 788 51 Q768 51 757 53 Q732 211 728 364 Q746 369 762 369 L796 369 ZM490 356 Q524 356 556 348 Q556 318 543 206 Q536 134 523 64 Q491 64 461 70 Q461 166 490 356 ZM323 524 Q342 501 344 472 Q298 442 247 421 Q268 294 279 157 Q250 148 216 148 Q193 271 180 396 Q146 385 110 377 Q90 397 83 430 Q188 489 323 524 Z" /><glyph glyph-name="uni4EFB" unicode="&#x4efb;" d="M836 696 Q847 667 847 640 Q652 595 437 581 Q427 609 425 638 Q610 678 836 696 ZM407 380 Q499 380 603 374 Q598 464 597 550 Q615 554 631 554 L665 554 Q674 459 679 369 Q781 362 894 350 Q894 322 888 289 Q785 289 683 295 Q689 189 690 89 Q793 88 839 83 Q841 71 841 56 L841 27 Q819 19 642 19 Q517 19 462 27 Q458 40 458 58 Q458 75 460 87 Q528 89 625 89 Q614 196 607 300 Q505 308 406 321 L406 354 Q406 367 407 380 ZM323 524 Q342 501 344 472 Q304 443 258 423 Q280 296 290 162 Q261 153 228 153 Q206 273 192 396 Q158 384 121 375 Q101 395 93 428 Q194 488 323 524 Z" /><glyph glyph-name="uni4F01" unicode="&#x4f01;" d="M544 736 Q578 721 602 702 Q579 681 556 662 Q734 569 896 460 Q885 434 862 407 Q683 497 501 617 Q444 570 386 527 Q239 414 161 369 Q131 386 114 418 Q314 587 544 736 ZM523 454 Q542 454 558 446 Q560 379 561 317 Q618 318 693 318 Q742 318 761 313 Q763 302 763 287 L763 259 Q755 251 691 251 Q610 251 561 255 Q562 203 562 153 Q562 111 559 72 Q676 68 791 60 L791 32 Q791 11 787 1 Q420 1 201 16 Q198 23 198 48 Q198 64 203 79 Q243 79 282 78 Q267 167 261 255 Q291 261 328 265 Q347 171 355 77 Q420 77 485 75 Q480 111 480 148 Q480 294 490 446 Q507 454 523 454 Z" /><glyph glyph-name="uni4F0A" unicode="&#x4f0a;" d="M364 465 Q466 465 580 460 Q590 497 600 533 Q628 530 654 519 Q649 487 645 457 Q708 454 773 450 Q775 509 778 567 Q633 574 456 598 Q456 635 461 660 Q607 660 843 626 Q852 587 852 512 L852 444 Q892 441 931 438 Q931 411 926 380 Q887 380 850 381 Q845 265 830 219 Q803 199 714 199 Q650 199 598 202 Q577 99 553 4 L516 9 Q502 13 491 18 Q503 111 522 209 Q470 215 430 225 Q426 240 426 254 Q426 276 432 283 Q485 280 536 278 Q549 335 563 392 Q461 399 362 409 L362 440 Q362 452 364 465 ZM633 388 Q623 330 612 275 Q693 271 770 269 Q770 326 772 382 Q702 384 633 388 ZM307 524 Q327 501 329 472 Q289 443 243 423 Q264 296 275 162 Q246 153 212 153 Q190 273 176 395 Q141 383 105 375 Q86 395 78 428 Q178 488 307 524 Z" /><glyph glyph-name="uni4F0D" unicode="&#x4f0d;" d="M379 676 Q596 676 884 651 Q884 623 879 592 Q625 592 377 619 L377 651 Q377 664 379 676 ZM546 544 Q583 542 613 538 Q607 458 599 381 Q721 372 844 356 Q844 319 830 240 Q823 181 801 107 Q786 107 740 118 Q752 218 764 298 Q688 305 592 316 Q579 202 561 89 Q527 93 495 97 Q505 213 518 324 Q461 331 398 338 Q397 349 397 364 Q397 378 401 392 Q464 390 526 386 Q535 466 546 544 ZM862 69 Q865 56 865 40 L865 9 Q642 -4 413 -10 Q407 20 407 51 Q520 58 633 62 Q746 67 862 69 ZM308 524 Q328 501 330 472 Q290 443 244 423 Q265 296 276 162 Q247 153 213 153 Q191 273 177 395 Q142 383 106 375 Q87 395 79 428 Q179 488 308 524 Z" /><glyph glyph-name="uni4F11" unicode="&#x4f11;" d="M605 372 L605 481 Q514 485 425 493 Q425 531 433 562 Q520 562 606 558 Q607 651 611 692 Q624 696 642 696 Q660 696 673 692 Q675 624 676 555 Q768 549 857 540 Q857 506 851 474 Q764 474 678 477 Q682 267 682 36 Q670 32 651 32 Q633 32 618 34 Q608 135 606 289 Q503 195 400 114 Q382 137 369 170 Q487 283 605 372 ZM743 347 Q826 314 905 273 Q897 246 879 219 Q783 245 717 288 Q729 323 743 347 ZM331 528 Q350 505 352 476 Q308 445 258 423 Q280 296 290 162 Q261 153 228 153 Q206 273 192 396 Q157 384 121 375 Q101 395 93 428 Q197 490 331 528 Z" /><glyph glyph-name="uni4F17" unicode="&#x4f17;" d="M559 753 Q580 736 594 717 Q571 697 548 680 Q712 570 877 447 Q868 420 839 399 Q651 508 498 639 Q341 514 148 380 Q125 398 113 419 Q331 620 559 753 ZM739 362 Q766 341 783 316 Q750 267 714 216 Q804 134 893 44 Q883 15 851 -8 Q754 68 673 159 Q613 77 546 -7 Q517 16 502 42 Q618 234 739 362 ZM377 378 Q404 357 421 332 Q388 282 351 232 Q419 158 485 78 Q475 49 443 26 Q371 94 310 176 Q243 87 167 -7 Q138 16 123 42 Q247 244 377 378 Z" /><glyph glyph-name="uni4F18" unicode="&#x4f18;" d="M349 554 Q367 532 369 504 Q317 472 259 449 Q296 303 313 145 Q284 135 251 135 Q213 279 193 425 Q148 411 101 401 Q82 420 75 451 Q195 515 349 554 ZM655 719 Q691 715 716 699 Q693 632 647 492 Q764 485 879 472 L879 445 Q879 425 876 415 Q735 415 623 421 Q567 253 484 2 Q451 8 426 22 Q466 205 543 426 Q463 432 400 441 Q397 447 397 471 Q397 486 402 500 Q485 500 568 496 Q608 603 655 719 ZM787 649 Q853 622 912 577 Q900 549 877 530 Q810 560 757 601 Q771 628 787 649 ZM773 247 Q777 157 781 67 L865 67 Q868 55 868 39 L868 11 Q866 5 784 5 Q763 5 724 7 Q711 125 711 241 Q738 245 773 247 Z" /><glyph glyph-name="uni4F1A" unicode="&#x4f1a;" d="M592 793 Q620 772 635 744 Q611 728 588 713 Q724 616 864 508 Q853 486 819 458 Q667 551 524 672 Q328 543 134 416 Q101 441 93 467 Q313 641 592 793 ZM368 480 Q488 480 647 463 Q647 433 641 398 Q502 398 366 416 L366 451 Q366 466 368 480 ZM794 278 Q798 263 798 246 L798 213 Q622 203 444 198 Q422 126 404 47 L530 47 Q582 47 651 51 Q658 29 658 4 Q611 -19 492 -19 Q352 -16 318 -7 Q338 96 372 195 Q287 192 204 190 Q199 224 199 257 Q346 264 495 269 Q642 275 794 278 ZM751 138 Q784 96 797 12 Q770 -3 744 -6 Q707 47 700 124 Q722 134 751 138 Z" /><glyph glyph-name="uni4F1F" unicode="&#x4f1f;" d="M333 518 Q352 494 354 465 Q313 436 266 415 Q292 291 304 157 Q275 148 242 148 Q215 268 200 388 Q166 376 130 368 Q111 388 103 421 Q204 481 333 518 ZM390 616 Q486 616 580 612 Q582 691 585 731 Q598 735 615 735 Q631 735 644 731 Q646 670 647 609 Q772 602 893 589 Q893 561 888 535 Q767 535 649 541 Q650 492 650 443 Q665 443 679 443 Q767 443 820 436 Q824 428 824 408 Q824 387 820 380 Q807 375 679 375 Q665 375 651 375 Q652 325 653 276 Q768 271 873 266 Q882 227 882 45 Q866 37 808 37 Q766 37 740 41 Q736 48 736 66 Q736 77 742 90 Q779 90 819 92 Q817 150 815 207 Q734 210 654 212 Q655 82 655 -52 Q644 -56 625 -56 Q609 -56 594 -54 Q583 54 580 215 Q501 218 423 221 L423 250 Q423 270 427 283 Q505 281 579 279 Q578 321 578 364 Q578 371 578 375 Q441 376 425 380 Q421 392 421 410 Q421 427 426 440 Q497 442 578 443 Q578 499 579 545 Q480 550 384 560 Q384 591 390 616 Z" /><glyph glyph-name="uni4F20" unicode="&#x4f20;" d="M352 525 Q366 500 366 467 Q301 442 240 424 Q273 292 289 148 Q259 139 226 139 Q192 271 172 406 Q128 394 86 387 Q75 412 75 442 Q215 511 352 525 ZM454 618 Q539 618 623 614 Q645 677 667 737 Q701 732 728 719 Q716 663 701 609 Q786 604 869 594 Q869 564 864 536 Q771 536 682 540 Q671 504 659 470 Q654 455 649 441 Q776 452 907 457 Q911 443 911 427 L911 395 Q768 379 624 369 Q620 356 615 344 Q604 317 594 283 Q718 279 848 257 Q819 157 748 35 Q777 21 804 6 Q796 -21 779 -49 Q668 -17 592 36 Q604 71 618 95 Q653 81 686 65 Q719 130 749 197 Q650 206 567 219 Q566 216 565 215 Q533 222 503 235 Q523 302 542 364 Q465 358 388 355 Q383 387 383 418 Q473 428 564 435 Q582 492 600 545 Q523 550 448 558 Q448 591 454 618 Z" /><glyph glyph-name="uni4F26" unicode="&#x4f26;" d="M650 580 Q547 493 448 412 Q421 436 400 472 Q551 601 692 708 Q716 687 740 656 Q720 639 703 624 Q820 553 929 474 Q913 446 885 428 Q761 502 650 580 ZM564 464 Q581 464 597 460 Q600 375 602 298 Q702 319 812 336 Q818 309 820 275 Q718 246 603 234 Q605 156 605 86 Q726 86 855 84 Q857 67 857 55 Q857 35 853 22 Q813 16 667 16 Q570 16 537 30 Q527 143 527 215 Q527 323 531 460 Q548 464 564 464 ZM352 525 Q366 500 366 467 Q301 442 240 424 Q273 292 289 148 Q259 139 226 139 Q192 271 172 406 Q128 394 86 387 Q75 412 75 442 Q215 511 352 525 Z" /><glyph glyph-name="uni4F2F" unicode="&#x4f2f;" d="M654 683 Q689 679 726 669 Q708 619 690 569 Q776 565 868 557 Q871 413 871 309 Q871 123 868 104 Q791 88 657 88 Q537 88 477 102 Q458 238 456 528 L520 528 Q524 433 527 338 Q549 339 571 339 Q659 339 712 332 Q715 324 715 304 Q715 282 712 276 Q699 271 571 271 Q545 271 529 272 Q531 216 532 160 Q578 154 655 154 Q750 154 801 160 Q797 338 797 496 Q673 496 561 510 L561 572 Q589 572 617 571 Q632 628 654 683 ZM323 524 Q342 501 344 472 Q304 443 258 423 Q280 296 290 162 Q261 153 228 153 Q206 273 192 396 Q158 384 121 375 Q101 395 93 428 Q194 488 323 524 Z" /><glyph glyph-name="uni4F34" unicode="&#x4f34;" d="M819 645 Q856 636 877 612 Q849 554 796 493 Q763 500 746 523 Q771 582 819 645 ZM456 625 Q499 574 537 516 Q519 496 484 483 Q437 535 403 594 Q430 617 456 625 ZM644 684 Q664 684 678 680 Q684 572 684 482 L684 425 Q766 429 850 429 Q851 418 851 403 L851 375 Q766 364 683 358 Q682 287 680 223 Q772 226 868 226 Q870 215 870 200 L870 172 Q773 164 677 160 Q674 81 668 10 Q660 6 634 6 Q614 6 606 10 Q605 82 605 157 Q510 153 416 153 Q410 181 410 211 Q505 218 604 221 L604 353 Q514 348 426 348 Q420 375 420 405 Q510 416 604 421 L604 476 Q604 574 610 680 Q626 684 644 684 ZM320 529 Q339 506 341 477 Q301 448 255 428 Q277 301 288 167 Q258 157 225 157 Q202 279 189 401 Q155 389 118 380 Q98 399 90 433 Q191 493 320 529 Z" /><glyph glyph-name="uni4F36" unicode="&#x4f36;" d="M302 524 Q322 501 324 472 Q284 443 238 423 Q259 296 270 162 Q241 153 208 153 Q185 273 171 396 Q136 383 100 375 Q81 395 73 428 Q174 488 302 524 ZM581 719 Q614 705 643 686 Q627 666 611 648 Q744 586 864 513 Q853 486 830 460 Q698 519 565 597 Q545 576 526 556 Q486 516 447 475 Q407 431 372 402 Q339 415 321 437 Q467 606 581 719 ZM418 300 Q703 298 794 286 Q784 195 682 54 Q718 39 752 23 Q751 -10 725 -34 Q590 15 475 71 Q487 105 500 126 Q563 103 624 78 Q666 151 708 224 Q531 233 416 241 Q414 257 414 273 Q416 286 418 300 ZM557 476 Q619 449 676 403 Q665 376 643 359 Q579 389 528 431 Q541 456 557 476 Z" /><glyph glyph-name="uni4F3D" unicode="&#x4f3d;" d="M432 679 Q466 675 492 662 Q484 616 476 572 Q539 567 605 558 Q605 276 592 96 Q480 96 459 111 Q459 135 462 156 Q498 156 527 154 Q529 336 531 499 Q496 501 464 504 Q449 429 431 355 Q412 279 391 199 Q382 166 373 123 Q363 84 347 41 Q316 47 287 60 Q337 298 390 511 Q356 515 323 520 Q321 533 321 549 Q321 568 325 578 Q365 578 406 576 Q419 630 432 679 ZM767 518 Q847 516 914 509 Q917 454 917 425 Q917 328 910 231 Q881 222 798 222 Q721 222 666 233 Q659 251 657 302 Q657 386 665 474 Q678 478 698 478 Q717 478 731 474 L731 287 L843 287 Q845 363 847 455 Q801 457 763 465 Q763 492 767 518 ZM142 426 Q111 419 82 414 Q70 440 70 469 Q179 518 286 528 Q299 503 299 470 Q253 454 210 443 Q223 339 230 231 Q201 221 168 221 Q152 322 142 426 Z" /><glyph glyph-name="uni4F4D" unicode="&#x4f4d;" d="M369 515 Q382 491 382 458 Q312 434 246 417 Q268 291 279 155 Q250 146 216 146 Q192 272 178 400 Q133 390 91 383 Q80 408 80 436 Q226 502 369 515 ZM646 712 Q665 712 682 706 Q682 655 677 594 Q777 591 874 585 L874 557 Q874 541 868 525 Q637 525 405 539 Q401 557 401 571 Q401 585 403 599 Q503 599 600 596 Q602 670 609 710 Q625 712 646 712 ZM489 431 Q533 356 551 206 Q523 191 496 188 Q445 281 436 416 Q459 427 489 431 ZM771 423 Q809 420 834 404 Q789 216 755 117 Q826 121 898 125 Q904 98 906 65 Q672 41 401 31 Q395 57 391 92 Q531 103 682 113 Q717 289 771 423 Z" /><glyph glyph-name="uni4F50" unicode="&#x4f50;" d="M334 545 Q353 522 355 492 Q305 462 249 440 Q283 287 299 122 Q270 112 237 112 Q202 264 182 417 Q138 404 92 395 Q73 414 65 447 Q183 508 334 545 ZM632 706 Q669 702 693 686 Q671 639 648 592 Q774 586 901 578 L901 551 Q901 530 897 516 Q755 518 613 525 Q589 478 565 433 Q529 370 505 322 Q487 288 469 259 Q454 225 418 182 Q385 193 361 213 Q447 381 531 530 Q462 534 393 540 Q389 552 389 573 Q389 589 397 605 Q483 601 569 597 Q601 653 632 706 ZM625 119 L675 119 Q676 209 679 267 Q626 273 573 283 Q573 316 579 342 Q721 332 856 315 Q856 290 848 257 Q800 257 752 261 Q751 193 747 119 Q844 119 901 120 L901 64 Q762 53 522 53 Q516 82 516 111 Q555 117 625 119 Z" /><glyph glyph-name="uni4F51" unicode="&#x4f51;" d="M859 553 Q863 541 863 524 Q863 500 861 490 Q733 479 602 474 Q512 248 427 75 Q392 85 371 107 Q414 223 517 471 Q480 470 443 469 Q439 498 439 529 Q491 533 545 537 Q578 613 614 698 Q649 689 678 669 Q653 603 629 542 Q739 548 859 553 ZM665 312 Q791 312 867 302 Q876 245 876 191 Q876 73 866 38 Q821 24 702 24 Q607 24 571 34 Q561 74 555 163 Q550 235 550 285 Q563 288 585 290 Q608 290 617 288 Q629 191 629 84 Q664 82 702 82 Q754 82 798 87 L798 247 Q758 249 724 252 Q696 252 665 259 Q662 276 662 287 Q662 300 665 312 ZM342 525 Q356 500 356 467 Q290 442 231 425 Q264 291 279 148 Q250 139 216 139 Q182 272 164 406 Q119 395 77 387 Q65 412 65 442 Q205 511 342 525 Z" /><glyph glyph-name="uni4F53" unicode="&#x4f53;" d="M327 515 Q340 489 340 456 Q289 436 242 421 Q276 286 290 141 Q261 131 228 131 Q194 265 175 400 Q130 387 88 379 Q77 404 77 434 Q203 501 327 515 ZM636 689 Q655 689 671 685 Q672 620 672 568 Q776 565 891 560 Q891 531 885 497 Q777 497 672 500 Q673 376 673 336 Q670 300 669 180 Q737 178 781 172 Q785 163 785 142 Q785 118 781 111 Q769 107 668 106 L668 10 Q659 4 635 4 Q609 4 600 8 Q598 52 596 106 Q502 107 492 111 Q489 124 489 143 Q489 162 494 176 Q541 179 595 180 Q594 251 594 338 L594 400 Q501 277 384 158 Q379 158 356 172 Q335 184 331 191 Q430 328 582 503 Q490 506 400 512 L400 545 Q400 559 402 572 Q493 572 596 570 Q596 625 597 685 Q618 689 636 689 ZM803 402 Q868 335 920 251 Q901 230 870 208 Q805 264 751 360 Q776 385 803 402 Z" /><glyph glyph-name="uni4F59" unicode="&#x4f59;" d="M549 779 Q578 759 592 730 Q576 717 560 704 Q716 601 875 489 Q864 468 833 442 Q662 538 504 660 Q334 525 165 391 Q132 415 124 442 Q312 621 549 779 ZM339 482 Q473 482 652 470 Q652 440 646 405 Q584 405 526 407 Q537 361 545 315 Q668 320 794 322 Q798 307 798 290 L798 257 Q678 250 557 245 Q577 115 583 -13 Q547 -33 442 -33 Q436 -8 436 22 Q469 25 504 31 Q491 139 478 242 Q342 237 204 234 Q199 268 199 301 Q333 307 469 312 Q462 362 456 410 Q395 413 337 418 L337 453 Q337 468 339 482 ZM298 177 Q328 157 338 129 Q284 67 220 22 Q192 42 176 68 Q225 131 298 177 ZM745 182 Q814 150 876 95 Q862 62 836 40 Q766 77 709 127 Q726 158 745 182 Z" /><glyph glyph-name="uni4F5C" unicode="&#x4f5c;" d="M343 525 Q357 500 357 467 Q291 442 232 425 Q265 291 280 148 Q251 139 217 139 Q183 272 165 406 Q120 395 78 387 Q66 412 66 442 Q206 511 343 525 ZM542 726 Q576 722 607 707 Q583 644 556 582 Q731 581 902 565 Q902 534 897 504 Q773 504 658 510 Q659 445 661 380 Q736 378 830 369 Q830 341 824 310 Q741 310 662 319 Q663 252 663 185 Q753 191 851 191 Q853 180 853 164 L853 135 Q757 124 663 122 Q664 54 664 -15 Q652 -18 632 -18 Q615 -18 599 -17 Q590 93 590 281 Q590 443 593 514 Q559 516 528 518 Q484 420 436 326 Q401 336 375 353 Q449 541 542 726 Z" /><glyph glyph-name="uni4F60" unicode="&#x4f60;" d="M342 527 Q362 504 364 475 Q324 446 278 426 Q300 299 310 165 Q281 155 248 155 Q225 277 212 399 Q177 387 140 378 Q121 397 113 431 Q214 491 342 527 ZM522 684 Q557 678 584 662 Q571 626 560 595 Q716 592 881 579 Q881 479 873 401 Q860 397 842 397 Q823 397 811 404 L811 520 Q671 524 538 537 Q498 434 469 383 Q430 389 407 407 Q464 555 522 684 ZM674 411 Q703 153 703 42 Q674 32 636 32 Q604 32 579 36 Q572 58 572 79 Q594 87 628 87 Q617 249 611 405 Q642 411 674 411 ZM470 270 Q502 262 535 247 Q511 164 467 80 Q431 88 406 109 Q436 196 470 270 ZM832 256 Q860 218 871 141 Q841 125 811 121 Q780 169 774 240 Q799 251 832 256 Z" /><glyph glyph-name="uni4F6C" unicode="&#x4f6c;" d="M361 519 Q380 495 382 466 Q332 429 276 401 Q302 289 314 168 Q285 158 252 158 Q225 264 210 372 Q164 355 116 343 Q96 362 88 396 Q208 472 361 519 ZM412 628 Q481 628 557 626 Q555 669 554 710 Q590 717 630 717 Q633 670 635 624 Q700 622 770 620 Q770 590 764 556 Q700 556 638 557 Q641 496 643 437 L673 437 Q753 522 840 611 Q869 595 894 573 Q835 504 775 437 Q849 436 896 431 Q899 422 899 402 Q899 381 896 374 Q882 369 755 369 L714 369 Q565 202 405 33 Q375 47 351 73 Q462 209 610 369 Q402 370 377 374 Q374 386 374 404 Q374 421 378 434 Q470 436 570 436 Q564 499 560 559 Q484 562 410 566 L410 600 Q410 614 412 628 ZM895 221 Q899 193 899 161 Q787 152 684 151 Q684 95 684 42 L851 42 Q854 29 854 16 Q854 1 852 -10 Q830 -21 743 -21 Q651 -21 617 -14 Q608 15 606 127 Q608 183 614 243 Q631 247 648 247 Q663 247 682 243 Q682 227 683 211 Q784 218 895 221 Z" /><glyph glyph-name="uni4F70" unicode="&#x4f70;" d="M377 532 Q397 509 399 480 Q343 442 280 415 Q310 289 323 153 Q294 144 260 144 Q230 265 214 389 Q163 371 108 359 Q88 378 81 411 Q211 486 377 532 ZM429 672 Q503 674 613 674 Q819 674 901 669 Q903 657 903 642 L903 613 Q876 606 696 604 Q662 532 609 460 Q576 468 552 487 Q583 550 616 604 L611 604 Q486 604 431 612 Q427 625 427 643 Q427 660 429 672 ZM593 434 Q758 429 890 416 Q890 139 871 7 Q829 -7 650 -7 Q548 -7 477 14 Q451 174 444 393 Q477 397 510 397 Q520 322 527 247 Q544 247 566 247 Q651 247 700 244 Q704 231 704 214 Q704 200 702 186 Q659 183 562 183 Q544 183 532 183 Q537 127 541 69 Q688 64 812 64 Q812 177 820 358 Q694 364 591 379 Q591 408 593 434 Z" /><glyph glyph-name="uni4F73" unicode="&#x4f73;" d="M876 455 Q878 444 878 428 L878 399 Q645 380 417 380 Q412 409 412 440 Q511 447 615 450 Q611 510 609 568 Q521 572 435 579 Q435 609 441 637 Q525 636 607 632 Q607 671 606 709 Q617 716 639 718 Q664 718 673 714 Q676 672 678 629 Q775 624 870 616 Q870 588 864 562 Q771 562 680 565 Q682 509 682 452 Q778 455 876 455 ZM651 342 Q675 342 683 338 Q688 288 691 235 Q761 239 833 241 Q836 214 836 183 Q763 176 695 173 Q697 121 698 69 Q817 68 872 63 Q874 51 874 36 L874 8 Q845 0 619 0 Q497 0 444 8 Q440 21 440 38 Q440 55 442 67 Q514 69 621 69 L633 69 Q629 121 626 170 Q559 167 497 167 Q492 194 492 224 Q556 229 622 232 Q620 283 619 333 Q630 340 651 342 ZM352 525 Q366 500 366 467 Q302 443 241 425 Q274 291 289 148 Q259 139 226 139 Q192 272 173 406 Q129 395 86 387 Q75 412 75 442 Q215 511 352 525 Z" /><glyph glyph-name="uni4F7F" unicode="&#x4f7f;" d="M470 619 Q560 619 666 613 Q687 674 708 734 Q746 727 774 711 Q758 659 741 609 Q792 605 843 601 Q843 573 838 540 Q778 540 720 542 Q708 506 697 470 Q779 465 861 457 Q872 433 872 362 Q872 303 869 253 Q857 241 621 239 Q604 186 587 135 Q694 107 798 76 Q791 46 776 18 Q670 40 565 69 Q551 28 538 -11 Q504 -8 479 14 Q489 51 500 87 Q466 96 434 106 Q442 143 456 169 Q488 161 519 153 Q532 197 545 239 Q453 240 398 250 Q384 339 384 459 L449 459 Q458 372 458 309 Q502 304 565 303 Q582 359 600 413 Q558 416 517 420 Q517 451 519 479 Q570 477 620 475 Q631 511 643 546 Q554 551 468 560 L468 592 Q468 605 470 619 ZM642 302 Q755 302 806 300 Q806 347 800 400 Q738 403 676 407 Q659 353 642 302 ZM352 525 Q366 500 366 467 Q302 443 241 425 Q274 291 289 148 Q259 139 226 139 Q192 272 173 406 Q129 395 86 387 Q75 412 75 442 Q215 511 352 525 Z" /><glyph glyph-name="uni4F9B" unicode="&#x4f9b;" d="M313 562 Q332 538 334 509 Q287 474 232 450 Q258 308 271 156 Q242 147 209 147 Q182 284 166 423 Q125 408 80 398 Q61 417 53 450 Q167 519 313 562 ZM906 324 Q910 312 910 295 Q910 272 908 263 Q653 247 386 243 Q382 272 382 302 Q436 305 492 308 Q477 416 469 520 Q426 523 386 526 L386 559 Q386 572 388 586 Q426 586 465 585 Q463 634 462 682 Q479 686 494 686 L525 686 Q532 634 537 584 Q635 582 741 577 Q748 642 756 703 Q773 705 792 705 Q814 703 821 699 Q818 635 814 573 Q853 570 892 568 Q892 539 886 506 Q847 506 809 507 Q802 412 790 320 Q848 322 906 324 ZM543 516 Q551 410 553 311 Q635 314 721 318 Q726 416 734 508 Q637 510 543 516 ZM780 178 Q830 129 870 68 Q852 48 822 28 Q771 68 730 137 Q754 161 780 178 ZM513 190 Q542 182 574 168 Q547 88 498 6 Q465 14 442 33 Q475 118 513 190 Z" /><glyph glyph-name="uni4F9D" unicode="&#x4f9d;" d="M418 571 Q655 571 889 555 L889 527 Q889 506 886 496 Q591 496 416 507 Q412 515 412 539 Q412 555 418 571 ZM598 479 Q626 458 649 432 Q572 346 481 266 Q498 181 516 95 Q549 95 587 105 Q592 93 592 78 L592 48 Q536 32 460 32 Q441 97 422 215 Q404 200 387 186 Q357 207 338 238 Q472 371 598 479 ZM792 338 Q821 327 849 305 Q818 247 778 187 Q838 153 895 119 Q884 95 862 69 Q703 136 579 219 Q594 250 611 276 Q662 250 711 224 Q749 283 792 338 ZM616 714 Q677 686 733 638 Q720 607 695 587 Q633 620 583 664 Q598 692 616 714 ZM341 525 Q355 500 355 467 Q289 442 230 425 Q263 291 278 148 Q249 139 215 139 Q181 272 163 406 Q118 395 76 387 Q64 412 64 442 Q204 511 341 525 Z" /><glyph glyph-name="uni4FA3" unicode="&#x4fa3;" d="M349 544 Q367 522 369 494 Q317 455 257 425 Q287 269 300 102 Q271 92 238 92 Q208 243 192 396 Q147 379 100 367 Q82 385 74 417 Q195 496 349 544 ZM619 683 Q719 683 841 668 Q851 638 851 520 Q851 455 841 436 Q802 428 648 428 Q540 428 493 442 Q483 477 483 515 Q483 591 495 675 Q506 679 522 679 Q539 679 551 675 L551 498 Q653 492 779 492 Q781 553 781 610 Q692 618 615 631 L615 659 Q615 672 619 683 ZM565 313 Q771 313 880 287 Q886 225 886 142 Q886 55 878 21 Q827 6 664 6 Q488 6 446 28 Q440 71 440 105 Q440 189 442 304 Q457 308 472 308 Q491 308 501 306 Q510 149 510 76 Q564 69 662 69 Q778 69 820 71 Q822 157 822 237 Q789 243 565 258 Q563 271 563 287 Q563 300 565 313 Z" /><glyph glyph-name="uni4FA8" unicode="&#x4fa8;" d="M636 635 Q670 625 699 606 Q677 571 656 539 Q767 534 876 525 Q876 494 871 465 Q738 465 611 470 Q529 350 452 256 Q418 265 397 286 Q435 348 523 474 Q453 478 385 483 Q385 517 391 545 Q481 545 570 542 Q601 586 636 635 ZM715 430 Q811 385 908 330 Q897 306 874 279 Q767 320 683 371 Q698 403 715 430 ZM815 735 Q823 706 823 674 Q630 640 435 631 Q421 654 421 694 Q610 719 815 735 ZM516 294 Q541 292 577 284 Q549 124 508 -42 Q465 -42 444 -26 Q474 134 516 294 ZM760 293 Q787 122 789 -39 Q779 -43 761 -43 Q744 -43 734 -41 Q705 126 702 289 Q717 293 731 293 L760 293 ZM360 528 Q373 503 373 470 Q309 446 248 428 Q280 295 296 151 Q267 142 234 142 Q200 274 180 409 Q136 398 94 390 Q83 415 83 444 Q222 514 360 528 Z" /><glyph glyph-name="uni4FAC" unicode="&#x4fac;" d="M338 525 Q352 500 352 467 Q286 442 227 425 Q260 291 275 148 Q246 139 212 139 Q178 272 160 406 Q115 395 73 387 Q61 412 61 442 Q201 511 338 525 ZM455 576 Q472 576 487 571 Q487 497 468 406 Q457 403 434 403 Q412 403 403 410 Q403 518 422 574 Q437 576 455 576 ZM521 580 Q563 580 604 578 Q639 643 678 714 Q709 705 736 688 Q708 629 681 575 Q778 571 878 563 Q878 467 871 392 Q857 388 839 388 Q820 388 808 396 L808 500 Q727 502 647 508 Q597 409 550 323 Q569 327 588 328 Q606 198 623 67 Q666 67 714 77 Q719 64 719 49 L719 17 Q653 2 565 2 Q544 96 524 277 Q482 203 442 139 Q410 148 391 167 Q443 277 570 515 Q545 517 521 520 Q517 531 517 551 Q517 567 521 580 ZM882 305 Q910 286 920 260 Q879 220 834 190 Q877 132 917 74 Q899 46 861 30 Q761 161 672 295 Q700 319 726 333 Q762 288 795 243 Q833 278 882 305 Z" /><glyph glyph-name="uni4FAF" unicode="&#x4faf;" d="M738 513 L738 601 Q615 604 495 619 Q492 630 492 647 Q492 662 495 675 Q649 673 814 658 Q814 577 808 512 Q860 511 896 506 Q899 497 899 477 Q899 455 896 448 Q882 443 750 443 Q456 443 429 448 Q425 460 425 478 Q425 495 430 509 Q570 513 738 513 ZM532 343 Q700 334 858 318 Q858 295 850 265 Q783 265 717 270 Q708 227 696 186 Q791 192 880 192 Q883 181 883 167 Q883 152 880 141 Q818 130 676 119 Q661 77 646 36 Q639 17 632 -7 Q625 -29 612 -53 Q581 -47 551 -33 Q573 43 596 114 Q540 111 477 108 Q463 128 463 166 Q542 175 617 181 Q633 230 649 275 Q588 280 527 288 Q527 319 532 343 ZM461 422 Q494 418 529 408 Q482 289 432 166 Q397 170 370 186 Q406 305 461 422 ZM746 88 Q823 47 888 6 Q875 -23 851 -43 Q771 -6 712 33 Q730 68 746 88 ZM340 525 Q354 500 354 467 Q288 442 229 425 Q262 291 277 148 Q248 139 214 139 Q180 272 162 406 Q117 395 75 387 Q63 412 63 442 Q203 511 340 525 Z" /><glyph glyph-name="uni4FBF" unicode="&#x4fbf;" d="M347 579 Q361 554 361 521 Q297 497 236 479 Q269 345 284 202 Q255 193 221 193 Q187 325 168 460 Q124 449 82 441 Q70 466 70 495 Q210 565 347 579 ZM469 357 Q469 326 470 291 Q526 288 580 286 Q587 317 594 348 Q530 351 469 357 ZM665 345 Q659 314 653 284 Q728 282 801 282 Q805 301 805 340 Q805 389 803 451 Q735 454 686 456 Q681 427 675 400 Q705 397 734 394 Q734 368 728 344 Q696 344 665 345 ZM607 406 Q613 433 620 460 Q566 463 543 465 Q538 473 538 496 Q538 509 540 523 Q588 522 634 521 Q640 549 647 576 Q672 574 706 567 Q702 542 697 518 Q782 514 863 507 Q871 471 871 340 Q871 265 867 229 Q796 224 640 223 Q631 182 622 144 Q709 120 797 100 Q797 74 788 40 Q693 51 607 75 Q596 25 585 -23 Q543 -23 522 -8 Q531 44 541 95 Q504 107 469 122 Q483 156 496 178 Q526 169 555 162 Q561 193 567 223 Q486 225 415 237 Q403 267 403 339 Q403 388 406 514 Q419 518 437 518 Q451 518 466 514 Q466 486 468 413 Q538 411 607 406 ZM444 705 Q653 699 860 670 Q860 641 854 615 Q645 615 438 646 Q438 677 444 705 Z" /><glyph glyph-name="uni4FCA" unicode="&#x4fca;" d="M543 754 Q576 745 610 731 Q555 647 505 553 Q624 550 747 550 Q732 592 725 634 Q753 639 786 643 Q815 573 824 500 Q768 492 550 492 Q466 492 407 507 Q466 629 543 754 ZM548 347 Q585 339 606 314 Q594 292 580 270 Q683 253 771 228 Q745 158 714 97 Q795 77 871 55 Q863 24 849 -4 Q764 14 685 34 Q659 -16 640 -35 Q604 -30 583 -18 Q599 18 616 52 Q564 66 515 82 Q523 117 535 141 Q592 128 646 114 Q664 151 682 185 Q604 200 544 216 Q503 158 447 98 Q413 105 396 128 Q448 235 548 347 ZM456 461 Q485 453 516 440 Q492 377 450 314 Q416 321 393 341 Q422 406 456 461 ZM342 525 Q356 500 356 467 Q290 442 231 425 Q264 291 279 148 Q250 139 216 139 Q182 272 164 406 Q119 395 77 387 Q65 412 65 442 Q205 511 342 525 ZM704 449 Q763 423 817 378 Q804 349 781 330 Q721 360 672 401 Q687 428 704 449 Z" /><glyph glyph-name="uni4FCF" unicode="&#x4fcf;" d="M364 525 Q377 500 377 467 Q313 443 253 425 Q285 291 300 148 Q271 139 238 139 Q204 272 185 406 Q140 395 98 387 Q86 412 86 442 Q226 511 364 525 ZM846 651 Q868 623 877 592 Q824 544 763 529 Q742 557 731 586 Q788 629 846 651 ZM426 631 Q487 623 558 585 Q552 557 537 532 Q464 537 408 576 Q415 606 426 631 ZM638 727 Q655 727 667 723 Q674 660 674 615 Q674 550 667 514 Q659 508 638 508 Q617 508 609 514 Q598 556 598 615 Q598 672 609 723 Q623 727 638 727 ZM466 451 Q502 449 533 444 Q529 378 523 313 L557 313 Q634 313 678 312 Q681 299 681 283 Q681 268 679 255 Q640 248 553 248 Q531 248 517 249 Q513 211 509 173 Q526 174 546 174 Q629 174 676 172 Q679 159 679 142 Q679 127 677 114 Q636 109 542 109 Q519 109 502 110 Q495 40 485 -29 Q451 -24 419 -20 Q437 223 466 451 ZM604 460 Q733 460 837 459 Q868 213 868 -3 Q822 -12 739 -12 Q731 17 731 36 Q766 40 796 44 Q786 218 774 390 Q687 393 602 395 Q601 408 601 431 Q601 444 604 460 Z" /><glyph glyph-name="uni4FD7" unicode="&#x4fd7;" d="M352 525 Q366 500 366 467 Q302 443 241 425 Q274 291 289 148 Q259 139 226 139 Q192 272 173 406 Q129 395 86 387 Q75 412 75 442 Q215 511 352 525 ZM582 714 Q609 693 632 665 Q604 633 557 590 Q534 569 506 543 Q476 513 446 491 Q419 511 401 538 Q489 632 582 714 ZM735 645 Q818 607 903 559 Q897 543 887 529 Q879 514 868 500 Q778 527 698 584 Q712 619 735 645 ZM624 465 Q653 449 668 430 Q659 418 649 405 Q773 363 896 312 Q892 282 877 255 Q735 297 607 353 Q534 268 420 158 Q385 174 368 195 Q471 341 624 465 ZM814 207 Q820 99 820 -9 Q668 -18 523 -18 Q507 97 503 199 Q654 207 814 207 ZM572 141 L579 46 L755 52 L752 145 L572 141 Z" /><glyph glyph-name="uni4FDD" unicode="&#x4fdd;" d="M362 489 Q375 464 375 431 Q311 407 251 389 Q283 255 298 112 Q269 103 236 103 Q202 235 183 370 Q138 359 96 351 Q85 376 85 405 Q224 475 362 489 ZM609 716 Q738 710 836 694 Q836 526 814 400 Q648 400 449 423 Q449 555 464 706 Q482 708 500 708 Q519 708 533 704 Q526 593 521 483 Q630 475 748 468 Q756 554 760 637 Q687 643 603 653 Q603 686 609 716 ZM827 294 Q829 281 829 265 L829 233 Q750 229 673 226 Q692 100 697 -23 Q661 -40 554 -40 Q549 -17 549 9 Q587 12 629 17 Q623 74 617 125 Q517 79 423 40 Q402 62 392 91 Q492 146 609 197 Q608 211 606 224 Q506 221 407 221 Q401 253 401 286 Q497 290 598 292 Q593 334 588 373 Q611 378 644 382 Q654 337 662 293 Q744 294 827 294 ZM748 168 Q825 155 903 125 Q899 98 885 67 Q787 82 726 112 Q738 149 748 168 Z" /><glyph glyph-name="uni4FE1" unicode="&#x4fe1;" d="M352 525 Q366 500 366 467 Q302 443 241 425 Q274 291 289 148 Q259 139 226 139 Q192 272 173 406 Q129 395 86 387 Q75 412 75 442 Q215 511 352 525 ZM650 731 Q668 731 682 726 Q688 666 689 621 Q783 615 872 608 Q872 580 863 542 Q633 542 387 568 Q387 605 394 636 Q502 632 605 626 Q607 679 617 726 Q633 731 650 731 ZM600 482 Q702 482 759 480 Q763 466 763 448 Q763 433 761 419 Q710 413 596 413 Q547 413 524 417 Q518 429 518 446 Q518 464 522 478 Q539 482 600 482 ZM798 221 Q814 125 814 24 Q670 0 498 -2 Q474 61 468 197 Q621 221 798 221 ZM556 63 L746 74 L734 156 L542 147 L556 63 ZM461 359 Q588 353 702 341 Q700 326 698 311 Q695 289 691 278 Q632 278 573 283 Q514 287 455 295 Q455 326 461 359 Z" /><glyph glyph-name="uni4FE9" unicode="&#x4fe9;" d="M307 524 Q327 501 329 472 Q289 443 243 423 Q264 296 275 162 Q246 153 212 153 Q190 273 176 395 Q141 383 105 375 Q86 395 78 428 Q178 488 307 524 ZM383 671 Q637 671 888 657 L888 627 Q888 604 884 593 L797 593 Q784 529 770 466 Q832 464 873 458 Q892 283 892 91 Q892 50 888 12 Q875 5 850 5 Q807 5 785 10 Q781 31 781 55 Q802 59 827 61 Q827 104 826 146 Q812 133 795 121 Q752 160 714 217 Q702 164 683 114 Q668 114 651 119 Q636 124 625 132 Q651 262 683 397 Q629 396 575 394 Q573 385 571 377 Q561 338 552 299 Q593 242 628 175 Q612 158 587 141 Q558 171 533 212 Q521 161 504 114 Q490 114 472 119 Q457 124 446 132 Q472 260 502 391 Q476 390 451 389 Q446 405 446 422 Q446 436 449 447 Q480 451 517 455 Q534 526 552 597 Q455 599 381 603 Q377 610 377 637 Q377 654 383 671 ZM617 596 Q604 527 589 460 Q640 464 700 466 Q716 530 732 594 Q670 595 617 596 ZM755 398 Q752 385 749 373 Q740 337 732 300 Q783 242 825 174 Q822 286 812 399 Q783 399 755 398 ZM400 396 Q420 396 430 392 Q440 226 440 28 Q429 25 409 25 Q385 25 377 26 Q368 222 368 390 Q374 394 400 396 Z" /><glyph glyph-name="uni4FEE" unicode="&#x4fee;" d="M381 395 Q397 289 406 189 Q373 183 339 183 Q318 285 311 389 Q344 395 381 395 ZM580 747 Q617 738 638 714 Q625 693 611 673 Q724 640 811 600 Q766 538 720 483 Q807 460 892 436 Q884 404 871 377 Q767 398 670 424 Q627 375 586 334 Q680 333 793 319 Q793 288 783 263 Q643 263 568 280 Q568 300 573 320 Q531 278 491 243 Q457 259 437 281 Q510 362 588 447 Q543 460 501 474 Q508 509 520 532 Q581 518 641 503 Q672 536 703 569 Q636 593 567 617 Q524 565 468 512 Q435 519 417 541 Q473 641 580 747 ZM826 129 Q847 101 851 74 Q724 26 564 -10 Q542 20 542 47 Q696 96 826 129 ZM746 220 Q750 193 750 161 Q652 144 562 144 Q556 171 556 200 Q646 214 746 220 ZM347 525 Q361 500 361 467 Q295 442 236 425 Q269 291 284 148 Q255 139 221 139 Q187 272 169 406 Q124 395 82 387 Q70 412 70 442 Q210 511 347 525 Z" /><glyph glyph-name="uni4FF1" unicode="&#x4ff1;" d="M776 97 Q816 53 850 6 Q831 -19 797 -33 Q755 9 721 58 Q748 81 776 97 ZM364 192 Q400 191 434 191 Q427 463 427 696 Q433 699 460 701 Q482 701 492 698 Q494 633 496 566 Q529 569 572 570 Q646 570 683 571 L683 515 Q613 505 497 504 Q498 472 498 440 Q530 443 572 444 Q640 444 674 446 L674 390 Q608 379 499 378 Q500 348 500 320 Q532 323 575 324 Q645 324 680 326 L680 270 Q611 259 500 258 Q501 223 501 190 Q638 187 776 183 Q776 459 772 630 Q726 630 663 639 Q577 645 552 651 Q552 692 556 720 Q697 716 848 696 Q854 646 854 354 Q851 227 845 182 Q883 181 921 180 L921 152 Q921 131 917 117 Q642 119 360 128 Q356 140 356 161 Q356 177 364 192 ZM493 103 Q524 95 558 80 Q536 22 497 -37 Q461 -29 436 -8 Q462 52 493 103 ZM349 532 Q363 507 363 474 Q302 450 245 433 Q279 299 293 155 Q264 146 231 146 Q197 279 178 414 Q133 402 91 394 Q80 419 80 448 Q216 518 349 532 Z" /><glyph glyph-name="uni5019" unicode="&#x5019;" d="M351 557 Q369 535 371 507 Q306 465 230 436 Q261 295 276 145 Q247 135 213 135 Q181 274 163 413 Q127 402 90 394 Q72 413 64 444 Q190 514 351 557 ZM344 419 Q367 419 375 415 Q388 314 388 203 Q378 194 358 194 Q341 194 329 198 Q316 306 314 411 Q324 417 344 419 ZM750 510 L750 598 Q611 602 477 617 Q473 629 473 648 Q473 663 477 676 Q645 674 826 659 Q826 575 820 509 Q868 508 901 504 Q904 496 904 477 Q904 456 901 449 Q888 445 764 445 Q485 445 460 449 Q457 461 457 478 Q457 494 461 507 Q593 510 750 510 ZM603 333 Q746 323 881 305 Q881 282 874 252 Q812 252 748 258 Q741 223 732 189 Q798 193 861 193 Q865 181 865 167 Q865 151 861 139 Q816 130 713 122 Q712 120 712 119 Q699 78 684 35 Q678 17 671 -7 Q665 -28 653 -51 Q622 -45 592 -32 Q613 45 634 117 Q593 114 547 112 Q533 134 533 174 Q596 181 655 185 Q667 226 680 265 Q638 270 597 278 Q597 309 603 333 ZM530 418 Q563 414 598 404 Q553 292 505 175 Q470 179 443 194 Q478 307 530 418 ZM760 73 Q833 58 906 32 Q904 5 892 -20 Q842 -20 747 19 Q750 50 760 73 Z" /><glyph glyph-name="uni501A" unicode="&#x501a;" d="M567 264 Q637 264 683 257 Q687 201 687 137 Q687 94 681 59 Q643 54 566 54 Q491 54 438 63 Q434 116 434 184 Q434 215 438 259 Q492 264 567 264 ZM501 205 L501 112 L617 112 L617 205 L501 205 ZM401 388 Q471 390 575 390 Q812 390 906 386 Q908 375 908 360 L908 333 Q870 323 573 323 Q454 323 403 331 Q399 344 399 360 Q399 377 401 388 ZM444 661 Q517 661 599 658 Q643 724 659 744 Q692 737 721 723 Q717 708 685 655 Q773 651 871 644 Q871 615 865 581 Q753 581 644 587 Q638 577 633 569 Q546 423 525 412 Q490 423 469 442 Q480 466 556 592 Q498 596 442 601 L442 634 Q442 648 444 661 ZM716 550 Q779 523 837 476 Q825 447 802 429 Q737 460 685 503 Q700 529 716 550 ZM849 268 Q876 66 876 -20 Q849 -30 814 -30 Q775 -30 745 -26 Q737 -5 737 17 Q765 24 806 24 Q796 145 791 262 Q820 268 849 268 ZM342 525 Q356 500 356 467 Q290 442 231 425 Q264 291 279 148 Q250 139 216 139 Q182 272 164 406 Q119 395 77 387 Q65 412 65 442 Q205 511 342 525 Z" /><glyph glyph-name="uni5047" unicode="&#x5047;" d="M150 391 Q114 383 80 377 Q68 403 68 432 Q177 481 284 490 Q297 465 297 432 Q255 418 217 407 Q233 299 240 185 Q211 175 177 175 Q160 283 150 391 ZM397 524 Q401 479 404 434 Q477 435 548 436 Q548 517 539 599 Q435 603 307 619 Q307 656 313 680 Q425 680 606 659 Q615 618 615 541 Q615 425 609 389 Q584 371 503 371 Q447 371 408 375 Q411 333 413 293 Q428 294 443 294 Q525 294 575 287 Q579 280 579 261 Q579 241 575 234 Q563 230 443 230 L416 230 Q418 201 419 173 Q434 174 449 174 Q531 174 581 168 Q584 160 584 142 Q584 121 581 115 Q569 110 449 110 L422 110 Q424 74 425 38 Q400 29 361 29 Q341 271 333 516 Q364 522 397 524 ZM757 309 Q835 307 881 300 Q879 266 817 138 Q855 126 892 112 Q890 85 879 60 Q840 60 785 75 Q771 48 755 19 Q722 25 703 42 Q714 69 725 94 Q691 106 654 122 Q658 153 667 177 Q709 168 751 157 Q770 203 790 246 L722 246 Q666 246 659 248 Q652 272 652 300 Q697 307 757 309 ZM669 630 Q828 622 878 608 Q888 556 888 497 Q888 421 880 393 Q844 389 684 389 Q679 419 679 448 Q728 452 820 453 Q816 501 816 548 Q741 559 663 570 Q663 599 669 630 Z" /><glyph glyph-name="uni5065" unicode="&#x5065;" d="M141 417 Q110 410 80 405 Q68 431 68 460 Q177 509 284 519 Q297 493 297 460 Q250 444 206 433 Q221 305 227 169 Q199 159 166 159 Q150 286 141 417 ZM307 440 Q388 432 463 420 Q444 332 415 253 Q457 230 498 207 Q480 162 461 121 Q612 85 761 53 Q761 26 750 4 Q582 19 431 58 Q411 18 391 -18 Q356 -13 338 5 Q354 40 370 74 Q326 86 285 100 Q293 137 303 159 Q351 147 398 136 Q409 160 420 184 Q378 207 335 228 Q356 301 379 374 Q333 378 298 388 Q299 416 307 440 ZM478 659 Q544 659 627 653 Q627 674 629 696 Q643 697 662 697 Q680 697 697 694 L697 647 Q780 639 877 626 Q885 592 886 534 Q912 531 938 529 L938 507 Q938 491 935 483 Q908 483 886 483 Q884 421 874 399 Q851 382 774 382 L693 382 L693 332 Q748 334 803 335 Q806 309 806 279 Q747 275 693 273 L693 240 Q753 242 815 242 Q816 232 816 217 L816 190 Q754 185 693 183 Q693 149 692 118 Q681 116 659 116 Q640 116 628 120 Q625 151 623 180 Q579 179 536 179 Q531 206 531 234 Q576 237 621 238 Q620 256 620 271 Q576 270 536 270 Q530 296 530 324 Q573 327 618 329 Q617 355 617 380 L617 382 Q549 383 501 383 Q498 396 498 408 Q498 427 503 433 Q561 436 618 437 Q618 464 619 490 Q520 495 443 503 Q440 509 440 528 Q440 540 444 552 Q533 552 621 549 Q622 570 623 590 Q551 598 474 608 Q474 638 478 659 ZM696 583 Q696 563 696 546 Q755 543 813 539 Q813 559 813 576 Q756 579 696 583 ZM814 484 Q750 485 695 487 Q695 462 694 439 Q755 442 814 443 Q814 464 814 484 Z" /><glyph glyph-name="uni50CF" unicode="&#x50cf;" d="M294 524 Q314 501 316 472 Q276 443 230 423 Q252 296 262 162 Q233 153 200 153 Q177 273 164 396 Q129 384 92 375 Q73 395 65 428 Q166 488 294 524 ZM516 547 Q636 547 724 540 Q733 568 741 592 Q633 605 527 623 Q458 571 384 529 Q359 547 345 570 Q445 674 595 752 Q622 734 631 709 Q613 693 597 679 Q634 675 672 670 Q775 655 827 643 Q821 599 796 532 Q835 527 866 521 Q872 477 872 417 Q872 355 865 331 Q806 317 619 317 L591 317 Q500 187 466 161 Q436 172 418 202 Q462 263 505 320 Q431 325 406 338 Q401 380 401 413 Q401 456 408 515 Q423 519 438 519 Q456 519 466 517 Q469 427 469 385 Q502 381 550 379 Q602 444 635 484 Q582 487 516 491 Q514 504 514 521 Q514 534 516 547 ZM711 479 Q675 428 637 378 Q762 378 809 380 Q811 427 811 471 Q791 474 711 479 ZM678 227 Q700 126 714 -36 Q692 -49 598 -49 Q584 -38 584 -7 Q601 -5 638 2 Q628 110 618 217 Q644 227 678 227 ZM804 87 Q851 68 895 35 Q882 7 860 -12 Q812 10 773 40 Q788 67 804 87 ZM877 250 Q895 225 903 198 Q850 160 790 147 Q771 172 762 197 Q818 231 877 250 ZM387 146 Q415 140 442 128 Q433 69 407 34 Q386 34 354 49 Q362 100 387 146 ZM499 117 Q527 110 555 98 Q546 32 519 -9 Q498 -9 465 7 Q472 64 499 117 Z" /><glyph glyph-name="uni5112" unicode="&#x5112;" d="M308 551 Q328 527 330 498 Q289 464 242 439 Q268 280 281 109 Q252 100 218 100 Q191 253 176 407 Q139 392 101 382 Q82 401 74 435 Q177 507 308 551 ZM461 749 Q530 750 631 750 Q780 750 839 747 Q840 736 840 722 L840 695 Q821 688 692 686 L692 632 Q803 628 911 620 Q925 529 925 446 Q915 442 897 442 Q885 442 865 444 Q856 482 847 562 Q768 562 690 566 Q689 482 686 389 Q674 385 651 385 Q628 385 618 393 Q618 494 619 569 Q555 573 492 579 Q489 591 489 609 Q489 622 490 636 Q556 636 621 634 Q622 663 623 686 Q511 686 463 693 Q459 705 459 722 Q459 738 461 749 ZM415 630 Q432 630 447 624 Q447 524 441 400 Q430 396 408 396 Q386 396 376 403 Q376 551 382 628 Q397 630 415 630 ZM729 525 Q762 525 804 518 Q804 491 795 468 Q747 468 722 477 Q722 501 729 525 ZM782 432 L800 432 Q803 422 803 408 Q803 396 802 386 Q795 379 779 379 Q741 379 723 382 Q719 391 719 404 Q719 418 722 429 Q735 432 782 432 ZM496 532 Q533 532 578 522 Q578 494 569 472 Q517 472 489 484 Q489 508 496 532 ZM552 433 Q566 433 575 431 Q578 420 578 406 Q578 394 576 383 Q568 378 549 378 Q510 378 491 381 Q486 390 486 404 Q486 419 489 429 Q503 433 552 433 ZM451 354 Q662 336 877 311 L877 287 Q877 268 873 255 Q781 257 689 266 Q684 244 678 223 Q778 218 878 211 Q878 89 871 -7 Q857 -11 839 -11 Q820 -11 808 -3 L808 152 Q778 152 750 154 Q749 87 741 10 Q731 7 710 7 Q689 7 680 14 Q680 102 685 157 Q656 159 628 161 Q627 94 618 16 Q609 13 589 13 Q569 13 560 19 Q560 109 566 165 Q535 168 505 171 Q501 182 501 200 Q501 215 505 228 Q560 227 613 226 Q619 249 626 272 Q537 281 448 296 Q444 306 444 326 Q444 340 451 354 ZM427 220 Q450 220 458 216 Q477 109 477 -8 Q467 -16 447 -16 Q430 -16 418 -12 Q399 101 397 212 Q407 218 427 220 Z" /><glyph glyph-name="uni513F" unicode="&#x513f;" d="M326 587 Q367 583 395 565 Q362 459 246 80 Q209 86 180 103 Q222 309 326 587 ZM632 524 Q646 524 668 520 Q655 325 655 163 L815 163 L815 231 Q832 233 842 233 Q859 233 872 231 Q876 202 876 175 Q876 128 872 109 Q819 97 697 97 Q605 97 578 109 Q578 313 593 522 Q604 524 632 524 Z" /><glyph glyph-name="uni5143" unicode="&#x5143;" d="M233 672 Q464 672 772 660 Q772 630 766 596 Q495 596 231 610 L231 644 Q231 658 233 672 ZM841 366 Q844 351 844 334 L844 301 Q506 280 158 270 Q153 304 153 337 Q323 347 495 354 Q665 362 841 366 ZM589 156 Q601 156 620 152 Q616 86 616 31 L716 31 L716 79 Q732 81 743 81 Q759 81 771 79 Q775 53 775 29 Q775 -4 771 -18 Q736 -28 653 -28 Q570 -28 546 -18 Q546 67 553 154 Q564 156 589 156 ZM331 150 Q362 142 395 127 Q368 48 321 -33 Q287 -25 262 -5 Q294 79 331 150 Z" /><glyph glyph-name="uni5144" unicode="&#x5144;" d="M416 691 Q639 684 809 668 Q809 429 785 249 Q514 249 190 287 Q190 457 210 651 Q230 653 250 653 Q269 653 285 649 Q274 496 267 347 Q482 331 713 317 Q721 466 726 609 Q578 615 410 626 Q410 659 416 691 ZM577 156 Q590 156 609 152 Q604 86 604 31 L704 31 L704 79 Q721 81 731 81 Q747 81 760 79 Q764 53 764 29 Q764 -4 760 -18 Q724 -28 641 -28 Q559 -28 534 -18 Q534 67 541 154 Q552 156 577 156 ZM320 150 Q350 142 383 127 Q357 48 310 -33 Q275 -25 250 -5 Q282 79 320 150 Z" /><glyph glyph-name="uni5148" unicode="&#x5148;" d="M290 689 Q327 677 356 659 Q280 527 197 404 Q160 416 138 438 Q207 566 290 689 ZM781 593 Q783 581 783 566 L783 536 Q693 527 605 522 Q605 421 598 339 Q728 336 855 330 L855 301 Q855 279 851 267 Q423 267 168 279 Q164 287 164 312 Q164 329 170 346 Q352 346 532 341 Q527 424 527 518 Q442 514 359 514 Q353 543 353 574 Q439 582 528 586 Q529 653 533 722 Q548 726 566 726 Q585 726 599 722 Q603 651 604 589 Q692 593 781 593 ZM596 178 Q608 178 627 174 Q622 100 622 39 L723 39 L723 95 Q739 97 750 97 Q766 97 778 95 Q782 69 782 44 Q782 6 778 -10 Q743 -20 660 -20 Q577 -20 553 -10 Q553 82 560 176 Q570 178 596 178 ZM338 170 Q369 162 402 148 Q375 62 328 -26 Q293 -18 269 2 Q301 93 338 170 Z" /><glyph glyph-name="uni5149" unicode="&#x5149;" d="M785 597 Q806 568 815 537 Q760 496 697 482 Q675 511 665 539 Q724 577 785 597 ZM824 354 Q829 340 829 319 Q829 292 826 280 Q515 260 188 256 Q183 291 183 327 Q316 335 464 341 Q459 426 459 522 Q459 625 465 736 Q482 740 500 740 Q521 740 536 736 Q542 623 542 528 Q542 426 535 344 Q674 350 824 354 ZM170 571 Q234 563 310 523 Q303 493 287 467 Q210 473 151 513 Q158 545 170 571 ZM577 156 Q590 156 609 152 Q604 86 604 31 L704 31 L704 79 Q721 81 731 81 Q747 81 760 79 Q764 53 764 29 Q764 -4 760 -18 Q724 -28 641 -28 Q559 -28 534 -18 Q534 67 541 154 Q552 156 577 156 ZM320 150 Q350 142 383 127 Q357 48 310 -33 Q275 -25 250 -5 Q282 79 320 150 Z" /><glyph glyph-name="uni514B" unicode="&#x514b;" d="M489 740 Q510 740 524 739 Q530 703 534 667 Q685 662 833 651 L833 623 Q833 602 830 591 Q672 591 541 594 Q545 544 545 495 Q650 491 751 482 Q760 449 760 326 Q760 247 755 209 Q662 203 439 203 Q339 203 252 219 Q239 251 239 329 Q239 374 248 491 Q261 495 281 495 Q296 495 312 491 Q312 447 311 277 Q500 266 687 266 Q691 286 691 326 Q691 367 689 418 Q440 428 377 434 Q372 444 372 469 Q372 485 373 500 Q423 499 471 498 Q462 547 458 596 Q305 601 191 611 Q188 618 188 643 Q188 658 193 674 Q323 674 452 670 Q450 704 450 737 Q467 738 489 740 ZM593 156 Q605 156 624 152 Q619 86 619 31 L720 31 L720 79 Q736 81 747 81 Q763 81 775 79 Q779 53 779 29 Q779 -4 775 -18 Q740 -28 657 -28 Q574 -28 550 -18 Q550 67 557 154 Q567 156 593 156 ZM335 150 Q366 142 399 127 Q372 48 325 -33 Q291 -25 266 -5 Q298 79 335 150 Z" /><glyph glyph-name="uni5151" unicode="&#x5151;" d="M597 146 Q609 146 628 141 Q623 79 623 26 L724 26 L724 71 Q740 73 751 73 Q767 73 779 71 Q783 45 783 21 Q783 -10 779 -23 Q744 -33 661 -33 Q578 -33 554 -23 Q554 59 561 143 Q571 146 597 146 ZM329 150 Q360 142 393 127 Q367 48 319 -33 Q285 -25 260 -5 Q292 79 329 150 ZM725 725 Q761 716 782 693 Q754 636 703 575 Q670 582 653 604 Q678 663 725 725 ZM302 738 Q343 685 375 621 Q353 601 322 586 Q278 641 248 703 Q271 721 302 738 ZM361 547 Q571 545 771 531 Q779 490 779 341 Q779 264 775 228 Q665 216 400 216 Q311 216 234 230 Q221 260 221 332 Q221 385 235 520 Q247 525 266 525 Q281 525 296 520 Q296 471 290 281 Q500 277 706 277 Q711 299 711 341 Q711 400 709 473 Q433 482 365 487 Q359 496 359 519 Q359 533 361 547 Z" /><glyph glyph-name="uni5154" unicode="&#x5154;" d="M546 510 Q572 548 585 581 Q485 609 399 640 Q385 627 373 617 Q341 591 307 565 Q275 537 238 511 Q210 529 190 555 Q294 663 433 765 Q465 747 485 725 Q470 708 455 692 Q562 663 684 622 Q673 584 625 506 Q732 499 785 489 Q796 434 796 337 Q796 271 789 232 Q753 218 559 218 Q498 220 449 223 Q379 78 312 -37 Q279 -28 259 -8 Q293 73 369 228 Q236 238 185 255 Q177 284 177 350 Q177 403 191 473 Q206 477 226 477 Q246 477 261 473 Q261 369 253 304 Q326 297 401 294 Q435 362 475 441 Q400 443 320 443 Q316 459 316 476 Q316 493 320 504 Q419 510 546 510 ZM550 439 Q515 361 482 291 Q517 289 552 289 Q641 289 726 286 Q724 359 722 428 Q640 435 550 439 ZM565 158 Q578 158 597 154 Q592 87 592 31 L693 31 L693 79 Q709 81 719 81 Q736 81 748 79 Q752 53 752 29 Q752 -4 748 -18 Q712 -28 630 -28 Q547 -28 523 -18 Q523 68 530 156 Q540 158 565 158 ZM785 195 Q820 152 834 118 Q819 105 787 92 Q758 122 736 169 Q757 186 785 195 Z" /><glyph glyph-name="uni5168" unicode="&#x5168;" d="M537 744 Q562 724 578 701 Q562 687 547 675 Q728 571 911 454 Q900 425 869 402 Q661 504 490 627 Q329 495 129 352 Q102 374 87 399 Q307 606 537 744 ZM303 271 Q385 271 478 270 Q475 306 473 342 Q506 348 543 348 Q547 307 551 269 Q634 267 724 264 Q724 233 718 199 Q637 199 558 201 Q565 131 569 67 Q639 70 711 70 Q713 57 713 41 L713 10 Q536 -11 364 -11 Q358 20 358 52 Q428 60 500 64 Q490 133 483 202 Q391 203 300 207 L300 242 Q300 257 303 271 ZM544 461 Q637 461 693 454 Q697 445 697 424 Q697 401 693 394 Q679 389 544 389 Q340 389 321 394 Q318 406 318 426 Q318 443 323 457 Q423 461 544 461 Z" /><glyph glyph-name="uni516B" unicode="&#x516b;" d="M291 521 Q330 516 356 499 Q322 395 283 293 Q262 242 248 202 Q238 174 228 151 Q220 123 199 88 Q165 99 139 120 Q217 339 291 521 ZM595 658 Q762 398 907 138 Q889 109 849 92 Q684 351 539 619 Q568 644 595 658 Z" /><glyph glyph-name="uni516C" unicode="&#x516c;" d="M382 680 Q413 661 434 632 Q347 522 157 375 Q121 394 107 427 Q238 567 382 680 ZM757 196 Q777 162 792 129 Q808 95 820 67 Q792 46 756 39 Q716 102 692 170 Q727 187 757 196 ZM465 394 Q497 383 531 362 Q460 214 398 93 Q516 84 637 72 Q637 39 630 8 Q349 11 279 40 Q309 109 366 217 Q410 300 465 394 ZM652 704 Q773 602 891 494 Q869 463 834 446 Q701 542 599 656 Q616 691 652 704 Z" /><glyph glyph-name="uni516D" unicode="&#x516d;" d="M167 461 Q510 461 847 440 L847 410 Q847 388 844 377 Q418 377 165 394 Q161 402 161 428 Q161 444 167 461 ZM327 262 Q370 257 399 238 Q375 179 347 121 Q332 92 323 69 Q315 54 308 40 Q302 25 287 5 Q249 17 220 41 Q275 161 327 262 ZM453 722 Q533 683 616 632 Q610 616 600 603 Q592 587 581 573 Q494 601 416 661 Q429 697 453 722 ZM726 179 Q775 123 813 55 Q789 33 757 18 Q705 77 670 143 Q694 162 726 179 Z" /><glyph glyph-name="uni5170" unicode="&#x5170;" d="M294 322 Q492 318 688 295 Q688 266 682 239 Q484 239 288 261 Q288 293 294 322 ZM246 542 Q296 540 344 538 Q326 609 319 681 Q350 692 382 695 Q407 614 418 535 Q498 531 578 527 Q598 615 651 692 Q678 685 705 673 Q689 585 649 524 Q710 521 771 518 L771 487 Q771 463 766 447 Q508 450 242 469 Q237 483 237 507 Q237 524 246 542 ZM186 99 Q260 101 370 101 Q686 101 812 97 Q814 85 814 69 L814 40 Q764 31 368 31 Q243 31 188 38 Q184 52 184 69 Q184 87 186 99 Z" /><glyph glyph-name="uni5171" unicode="&#x5171;" d="M854 313 Q858 301 858 283 Q858 260 856 250 Q505 229 137 225 Q133 254 133 285 Q210 289 292 293 Q282 420 279 547 Q223 549 170 552 Q170 587 177 615 Q228 615 277 614 Q276 666 276 716 Q293 718 315 720 Q336 720 350 718 Q353 665 355 613 Q510 611 662 603 Q669 659 677 712 Q694 714 713 714 Q736 712 744 708 Q742 654 738 599 Q787 597 835 594 Q835 563 829 533 Q780 533 733 534 Q724 421 708 309 Q781 311 854 313 ZM654 535 Q503 537 357 543 Q361 420 362 296 Q493 302 636 306 Q643 426 654 535 ZM343 166 Q374 158 408 143 Q379 66 327 -13 Q291 -5 266 16 Q301 98 343 166 ZM713 139 Q755 90 789 31 Q766 10 735 -5 Q689 46 658 104 Q681 122 713 139 Z" /><glyph glyph-name="uni5173" unicode="&#x5173;" d="M162 305 Q278 305 394 303 Q433 385 481 482 Q325 486 210 492 Q206 499 206 523 Q206 539 212 555 Q517 555 818 539 L818 511 Q818 490 814 479 Q673 479 556 481 Q515 387 476 302 Q660 299 841 292 L841 264 Q841 242 838 231 Q616 231 443 234 Q375 93 310 -22 Q277 -13 257 7 Q290 86 361 235 Q249 237 160 240 Q157 247 157 272 Q157 289 162 305 ZM629 126 Q709 88 782 22 Q770 -7 748 -25 Q665 19 599 79 Q613 106 629 126 ZM309 731 Q355 677 392 613 Q371 594 341 580 Q292 635 258 697 Q280 715 309 731 ZM733 734 Q761 724 787 703 Q751 636 702 567 Q668 576 640 604 Q683 671 733 734 Z" /><glyph glyph-name="uni5174" unicode="&#x5174;" d="M350 210 Q386 201 408 176 Q369 93 298 5 Q265 12 247 34 Q282 119 350 210 ZM772 666 Q801 658 832 645 Q791 522 718 397 Q685 404 662 424 Q712 555 772 666 ZM534 666 Q551 576 559 479 Q530 469 497 469 Q477 563 467 658 Q500 666 534 666 ZM155 347 Q515 347 871 323 L871 292 Q871 269 867 257 Q419 257 153 277 Q149 284 149 312 Q149 329 155 347 ZM257 636 Q325 531 384 420 Q367 398 331 387 Q261 494 203 604 Q227 623 257 636 ZM630 199 Q706 134 767 53 Q750 34 722 15 Q646 68 583 160 Q606 183 630 199 Z" /><glyph glyph-name="uni5175" unicode="&#x5175;" d="M644 740 Q651 712 651 681 Q469 628 285 615 Q272 637 272 676 Q450 716 644 740 ZM295 560 Q317 560 331 558 L331 528 Q556 526 774 497 Q774 467 769 439 Q717 439 668 441 Q676 362 677 279 Q765 282 855 285 Q859 273 859 255 Q859 231 857 221 Q513 198 151 194 Q147 224 147 256 Q204 259 264 262 Q256 408 256 556 Q274 558 295 560 ZM612 277 Q604 361 601 443 Q464 449 332 465 Q334 365 334 266 Q468 272 612 277 ZM307 173 Q339 165 372 150 Q343 71 290 -10 Q254 -2 229 19 Q265 103 307 173 ZM684 145 Q728 95 763 34 Q740 13 708 -2 Q661 50 630 109 Q653 128 684 145 Z" /><glyph glyph-name="uni5176" unicode="&#x5176;" d="M847 265 Q851 253 851 235 Q851 211 849 201 Q509 182 151 178 Q147 208 147 240 Q222 244 300 247 Q302 420 316 597 Q219 598 173 604 Q169 618 169 635 Q169 652 171 663 Q234 665 321 665 Q324 706 328 747 Q355 747 384 743 Q384 703 383 665 Q526 665 626 662 Q627 706 629 749 Q645 753 663 753 Q682 753 696 749 Q699 702 700 660 Q757 658 795 655 Q796 643 796 628 L796 599 Q777 598 702 598 L702 556 Q702 390 695 261 Q770 263 847 265 ZM381 597 Q380 547 378 499 Q395 500 417 500 Q489 500 529 497 Q533 485 533 469 Q533 455 531 443 Q495 438 413 438 Q390 438 375 439 Q373 412 371 386 Q451 394 523 394 Q527 383 527 369 Q527 354 523 343 Q484 333 366 324 Q363 286 359 250 Q490 255 631 259 Q624 393 624 550 Q624 574 625 597 L381 597 ZM343 166 Q374 158 408 143 Q379 66 327 -13 Q291 -5 266 16 Q301 98 343 166 ZM713 139 Q755 90 789 31 Q766 10 735 -5 Q689 46 658 104 Q681 122 713 139 Z" /><glyph glyph-name="uni5177" unicode="&#x5177;" d="M674 96 Q716 48 750 -4 Q732 -29 697 -43 Q654 4 619 57 Q647 80 674 96 ZM147 190 Q198 189 248 188 Q240 472 240 716 Q246 720 273 722 Q294 722 304 718 Q307 646 310 570 Q341 573 385 574 Q496 574 551 575 L551 519 Q461 509 311 508 Q312 478 312 449 Q343 452 385 453 Q488 453 539 455 L539 399 Q454 388 313 387 Q314 356 314 324 Q345 327 388 328 Q494 328 546 330 L546 274 Q458 263 314 262 Q315 225 315 187 Q497 184 677 180 Q677 470 683 650 Q621 650 536 660 Q420 666 386 672 Q386 713 390 741 Q568 737 759 717 Q755 663 755 351 Q752 224 747 179 Q802 178 854 177 L854 150 Q854 128 850 114 Q501 116 143 126 Q139 138 139 159 Q139 175 147 190 ZM316 100 Q348 92 381 77 Q355 16 308 -47 Q272 -39 247 -18 Q279 46 316 100 Z" /><glyph glyph-name="uni5178" unicode="&#x5178;" d="M259 637 Q279 637 292 633 Q298 536 298 456 Q355 455 412 452 Q412 519 413 575 Q381 577 350 580 Q348 597 348 609 Q348 624 352 637 Q383 636 414 636 Q415 688 416 728 Q430 730 447 730 Q463 730 477 725 L477 634 Q518 633 556 632 Q557 687 558 729 Q572 731 589 731 Q604 731 618 726 L618 630 Q720 627 813 622 Q813 435 787 254 Q835 255 882 256 Q885 241 885 224 L885 190 Q513 169 130 159 Q124 193 124 228 Q175 231 226 233 Q220 327 220 434 Q220 529 226 633 Q242 637 259 637 ZM292 236 Q397 241 501 245 Q608 250 716 252 Q735 401 737 558 Q677 559 617 562 Q616 503 615 442 Q650 440 685 437 Q685 413 680 382 Q646 382 614 383 Q614 348 613 313 Q603 310 583 310 Q562 310 554 317 L554 384 Q512 385 474 387 Q474 349 473 309 Q462 305 441 305 Q420 305 411 312 L411 390 Q353 393 298 398 Q297 308 292 236 ZM476 571 Q475 511 475 449 Q515 448 554 446 Q554 510 555 565 Q516 567 476 571 ZM339 147 Q370 139 404 124 Q376 54 327 -17 Q291 -8 266 12 Q300 85 339 147 ZM707 146 Q752 95 787 34 Q764 13 733 -2 Q684 51 652 110 Q675 129 707 146 Z" /><glyph glyph-name="uni517B" unicode="&#x517b;" d="M649 770 Q678 762 709 748 Q698 710 681 670 Q737 668 790 666 Q790 634 784 604 Q644 604 510 607 Q495 578 472 537 Q653 537 730 533 Q732 522 732 507 L732 479 Q698 470 432 470 Q415 436 393 399 Q708 399 837 396 Q839 384 839 368 L839 339 Q820 336 758 333 Q800 283 840 232 Q821 205 790 190 Q725 256 676 331 Q554 329 351 329 Q331 299 315 269 Q294 227 257 181 Q229 192 200 214 Q233 275 265 330 Q202 332 168 337 Q165 351 165 368 Q165 386 166 398 Q225 399 305 399 Q326 436 347 471 Q286 473 253 477 Q250 490 250 507 Q250 524 251 535 Q309 537 387 537 Q409 574 431 609 Q332 612 235 616 Q235 651 242 679 Q304 679 366 678 Q356 723 351 767 Q384 774 417 774 Q428 726 433 677 Q523 676 610 673 Q628 725 649 770 ZM627 264 Q649 264 659 260 Q667 122 667 -43 Q656 -47 634 -47 Q609 -47 601 -45 Q594 118 594 258 Q600 262 627 264 ZM371 264 Q404 264 435 256 Q435 225 418 108 Q408 33 390 -40 Q359 -40 330 -34 Q330 66 371 264 Z" /><glyph glyph-name="uni5185" unicode="&#x5185;" d="M238 544 Q273 295 288 46 Q262 36 222 36 Q186 285 172 536 Q204 542 238 544 ZM512 701 Q542 697 571 686 Q561 635 550 586 Q698 578 845 566 Q865 416 865 116 Q854 110 798 110 Q749 110 721 115 Q720 125 720 141 Q720 155 721 165 Q761 166 798 168 Q795 349 781 500 Q660 506 534 515 Q513 429 490 350 Q569 334 656 314 Q652 290 638 257 Q549 265 472 287 Q459 243 445 200 L405 206 Q390 210 378 215 Q402 360 451 521 Q371 527 289 534 Q288 556 288 569 Q288 579 293 597 Q383 594 473 590 Q491 646 512 701 Z" /><glyph glyph-name="uni5188" unicode="&#x5188;" d="M202 567 Q223 567 232 563 Q249 326 249 45 Q237 41 216 41 Q192 41 184 43 Q169 322 169 561 Q175 565 202 567 ZM567 671 Q727 671 824 666 Q844 478 844 270 Q844 153 840 46 Q821 40 786 40 Q746 40 727 44 Q723 64 723 85 Q746 89 775 91 Q775 345 758 607 Q544 604 303 593 Q298 609 298 626 Q298 640 301 651 Q393 665 567 671 ZM387 483 Q447 431 505 377 Q562 433 621 483 Q646 468 664 444 Q622 387 561 324 Q620 266 676 208 Q660 179 632 161 Q567 217 509 272 Q451 216 379 155 Q350 171 338 198 Q395 265 454 325 Q395 381 342 438 Q363 465 387 483 Z" /><glyph glyph-name="uni518D" unicode="&#x518d;" d="M617 696 Q710 696 767 689 Q770 680 770 659 Q770 637 767 629 Q752 624 617 624 Q283 624 252 629 Q249 642 249 661 Q249 679 254 693 Q418 696 617 696 ZM262 436 Q282 436 295 434 Q302 309 305 182 Q390 188 479 193 Q479 239 479 279 Q431 277 374 275 Q361 296 361 335 Q423 339 480 340 Q480 392 481 434 Q423 438 368 443 Q368 471 374 497 Q428 497 483 495 Q484 535 486 566 Q501 568 521 568 Q538 568 554 563 L554 492 Q670 487 791 475 Q800 348 800 240 L800 211 Q835 213 869 214 Q873 203 873 187 Q873 165 871 156 Q835 153 799 150 Q797 75 793 25 Q784 14 672 14 Q663 37 663 57 Q691 62 724 64 Q723 104 722 143 Q516 127 306 121 Q307 63 307 7 Q296 2 274 2 Q255 2 242 4 Q237 62 234 119 Q205 118 177 117 Q174 144 174 173 Q203 175 231 177 Q225 304 225 432 Q241 434 262 436 ZM553 429 Q553 386 552 342 Q607 344 659 344 Q663 332 663 319 Q663 303 659 291 Q623 286 550 282 Q549 240 548 197 Q633 203 721 207 Q719 315 717 421 Q634 424 553 429 Z" /><glyph glyph-name="uni5199" unicode="&#x5199;" d="M218 715 Q237 715 253 709 Q253 595 241 453 Q229 449 205 449 Q180 449 170 457 Q170 626 182 713 Q198 715 218 715 ZM346 693 Q616 693 875 681 Q886 573 886 475 Q876 471 858 471 Q845 471 825 473 Q817 519 810 618 Q581 618 348 630 Q344 644 344 663 Q344 677 346 693 ZM630 463 Q721 463 775 456 Q779 447 779 427 Q779 405 775 398 Q762 393 630 393 Q473 393 415 395 Q409 355 402 316 Q575 307 750 288 Q748 130 703 -23 Q687 -27 647 -27 Q622 -27 582 -12 L582 29 Q618 26 649 26 Q661 139 670 230 Q514 234 330 259 Q330 407 369 548 Q404 548 435 540 Q430 501 424 460 Q520 463 630 463 ZM616 171 Q620 157 620 141 L620 109 Q427 77 229 63 Q224 95 224 126 Q321 142 419 153 Q516 165 616 171 Z" /><glyph glyph-name="uni519B" unicode="&#x519b;" d="M217 478 Q307 478 397 476 Q421 523 446 570 Q476 560 507 541 Q492 506 477 474 Q635 469 791 459 L791 429 Q791 406 787 395 Q594 395 444 399 Q416 339 391 285 Q478 282 564 279 Q565 312 567 343 Q582 347 600 347 Q619 347 633 343 Q635 308 636 276 Q710 274 784 271 Q784 238 778 208 Q702 208 638 209 Q639 177 639 150 L639 137 Q748 142 861 146 Q865 133 865 113 Q865 87 863 76 Q750 67 638 60 Q637 -10 633 -69 Q625 -73 600 -73 Q581 -73 573 -69 Q565 -9 563 56 Q400 48 236 45 Q232 78 232 113 Q386 125 561 133 L561 144 Q561 177 562 211 Q350 216 282 232 Q309 297 359 401 Q360 402 359 402 Q280 405 215 409 Q211 417 211 443 Q211 461 217 478 ZM196 712 Q213 712 228 706 Q228 614 217 499 Q206 495 183 495 Q161 495 152 503 Q152 640 163 710 Q178 712 196 712 ZM321 710 Q591 710 851 696 Q855 600 855 513 Q844 509 826 509 Q813 509 792 511 Q788 549 784 632 Q555 632 323 646 Q319 660 319 680 Q319 694 321 710 Z" /><glyph glyph-name="uni519C" unicode="&#x519c;" d="M240 561 Q257 561 272 556 Q272 485 261 397 Q250 393 228 393 Q206 393 197 400 Q197 505 207 560 Q222 561 240 561 ZM316 579 Q381 578 446 577 Q484 640 524 709 Q556 700 583 682 Q554 626 527 575 Q664 570 806 562 Q806 464 798 388 Q785 384 767 384 Q748 384 736 392 L736 499 Q611 501 491 508 Q442 420 395 340 Q409 342 422 343 Q438 207 453 72 Q500 72 552 77 Q557 64 557 49 L557 17 Q488 7 395 7 Q376 101 359 280 Q302 188 249 109 Q217 118 197 138 Q257 255 408 513 Q361 515 316 519 Q312 530 312 550 Q312 566 316 579 ZM752 283 Q780 264 790 237 Q759 204 723 178 Q777 125 827 73 Q810 42 781 23 Q643 144 524 272 Q547 300 572 319 Q624 273 674 226 Q708 257 752 283 Z" /><glyph glyph-name="uni51A0" unicode="&#x51a0;" d="M178 695 Q195 695 210 690 Q210 593 199 473 Q187 469 165 469 Q142 469 132 477 Q132 620 144 693 Q159 695 178 695 ZM295 692 Q593 692 879 683 Q893 582 893 490 Q883 486 865 486 Q852 486 832 488 Q823 531 814 622 Q558 622 297 631 Q293 644 293 663 Q293 677 295 692 ZM500 314 Q502 303 502 287 L502 259 Q318 239 138 239 Q132 268 132 298 Q305 314 500 314 ZM233 472 Q353 468 473 448 Q473 421 467 396 Q347 396 227 415 Q227 444 233 472 ZM382 221 Q412 219 441 211 Q437 130 423 48 Q569 27 727 20 Q731 45 733 79 Q745 81 758 81 Q770 79 786 77 L786 21 Q786 1 778 -42 Q569 -42 349 6 Q361 124 382 221 ZM582 296 Q619 263 650 227 Q633 203 600 190 Q561 222 530 259 Q556 281 582 296 ZM861 416 Q863 405 863 390 L863 362 Q824 357 786 353 Q800 216 800 127 Q764 115 730 115 Q680 115 664 125 Q661 131 661 147 Q661 162 663 172 Q694 176 726 176 Q723 263 717 347 Q623 339 533 339 Q528 367 528 396 Q618 408 713 412 Q711 451 708 490 Q736 496 768 498 Q774 454 779 415 Q820 416 861 416 ZM242 225 Q275 219 300 203 Q250 43 217 -20 Q180 -15 159 3 Q199 121 242 225 Z" /><glyph glyph-name="uni51AC" unicode="&#x51ac;" d="M425 677 Q568 663 735 625 Q714 574 651 500 Q619 460 581 418 Q736 366 886 309 Q878 278 863 248 Q692 294 522 355 Q417 243 278 143 Q252 164 235 192 Q351 284 449 381 Q391 403 335 425 Q343 464 359 491 Q435 468 509 443 Q570 509 624 576 Q521 598 418 616 Q418 646 425 677 ZM441 58 Q532 58 645 42 Q645 8 634 -20 Q503 -20 432 -2 Q432 28 441 58 ZM478 227 Q561 222 637 210 Q635 195 633 180 Q631 158 627 147 Q588 147 549 153 Q510 157 471 165 Q471 195 478 227 ZM355 789 Q391 782 421 766 Q416 736 328 573 Q234 391 211 377 Q173 389 151 410 Q162 440 246 602 Q331 753 355 789 Z" /><glyph glyph-name="uni51B0" unicode="&#x51b0;" d="M646 692 Q678 371 683 37 Q644 24 559 24 Q551 45 551 66 Q579 71 609 76 Q598 377 582 686 Q609 692 646 692 ZM327 459 Q510 403 534 388 Q509 332 470 270 Q406 160 378 136 Q342 152 326 176 Q382 268 436 355 Q392 370 306 397 Q314 435 327 459 ZM860 501 Q889 482 899 454 Q849 401 790 363 Q763 383 748 408 Q793 462 860 501 ZM793 256 Q847 225 903 185 Q897 171 889 158 Q882 144 871 132 Q813 154 760 201 Q772 233 793 256 ZM235 243 L260 243 L260 179 Q208 168 118 168 Q112 201 112 234 Q156 241 235 243 ZM120 565 Q193 565 282 544 Q282 508 270 479 Q167 479 111 502 Q111 533 120 565 Z" /><glyph glyph-name="uni51B2" unicode="&#x51b2;" d="M234 236 Q261 236 275 234 L275 170 Q217 161 117 161 Q111 194 111 227 Q155 234 234 236 ZM114 574 Q189 574 282 557 Q282 521 270 492 Q163 492 105 512 Q105 543 114 574 ZM683 583 Q815 583 886 579 Q903 562 905 407 Q905 262 899 226 Q838 196 694 196 Q681 196 669 196 Q669 116 669 2 Q660 -4 636 -4 Q610 -4 601 0 Q593 82 590 197 Q412 202 352 224 Q347 297 347 426 Q347 476 351 563 L419 563 L419 281 Q479 271 589 268 Q588 319 588 373 Q588 431 588 510 Q524 507 477 507 L477 572 Q534 578 589 581 Q590 646 591 720 Q612 724 630 724 Q649 724 666 720 Q666 642 666 583 Q676 583 683 583 ZM666 514 Q667 407 667 371 Q668 342 668 267 Q679 267 689 267 Q811 270 833 282 L833 419 Q833 441 823 511 Q782 512 666 514 Z" /><glyph glyph-name="uni51B7" unicode="&#x51b7;" d="M235 243 L260 243 L260 179 Q208 168 118 168 Q112 201 112 234 Q156 241 235 243 ZM120 548 Q193 548 282 527 Q282 491 270 462 Q167 462 111 485 Q111 517 120 548 ZM572 722 Q605 708 633 689 Q617 669 601 651 Q734 589 853 516 Q841 489 818 463 Q688 521 556 600 Q537 579 518 559 Q478 519 439 478 Q400 434 366 405 Q333 418 314 440 Q459 608 572 722 ZM411 303 Q692 301 782 289 Q772 198 672 56 Q708 40 741 25 Q739 -8 713 -31 Q580 18 466 74 Q478 107 492 129 Q554 106 614 81 Q655 154 696 227 Q522 236 409 244 Q407 260 407 276 Q409 289 411 303 ZM548 479 Q610 452 666 406 Q655 379 633 362 Q570 392 519 434 Q533 459 548 479 Z" /><glyph glyph-name="uni51C0" unicode="&#x51c0;" d="M248 236 Q276 236 290 234 L290 170 Q232 161 132 161 Q125 194 125 227 Q169 234 248 236 ZM129 574 Q204 574 296 557 Q296 521 285 492 Q178 492 120 512 Q120 543 129 574 ZM357 342 Q470 342 580 339 L580 398 Q610 404 642 404 Q645 369 647 336 Q703 334 759 332 Q757 379 753 427 Q602 429 417 437 Q417 472 422 495 Q575 495 822 483 Q831 442 831 363 L831 328 Q867 326 900 324 L900 299 Q900 281 897 271 L830 271 Q829 182 826 147 Q801 129 720 129 Q687 129 658 130 Q661 54 662 -20 Q644 -30 602 -30 Q561 -30 541 -26 Q536 -5 536 15 Q568 19 596 19 Q591 77 588 132 Q494 137 430 149 Q427 163 427 176 Q427 196 431 202 Q508 199 585 197 Q583 237 582 275 Q452 279 356 286 Q353 292 353 314 Q353 328 357 342 ZM651 274 Q653 234 655 196 Q709 195 763 194 Q763 233 762 272 Q703 273 651 274 ZM579 771 Q605 750 628 724 Q612 704 590 682 Q599 683 608 683 Q723 681 792 669 Q791 641 702 503 Q667 509 647 528 Q670 572 696 616 Q633 622 573 622 Q541 622 526 623 Q506 605 486 585 Q452 551 418 527 Q392 546 375 573 Q474 679 579 771 Z" /><glyph glyph-name="uni51C9" unicode="&#x51c9;" d="M234 236 Q261 236 275 234 L275 170 Q217 161 117 161 Q111 194 111 227 Q155 234 234 236 ZM114 574 Q189 574 282 557 Q282 521 270 492 Q163 492 105 512 Q105 543 114 574 ZM599 721 Q618 721 635 715 Q635 677 632 632 Q742 628 852 622 L852 592 Q852 569 848 554 Q607 556 360 573 Q355 586 355 609 Q355 626 364 643 Q460 640 556 636 Q558 688 562 719 Q578 721 599 721 ZM543 492 Q670 490 790 475 Q798 445 798 337 Q798 263 794 228 Q743 218 620 218 Q522 218 436 234 Q424 263 424 335 Q424 370 428 460 Q440 464 457 464 Q471 464 485 460 Q485 426 489 292 Q611 284 732 284 Q736 302 736 337 Q736 370 734 410 Q585 420 547 426 Q541 436 541 461 Q541 477 543 492 ZM647 193 Q663 135 678 -4 Q657 -11 618 -11 Q578 -11 552 -7 Q546 11 546 35 Q575 35 604 37 Q589 123 585 189 Q616 193 647 193 ZM770 171 Q828 136 882 76 Q869 46 845 26 Q785 66 737 122 Q752 149 770 171 ZM425 167 Q458 160 486 145 Q469 86 444 15 Q409 17 383 34 Q399 106 425 167 Z" /><glyph glyph-name="uni51E1" unicode="&#x51e1;" d="M401 402 Q494 384 587 338 Q584 311 570 279 Q453 302 379 346 Q391 383 401 402 ZM240 637 Q274 637 306 629 Q306 567 277 339 Q261 195 232 52 Q200 52 170 58 Q170 253 240 637 ZM431 711 Q613 682 813 643 Q779 379 746 137 Q803 125 865 111 Q861 76 847 47 Q764 55 664 86 Q701 451 724 586 Q668 594 545 617 Q473 630 416 644 Q420 680 431 711 Z" /><glyph glyph-name="uni51E4" unicode="&#x51e4;" d="M198 684 Q230 684 260 676 L260 656 Q602 681 789 686 Q833 401 850 196 L911 196 Q916 177 916 152 Q870 136 795 136 Q751 396 724 619 Q495 600 255 589 Q249 516 237 399 Q224 261 201 124 Q170 124 142 130 Q142 317 198 684 ZM355 439 Q514 428 701 398 Q686 356 641 296 Q605 245 558 190 Q548 177 538 166 Q619 110 697 52 Q688 26 659 5 Q568 57 489 113 Q435 57 374 7 Q349 29 332 56 Q385 104 432 154 Q374 198 322 243 Q339 272 358 289 Q420 249 480 207 Q540 277 589 349 Q469 365 347 378 Q347 407 355 439 Z" /><glyph glyph-name="uni51EF" unicode="&#x51ef;" d="M115 426 Q247 426 461 411 Q470 371 470 296 Q470 209 459 182 Q432 162 343 162 Q266 162 207 164 Q206 85 203 32 Q255 32 373 26 Q378 17 378 1 Q378 -12 377 -23 Q331 -35 223 -35 Q175 -35 139 -27 Q133 -1 133 58 Q133 114 140 168 Q120 169 104 171 Q100 186 100 200 Q100 222 106 229 Q254 231 399 232 Q399 290 397 348 Q267 351 109 361 Q109 400 115 426 ZM682 539 Q775 531 884 515 Q870 328 853 148 Q875 142 902 136 Q902 111 892 83 Q833 87 779 111 Q792 290 808 461 Q736 469 673 485 Q676 519 682 539 ZM626 455 Q648 453 655 449 Q647 265 620 80 Q613 76 587 76 Q566 76 553 82 Q563 280 590 453 Q607 455 626 455 ZM287 737 Q304 737 320 732 Q320 655 317 563 Q360 562 402 562 Q406 552 406 532 Q406 517 404 505 Q328 498 215 498 Q151 498 94 504 Q79 575 79 674 Q109 678 137 678 Q145 625 150 563 Q200 563 248 563 Q248 675 251 735 Q267 737 287 737 ZM475 681 Q500 641 510 561 Q482 546 455 543 Q428 593 423 666 Q445 677 475 681 Z" /><glyph glyph-name="uni51F0" unicode="&#x51f0;" d="M170 719 Q202 719 231 712 Q231 698 230 677 Q585 719 780 727 Q824 449 841 249 L897 249 Q903 230 903 204 Q858 189 786 189 Q742 442 715 660 Q475 627 224 608 Q218 545 208 454 Q194 324 171 197 Q141 197 113 203 Q113 377 170 719 ZM506 613 Q508 581 508 551 Q596 550 672 547 Q678 517 678 388 Q678 282 670 266 Q600 254 419 254 Q312 254 265 273 Q258 314 258 377 Q258 457 269 535 Q283 538 302 538 Q319 538 332 535 Q331 479 331 430 Q439 435 535 435 Q539 424 539 411 Q539 396 535 385 Q483 377 330 372 Q330 342 330 316 Q347 310 419 310 Q565 310 604 313 Q608 342 608 388 Q608 434 606 496 Q480 496 375 503 Q372 512 372 529 Q372 543 375 552 L444 552 Q442 579 441 607 Q471 613 506 613 ZM637 227 Q641 217 641 205 Q641 191 637 181 Q593 175 501 169 Q508 139 513 109 Q580 112 641 112 Q645 102 645 90 Q645 76 641 66 Q602 60 522 54 Q526 29 528 4 Q603 8 682 8 Q684 -2 684 -15 L684 -40 Q492 -64 305 -64 Q300 -39 300 -13 Q380 -4 464 1 Q458 27 454 50 Q393 47 317 44 Q305 63 305 97 Q378 103 445 106 Q441 137 438 166 Q367 162 278 159 Q266 177 266 212 Q464 227 637 227 Z" /><glyph glyph-name="uni5200" unicode="&#x5200;" d="M441 547 Q321 556 198 569 Q196 590 196 604 Q196 613 202 631 Q496 621 794 593 Q814 416 814 64 Q802 58 740 58 Q682 58 650 69 Q648 81 648 99 Q648 114 650 126 Q698 125 742 122 Q738 343 724 527 Q618 533 510 542 Q454 423 390 308 Q354 245 330 197 Q312 163 295 135 Q280 100 244 58 Q212 68 189 87 Q318 337 441 547 Z" /><glyph glyph-name="uni5206" unicode="&#x5206;" d="M569 369 Q647 369 746 361 Q751 289 751 199 L751 49 Q732 45 686 45 Q647 45 618 49 Q614 63 614 76 L614 98 Q648 102 681 102 Q681 185 675 293 Q568 294 469 294 Q453 231 430 166 Q417 128 401 88 Q394 72 387 50 Q380 30 368 9 Q334 16 301 30 Q345 171 392 295 Q333 296 275 296 Q269 315 269 329 Q269 344 275 361 Q364 369 569 369 ZM347 697 Q376 675 401 646 Q370 614 318 571 Q292 549 262 523 Q229 493 196 471 Q167 491 149 520 Q246 615 347 697 ZM651 669 Q753 627 852 574 Q850 539 822 514 Q715 559 624 610 Q636 646 651 669 Z" /><glyph glyph-name="uni5212" unicode="&#x5212;" d="M657 446 Q671 324 679 209 Q647 203 615 203 Q594 321 588 440 Q621 446 657 446 ZM841 532 Q874 324 886 98 Q832 78 775 78 Q767 98 765 123 Q790 131 818 136 Q796 323 775 521 Q804 528 841 532 ZM483 674 Q526 628 561 573 Q539 553 509 539 Q462 586 431 640 Q453 658 483 674 ZM487 342 Q512 327 527 297 Q467 245 405 197 Q442 110 492 50 Q507 56 525 62 Q540 48 550 25 Q513 -5 458 -22 Q387 61 343 150 Q287 108 231 71 Q203 88 191 121 Q247 172 312 221 Q306 236 302 250 Q277 341 262 422 Q183 418 103 417 Q99 446 99 476 Q172 482 252 486 Q243 558 242 624 Q273 632 306 636 Q313 559 325 490 Q432 496 547 500 Q551 489 551 472 Q551 449 549 440 Q444 431 337 426 Q347 377 359 334 Q368 299 378 269 Q431 307 487 342 Z" /><glyph glyph-name="uni5218" unicode="&#x5218;" d="M675 476 Q689 347 697 224 Q666 219 634 219 Q614 344 608 470 Q639 476 675 476 ZM843 558 Q876 337 888 98 Q834 78 777 78 Q769 98 767 123 Q792 131 820 136 Q798 335 777 546 Q806 554 843 558 ZM380 713 Q387 657 389 611 Q484 606 577 599 Q577 569 571 542 Q342 542 116 557 Q116 590 123 620 Q222 618 320 614 Q314 657 314 707 Q348 713 380 713 ZM190 364 Q259 323 324 281 Q375 379 423 467 Q458 463 482 447 Q436 343 384 240 Q464 186 540 127 Q529 101 506 75 Q428 120 349 172 Q334 144 323 119 Q308 88 292 63 Q280 32 249 -7 Q218 3 195 23 Q243 122 289 213 Q221 261 152 314 Q170 344 190 364 Z" /><glyph glyph-name="uni521B" unicode="&#x521b;" d="M328 609 Q224 518 116 441 Q89 458 79 488 Q201 609 371 725 Q395 711 409 682 Q392 667 378 654 Q477 564 568 467 Q552 438 525 420 Q420 513 328 609 ZM178 416 Q327 404 478 385 Q478 263 466 156 Q434 150 390 150 Q355 150 330 154 Q328 183 328 206 Q370 208 404 208 Q406 264 410 330 Q335 337 267 344 Q250 217 231 90 Q352 75 480 64 Q480 33 469 1 Q305 6 156 40 Q171 194 198 352 Q183 353 169 355 Q171 392 178 416 ZM682 484 Q694 355 700 233 Q669 227 639 227 Q622 352 618 478 Q648 484 682 484 ZM849 573 Q877 246 877 106 Q849 96 812 96 Q777 96 750 100 Q743 121 743 143 Q767 150 804 150 Q794 362 787 567 Q818 573 849 573 Z" /><glyph glyph-name="uni521D" unicode="&#x521d;" d="M710 477 Q782 477 873 470 Q878 401 878 316 L878 133 Q858 130 808 130 Q771 130 743 133 Q740 146 740 159 L740 180 Q777 183 811 183 Q811 281 806 407 Q741 406 681 406 Q662 327 634 246 Q617 201 599 153 Q591 133 582 107 Q574 83 560 57 Q529 64 500 76 Q555 253 612 406 L512 406 Q507 423 507 437 Q507 451 512 466 Q572 477 710 477 ZM230 709 Q315 694 401 659 Q397 632 383 601 Q276 618 209 653 Q220 690 230 709 ZM105 493 Q252 491 409 467 Q387 411 354 353 Q395 344 436 329 Q432 303 419 273 Q361 282 320 296 Q311 282 302 269 Q312 235 321 201 Q364 219 414 230 Q433 207 435 179 Q391 153 335 141 Q348 80 356 20 Q332 11 296 11 Q268 104 252 196 Q225 160 196 123 Q164 136 144 154 Q233 279 317 409 Q198 419 97 432 Q97 465 105 493 Z" /><glyph glyph-name="uni5229" unicode="&#x5229;" d="M499 681 Q513 654 513 619 Q308 580 124 563 Q112 590 112 621 Q307 671 499 681 ZM103 426 Q192 423 281 420 Q282 485 286 550 Q301 554 319 554 Q338 554 352 550 Q356 479 357 417 Q440 415 522 412 L522 385 Q522 364 518 350 Q437 351 358 353 L358 282 Q427 259 498 240 Q498 214 489 179 Q418 189 357 210 Q355 115 352 35 Q344 31 319 31 Q299 31 292 35 Q285 114 283 200 Q221 161 115 121 Q99 143 93 170 Q181 242 281 282 Q280 316 280 351 L280 355 Q189 357 99 362 Q95 373 95 395 Q95 410 103 426 ZM646 480 Q661 343 669 213 Q637 207 605 207 Q584 340 578 474 Q610 480 646 480 ZM821 573 Q854 341 866 89 Q811 69 752 69 Q745 89 742 115 Q769 122 797 127 Q776 339 754 562 Q784 569 821 573 Z" /><glyph glyph-name="uni5230" unicode="&#x5230;" d="M681 427 Q690 307 695 192 Q663 187 630 187 Q617 303 613 421 Q645 427 681 427 ZM840 502 Q869 215 869 91 Q840 81 802 81 Q774 81 752 85 Q744 107 744 129 Q764 137 794 137 Q783 320 777 495 Q808 502 840 502 ZM171 216 Q225 216 286 213 Q289 244 292 273 Q308 275 326 275 Q347 273 355 269 Q354 238 352 210 Q409 207 471 201 Q471 174 466 145 Q406 145 349 148 Q346 105 342 65 Q395 63 431 59 Q434 51 434 32 Q434 12 431 6 Q418 1 298 1 Q194 1 184 6 Q181 17 181 34 Q181 49 186 62 Q227 64 275 65 Q277 111 281 152 Q224 156 169 162 L169 192 Q169 204 171 216 ZM145 662 Q327 654 512 642 L512 614 Q512 593 508 579 Q395 581 284 587 Q265 493 248 397 Q304 389 433 373 Q437 362 437 348 Q437 334 433 319 Q275 319 155 349 Q175 478 213 592 Q176 595 141 598 Q137 610 137 631 Q137 647 145 662 ZM501 499 Q525 461 535 386 Q507 370 479 367 Q451 414 446 483 Q469 494 501 499 Z" /><glyph glyph-name="uni5236" unicode="&#x5236;" d="M214 698 Q251 695 276 680 Q261 637 248 602 Q291 601 335 599 L335 709 Q340 713 368 715 Q389 715 399 711 Q403 653 406 594 Q490 588 582 577 Q582 550 576 520 Q491 520 409 525 Q411 481 412 437 Q485 444 558 449 Q562 422 562 391 Q486 376 414 368 Q415 333 416 299 Q424 300 432 300 Q596 297 596 292 Q602 249 602 220 Q602 114 594 59 Q572 54 537 54 Q508 54 487 61 Q483 78 483 102 Q511 102 536 108 Q534 176 530 240 Q459 237 419 237 L417 237 Q419 127 419 14 Q408 10 386 10 Q361 10 353 12 Q348 129 344 237 Q268 238 263 240 Q259 260 259 291 Q266 294 342 297 Q341 330 340 361 Q275 356 214 356 Q208 383 208 412 Q273 422 338 429 Q337 481 336 530 Q280 535 225 542 Q175 418 138 358 Q101 358 78 373 Q130 560 214 698 ZM192 275 Q207 275 219 271 Q224 214 224 174 Q224 105 219 66 Q211 61 192 61 Q173 61 165 66 Q156 110 156 174 Q156 225 165 271 Q179 275 192 275 ZM706 476 Q720 347 728 224 Q696 219 664 219 Q643 344 637 470 Q669 476 706 476 ZM861 558 Q894 337 906 98 Q852 78 794 78 Q787 98 784 123 Q810 131 837 136 Q816 335 795 546 Q824 554 861 558 Z" /><glyph glyph-name="uni524D" unicode="&#x524d;" d="M660 380 Q679 270 681 182 Q663 172 621 172 Q595 260 595 374 Q628 380 660 380 ZM809 460 Q851 245 858 34 Q822 21 714 21 Q708 46 708 75 Q743 77 780 79 Q763 269 745 450 Q772 456 809 460 ZM279 455 Q374 455 482 443 Q482 178 468 8 Q345 8 323 24 Q323 48 325 70 Q368 70 402 68 Q404 235 406 386 Q339 390 277 398 Q275 412 275 427 Q275 446 279 455 ZM221 253 Q219 232 217 211 Q280 208 353 192 Q353 162 344 138 Q263 138 210 150 Q203 89 195 29 Q161 33 129 38 Q145 243 169 435 Q206 433 236 429 Q232 370 226 311 Q286 310 353 301 Q353 271 344 246 Q270 246 221 253 ZM175 607 Q386 602 597 595 Q614 673 659 742 Q690 735 721 721 Q708 645 676 593 Q764 590 851 587 L851 558 Q851 535 846 521 Q513 523 171 539 Q167 552 167 574 Q167 591 175 607 ZM362 743 Q398 707 412 636 Q381 619 350 615 Q310 660 303 726 Q328 737 362 743 Z" /><glyph glyph-name="uni526A" unicode="&#x526a;" d="M659 787 Q690 779 721 766 Q710 703 687 656 Q763 658 841 660 Q845 649 845 631 Q845 608 843 598 Q513 580 165 576 Q162 606 162 637 Q364 646 600 654 Q618 724 659 787 ZM369 781 Q404 745 419 674 Q388 657 357 654 Q317 698 310 764 Q335 776 369 781 ZM286 548 Q369 548 486 532 Q497 379 497 229 Q452 215 389 211 Q375 229 375 254 Q400 260 435 266 Q423 374 418 471 Q281 482 279 490 Q279 522 286 548 ZM769 552 Q805 400 821 247 Q795 236 754 236 Q711 236 669 243 Q667 255 667 267 L667 294 Q719 290 745 290 Q728 416 701 538 Q736 552 769 552 ZM641 487 Q647 410 651 337 Q619 331 586 331 Q576 405 573 481 Q605 487 641 487 ZM229 536 Q251 534 258 530 Q257 487 254 446 Q309 445 370 437 Q370 406 360 382 Q295 382 252 387 Q251 369 249 353 Q305 349 370 336 Q370 308 361 285 Q292 285 245 294 Q242 257 238 221 Q231 218 206 218 Q186 218 174 223 Q179 389 195 534 Q211 536 229 536 ZM396 189 Q575 187 750 179 Q755 140 755 75 Q755 -34 752 -57 Q718 -65 675 -65 Q648 -65 620 -55 Q619 -48 619 -38 Q619 -30 622 -24 L683 -24 Q681 48 675 126 Q586 126 428 123 Q386 25 317 -75 Q284 -67 260 -48 Q302 43 349 122 Q286 121 216 120 Q210 154 210 181 Q255 187 396 189 Z" /><glyph glyph-name="uni526F" unicode="&#x526f;" d="M159 733 Q314 733 519 715 Q519 687 513 654 Q333 654 158 674 L158 706 Q158 720 159 733 ZM261 594 Q390 592 513 577 Q521 555 521 472 Q521 399 517 365 Q463 356 332 356 Q240 356 160 371 Q148 400 148 470 Q148 500 152 577 Q164 581 181 581 Q195 581 208 577 Q208 546 212 425 Q334 417 455 417 Q459 436 459 472 Q459 492 457 518 Q303 527 264 532 Q259 541 259 565 Q259 579 261 594 ZM198 125 Q199 85 200 46 Q255 43 307 42 Q303 79 300 115 Q246 118 198 125 ZM371 40 Q435 38 494 38 Q494 108 501 222 Q426 225 361 231 Q364 202 365 173 Q396 171 426 167 Q426 142 420 111 Q393 111 369 112 Q371 75 371 40 ZM294 237 Q273 239 255 242 Q255 272 257 298 Q432 292 572 279 Q572 80 552 -15 Q505 -25 299 -25 Q205 -25 139 -5 Q131 116 128 281 Q160 285 191 285 Q194 235 196 185 Q246 183 296 179 Q295 209 294 237 ZM693 464 Q707 335 715 213 Q683 207 651 207 Q631 332 625 458 Q657 464 693 464 ZM843 558 Q876 337 888 98 Q834 78 777 78 Q769 98 767 123 Q792 131 820 136 Q798 335 777 546 Q806 554 843 558 Z" /><glyph glyph-name="uni529B" unicode="&#x529b;" d="M135 546 Q272 542 409 536 Q453 617 495 692 Q528 688 561 668 Q543 621 497 531 Q657 522 816 510 Q831 367 831 81 Q820 76 761 76 Q698 76 662 87 Q660 98 660 115 Q660 129 662 140 Q710 139 755 137 Q752 303 742 441 Q601 448 458 457 Q457 454 456 453 Q419 375 364 278 Q336 229 311 176 Q286 119 241 57 Q212 68 180 92 Q278 289 370 463 Q251 471 130 481 Q128 503 128 518 Q128 528 135 546 Z" /><glyph glyph-name="uni529F" unicode="&#x529f;" d="M366 306 Q368 294 368 277 L368 247 Q237 238 108 238 Q102 269 102 301 Q154 303 209 304 Q202 406 202 510 Q143 515 86 523 Q86 556 92 588 Q246 583 398 561 Q398 530 392 501 Q334 501 276 504 Q279 406 279 305 Q322 306 366 306 ZM447 474 Q518 472 590 468 Q617 541 645 614 Q683 609 706 590 Q687 526 666 463 Q770 457 875 448 Q876 359 876 282 Q876 187 863 128 Q806 120 726 120 Q720 150 720 179 Q759 183 802 185 Q804 253 804 378 Q721 384 642 391 Q587 225 521 62 Q487 64 456 89 Q508 244 564 397 Q503 402 445 407 Q443 421 443 443 Q443 458 447 474 Z" /><glyph glyph-name="uni52A0" unicode="&#x52a0;" d="M318 659 Q356 652 384 635 Q364 576 344 520 Q427 511 511 498 Q513 408 513 332 Q513 238 500 181 Q439 173 355 173 Q349 202 349 232 Q392 235 439 237 Q441 305 441 430 Q378 438 317 446 Q249 264 167 84 Q132 89 106 111 Q167 290 234 457 Q167 466 103 475 Q101 488 101 509 Q101 524 105 539 Q184 535 263 528 Q290 595 318 659 ZM708 444 Q822 439 913 426 Q913 256 893 175 Q873 161 786 161 Q686 161 617 182 Q601 287 598 432 Q630 436 663 436 Q674 340 680 235 Q764 230 835 230 Q835 283 842 368 Q767 374 706 389 Q706 418 708 444 Z" /><glyph glyph-name="uni52A1" unicode="&#x52a1;" d="M368 618 Q356 594 341 568 Q246 387 223 374 Q185 385 162 406 Q174 435 259 596 Q345 746 370 781 Q406 774 436 759 Q432 741 400 678 Q545 663 709 631 Q690 583 632 515 Q609 484 581 451 Q727 401 870 346 Q862 315 846 285 Q685 329 523 388 Q445 300 345 221 Q406 221 465 220 Q485 272 507 324 Q542 319 580 309 Q564 263 547 218 Q672 215 794 208 Q794 77 777 -34 Q719 -34 651 -25 Q649 -12 649 -1 Q649 12 651 19 Q686 21 715 21 Q718 73 718 144 Q620 145 523 150 Q483 39 443 -73 Q406 -69 376 -52 Q404 51 441 154 Q385 157 330 161 L330 193 Q330 201 332 210 Q313 196 296 183 Q271 204 253 232 Q361 320 452 414 Q398 434 345 456 Q353 495 369 523 Q440 500 510 476 Q557 530 597 582 Q483 602 368 618 Z" /><glyph glyph-name="uni52A8" unicode="&#x52a8;" d="M147 673 Q293 664 432 647 Q432 622 424 589 Q287 589 141 612 Q141 646 147 673 ZM90 405 Q162 406 269 406 Q420 406 480 403 Q482 391 482 376 L482 348 Q459 338 281 338 Q252 246 219 151 Q279 144 351 130 Q352 117 352 106 Q352 91 349 79 Q233 79 131 105 Q167 225 210 339 Q131 340 92 346 Q88 359 88 376 Q88 393 90 405 ZM421 242 Q448 202 459 123 Q433 109 408 106 Q377 155 372 228 Q393 237 421 242 ZM514 518 Q578 516 641 513 Q667 595 694 676 Q729 670 750 653 Q731 580 711 509 Q803 503 895 495 Q897 412 897 342 Q897 211 884 130 Q833 123 761 123 Q755 151 755 180 Q790 184 828 186 Q830 273 830 432 Q760 437 693 443 Q636 240 566 41 Q535 43 506 66 Q561 260 621 449 Q566 453 512 458 Q510 470 510 489 Q510 504 514 518 Z" /><glyph glyph-name="uni52A9" unicode="&#x52a9;" d="M181 585 Q200 585 213 583 Q216 528 218 473 Q271 481 327 485 Q331 458 331 427 Q273 414 220 411 Q221 379 222 349 Q273 358 326 362 Q330 335 330 304 Q273 289 223 286 Q224 241 224 196 Q286 197 351 197 Q366 197 381 197 Q390 379 401 555 Q317 564 234 582 Q234 611 239 643 Q361 638 478 618 Q478 420 446 195 Q474 193 496 190 Q500 182 500 161 Q500 139 496 132 Q482 127 351 127 Q120 127 99 132 Q95 144 95 163 Q95 180 100 194 Q129 195 159 195 Q145 385 145 581 Q161 583 181 585 ZM543 447 Q603 443 663 438 Q687 498 711 554 Q745 548 770 533 Q754 481 735 431 Q813 423 890 411 L890 280 Q889 178 873 128 Q865 124 826 124 Q782 124 752 132 Q749 143 749 155 Q751 170 754 180 L814 180 Q820 265 820 350 Q765 357 711 364 Q660 222 597 81 Q565 86 542 106 Q588 245 638 374 Q585 381 532 388 Q532 419 543 447 Z" /><glyph glyph-name="uni52B3" unicode="&#x52b3;" d="M207 453 Q225 453 241 447 Q241 345 230 217 Q218 213 195 213 Q172 213 162 221 Q162 373 172 451 Q188 453 207 453 ZM326 490 Q596 490 856 469 Q869 358 869 256 Q859 252 840 252 Q828 252 808 254 Q799 302 790 406 Q561 406 328 428 Q324 442 324 461 Q324 475 326 490 ZM480 338 Q513 334 548 324 Q534 289 520 255 Q626 247 722 237 Q716 61 692 -36 Q630 -36 569 -18 L569 1 Q569 11 573 21 Q599 19 634 15 Q640 95 646 180 Q568 185 494 192 Q440 63 385 -69 Q350 -65 323 -50 Q364 76 417 200 Q360 206 306 214 Q308 245 314 269 Q381 265 444 260 Q461 300 480 338 ZM363 740 Q367 709 370 680 Q506 678 639 673 Q646 711 654 746 Q671 748 691 748 Q714 746 722 742 Q719 705 715 669 Q800 666 883 661 L883 631 Q883 609 880 598 Q788 598 705 598 Q699 563 692 529 Q684 525 657 525 Q635 525 622 531 Q624 566 629 599 Q492 601 379 604 Q383 565 386 528 Q350 522 314 522 Q306 565 300 607 Q214 611 142 615 Q138 623 138 648 Q138 665 144 682 Q220 682 292 681 Q290 708 288 734 Q323 740 363 740 Z" /><glyph glyph-name="uni52C7" unicode="&#x52c7;" d="M295 796 Q388 789 489 775 Q632 755 703 737 Q695 687 654 609 Q674 605 692 600 Q690 571 678 544 Q595 544 436 589 Q440 622 450 647 Q515 638 580 625 Q596 658 609 687 Q445 705 284 734 Q288 768 295 796 ZM306 155 Q370 151 431 146 Q447 173 462 198 Q493 190 526 176 Q519 158 511 140 Q623 132 722 122 Q716 1 693 -65 Q634 -65 576 -48 L576 -28 Q576 -19 579 -9 Q604 -11 638 -15 Q644 25 650 66 Q563 71 482 79 Q443 2 391 -75 Q356 -67 331 -47 Q363 24 398 88 Q347 94 299 101 Q300 132 306 155 ZM279 536 Q301 536 311 532 Q320 391 320 224 Q308 220 286 220 Q260 220 252 222 Q245 388 245 530 Q251 534 279 536 ZM452 422 L473 422 Q472 439 472 454 Q503 459 533 459 Q535 440 537 422 L636 422 Q639 410 639 394 Q639 380 637 368 Q602 364 542 362 Q544 338 546 318 Q593 321 642 323 Q646 299 646 270 Q595 264 549 260 Q550 239 550 221 Q533 212 492 212 Q488 234 485 256 Q432 253 382 253 Q377 277 377 304 Q427 309 478 313 Q476 337 475 361 L448 361 Q404 361 383 365 Q378 375 378 391 Q378 407 382 419 Q397 422 452 422 ZM355 539 Q593 535 793 526 Q793 358 766 193 Q732 193 696 203 Q713 327 715 461 Q544 464 353 482 Q351 500 351 511 Q351 526 355 539 Z" /><glyph glyph-name="uni52E4" unicode="&#x52e4;" d="M513 484 Q523 440 523 393 Q523 321 519 313 Q447 305 344 301 L344 256 Q419 254 500 251 Q500 225 495 195 Q418 195 343 197 Q343 178 342 148 Q412 153 484 158 Q490 134 491 104 Q418 96 342 89 L342 46 Q431 59 521 68 Q528 42 528 13 Q326 -34 122 -45 Q110 -25 110 11 Q192 25 275 37 Q273 60 272 84 Q205 80 137 77 Q131 99 128 130 Q197 137 270 142 Q269 169 269 199 Q191 202 115 206 L115 236 Q115 248 117 260 Q189 260 269 258 L269 299 Q196 297 112 297 Q89 367 84 468 Q174 475 271 479 Q271 500 272 520 Q202 521 180 531 Q180 580 183 629 Q124 633 66 637 Q66 671 73 699 Q131 699 188 698 Q191 725 194 751 Q205 753 230 753 Q243 753 263 749 Q259 722 257 696 Q324 694 388 690 L388 748 Q406 750 417 750 Q434 750 447 748 Q452 721 452 696 L452 687 Q518 683 582 678 Q582 647 577 618 Q513 618 451 619 Q450 560 447 531 Q412 523 342 521 L342 482 Q425 484 513 484 ZM169 359 L270 361 L270 421 L162 418 L169 359 ZM343 423 L343 363 L454 366 L451 425 L343 423 ZM563 413 Q624 408 682 402 Q702 466 722 524 Q757 519 783 506 Q772 450 758 393 Q829 384 895 373 Q905 329 905 120 Q891 112 842 112 Q799 112 772 116 Q768 124 768 142 Q768 153 774 167 Q803 167 835 169 Q833 242 831 316 Q785 323 740 328 Q732 302 724 277 Q706 220 685 161 Q676 136 667 104 Q658 74 642 42 Q610 49 580 62 Q620 207 662 339 Q610 346 559 353 L559 381 Q559 400 563 413 ZM252 626 Q251 603 251 581 L388 581 L388 621 Q319 622 252 626 Z" /><glyph glyph-name="uni5305" unicode="&#x5305;" d="M320 446 Q595 436 681 419 Q691 366 691 308 Q691 211 683 177 Q628 169 399 169 Q393 109 386 49 Q480 37 582 29 Q586 56 594 85 Q621 83 649 75 Q647 23 633 -33 Q582 -33 423 -19 Q333 -4 304 12 Q326 187 357 319 Q385 314 415 310 Q410 270 406 232 Q491 236 623 238 Q619 298 619 357 Q470 371 315 385 Q315 415 320 446 ZM336 764 Q368 749 395 727 Q373 685 349 646 Q603 633 865 598 Q865 554 854 459 Q847 388 830 298 Q815 298 771 309 Q779 436 787 537 Q595 555 313 588 Q258 502 191 418 Q186 418 162 433 Q139 445 136 453 Q213 589 336 764 Z" /><glyph glyph-name="uni5316" unicode="&#x5316;" d="M381 580 Q405 548 409 518 Q341 480 264 449 Q288 297 298 136 Q269 126 236 126 Q212 273 198 422 Q150 404 98 387 Q72 421 72 451 Q239 528 381 580 ZM863 510 Q869 484 872 451 Q743 423 604 406 Q592 285 580 165 Q652 151 718 147 Q718 165 720 185 Q736 187 748 187 Q767 185 775 181 Q775 159 773 138 Q773 113 765 87 Q628 87 503 118 Q503 165 533 398 Q495 394 458 391 Q452 416 448 451 Q495 459 542 467 Q554 558 570 673 Q597 671 628 663 Q620 570 611 477 Q734 495 863 510 Z" /><glyph glyph-name="uni5317" unicode="&#x5317;" d="M392 669 Q425 669 457 661 Q457 600 443 371 Q435 226 421 83 Q390 83 361 89 L361 133 Q252 112 146 112 Q140 140 140 170 Q245 188 363 189 Q366 297 375 440 Q232 441 108 460 Q108 492 110 522 Q242 518 379 505 Q385 583 392 669 ZM631 564 Q657 560 686 555 Q679 497 672 442 Q783 437 901 423 Q901 398 895 366 Q771 366 664 383 Q651 275 637 167 Q695 155 757 148 Q761 166 769 187 Q794 185 822 177 Q820 133 806 85 Q775 85 678 99 Q588 114 559 130 Q588 378 631 564 Z" /><glyph glyph-name="uni5319" unicode="&#x5319;" d="M179 245 Q213 241 244 236 Q232 174 220 96 Q415 73 632 44 Q628 16 621 -13 Q372 5 146 47 Q161 158 179 245 ZM310 314 Q217 308 125 308 Q119 336 119 366 Q315 392 536 392 Q538 381 538 366 L538 338 Q456 326 376 319 Q379 289 380 262 Q447 267 506 267 Q509 256 509 242 Q509 227 506 216 Q473 208 383 202 Q384 165 384 130 Q374 125 353 125 Q336 125 324 126 Q311 220 310 314 ZM346 738 Q437 738 497 731 Q500 634 500 522 Q500 480 495 446 Q458 441 382 441 Q264 441 180 449 Q176 542 176 658 Q176 689 180 733 Q249 738 346 738 ZM243 680 L243 620 Q299 618 362 611 Q362 582 353 559 Q286 559 243 564 L243 497 L430 497 L430 680 L243 680 ZM671 599 Q690 599 706 595 Q699 529 694 464 Q800 473 895 473 Q899 461 899 447 Q899 432 895 420 Q842 409 688 401 Q680 327 674 255 Q763 246 854 236 Q854 222 852 203 Q852 188 848 171 Q712 173 600 193 Q600 398 637 597 Q654 599 671 599 Z" /><glyph glyph-name="uni5320" unicode="&#x5320;" d="M256 716 Q501 716 827 692 Q827 662 821 628 Q534 628 254 654 L254 688 Q254 702 256 716 ZM715 574 Q723 545 723 512 Q592 486 463 474 Q461 443 456 392 Q635 387 824 373 Q824 347 818 315 Q765 315 716 317 Q718 227 718 134 Q707 129 685 129 Q666 129 654 131 Q646 224 645 319 Q543 322 449 332 Q439 248 423 164 Q392 164 363 170 Q363 274 394 468 Q369 466 345 465 Q331 489 331 529 Q516 557 715 574 ZM215 520 Q231 520 245 516 Q242 304 230 82 Q427 76 625 67 L625 37 Q623 21 623 6 Q335 6 158 26 Q158 113 180 518 Q204 520 215 520 Z" /><glyph glyph-name="uni532A" unicode="&#x532a;" d="M679 694 Q772 694 828 687 Q832 678 832 657 Q832 635 828 627 Q814 622 679 622 Q270 622 232 627 Q229 640 229 659 Q229 677 234 691 Q435 694 679 694 ZM469 558 Q488 558 501 556 Q521 345 521 125 Q510 120 489 120 Q471 120 458 122 Q453 165 450 206 Q375 189 308 189 Q303 214 303 242 Q371 257 445 265 Q443 290 441 315 Q357 317 310 329 Q310 355 317 380 Q373 380 438 372 Q437 394 436 415 Q351 418 303 434 Q303 460 310 486 Q367 486 434 475 Q433 516 433 555 Q449 556 469 558 ZM652 566 Q672 566 686 564 Q688 530 689 497 Q763 506 827 506 Q831 495 831 482 Q831 467 827 456 Q791 445 691 436 Q692 410 692 384 Q757 389 815 389 Q819 378 819 365 Q819 349 815 338 Q783 331 693 324 Q695 292 695 262 Q765 269 841 269 Q843 258 843 244 L843 217 Q767 204 695 202 Q696 158 696 116 Q684 110 662 110 Q643 110 629 112 Q614 333 614 562 Q631 564 652 566 ZM211 512 Q227 512 241 508 Q239 294 230 70 Q427 64 625 55 L625 25 Q623 10 623 -6 Q335 -6 158 15 Q158 102 176 510 Q200 512 211 512 Z" /><glyph glyph-name="uni5339" unicode="&#x5339;" d="M698 650 Q791 650 848 643 Q851 635 851 613 Q851 591 848 584 Q833 578 698 578 Q262 578 222 584 Q218 596 218 615 Q218 633 224 647 Q438 650 698 650 ZM203 476 L236 472 Q236 301 225 93 Q291 80 505 78 Q699 78 767 89 Q774 63 774 36 Q714 15 513 13 Q245 13 153 35 Q153 245 168 474 Q179 476 203 476 ZM463 532 Q496 530 522 523 Q499 392 439 227 Q404 229 377 241 Q403 389 463 532 ZM709 496 Q727 496 743 491 Q743 371 739 292 Q768 292 832 286 Q837 277 837 262 Q837 249 836 238 Q813 227 759 227 Q711 227 673 234 Q667 271 667 354 Q667 424 678 493 Q694 496 709 496 Z" /><glyph glyph-name="uni533A" unicode="&#x533a;" d="M216 556 L251 552 Q251 342 240 86 Q294 71 468 70 Q685 70 761 83 Q769 53 769 23 Q702 -1 478 -3 Q244 -3 164 21 Q164 277 179 554 Q191 556 216 556 ZM224 701 Q538 701 844 676 Q844 642 839 611 Q521 611 217 634 Q217 671 224 701 ZM699 504 Q727 488 745 469 Q696 396 636 329 Q700 280 763 229 Q753 201 724 180 Q650 226 585 275 Q565 255 546 236 Q511 195 469 157 Q445 173 427 196 Q474 259 526 321 Q455 377 393 437 Q411 466 430 483 Q503 431 575 376 Q635 442 699 504 Z" /><glyph glyph-name="uni533B" unicode="&#x533b;" d="M228 499 L263 495 Q263 296 251 53 Q314 39 516 38 Q722 38 794 50 Q801 22 801 -6 Q737 -29 525 -31 Q264 -31 175 -8 Q175 234 191 497 Q203 499 228 499 ZM451 455 Q429 408 405 356 Q369 359 342 376 Q376 486 431 581 Q465 574 494 558 Q485 535 475 512 Q614 503 746 489 Q746 466 738 436 Q678 436 620 440 Q594 384 566 330 Q658 337 751 341 Q754 316 754 288 Q640 273 533 267 Q509 224 494 192 Q481 168 469 148 Q459 124 434 93 Q401 104 376 124 Q413 197 449 263 Q408 262 369 262 Q364 287 364 313 Q423 319 481 324 Q515 388 548 445 Q500 449 451 455 ZM662 245 Q716 202 760 156 Q742 130 706 116 Q651 157 606 205 Q634 228 662 245 ZM215 700 Q521 700 822 682 L822 655 Q822 635 819 625 Q439 625 213 640 Q210 647 210 670 Q210 685 215 700 Z" /><glyph glyph-name="uni5341" unicode="&#x5341;" d="M482 704 Q501 704 519 700 Q519 551 516 417 Q680 409 842 400 Q848 383 848 362 Q848 346 842 328 Q676 330 515 338 Q515 164 511 5 Q499 3 476 3 Q457 3 443 7 Q436 171 435 341 Q285 348 139 359 Q133 378 133 396 Q133 415 139 433 Q288 427 435 421 Q437 559 447 702 Q462 704 482 704 Z" /><glyph glyph-name="uni5343" unicode="&#x5343;" d="M160 357 Q313 357 464 352 Q466 416 470 479 Q488 486 503 486 Q523 486 539 479 Q540 413 541 349 Q696 344 848 334 L848 303 Q848 280 844 268 Q679 268 542 271 L542 186 Q542 84 537 -11 Q525 -13 501 -13 Q482 -13 470 -11 Q461 83 461 180 Q461 227 462 273 Q287 277 158 287 Q154 295 154 322 Q154 340 160 357 ZM739 690 Q748 662 752 625 Q496 581 240 558 Q230 591 228 622 Q493 663 739 690 Z" /><glyph glyph-name="uni5347" unicode="&#x5347;" d="M495 669 Q503 640 503 607 Q346 561 188 549 Q174 573 174 613 Q328 648 495 669 ZM692 663 Q709 663 723 659 Q730 510 733 352 Q801 353 869 354 Q873 341 873 321 Q873 296 871 285 Q802 283 734 281 Q737 143 737 -1 Q725 -5 706 -5 Q688 -5 672 -3 Q654 106 652 279 Q508 276 365 274 Q362 253 358 229 Q344 120 319 13 Q288 13 258 19 Q258 116 285 273 Q211 272 138 272 Q134 304 134 338 Q213 340 297 342 Q307 396 319 455 Q352 455 383 448 Q383 419 374 344 Q506 348 651 350 Q651 586 661 659 Q674 663 692 663 Z" /><glyph glyph-name="uni534A" unicode="&#x534a;" d="M772 668 Q809 659 830 634 Q794 562 728 485 Q695 492 677 515 Q710 589 772 668 ZM237 661 Q287 597 330 523 Q311 503 274 489 Q221 554 182 628 Q211 652 237 661 ZM518 709 Q539 709 554 705 Q560 592 560 497 Q560 458 560 423 Q609 423 657 423 Q745 423 798 416 Q801 408 801 388 Q801 366 798 360 Q785 355 657 355 Q604 355 559 355 Q558 282 556 216 L658 216 Q748 216 803 209 Q806 200 806 180 Q806 158 803 151 Q789 146 658 146 L553 146 Q549 54 543 -26 Q535 -30 508 -30 Q487 -30 478 -26 Q477 58 477 146 Q224 147 194 151 Q191 163 191 181 Q191 199 196 212 Q328 215 477 215 Q476 285 476 355 Q242 356 214 360 Q210 371 210 389 Q210 406 215 419 Q338 421 476 422 Q476 457 476 491 Q476 594 482 705 Q499 709 518 709 Z" /><glyph glyph-name="uni534E" unicode="&#x534e;" d="M431 739 Q453 710 457 683 Q398 635 333 595 Q351 470 359 343 Q329 331 298 331 Q282 444 274 560 Q232 536 187 514 Q164 545 164 572 Q308 673 431 739 ZM819 623 Q823 596 823 565 Q721 535 624 522 Q625 475 627 430 Q684 430 750 434 Q756 421 756 407 Q756 389 754 378 Q732 369 664 369 Q588 369 567 375 Q561 446 558 514 Q503 509 452 509 Q446 536 446 565 Q501 578 555 587 Q553 655 553 718 Q573 722 585 722 Q604 722 618 720 Q620 659 622 599 Q719 614 819 623 ZM496 361 Q515 361 533 358 Q533 294 533 233 Q644 229 753 223 Q758 208 758 190 Q758 177 753 162 Q641 163 532 168 Q531 100 529 35 Q529 4 522 -25 Q510 -27 487 -27 Q467 -27 454 -23 Q449 2 449 28 Q449 99 451 171 Q344 176 240 183 Q235 199 235 214 Q235 231 240 246 Q348 242 454 237 Q457 298 461 360 Q476 361 496 361 Z" /><glyph glyph-name="uni534F" unicode="&#x534f;" d="M231 572 Q253 572 263 568 Q268 504 271 438 Q333 436 374 431 Q377 423 377 402 Q377 379 374 372 Q363 367 274 366 Q278 248 278 121 Q266 117 244 117 Q218 117 210 119 Q203 248 200 366 Q111 367 102 372 Q98 384 98 403 Q98 421 103 435 Q147 437 198 438 Q197 504 197 566 Q203 570 231 572 ZM475 514 Q534 509 592 500 Q621 581 650 659 Q685 652 710 637 Q688 562 664 488 Q726 478 787 464 L787 330 Q785 182 769 110 Q759 105 712 105 Q670 105 641 113 Q638 124 638 136 Q639 150 643 160 L709 160 Q714 285 714 409 Q678 417 643 424 Q586 247 516 71 Q484 76 461 96 Q514 273 571 439 Q518 450 465 461 Q465 489 475 514 ZM860 369 Q895 307 925 239 Q907 217 870 206 Q834 270 805 337 Q829 356 860 369 ZM441 381 Q470 375 496 361 Q475 303 446 231 Q414 233 391 248 Q410 320 441 381 Z" /><glyph glyph-name="uni5353" unicode="&#x5353;" d="M463 748 Q467 711 469 676 Q513 678 560 678 Q654 678 710 671 Q713 662 713 641 Q713 618 710 611 Q696 606 560 606 Q503 606 473 607 Q475 572 476 537 Q632 534 782 524 Q791 480 791 322 Q791 244 787 206 Q704 202 537 200 Q541 164 543 127 Q570 127 595 127 Q691 127 749 120 Q752 111 752 89 Q752 66 749 58 Q734 53 595 53 Q570 53 547 53 Q550 -2 550 -57 Q539 -63 516 -63 Q497 -63 484 -61 Q475 -2 470 53 Q289 54 268 58 Q264 71 264 91 Q264 109 270 123 Q361 125 464 126 Q462 164 462 200 Q437 200 412 200 Q315 200 230 215 Q217 246 217 322 Q217 381 215 534 Q227 538 247 538 Q262 538 277 534 Q277 501 281 413 Q396 409 510 393 Q510 365 504 340 Q392 340 284 353 Q286 316 288 272 Q505 261 718 261 Q722 282 722 322 Q722 385 720 464 Q427 473 354 479 Q349 488 349 511 Q349 525 351 540 Q379 540 405 539 Q393 643 391 743 Q410 748 427 748 L463 748 Z" /><glyph glyph-name="uni5355" unicode="&#x5355;" d="M620 745 Q661 742 690 724 Q664 637 646 603 Q604 603 578 620 Q594 692 620 745 ZM342 579 Q556 573 778 554 Q791 500 791 345 Q791 275 787 217 Q774 206 543 203 Q547 164 551 125 Q642 128 727 128 Q732 115 732 101 Q732 84 727 71 Q671 64 557 58 Q562 -2 566 -59 Q539 -70 497 -70 Q487 -6 479 54 Q390 50 276 46 Q261 69 261 111 Q369 118 470 122 Q466 163 462 202 L372 202 Q259 202 195 214 Q178 358 178 550 L250 550 Q259 393 259 280 Q330 272 444 272 L455 272 Q451 307 449 339 Q389 334 314 330 Q300 351 300 389 Q375 400 444 405 Q442 428 441 448 Q474 454 510 456 Q514 433 517 411 Q585 415 647 415 Q651 403 651 390 Q651 375 647 363 Q607 354 525 346 Q531 309 535 272 Q653 271 713 269 Q713 372 707 489 Q522 497 339 512 Q339 548 342 579 ZM297 727 Q336 669 352 623 Q334 607 294 591 Q262 631 237 696 Q263 717 297 727 Z" /><glyph glyph-name="uni5356" unicode="&#x5356;" d="M749 189 Q751 177 751 160 L751 129 Q598 116 447 111 Q413 39 372 -48 Q339 -42 313 -27 Q333 37 364 108 Q279 106 195 106 Q189 137 189 169 Q291 177 396 181 Q448 291 520 416 Q557 413 583 396 Q554 337 482 184 Q613 189 749 189 ZM643 81 Q714 53 778 6 Q765 -24 742 -42 Q670 -11 612 32 Q626 60 643 81 ZM182 518 Q308 518 440 514 Q442 554 445 590 Q354 587 264 587 Q257 623 257 661 Q353 667 454 670 Q459 716 466 757 Q486 760 507 760 Q533 757 541 753 Q540 712 537 672 Q622 674 710 674 Q712 660 712 641 L712 605 Q619 597 530 594 Q525 551 519 511 Q663 507 811 498 Q811 433 786 326 Q754 328 725 340 Q735 391 739 430 Q449 436 180 459 Q180 494 182 518 ZM333 419 Q382 405 438 384 Q433 357 419 327 Q361 337 314 360 Q320 394 333 419 ZM234 322 Q306 299 369 257 Q361 232 341 204 Q283 221 211 264 Q218 295 234 322 Z" /><glyph glyph-name="uni5357" unicode="&#x5357;" d="M199 679 Q329 679 455 673 Q474 726 492 775 Q529 768 557 750 Q544 705 533 668 Q671 659 805 643 Q805 615 800 587 Q652 587 509 594 Q486 525 467 486 Q426 492 402 512 Q416 557 430 599 Q310 608 193 621 Q193 653 199 679 ZM221 400 Q240 240 247 80 Q231 76 213 74 Q202 72 180 72 Q163 230 157 390 Q186 396 221 400 ZM438 346 Q459 320 468 268 Q440 253 413 250 Q390 283 385 331 Q408 342 438 346 ZM584 350 Q615 345 639 333 Q635 313 627 292 Q623 282 618 271 Q616 267 614 261 Q612 256 609 250 Q580 256 553 268 Q568 312 584 350 ZM430 231 Q576 231 659 221 Q663 208 663 192 Q663 177 661 164 Q617 165 539 166 Q542 136 545 106 L696 106 Q698 94 698 78 L698 49 Q622 48 550 47 Q552 9 554 -28 Q539 -31 522 -33 Q511 -35 491 -35 Q486 6 483 47 Q399 46 316 46 Q310 75 310 106 L478 106 Q475 136 474 166 L426 166 Q380 166 357 170 Q352 181 352 197 Q352 214 356 227 Q372 231 430 231 ZM312 450 Q573 448 837 443 Q857 322 857 80 Q847 75 794 75 Q750 75 725 86 Q723 96 723 111 Q723 124 725 134 Q759 132 791 129 Q787 265 773 379 Q550 382 308 389 Q306 410 306 423 Q306 433 312 450 Z" /><glyph glyph-name="uni535A" unicode="&#x535a;" d="M203 565 Q224 565 234 561 Q238 501 241 440 Q287 436 333 430 Q333 404 327 373 Q284 373 244 375 Q247 274 247 164 Q236 160 214 160 Q189 160 181 162 Q175 277 172 381 Q126 385 83 393 Q83 422 85 449 Q128 448 171 445 Q170 505 170 559 Q175 563 203 565 ZM747 790 Q802 768 852 731 Q840 702 817 683 Q760 708 715 741 Q730 769 747 790 ZM426 681 Q500 681 584 677 L584 746 Q589 750 617 752 Q638 752 648 748 Q651 711 653 674 Q729 670 812 663 Q812 634 806 601 Q731 601 657 605 Q658 579 659 553 Q751 545 856 532 Q856 366 842 234 Q832 233 811 233 Q786 233 780 236 Q780 357 788 479 Q722 485 662 492 Q663 471 663 452 Q706 452 736 451 Q740 438 740 421 Q740 407 738 393 Q710 390 665 389 Q665 369 665 350 Q709 350 739 349 Q743 336 743 320 Q743 305 741 292 Q713 288 666 286 Q666 266 666 247 Q655 243 633 243 Q608 243 600 245 Q599 266 598 285 Q593 285 589 285 Q543 285 521 289 Q515 300 515 317 Q515 333 519 346 Q535 350 593 350 Q594 350 595 350 Q594 370 593 388 L581 388 Q535 388 513 391 Q507 402 507 419 Q507 436 511 449 Q527 452 585 452 L590 452 Q589 477 588 501 Q550 506 516 511 Q518 540 525 564 Q555 562 586 560 Q585 584 585 608 Q504 612 424 620 L424 654 Q424 667 426 681 ZM395 169 Q469 171 579 171 L671 171 Q669 195 668 217 Q699 221 730 221 Q735 199 739 170 Q819 169 863 167 Q865 155 865 140 L865 111 Q846 105 748 102 Q755 43 761 -35 Q747 -43 722 -43 Q679 -43 652 -39 Q646 -19 646 6 Q666 6 687 8 Q681 58 677 101 L577 101 Q452 101 397 109 Q393 122 393 140 Q393 157 395 169 ZM506 77 Q537 36 550 3 Q533 -12 496 -26 Q470 2 450 48 Q474 67 506 77 ZM443 559 Q462 559 471 555 Q488 423 488 265 Q478 262 458 262 Q436 262 429 264 Q413 420 413 554 Q418 557 443 559 Z" /><glyph glyph-name="uni5361" unicode="&#x5361;" d="M130 419 Q275 419 418 415 Q419 571 429 733 Q445 735 464 735 Q484 735 501 731 L501 611 Q561 613 629 613 Q722 613 778 606 Q782 597 782 576 Q782 554 778 546 Q764 541 629 541 Q541 541 500 543 Q499 475 498 413 Q667 407 832 396 L832 365 Q832 343 828 331 Q647 331 498 334 Q497 143 494 -33 Q482 -35 459 -35 Q439 -35 425 -31 Q419 150 418 336 Q252 341 128 351 Q124 358 124 385 Q124 402 130 419 ZM603 207 Q674 167 747 116 Q742 102 733 90 Q726 76 716 64 Q639 92 570 153 Q582 184 603 207 Z" /><glyph glyph-name="uni536B" unicode="&#x536b;" d="M471 696 Q657 696 769 690 Q789 510 789 313 Q789 286 785 262 Q762 256 720 256 Q681 256 662 260 Q658 280 658 301 Q687 305 722 307 Q722 463 707 625 Q462 623 186 612 Q180 630 180 648 Q180 663 184 675 Q283 690 471 696 ZM458 565 Q480 565 490 561 Q504 355 505 114 Q645 108 783 97 L783 65 Q783 42 779 30 Q414 30 197 50 Q193 58 193 85 Q193 103 199 120 Q318 120 437 116 Q425 354 425 559 Q431 563 458 565 Z" /><glyph glyph-name="uni5370" unicode="&#x5370;" d="M501 666 Q509 637 509 604 Q315 551 120 538 Q106 562 106 603 Q296 642 501 666 ZM150 469 Q187 469 220 465 L220 383 Q236 384 251 384 Q342 384 397 377 Q400 368 400 348 Q400 326 397 319 Q383 314 251 314 L219 314 Q218 212 216 193 Q278 186 399 182 Q399 143 396 121 Q378 116 296 116 Q199 117 148 130 Q140 130 140 362 Q140 403 150 469 ZM550 423 Q519 423 491 423 Q486 440 486 454 Q486 469 491 484 Q552 492 691 492 Q765 492 858 485 Q864 413 864 323 L864 169 Q844 165 797 165 Q758 165 729 169 Q725 183 725 196 L725 218 Q760 222 794 222 Q794 309 788 420 Q697 421 613 422 Q633 212 635 15 Q624 11 606 11 Q587 11 577 13 Q554 221 550 423 Z" /><glyph glyph-name="uni5382" unicode="&#x5382;" d="M205 661 Q517 661 822 637 Q822 605 817 574 Q500 574 197 596 Q197 632 205 661 ZM312 525 Q330 523 342 521 Q320 394 293 269 Q279 207 266 142 Q255 78 234 18 Q218 18 198 24 Q182 29 169 38 Q212 269 272 521 Q293 525 312 525 Z" /><glyph glyph-name="uni5385" unicode="&#x5385;" d="M621 399 Q677 186 687 -23 Q644 -45 514 -45 Q508 -19 508 10 Q557 14 609 22 Q584 210 556 390 Q583 396 621 399 ZM816 527 Q821 515 821 496 Q821 472 819 461 Q576 442 320 438 Q316 469 316 501 Q538 517 816 527 ZM207 704 Q511 704 806 680 Q806 648 801 617 Q494 617 200 639 Q200 675 207 704 ZM283 578 Q301 577 313 575 Q288 475 257 377 Q240 329 226 277 Q213 228 189 181 Q174 181 154 186 Q138 191 126 200 Q175 379 244 575 Q265 578 283 578 Z" /><glyph glyph-name="uni539A" unicode="&#x539a;" d="M577 570 Q689 570 764 563 Q768 482 768 389 Q768 347 762 312 Q726 307 651 307 Q487 307 370 315 Q366 393 366 490 Q366 521 370 565 Q456 570 577 570 ZM434 513 L434 461 Q525 462 605 462 Q609 450 609 437 Q609 421 605 409 Q562 404 434 401 L434 361 L696 361 L696 513 L434 513 ZM226 722 Q540 706 859 683 L859 657 Q859 637 856 624 Q544 628 223 661 Q219 672 219 693 Q219 708 226 722 ZM211 560 Q236 558 271 550 Q235 346 180 135 Q137 135 116 150 Q156 356 211 560 ZM356 278 Q455 278 625 257 Q625 238 571 142 Q577 131 582 122 Q684 126 788 126 Q790 115 790 101 L790 75 Q697 66 606 61 Q621 9 621 -47 Q595 -58 558 -58 Q502 -58 482 -49 Q482 -27 483 -13 Q512 -9 545 -9 Q540 25 531 56 Q414 50 299 50 Q294 77 294 105 Q400 115 511 120 Q504 137 497 153 Q510 181 524 208 Q439 217 356 225 L356 278 Z" /><glyph glyph-name="uni539F" unicode="&#x539f;" d="M205 760 Q507 760 802 736 Q802 703 797 673 Q491 673 197 695 Q197 731 205 760 ZM625 636 Q635 593 640 553 Q752 552 849 548 Q855 508 855 340 Q855 229 847 213 Q760 199 535 199 Q417 199 366 220 Q358 264 358 332 Q358 435 359 534 Q375 538 395 538 Q413 538 427 534 Q430 477 432 428 Q510 426 601 417 Q601 384 591 357 Q495 357 435 365 Q436 312 436 267 Q454 260 535 260 Q728 260 780 264 Q784 293 784 340 Q784 403 782 490 Q627 490 498 498 Q494 508 494 528 Q494 544 498 554 L569 554 Q559 592 555 630 Q588 636 625 636 ZM600 168 Q618 109 635 -32 Q611 -41 568 -41 Q521 -41 491 -37 Q484 -15 484 13 Q519 13 553 15 Q536 99 532 164 Q566 168 600 168 ZM330 164 Q362 150 390 127 Q352 65 306 6 Q270 17 247 43 Q283 111 330 164 ZM793 144 Q835 100 868 48 Q844 26 812 11 Q767 56 738 108 Q761 127 793 144 ZM222 624 Q261 618 291 603 Q273 512 244 419 Q230 373 214 325 Q206 306 199 280 Q192 256 179 230 Q144 237 111 252 Q165 451 222 624 Z" /><glyph glyph-name="uni53A6" unicode="&#x53a6;" d="M181 740 Q484 740 779 716 Q779 684 774 653 Q526 653 288 668 Q265 561 236 457 Q219 399 204 337 Q191 277 166 221 Q150 221 131 226 Q115 231 103 240 Q152 448 220 672 Q196 673 174 675 Q174 711 181 740 ZM315 615 Q549 615 778 593 Q778 569 774 547 Q685 547 599 551 Q597 539 594 525 Q592 513 589 502 Q689 498 792 490 Q799 432 799 359 Q799 237 793 200 Q743 196 581 196 Q421 196 319 215 Q315 240 315 357 Q315 397 330 486 Q358 486 391 481 Q390 450 388 419 Q403 420 422 420 Q484 420 519 419 Q522 408 522 395 Q522 383 520 372 Q489 367 419 367 Q399 367 385 368 Q385 353 384 340 L411 340 Q471 340 504 339 Q507 328 507 315 Q507 303 506 292 Q476 287 408 287 Q391 287 380 288 Q379 274 378 262 Q574 252 730 252 Q730 347 728 439 Q585 440 455 455 L455 481 Q455 496 458 507 Q492 506 524 505 Q527 526 533 553 Q420 558 310 568 Q310 594 315 615 ZM436 194 Q462 185 486 165 Q439 70 375 -31 Q344 -23 318 3 Q373 102 436 194 ZM519 164 Q637 151 735 130 Q718 67 697 12 Q755 -2 811 -17 Q805 -43 792 -67 Q734 -56 678 -43 Q664 -80 653 -95 Q619 -90 599 -79 Q606 -53 614 -29 Q552 -14 490 3 Q496 35 509 57 Q571 44 632 29 Q642 59 651 88 Q565 99 503 113 Q510 143 519 164 Z" /><glyph glyph-name="uni53A8" unicode="&#x53a8;" d="M232 684 Q545 668 864 646 L864 618 Q864 597 860 583 Q548 588 228 619 Q224 631 224 653 Q224 668 232 684 ZM215 537 Q241 535 276 528 Q240 328 185 122 Q142 122 121 138 Q161 338 215 537 ZM421 520 Q514 520 570 513 Q574 505 574 484 Q574 461 570 454 Q556 448 421 448 Q330 448 321 454 Q318 466 318 485 Q318 503 323 517 Q367 520 421 520 ZM536 392 Q551 307 551 218 Q446 195 319 193 Q295 249 290 370 Q403 392 536 392 ZM377 255 L483 266 L471 331 L364 322 L377 255 ZM566 92 Q576 65 581 31 Q495 9 317 -18 Q307 11 303 46 Q331 51 360 57 Q329 100 323 158 Q342 167 368 171 Q399 135 413 67 Q426 69 437 71 Q434 72 431 74 Q456 132 499 186 Q528 180 548 165 Q531 124 502 82 Q535 87 566 92 ZM807 480 Q816 424 822 372 Q869 366 915 359 Q915 332 910 307 Q869 307 829 309 Q842 189 845 72 Q812 52 712 52 Q706 77 706 106 Q736 110 767 116 Q760 216 754 313 Q667 319 582 333 Q582 362 588 390 Q669 388 749 380 Q746 427 743 470 Q770 476 807 480 ZM613 266 Q681 240 746 209 Q738 182 720 155 Q641 174 587 207 Q599 242 613 266 Z" /><glyph glyph-name="uni53BB" unicode="&#x53bb;" d="M157 639 Q300 639 465 634 Q462 688 461 741 Q495 747 534 747 Q538 688 541 632 Q684 628 839 620 Q839 592 834 561 Q687 561 545 565 Q551 459 556 358 Q704 366 850 372 Q855 357 855 344 Q857 335 857 312 Q498 286 144 272 Q136 289 136 306 L136 333 Q311 345 484 354 Q474 461 469 567 Q310 572 155 582 L155 614 Q155 627 157 639 ZM754 180 Q792 135 808 45 Q781 30 755 28 Q711 84 703 166 Q725 176 754 180 ZM373 239 Q397 237 409 231 Q384 145 362 55 Q436 47 609 31 Q613 18 613 4 Q613 -10 609 -27 Q416 -27 270 4 Q294 129 342 237 Q350 239 373 239 Z" /><glyph glyph-name="uni53BF" unicode="&#x53bf;" d="M320 674 Q341 674 355 672 Q357 629 358 586 Q377 587 403 587 Q506 587 564 580 Q568 566 568 549 Q568 534 566 521 L399 521 Q375 521 359 522 Q360 487 360 453 Q379 454 403 454 Q510 454 571 449 Q575 435 575 418 Q575 403 573 390 Q519 388 399 388 Q377 388 361 389 Q362 347 362 306 Q583 304 800 294 Q800 261 794 229 Q479 229 178 242 Q178 279 185 308 Q240 308 292 307 Q281 487 281 670 Q298 672 320 674 ZM344 210 Q369 208 382 201 Q354 133 329 63 Q417 57 618 44 Q623 31 623 14 Q623 -2 618 -20 Q400 -20 235 6 Q261 114 313 208 Q321 210 344 210 ZM695 138 Q726 100 739 25 Q710 9 681 5 Q645 53 638 122 Q663 133 695 138 ZM386 738 Q547 736 720 723 Q722 691 722 502 Q718 336 709 320 Q702 316 678 316 Q659 316 650 323 Q650 533 649 662 Q593 662 517 668 Q413 671 383 675 Q383 712 386 738 Z" /><glyph glyph-name="uni53C1" unicode="&#x53c1;" d="M148 453 Q248 453 347 451 Q376 481 404 509 Q443 505 470 487 Q454 467 438 449 Q654 443 867 427 L867 397 Q867 375 863 364 Q583 364 376 373 Q353 346 331 322 Q293 282 267 250 Q248 228 228 209 Q212 187 173 159 Q138 170 112 192 Q197 291 278 378 Q206 382 146 387 Q142 394 142 420 Q142 437 148 453 ZM749 351 Q840 276 912 186 Q889 165 858 150 Q760 228 694 315 Q717 334 749 351 ZM357 309 Q493 309 660 295 Q660 264 650 238 Q455 238 349 254 Q349 281 357 309 ZM643 175 Q647 148 647 116 Q492 104 350 104 Q344 131 344 160 Q485 170 643 175 ZM720 683 Q767 642 786 559 Q758 543 730 540 Q675 592 666 668 Q689 679 720 683 ZM293 765 Q329 757 361 741 Q324 669 289 597 Q464 587 646 582 Q646 553 637 524 Q412 524 187 545 Q235 671 293 765 ZM309 41 Q508 35 706 7 Q706 -22 700 -49 Q500 -49 303 -20 Q303 12 309 41 Z" /><glyph glyph-name="uni53C2" unicode="&#x53c2;" d="M148 453 Q248 453 347 451 Q376 481 404 509 Q443 505 470 487 Q454 467 438 449 Q654 443 867 427 L867 397 Q867 375 863 364 Q583 364 376 373 Q353 346 331 322 Q293 282 267 250 Q248 228 228 209 Q212 187 173 159 Q138 170 112 192 Q197 291 278 378 Q206 382 146 387 Q142 394 142 420 Q142 437 148 453 ZM749 351 Q840 276 912 186 Q889 165 858 150 Q760 228 694 315 Q717 334 749 351 ZM713 79 Q734 50 738 23 Q566 -18 349 -50 Q326 -20 326 7 Q535 50 713 79 ZM352 306 Q489 306 657 294 Q657 263 647 237 Q450 237 344 251 Q344 278 352 306 ZM635 180 Q639 153 639 121 Q488 104 350 104 Q344 131 344 160 Q482 174 635 180 ZM720 683 Q767 642 786 559 Q758 543 730 540 Q675 592 666 668 Q689 679 720 683 ZM293 765 Q329 757 361 741 Q324 669 289 597 Q464 587 646 582 Q646 553 637 524 Q412 524 187 545 Q235 671 293 765 Z" /><glyph glyph-name="uni53C8" unicode="&#x53c8;" d="M227 358 Q373 302 521 252 Q612 385 688 524 Q471 564 244 608 Q251 643 264 671 Q574 625 781 561 Q737 441 655 322 Q622 269 593 228 Q703 191 812 157 Q812 133 803 100 Q668 122 545 160 Q459 41 403 -1 Q376 16 361 37 Q420 109 473 183 Q330 232 200 303 Q214 337 227 358 Z" /><glyph glyph-name="uni53CB" unicode="&#x53cb;" d="M131 637 Q252 632 370 626 Q407 711 444 794 Q484 786 512 770 Q482 694 452 622 Q670 610 887 596 Q892 579 892 559 Q892 544 887 527 Q650 530 421 545 Q317 287 209 36 Q175 40 149 62 Q236 307 338 550 Q232 558 131 567 Q125 585 125 602 Q125 620 131 637 ZM400 366 Q661 362 761 349 Q744 237 689 116 Q767 91 842 65 Q835 34 819 6 Q738 26 657 50 Q634 4 606 -42 Q581 -42 549 -24 Q569 24 588 71 Q516 93 443 119 Q451 157 466 184 Q542 162 616 139 Q648 215 679 290 Q534 294 394 304 Q394 340 400 366 Z" /><glyph glyph-name="uni53CC" unicode="&#x53cc;" d="M671 564 Q786 562 855 556 Q852 497 738 276 Q830 242 920 201 Q918 173 906 146 Q825 146 697 199 Q662 135 621 61 Q585 68 564 87 Q596 159 628 230 Q581 253 529 281 Q533 313 543 338 Q604 322 662 303 Q707 400 754 495 Q691 493 632 493 Q570 493 562 495 Q554 523 554 554 Q605 562 671 564 ZM261 568 Q378 567 447 561 Q445 502 358 287 Q429 263 499 233 Q498 205 486 180 Q423 180 328 214 Q299 146 266 70 Q230 77 208 96 Q232 169 257 241 Q207 262 152 290 Q156 321 165 345 Q224 331 281 312 Q313 407 346 500 Q283 498 222 498 Q160 498 152 500 Q144 528 144 559 Q195 566 261 568 Z" /><glyph glyph-name="uni53D1" unicode="&#x53d1;" d="M670 653 Q747 622 817 569 Q803 535 776 514 Q697 549 634 598 Q651 629 670 653 ZM467 691 Q504 687 530 670 Q503 610 449 489 Q576 479 752 466 Q756 453 756 439 Q756 424 752 407 Q572 407 418 421 Q346 258 237 14 Q203 19 177 34 Q230 212 333 429 Q245 439 166 453 Q184 559 220 650 Q227 652 248 652 Q270 650 281 645 Q264 577 249 506 Q298 502 366 496 Q413 591 467 691 ZM452 322 Q608 314 767 264 Q767 234 674 107 Q728 89 779 71 Q775 42 759 15 Q693 32 633 52 Q600 9 561 -41 Q534 -29 508 -8 Q540 37 566 73 Q517 90 470 109 Q480 138 492 165 Q550 148 607 130 Q641 178 667 212 Q564 239 441 264 Q441 295 452 322 Z" /><glyph glyph-name="uni53D4" unicode="&#x53d4;" d="M104 407 Q176 409 283 409 L285 409 Q266 553 266 700 Q283 702 304 703 Q325 703 338 702 Q345 638 349 574 Q418 573 501 566 Q501 535 495 499 Q423 499 353 505 Q355 457 355 409 Q464 408 514 406 Q516 394 516 379 L516 350 Q490 341 281 341 Q159 341 106 349 Q102 362 102 379 Q102 396 104 407 ZM359 299 Q376 157 380 9 Q363 -2 323 -2 Q282 -2 262 3 Q256 27 256 49 Q286 53 312 53 Q296 174 296 293 Q327 299 359 299 ZM197 234 Q222 214 236 183 Q199 133 117 74 Q91 100 80 127 Q130 179 197 234 ZM484 269 Q533 213 572 144 Q556 126 529 108 Q480 154 439 233 Q461 254 484 269 ZM583 509 Q726 496 846 476 Q825 364 800 267 Q798 258 796 251 Q847 225 893 197 Q885 173 867 147 Q824 159 779 177 Q760 106 745 78 Q709 83 689 95 Q700 152 711 207 Q654 233 593 268 Q600 297 615 323 Q673 305 726 283 Q741 355 757 425 Q645 435 564 446 Q572 483 583 509 Z" /><glyph glyph-name="uni53E3" unicode="&#x53e3;" d="M373 594 Q600 594 798 585 Q814 562 814 366 Q814 125 792 111 Q732 91 495 91 Q253 98 190 137 Q190 386 209 596 Q242 596 270 592 Q269 384 262 182 Q302 169 495 159 Q700 159 730 172 Q740 227 740 364 Q740 400 734 519 Q554 519 373 532 L373 594 Z" /><glyph glyph-name="uni53E4" unicode="&#x53e4;" d="M186 593 Q332 589 476 579 Q496 652 522 723 Q556 721 584 714 Q573 646 556 573 Q706 560 855 540 Q855 511 849 485 Q692 485 537 496 Q519 430 497 361 Q460 363 433 374 Q443 439 457 502 Q318 514 180 534 Q180 564 186 593 ZM424 327 Q579 321 739 304 Q751 263 751 147 Q751 85 747 32 Q734 17 438 17 Q330 17 269 28 Q252 133 252 273 L321 273 Q331 168 331 91 Q398 84 506 84 Q628 84 682 81 Q682 158 675 245 Q548 252 422 266 Q422 298 424 327 Z" /><glyph glyph-name="uni53EC" unicode="&#x53ec;" d="M362 622 Q279 627 198 632 Q196 646 196 667 Q196 683 200 698 Q486 693 786 673 Q788 583 788 507 Q788 404 774 341 Q708 334 615 334 Q610 362 610 391 Q659 395 713 397 Q715 469 715 603 Q577 610 443 617 Q413 543 372 470 Q347 426 318 381 Q306 362 293 338 Q281 315 259 291 Q224 298 192 312 Q274 477 362 622 ZM429 254 Q586 252 736 238 Q745 211 745 113 Q745 34 741 -4 Q665 -12 482 -12 Q386 -12 303 3 Q290 34 290 111 Q290 150 294 250 Q307 254 327 254 Q342 254 358 250 Q358 210 362 58 Q517 50 671 50 Q675 71 675 113 Q675 143 673 180 Q480 189 432 194 Q427 203 427 226 Q427 240 429 254 Z" /><glyph glyph-name="uni53ED" unicode="&#x53ed;" d="M509 444 Q547 440 572 424 Q543 336 510 251 Q492 209 481 176 Q472 152 463 133 Q456 110 438 81 Q405 91 380 112 Q446 294 509 444 ZM653 635 Q803 399 934 162 Q916 134 877 117 Q729 353 598 597 Q627 621 653 635 ZM372 532 Q377 397 377 261 Q246 251 120 251 Q104 396 100 524 Q232 532 372 532 ZM168 466 L176 316 L313 321 L309 470 L168 466 Z" /><glyph glyph-name="uni53EF" unicode="&#x53ef;" d="M119 690 Q506 676 894 654 Q900 637 900 617 Q900 602 894 585 Q500 590 119 619 Q114 638 114 655 Q114 673 119 690 ZM770 407 Q818 209 826 16 Q791 -2 684 -2 Q679 22 679 49 Q713 53 750 58 Q729 232 707 398 Q734 404 770 407 ZM278 370 Q401 370 501 364 Q508 331 508 190 Q508 80 499 63 Q454 50 336 50 Q218 50 167 70 Q159 114 159 183 Q159 263 165 340 Q181 344 201 344 Q219 344 233 340 Q237 212 237 117 Q256 111 336 111 Q412 111 432 114 Q436 144 436 190 Q436 238 434 303 Q349 303 278 312 Q274 322 274 343 Q274 360 278 370 Z" /><glyph glyph-name="uni53F0" unicode="&#x53f0;" d="M474 790 Q502 773 535 745 Q434 624 287 451 Q372 438 685 419 Q683 392 677 359 Q374 364 297 375 Q191 386 168 405 Q178 431 266 546 Q344 641 474 790 ZM771 578 Q824 512 868 436 Q849 415 812 400 Q756 468 715 544 Q744 569 771 578 ZM484 271 Q630 269 769 253 Q777 221 777 104 Q777 25 773 -12 Q708 -20 552 -20 Q453 -20 365 -5 Q352 27 352 105 Q352 149 348 261 Q361 266 381 266 Q396 266 411 261 Q411 219 424 54 Q565 44 704 44 Q709 64 709 104 Q709 142 707 189 Q532 199 488 204 Q482 214 482 239 Q482 255 484 271 Z" /><glyph glyph-name="uni53F3" unicode="&#x53f3;" d="M840 593 Q844 581 844 563 Q844 539 842 529 Q640 517 436 511 Q311 257 193 62 Q157 72 135 94 Q195 225 343 508 Q250 506 158 505 Q154 535 154 567 Q262 573 379 578 Q424 663 475 760 Q511 750 541 730 Q505 652 471 582 Q646 588 840 593 ZM567 309 Q734 309 835 295 Q844 238 844 183 Q844 57 839 19 Q792 5 668 5 Q517 5 462 15 Q453 57 449 151 Q444 228 444 280 Q458 284 482 286 Q506 286 516 284 Q524 181 524 67 Q594 66 668 66 Q724 66 771 71 Q769 153 766 239 Q706 242 654 245 Q613 245 567 254 Q564 272 564 283 Q564 297 567 309 Z" /><glyph glyph-name="uni53F6" unicode="&#x53f6;" d="M666 700 Q689 700 699 696 Q707 560 712 416 Q809 420 913 424 Q917 412 917 395 Q917 371 915 362 Q815 354 714 349 Q719 166 719 -30 Q706 -34 683 -34 Q656 -34 647 -32 Q639 164 634 345 Q532 341 429 339 Q425 368 425 399 Q524 406 633 412 Q630 558 630 694 Q636 698 666 700 ZM351 459 Q357 348 357 237 Q241 228 129 228 Q114 346 110 452 Q227 459 351 459 ZM178 396 L186 289 L293 294 L289 400 L178 396 Z" /><glyph glyph-name="uni53F7" unicode="&#x53f7;" d="M338 309 Q265 315 194 323 Q189 340 189 355 Q189 372 194 386 Q493 371 795 345 Q800 330 800 312 Q800 299 795 284 Q598 288 408 303 Q403 261 397 215 Q558 203 722 179 Q720 64 678 -46 Q663 -50 624 -50 Q597 -50 553 -39 L553 0 Q592 1 626 1 Q636 70 644 125 Q498 130 325 162 Q325 238 338 309 ZM386 735 Q605 726 817 689 Q817 633 807 574 Q799 500 784 418 Q516 418 253 453 Q246 524 246 621 Q248 694 250 726 Q264 728 284 728 Q301 728 317 726 Q318 674 318 623 L318 512 Q523 488 723 488 Q741 558 743 630 Q563 659 382 677 Q382 708 386 735 Z" /><glyph glyph-name="uni53F8" unicode="&#x53f8;" d="M220 501 Q384 497 557 481 Q557 455 551 423 Q372 423 218 443 Q218 473 220 501 ZM427 674 Q663 674 805 670 Q829 455 829 218 Q829 110 824 12 Q802 5 760 5 Q718 5 697 9 Q693 30 693 53 Q718 57 749 59 Q749 330 730 611 Q464 608 163 596 Q158 612 158 629 Q158 643 161 654 Q254 668 427 674 ZM315 321 Q477 321 575 311 Q584 252 584 196 Q584 96 580 66 Q532 51 405 51 Q268 51 217 61 Q209 97 206 179 Q202 245 202 289 Q215 293 238 295 Q261 295 270 293 Q276 209 276 115 Q338 114 405 114 Q462 114 510 120 Q508 185 504 252 Q447 254 398 256 Q359 256 315 264 Q312 282 312 293 Q312 308 315 321 Z" /><glyph glyph-name="uni53FB" unicode="&#x53fb;" d="M373 517 Q378 392 378 268 Q255 258 136 258 Q121 391 117 509 Q241 517 373 517 ZM185 450 L193 322 L314 328 L310 454 L185 450 ZM442 514 Q516 512 591 508 Q620 590 651 670 Q689 664 712 645 Q691 573 668 504 Q773 498 878 489 Q880 400 880 323 Q880 194 867 114 Q807 107 724 107 Q718 136 718 165 Q760 169 806 171 Q808 259 808 421 Q725 427 645 433 Q579 232 500 35 Q466 37 436 61 Q498 252 566 439 Q502 444 440 449 Q438 463 438 484 Q438 499 442 514 Z" /><glyph glyph-name="uni5403" unicode="&#x5403;" d="M252 490 Q324 490 373 483 Q376 413 376 332 Q376 288 371 252 Q331 246 250 246 Q174 246 120 256 Q116 322 116 406 Q116 439 120 485 Q175 490 252 490 ZM184 427 L184 307 L304 307 L304 427 L184 427 ZM566 708 Q599 703 630 689 Q615 647 599 608 Q741 596 883 584 L883 553 Q883 533 877 516 Q713 522 571 540 Q548 487 523 436 Q488 446 462 463 Q508 586 566 708 ZM472 367 Q628 367 809 353 Q764 201 711 71 Q767 58 822 48 Q822 17 813 -9 Q637 0 620 28 Q647 118 711 288 Q581 288 472 303 Q468 315 468 334 Q468 354 472 367 Z" /><glyph glyph-name="uni5408" unicode="&#x5408;" d="M610 732 Q638 712 652 683 Q628 667 605 653 Q742 555 881 447 Q870 425 837 397 Q685 491 542 612 Q346 483 151 356 Q119 380 110 407 Q331 580 610 732 ZM347 422 Q492 422 684 403 Q684 374 678 341 Q510 341 345 362 L345 395 Q345 408 347 422 ZM426 258 Q590 256 746 241 Q755 213 755 110 Q755 29 751 -9 Q670 -17 476 -17 Q380 -17 296 -2 Q283 30 283 108 Q283 144 287 237 Q301 241 321 241 Q337 241 352 237 Q352 199 357 53 Q519 45 679 45 Q683 67 683 110 Q683 142 681 182 Q480 191 429 196 Q424 205 424 229 Q424 243 426 258 Z" /><glyph glyph-name="uni5409" unicode="&#x5409;" d="M493 767 Q512 767 529 763 Q529 702 528 644 Q670 648 816 650 Q820 635 820 617 L820 582 Q673 576 527 573 Q527 509 525 449 Q525 434 523 420 Q647 419 702 413 Q704 402 704 386 L704 357 Q676 350 457 350 Q332 350 278 358 Q274 371 274 389 Q274 406 276 418 Q347 420 448 420 Q447 431 447 441 Q447 506 449 570 Q301 566 154 563 Q148 598 148 633 Q300 639 452 642 Q455 704 459 765 Q474 767 493 767 ZM426 262 Q579 256 737 239 Q749 203 749 100 Q749 38 745 -15 Q732 -30 440 -30 Q332 -30 271 -18 Q260 87 260 226 L329 226 Q333 121 333 44 Q400 37 508 37 Q627 37 680 35 Q680 103 673 180 Q548 188 424 201 Q424 234 426 262 Z" /><glyph glyph-name="uni540A" unicode="&#x540a;" d="M430 728 Q611 722 748 706 Q748 529 725 397 Q627 397 522 403 Q525 358 527 313 Q657 307 790 297 Q791 207 791 131 Q791 84 778 56 Q724 49 648 49 Q643 74 643 99 Q678 102 717 104 Q719 148 719 230 Q623 236 530 243 Q535 107 535 -42 Q523 -46 501 -46 Q475 -46 467 -44 Q459 109 456 248 Q381 253 308 259 Q306 272 306 292 Q306 307 310 322 Q382 320 455 317 Q454 364 454 407 Q348 414 235 427 Q235 568 252 728 Q271 731 291 731 Q310 731 325 726 Q316 605 310 487 Q478 475 658 465 Q666 558 670 648 Q555 654 424 665 Q424 698 430 728 ZM229 320 Q250 320 264 318 Q267 197 267 71 Q255 66 232 66 Q212 66 199 67 Q190 190 190 316 Q207 318 229 320 Z" /><glyph glyph-name="uni540C" unicode="&#x540c;" d="M538 668 Q683 668 789 662 Q833 357 833 40 Q772 27 706 27 Q697 44 695 79 Q726 84 761 88 Q751 342 722 595 Q657 594 535 594 Q472 591 388 589 Q381 619 381 657 Q444 664 538 668 ZM342 451 Q471 447 607 432 Q607 407 601 376 Q461 376 340 396 Q340 424 342 451 ZM610 293 Q616 203 616 113 Q499 104 387 104 Q370 200 366 286 Q484 293 610 293 ZM438 233 L446 162 L548 168 L544 237 L438 233 ZM214 603 Q234 603 251 599 Q251 429 248 277 Q248 156 246 47 Q234 45 211 45 Q191 45 177 49 Q168 157 168 269 Q168 431 179 601 Q195 603 214 603 Z" /><glyph glyph-name="uni540D" unicode="&#x540d;" d="M331 449 Q395 440 468 402 Q552 489 625 579 Q489 601 348 626 Q336 604 322 578 Q241 424 221 413 Q183 424 160 445 Q170 470 243 606 Q315 733 336 763 Q372 755 403 740 Q401 728 382 692 Q589 660 731 618 Q679 515 581 415 Q387 197 280 139 Q250 158 232 183 Q329 264 414 348 Q358 363 313 398 Q320 426 331 449 ZM541 255 Q668 254 788 239 Q797 212 797 116 Q797 39 793 2 Q742 -7 621 -7 Q524 -7 439 8 Q426 39 426 115 Q426 150 431 240 Q444 244 464 244 Q479 244 494 240 Q494 204 497 65 Q612 57 726 57 Q730 77 730 116 Q730 144 728 178 Q581 187 545 192 Q539 202 539 226 Q539 241 541 255 Z" /><glyph glyph-name="uni540E" unicode="&#x540e;" d="M815 695 Q821 680 821 667 Q823 658 823 636 Q519 591 220 569 Q212 586 212 602 L212 630 Q516 671 815 695 ZM513 249 Q656 243 770 230 Q770 78 749 6 Q717 -9 581 -9 Q482 -9 413 12 Q397 98 393 216 Q425 220 457 220 Q469 146 475 65 Q591 61 688 61 Q688 104 696 173 Q594 178 511 193 Q511 223 513 249 ZM245 524 Q274 521 302 510 Q260 261 199 51 L160 57 Q145 60 134 66 Q164 276 245 524 ZM386 440 Q619 434 850 406 Q850 379 844 354 Q611 354 380 383 Q380 412 386 440 Z" /><glyph glyph-name="uni5411" unicode="&#x5411;" d="M837 560 Q848 386 848 263 Q848 48 829 16 Q810 12 783 12 Q723 12 680 21 Q674 40 674 64 Q723 65 760 68 Q768 92 768 263 Q768 351 759 494 Q530 485 307 470 Q300 497 300 526 Q323 529 346 532 Q364 597 390 659 Q423 655 458 646 Q439 592 420 540 Q618 560 837 560 ZM192 507 Q213 507 223 503 Q235 288 235 32 Q223 28 202 28 Q176 28 169 30 Q159 284 159 501 Q165 505 192 507 ZM610 348 Q620 291 620 229 Q620 137 616 127 Q527 111 360 111 Q336 201 331 332 Q459 348 610 348 ZM418 172 L549 179 L545 288 L411 281 L418 172 Z" /><glyph glyph-name="uni541B" unicode="&#x541b;" d="M130 551 Q266 551 400 547 Q419 579 438 609 Q472 598 499 582 Q489 563 479 545 Q592 542 704 536 Q705 584 706 641 Q536 644 203 665 Q201 681 201 694 Q201 712 204 723 Q314 723 420 722 Q619 715 768 699 Q780 663 780 541 L780 531 Q841 528 901 524 L901 498 Q901 478 898 469 L779 469 Q777 354 764 331 Q687 311 346 308 Q270 177 191 52 Q157 63 137 82 Q196 198 259 308 L216 308 Q208 318 208 338 Q208 358 212 369 Q244 371 295 373 Q325 426 357 479 Q230 484 128 493 Q125 500 125 522 Q125 537 130 551 ZM385 376 Q512 381 702 385 Q702 418 703 470 Q561 472 441 476 Q413 426 385 376 ZM539 225 Q667 219 768 206 Q768 61 749 -8 Q722 -22 609 -22 Q515 -22 449 -2 Q434 79 430 191 Q461 194 493 194 Q504 125 509 48 Q608 45 690 45 Q690 84 698 147 Q610 153 537 168 Q537 199 539 225 Z" /><glyph glyph-name="uni5427" unicode="&#x5427;" d="M361 527 Q367 401 367 274 Q243 264 125 264 Q109 399 105 520 Q229 527 361 527 ZM173 461 L181 328 L302 334 L298 465 L173 461 ZM676 485 Q693 485 708 480 Q708 422 702 353 Q746 352 789 352 Q789 453 784 554 Q651 558 488 571 Q488 610 494 635 Q632 635 856 617 Q865 573 865 490 Q865 347 856 303 Q830 283 744 283 Q626 283 551 292 Q548 221 545 151 Q679 141 816 131 Q816 118 814 100 Q814 86 811 69 Q622 71 469 92 Q469 263 486 428 Q503 430 521 430 Q540 430 556 426 Q554 389 553 353 L635 353 Q636 437 643 483 Q657 485 676 485 Z" /><glyph glyph-name="uni542C" unicode="&#x542c;" d="M836 713 Q843 685 843 653 Q638 596 430 582 Q417 604 417 643 Q618 686 836 713 ZM517 361 Q514 328 510 291 Q499 182 480 75 Q451 75 423 81 Q423 227 468 515 Q499 515 529 508 Q529 483 523 421 Q698 416 881 402 Q881 376 875 344 Q824 344 777 345 Q784 191 784 32 Q773 26 750 26 Q732 26 719 28 Q706 187 705 348 Q607 351 517 361 ZM361 532 Q367 408 367 283 Q241 274 120 274 Q104 406 100 524 Q226 532 361 532 ZM168 466 L176 338 L302 344 L298 470 L168 466 Z" /><glyph glyph-name="uni542F" unicode="&#x542f;" d="M277 520 Q265 520 253 521 Q251 538 251 553 Q251 572 255 584 Q373 584 489 583 Q685 577 832 561 Q843 526 843 407 Q843 344 833 334 Q767 313 425 313 Q417 322 417 343 Q417 363 421 374 Q503 380 773 388 Q773 421 771 498 Q621 501 349 516 Q311 395 204 51 Q169 57 143 72 Q182 264 277 520 ZM407 762 Q536 727 658 686 Q650 654 636 627 Q505 659 387 703 Q395 738 407 762 ZM477 232 Q643 231 802 217 Q810 186 810 74 Q810 -1 806 -36 Q730 -42 547 -42 Q455 -42 374 -28 Q362 2 362 75 Q362 117 359 227 Q371 232 389 232 Q404 232 418 227 Q418 186 429 26 Q586 16 741 16 Q745 35 745 74 Q745 112 743 159 Q533 168 481 173 Q476 182 476 204 Q476 218 477 232 Z" /><glyph glyph-name="uni543B" unicode="&#x543b;" d="M241 534 Q311 534 359 527 Q363 454 363 370 Q363 326 357 290 Q317 284 237 284 Q163 284 110 294 Q106 363 106 450 Q106 483 110 529 Q164 534 241 534 ZM174 471 L174 345 L291 345 L291 471 L174 471 ZM555 735 Q596 730 623 712 Q592 641 557 573 Q718 545 892 507 Q892 315 823 20 Q815 16 786 16 Q751 16 707 24 Q707 39 708 74 Q735 73 760 72 Q805 259 814 450 Q667 480 524 509 Q523 507 523 506 Q514 486 504 470 Q496 451 477 427 Q441 438 414 460 Q486 610 555 735 ZM481 371 Q516 365 543 348 Q481 169 441 97 Q403 104 380 122 Q430 255 481 371 ZM629 350 Q666 345 694 331 Q681 277 660 221 Q650 194 638 166 Q633 154 628 139 Q622 125 613 109 Q580 116 548 130 Q587 248 629 350 Z" /><glyph glyph-name="uni544A" unicode="&#x544a;" d="M385 230 Q572 228 750 214 Q759 187 759 87 Q759 9 754 -28 Q663 -36 442 -36 Q345 -36 261 -22 Q247 11 247 92 Q247 128 251 222 Q265 226 286 226 Q302 226 319 222 Q319 183 324 34 Q506 25 686 25 Q690 46 690 87 Q690 119 688 158 Q449 167 389 172 Q384 180 384 203 Q384 216 385 230 ZM338 747 Q368 739 399 726 Q372 662 336 600 Q407 599 483 596 Q482 655 482 713 Q499 715 521 717 Q542 717 556 715 Q557 653 558 593 Q672 587 797 577 Q797 548 792 516 Q674 516 559 521 Q560 452 560 382 Q706 376 848 365 Q848 335 843 306 Q521 306 214 329 Q214 363 220 390 Q357 390 490 385 Q487 456 485 525 Q392 530 301 539 Q261 475 214 412 Q181 420 158 439 Q241 607 338 747 Z" /><glyph glyph-name="uni5458" unicode="&#x5458;" d="M530 112 Q644 71 744 -3 Q737 -27 718 -53 Q625 -22 508 57 Q515 86 530 112 ZM255 452 Q273 452 286 449 Q291 351 291 270 Q291 181 283 113 Q276 110 252 110 Q234 110 227 113 Q219 182 219 264 Q219 353 225 449 Q239 452 255 452 ZM354 454 Q558 450 776 433 Q779 412 779 295 Q775 120 765 102 Q758 99 733 99 Q712 99 703 106 Q703 268 702 368 Q628 368 528 376 Q390 382 351 387 Q351 427 354 454 ZM487 322 Q525 315 553 298 Q470 112 357 -75 Q322 -69 296 -47 Q384 147 487 322 ZM518 758 Q633 758 709 750 Q713 681 713 602 Q713 555 707 515 Q664 509 575 509 Q418 509 306 519 Q302 585 302 667 Q302 702 306 752 Q394 758 518 758 ZM375 689 L375 577 L636 577 L636 689 L375 689 Z" /><glyph glyph-name="uni5468" unicode="&#x5468;" d="M175 560 Q197 560 207 556 Q219 337 219 77 Q208 73 186 73 Q161 73 153 75 Q142 333 142 554 Q148 558 175 560 ZM535 702 Q728 702 843 699 Q863 520 863 322 Q863 160 859 11 Q835 4 791 4 Q745 4 722 8 Q718 31 718 56 Q753 61 796 63 Q796 346 781 638 Q538 635 264 622 Q258 639 258 656 Q258 671 262 682 Q357 696 535 702 ZM342 525 Q399 523 455 519 Q456 544 458 563 Q474 565 495 565 Q513 565 530 559 L530 513 Q573 510 614 505 Q614 480 608 448 Q566 448 528 450 Q527 421 526 391 L528 391 Q614 391 665 385 Q668 377 668 358 Q668 337 665 330 Q652 325 528 325 Q321 325 301 330 Q298 341 298 359 Q298 375 303 388 Q373 390 452 391 Q452 426 453 455 Q394 459 340 468 Q340 497 342 525 ZM505 268 Q579 268 628 261 Q632 220 632 173 Q632 131 626 96 Q590 91 515 91 Q430 91 369 99 Q365 139 365 189 Q365 220 369 263 Q426 268 505 268 ZM433 212 L433 146 L560 146 L560 212 L433 212 Z" /><glyph glyph-name="uni5473" unicode="&#x5473;" d="M450 566 Q519 566 595 562 Q589 631 584 698 Q621 708 652 708 Q662 632 669 557 Q749 551 836 541 Q836 512 831 479 Q752 479 677 484 Q682 432 686 383 Q799 382 851 377 Q853 366 853 351 L853 322 Q832 316 692 315 Q703 164 709 11 Q655 0 568 0 Q556 21 554 59 Q596 60 636 60 Q630 137 623 213 Q600 195 573 176 Q541 153 502 125 Q460 92 418 69 Q392 88 375 115 Q493 213 616 297 Q616 306 615 315 L606 315 Q484 315 431 322 Q427 336 427 353 Q427 370 429 381 Q501 383 608 383 L610 383 Q605 437 601 489 Q523 495 448 505 L448 538 Q448 552 450 566 ZM764 240 Q837 212 901 163 Q893 138 874 111 Q815 132 741 183 Q749 213 764 240 ZM323 501 Q329 387 329 273 Q228 264 132 264 Q117 385 113 494 Q215 501 323 501 ZM181 437 L189 326 L264 332 L260 440 L181 437 Z" /><glyph glyph-name="uni5477" unicode="&#x5477;" d="M556 692 Q727 691 892 677 Q901 614 901 387 Q901 303 896 263 Q836 257 708 256 Q709 118 709 -18 Q698 -24 674 -24 Q655 -24 641 -22 Q636 118 633 256 Q535 257 449 272 Q435 305 435 386 Q435 451 449 619 Q463 624 483 624 Q499 624 515 619 Q515 560 511 332 Q572 328 632 325 Q631 380 631 434 Q571 435 540 439 Q537 451 537 466 Q537 481 538 491 Q578 492 631 492 Q630 561 630 628 Q581 631 559 633 Q554 642 554 664 Q554 678 556 692 ZM705 624 Q706 556 706 492 Q777 492 805 487 Q807 477 807 464 L807 439 Q795 433 707 433 Q708 377 708 323 Q767 321 823 321 Q828 343 828 387 Q828 490 825 619 Q756 622 705 624 ZM351 532 Q357 407 357 281 Q236 272 120 272 Q104 405 100 524 Q222 532 351 532 ZM168 466 L176 336 L293 342 L289 470 L168 466 Z" /><glyph glyph-name="uni548C" unicode="&#x548c;" d="M498 681 Q512 654 512 619 Q321 580 149 563 Q137 590 137 621 Q319 671 498 681 ZM130 426 Q211 423 293 421 Q294 485 297 550 Q313 554 331 554 Q350 554 364 550 Q368 479 369 418 Q445 415 519 412 L519 385 Q519 364 515 350 Q443 351 370 353 L370 275 Q429 256 489 240 Q489 214 480 179 Q420 187 369 206 Q367 113 363 35 Q355 31 330 31 Q310 31 302 35 Q296 112 294 195 Q235 162 135 129 Q120 151 114 178 Q198 239 293 272 Q292 312 292 351 L292 355 Q210 357 126 362 Q122 373 122 395 Q122 410 130 426 ZM682 443 Q795 438 885 425 Q885 256 866 176 Q845 163 755 163 Q658 163 591 182 Q571 283 566 420 Q598 424 630 424 Q645 333 653 235 Q738 230 809 230 Q809 283 816 370 Q741 375 680 389 Q680 418 682 443 Z" /><glyph glyph-name="uni548F" unicode="&#x548f;" d="M388 319 Q488 306 571 284 Q559 228 543 180 Q523 107 509 85 Q474 90 454 102 Q469 171 485 237 Q418 248 370 261 Q378 295 388 319 ZM799 189 Q842 177 891 159 Q887 132 872 103 Q822 110 781 130 Q787 163 799 189 ZM604 717 Q679 684 756 641 Q750 626 741 613 Q733 599 722 586 Q642 609 569 660 Q582 693 604 717 ZM885 372 Q905 348 907 318 Q865 295 808 285 Q788 305 780 339 Q826 359 885 372 ZM317 485 Q323 371 323 257 Q223 247 127 247 Q111 369 107 477 Q209 485 317 485 ZM175 420 L183 310 L258 316 L254 424 L175 420 ZM460 500 Q585 492 716 473 Q722 305 722 177 Q722 81 712 29 Q684 27 656 27 Q618 27 590 31 Q584 43 584 59 Q584 73 586 83 Q618 85 648 85 Q650 249 650 413 Q555 423 456 440 L456 470 Q456 482 460 500 Z" /><glyph glyph-name="uni5494" unicode="&#x5494;" d="M339 509 Q345 384 345 260 Q231 250 121 250 Q105 383 101 501 Q217 509 339 509 ZM169 443 L177 315 L281 320 L277 446 L169 443 ZM606 713 Q624 713 640 710 L640 608 Q749 601 851 589 Q851 563 843 530 Q743 530 639 545 Q638 476 637 411 L637 391 Q762 385 884 374 Q884 345 879 318 Q756 318 637 323 Q636 148 633 -13 Q622 -15 601 -15 Q582 -15 570 -11 Q564 156 563 327 Q477 332 394 339 Q394 371 400 397 Q482 397 563 394 L563 404 Q563 554 574 711 Q588 713 606 713 ZM718 227 Q784 192 851 146 Q846 133 838 121 Q831 108 821 96 Q750 121 686 175 Q698 205 718 227 Z" /><glyph glyph-name="uni5496" unicode="&#x5496;" d="M348 563 Q387 560 424 557 Q440 629 455 697 Q488 692 514 679 Q505 614 495 550 Q555 544 609 537 Q619 463 619 111 Q596 103 515 103 Q472 103 445 107 Q441 114 441 132 Q441 144 447 157 Q496 157 548 159 Q546 320 544 480 Q514 484 484 487 Q473 423 459 358 Q442 279 423 196 Q415 161 406 116 Q398 75 383 30 Q352 36 323 49 Q366 283 411 495 Q377 499 344 502 L344 531 Q344 550 348 563 ZM758 524 Q839 522 907 514 Q911 452 911 419 Q911 322 903 225 Q876 221 799 221 Q722 221 667 232 Q660 260 658 337 Q658 421 666 509 Q679 513 699 513 Q718 513 732 509 L732 286 Q790 281 836 281 Q838 362 840 459 Q792 461 754 469 Q754 497 758 524 ZM306 523 Q312 409 312 295 Q212 285 116 285 Q100 407 96 515 Q198 523 306 523 ZM165 458 L172 348 L248 354 L244 462 L165 458 Z" /><glyph glyph-name="uni54A8" unicode="&#x54a8;" d="M144 638 Q230 638 337 620 Q337 584 326 555 Q202 555 135 575 Q135 607 144 638 ZM222 424 Q273 424 301 425 Q305 411 305 394 Q305 378 303 364 Q277 356 218 356 Q169 356 146 360 Q140 371 140 389 Q140 406 144 420 Q161 424 222 424 ZM509 711 Q541 707 572 693 Q563 669 555 647 Q718 636 883 611 Q875 562 854 516 Q841 470 807 433 Q772 437 747 456 Q780 512 795 554 Q650 570 529 582 Q502 518 473 457 Q438 467 413 483 Q456 598 509 711 ZM610 530 Q643 527 678 517 Q659 469 640 423 Q707 397 769 366 Q761 339 744 312 Q670 331 614 359 Q600 323 585 288 Q550 292 523 308 Q558 420 610 530 ZM430 245 Q571 239 716 222 Q729 190 729 100 Q729 38 725 -15 Q713 -31 452 -31 Q345 -31 283 -19 Q275 79 275 210 L343 210 Q345 113 345 43 Q412 36 521 36 Q617 36 659 35 Q659 95 653 163 Q540 170 428 184 Q428 216 430 245 Z" /><glyph glyph-name="uni54AA" unicode="&#x54aa;" d="M325 536 Q331 421 331 305 Q230 295 133 295 Q116 418 112 528 Q215 536 325 536 ZM184 468 L192 361 L263 367 L259 472 L184 468 ZM656 695 Q673 538 681 387 Q778 384 872 380 Q872 354 863 321 Q775 321 685 324 Q694 167 695 18 Q684 14 665 14 Q645 14 635 16 Q618 172 607 326 Q504 329 397 335 Q397 368 404 396 Q505 393 603 390 Q594 543 592 691 Q609 695 624 695 L656 695 ZM419 603 Q483 568 540 509 Q527 478 503 458 Q438 498 386 553 Q402 581 419 603 ZM502 269 Q530 247 554 219 Q532 192 495 156 Q476 137 454 116 Q430 90 407 72 Q379 92 361 120 Q429 200 502 269 ZM777 266 Q840 235 911 185 Q900 160 879 131 Q806 159 741 211 Q760 242 777 266 ZM799 613 Q827 606 854 594 Q839 520 795 475 Q774 475 742 491 Q755 555 799 613 Z" /><glyph glyph-name="uni54B8" unicode="&#x54b8;" d="M307 389 Q416 385 532 370 Q532 345 526 315 Q408 315 305 334 Q305 363 307 389 ZM526 241 Q532 152 532 62 Q428 53 329 53 Q313 149 309 235 Q414 241 526 241 ZM377 185 L385 108 L467 113 L463 188 L377 185 ZM193 413 Q220 411 257 403 Q235 213 201 17 Q156 17 134 33 Q159 224 193 413 ZM781 576 Q785 564 785 545 Q785 520 783 509 Q714 506 646 504 Q688 384 730 266 Q768 298 807 326 Q834 308 843 283 Q801 230 759 186 Q780 127 801 69 Q824 77 851 87 Q861 68 867 40 Q823 15 758 7 Q731 72 706 134 Q660 91 613 54 Q587 72 573 95 Q619 159 674 215 Q618 362 572 501 Q378 494 178 492 Q174 524 174 557 Q347 565 549 570 Q531 626 515 679 Q539 694 578 700 Q600 636 622 572 Q699 575 781 576 ZM795 737 Q839 684 875 620 Q852 599 820 584 Q772 639 740 701 Q763 720 795 737 Z" /><glyph glyph-name="uni54C1" unicode="&#x54c1;" d="M436 726 Q611 720 744 703 Q744 511 719 367 Q503 367 244 400 Q244 553 260 728 Q280 731 299 731 Q319 731 334 726 Q326 592 321 460 Q478 447 647 435 Q656 542 660 644 Q553 650 430 661 Q430 694 436 726 ZM266 308 Q393 302 494 289 Q494 106 474 19 Q446 5 325 5 Q225 5 156 25 Q142 136 139 288 Q171 292 204 292 Q214 190 219 79 Q324 74 412 74 Q412 134 420 230 Q334 236 264 251 Q264 282 266 308 ZM691 306 Q788 298 875 286 Q884 263 884 250 Q884 95 869 34 Q823 24 704 24 Q629 24 570 33 Q560 109 560 222 Q560 262 564 292 Q583 298 597 298 Q611 298 624 296 Q634 181 634 94 Q653 90 704 90 Q787 90 807 97 Q811 120 811 228 Q748 237 689 245 Q687 265 687 275 Q687 288 691 306 Z" /><glyph glyph-name="uni54C8" unicode="&#x54c8;" d="M629 586 Q528 497 433 415 Q407 439 385 474 Q535 610 675 723 Q699 701 723 670 Q703 652 687 638 Q815 557 932 462 Q920 433 895 404 Q762 483 629 586 ZM517 421 Q663 415 808 387 Q808 356 801 328 Q655 328 510 357 Q510 390 517 421 ZM599 246 Q710 244 816 229 Q824 204 824 113 Q824 35 820 -3 Q777 -12 675 -12 Q573 -12 484 4 Q470 37 470 117 Q470 152 482 244 Q495 248 515 248 Q531 248 547 244 Q547 207 544 64 Q649 55 753 55 Q757 75 757 113 Q757 138 755 168 Q633 177 603 183 Q597 192 597 216 Q597 231 599 246 ZM345 513 Q351 392 351 272 Q239 262 131 262 Q116 391 112 505 Q225 513 345 513 ZM180 446 L188 326 L287 332 L283 450 L180 446 Z" /><glyph glyph-name="uni54CD" unicode="&#x54cd;" d="M355 511 Q361 386 361 260 Q244 249 132 249 Q115 384 111 503 Q229 511 355 511 ZM183 442 L191 317 L293 323 L289 446 L183 442 ZM882 562 Q892 396 892 278 Q892 67 883 35 Q864 32 836 32 Q794 32 764 41 Q758 61 758 84 Q791 85 817 88 Q816 111 816 278 Q816 363 808 499 Q663 493 523 484 Q516 509 516 537 Q537 540 558 542 Q575 615 600 684 Q631 681 665 672 Q645 611 626 550 Q748 562 882 562 ZM461 522 Q482 522 491 518 Q501 303 501 47 Q490 43 469 43 Q445 43 438 45 Q430 299 430 516 Q435 520 461 522 ZM752 367 Q761 318 761 264 Q761 184 757 175 Q693 160 573 160 Q550 238 545 352 Q640 367 752 367 ZM628 218 L694 224 L691 311 L621 304 L628 218 Z" /><glyph glyph-name="uni54DF" unicode="&#x54df;" d="M272 480 Q278 366 278 252 Q183 242 91 242 Q76 364 72 472 Q169 480 272 480 ZM140 415 L148 305 L213 311 L210 419 L140 415 ZM735 655 Q761 645 786 625 Q760 569 730 514 Q823 505 915 491 Q915 251 903 40 Q874 34 835 34 Q802 34 779 38 Q777 65 777 87 Q813 89 843 89 Q845 248 849 436 Q769 445 698 455 Q663 392 624 329 Q593 337 566 364 Q645 514 735 655 ZM686 298 Q733 277 786 243 Q776 219 756 191 Q701 210 652 246 Q670 276 686 298 ZM407 669 Q439 661 464 650 Q428 543 386 432 Q424 430 467 428 Q496 480 527 534 Q552 524 580 508 Q510 364 448 246 Q505 241 563 235 Q563 208 557 182 Q393 183 352 201 Q381 265 434 367 Q435 369 436 370 Q367 372 304 381 Q349 528 407 669 ZM562 124 Q574 96 574 69 Q462 37 339 27 Q329 54 328 83 Q433 111 562 124 Z" /></font>
</defs>
</svg>
