<?xml version="1.0" standalone="no"?>
<!DOCTYPE svg PUBLIC "-//W3C//DTD SVG 1.1//EN" "http://www.w3.org/Graphics/SVG/1.1/DTD/svg11.dtd" >
<svg xmlns="http://www.w3.org/2000/svg">
<metadata>
Created by FontForge 20120731 at Tue Feb 21 16:16:34 2017
 By admin
</metadata>
<defs>
<font id="iconfont" horiz-adv-x="1024" >
  <font-face 
    font-family="iconfont"
    font-weight="500"
    font-stretch="normal"
    units-per-em="1024"
    panose-1="2 0 6 3 0 0 0 0 0 0"
    ascent="896"
    descent="-128"
    x-height="792"
    bbox="44 -164 961.75 833"
    underline-thickness="0"
    underline-position="0"
    unicode-range="U+0078-E752"
  />
<missing-glyph 
 />
    <glyph glyph-name=".notdef" 
 />
    <glyph glyph-name=".notdef" 
 />
    <glyph glyph-name=".null" horiz-adv-x="0" 
 />
    <glyph glyph-name="nonmarkingreturn" horiz-adv-x="341" 
 />
    <glyph glyph-name="x" unicode="x" horiz-adv-x="1001" 
d="M281 543q-27 -1 -53 -1h-83q-18 0 -36.5 -6t-32.5 -18.5t-23 -32t-9 -45.5v-76h912v41q0 16 -0.5 30t-0.5 18q0 13 -5 29t-17 29.5t-31.5 22.5t-49.5 9h-133v-97h-438v97zM955 310v-52q0 -23 0.5 -52t0.5 -58t-10.5 -47.5t-26 -30t-33 -16t-31.5 -4.5q-14 -1 -29.5 -0.5
t-29.5 0.5h-32l-45 128h-439l-44 -128h-29h-34q-20 0 -45 1q-25 0 -41 9.5t-25.5 23t-13.5 29.5t-4 30v167h911zM163 247q-12 0 -21 -8.5t-9 -21.5t9 -21.5t21 -8.5q13 0 22 8.5t9 21.5t-9 21.5t-22 8.5zM316 123q-8 -26 -14 -48q-5 -19 -10.5 -37t-7.5 -25t-3 -15t1 -14.5
t9.5 -10.5t21.5 -4h37h67h81h80h64h36q23 0 34 12t2 38q-5 13 -9.5 30.5t-9.5 34.5q-5 19 -11 39h-368zM336 498v228q0 11 2.5 23t10 21.5t20.5 15.5t34 6h188q31 0 51.5 -14.5t20.5 -52.5v-227h-327z" />
    <glyph glyph-name="pingjiadengji" unicode="&#xe643;" 
d="M772 -139v0q-23 -11 -54 -2q-75 22 -215 66q-145 -45 -220 -66q-2 0 -9.5 -3t-9.5 -3t-9 2q-31 23 -32 63q-1 35 -0.5 128.5t0.5 95.5q-4 6 -65 90.5t-84 121.5q-16 27 -8 58q9 34 41 46q71 27 213 79q88 117 139 182q11 15 26 22q22 11 45 5t40 -28q47 -62 132 -182
q135 -50 208 -79q36 -15 45 -44q10 -30 -13 -66q-18 -27 -49.5 -72t-60 -85t-34.5 -48q0 -6 1.5 -95.5t-1.5 -128.5q-2 -45 -26 -57zM159 366q128 -175 128 -192v-6.5t-0.5 -17.5t-0.5 -25.5v-32.5v-35.5t0.5 -37.5t0.5 -37q0 -3 -0.5 -11.5t-1 -12.5t1.5 -8q7 -5 23 0
q15 4 33.5 10t36 12t35 12.5t32.5 12t26 9.5t17.5 7l6.5 3q7 2 14 0l6.5 -3t17.5 -7t25 -9.5t31 -12t34 -12.5t35.5 -12t33.5 -11q8 -2 11 -4h1q28 -5 28 5q3 40 1.5 98t-2.5 85t1 41l3 4.5t8 12.5t12 18.5t15 23t17 26t18.5 28t19 28t18.5 27t17 24t8 19.5t-8 13
q-183 62 -198 66q-1 0 -23 30.5t-55.5 77t-54.5 74.5q-11 15 -24 9q-5 -3 -10 -9q-22 -28 -59 -75t-62 -78.5l-25 -31.5q-9 -9 -35 -17t-72.5 -20.5t-84.5 -25.5q-8 -9 -10.5 -14t-1.5 -6.5t5.5 -5t6.5 -6.5z" />
    <glyph glyph-name="shouji" unicode="&#xe602;" 
d="M676 747h-325q-34 0 -58 -24t-24 -58v-731q0 -34 24 -57.5t58 -23.5h325q33 0 57 23.5t24 57.5v731q0 34 -24 58t-57 24zM716 -66q0 -17 -11.5 -29t-28.5 -12h-325q-17 0 -29 12t-12 29v81h406v-81zM716 56h-406v508h406v-508zM716 604h-406v61q0 17 12 29t29 12h325
q17 0 28.5 -12t11.5 -29v-61zM513.5 -66q8.5 0 14 6t5.5 14.5t-5.5 14.5t-14 6t-14.5 -6t-6 -14.5t6 -14.5t14.5 -6z" />
    <glyph glyph-name="nv" unicode="&#xe601;" 
d="M800 460q0 119 -84 203.5t-203.5 84.5t-204 -84.5t-84.5 -203.5q0 -111 73.5 -192.5t182.5 -93.5v-98h-144q-7 0 -11.5 -5t-4.5 -11v-32q0 -7 4.5 -11.5t11.5 -4.5h144v-144q0 -7 4.5 -11.5t11.5 -4.5h32q7 0 11.5 4.5t4.5 11.5v144h112q7 0 11.5 4.5t4.5 11.5v32
q0 6 -4.5 11t-11.5 5h-112v98q109 12 182.5 93.5t73.5 192.5zM288 460q0 93 65.5 158.5t158.5 65.5t158.5 -65.5t65.5 -158.5t-65.5 -158.5t-158.5 -65.5t-158.5 65.5t-65.5 158.5z" />
    <glyph glyph-name="nan" unicode="&#xe600;" 
d="M704 747v-32l80 -80l-195 -194q-79 51 -173 51q-87 0 -160.5 -43t-116 -116.5t-42.5 -160.5t42.5 -160.5t116 -116.5t160.5 -43t160.5 43t116.5 116.5t43 160.5q0 65 -24.5 123.5t-69.5 102.5l190 190l64 -64h32v223h-224zM672 172q0 -106 -75 -181t-181 -75t-180.5 75
t-74.5 181t74.5 181t180.5 75t181 -75t75 -181z" />
    <glyph glyph-name="yanzhengma" unicode="&#xe603;" 
d="M863 619q-102 47 -207.5 88t-142.5 41t-143 -41t-208 -88q-17 -8 -26.5 -23.5t-9.5 -33.5q4 -192 59 -331q28 -70 67 -132.5t75.5 -104t73.5 -73.5t63.5 -47.5t42.5 -19.5q3 -1 5.5 -1t5.5 1q23 6 61 33.5t84.5 72.5t94.5 117t81 154q55 138 59 331q1 16 -10 33.5
t-25 23.5zM799 247q-30 -76 -74 -143t-86 -108.5t-74.5 -66t-52.5 -32.5q-20 8 -52 31.5t-73.5 64t-85.5 108t-76 146.5q-52 132 -56 316q0 12 11 17q116 54 211.5 90t121.5 36t121 -36t211 -89q3 -2 6.5 -8t3.5 -10q-3 -185 -56 -316zM522 464h-20q-10 0 -10 -11v-223
q0 -11 10 -11h20q11 0 11 11v223q0 11 -11 11zM512.5 179q-8.5 0 -14.5 -6t-6 -14.5t6 -14.5t14.5 -6t14.5 6t6 14.5t-6 14.5t-14.5 6z" />
    <glyph glyph-name="sousuo" unicode="&#xe60b;" 
d="M772 38q67 57 104.5 137t37.5 170q0 110 -53.5 202.5t-146.5 146.5t-202 54t-201.5 -54t-146.5 -146.5t-54 -202t54 -202t146.5 -146.5t201.5 -54q114 0 210 59l139 -145q10 -11 22 -1l24 19q12 10 2 21zM172 345.5q0 92.5 45.5 171t124 124t171 45.5t170.5 -45.5
t124 -124t46 -171t-46 -171t-124 -124t-170.5 -45.5t-171 45.5t-124 124t-45.5 171z" />
    <glyph glyph-name="gerenzhongxin" unicode="&#xe654;" 
d="M64 299q0 -91 35.5 -173.5t95.5 -142.5t143 -95.5t174 -35.5t174 35.5t143 95.5t95.5 142.5t35.5 174t-35.5 174t-95.5 142.5t-143 95.5t-174 35.5t-174 -35.5t-143 -95.5t-95.5 -142.5t-35.5 -174.5v0zM107 299q0 77 34.5 151.5t90 130t130 90t150.5 34.5
q82 0 158.5 -35.5t129.5 -92.5t85 -130.5t32 -147.5q0 -66 -21 -130.5t-56 -115.5q-21 82 -84 144t-152 87q44 25 72 69.5t28 95.5q0 82 -56.5 137t-135.5 55q-81 0 -136.5 -57t-55.5 -135q0 -51 28 -95.5t72 -69.5q-91 -26 -155.5 -88t-80.5 -143q-35 50 -56 115t-21 131v0
zM811 22q-50 -53 -139 -90t-160 -38q-79 -1 -166 39.5t-132 88.5l2 -2q14 93 99.5 165t196.5 72q55 0 107 -21t90.5 -54.5t64.5 -76t34 -85.5h4zM363 446q0 62 43.5 107t105.5 45t105.5 -45t43.5 -107t-43.5 -104.5t-105.5 -42.5t-105.5 42.5t-43.5 104.5v0zM363 446z" />
    <glyph glyph-name="shouye" unicode="&#xe655;" 
d="M949 386l-377 323q-59 55 -118 0l-377 -323q-22 -18 -7 -39q13 -17 29 -4l22 21v-414q0 -39 26.5 -63t74.5 -24h606q35 0 56 23.5t21 63.5v414l12 -8q21 -18 36 -4t-1 31zM556 -93h-87v240q0 20 43.5 21.5t43.5 -21.5v-240zM861 -50q0 -14 -16 -28.5t-27 -14.5h-218v0
v240q0 28 -21.5 46.5t-65.5 18.5t-65.5 -18.5t-21.5 -46.5v-240h-218q-14 0 -29 16t-15 27v458l327 283q5 7 21.5 7t22.5 -7l326 -283v-458z" />
    <glyph glyph-name="fanhui" unicode="&#xe609;" 
d="M739 693h18v54h-55v-14l-432 -433q-10 -9 0 -19l405 -406v-22h54v54h-9l-383 384z" />
    <glyph glyph-name="tianjiashenfenzheng" unicode="&#xe605;" 
d="M908 356h-341v341q0 21 -14.5 36t-35.5 15h-11q-21 0 -36 -15t-15 -36v-341h-341q-21 0 -36 -15t-15 -36v-11q0 -21 15 -35.5t36 -14.5h341v-341q0 -21 15 -36t36 -15h11q21 0 35.5 15t14.5 36v341h341q21 0 36 14.5t15 35.5v11q0 21 -15 36t-36 15z" />
    <glyph glyph-name="guanbi" unicode="&#xe606;" 
d="M512 748q-91 0 -174 -35.5t-143 -95.5t-95.5 -143t-35.5 -174t35.5 -174t95.5 -143t143 -95.5t174 -35.5t174 35.5t143 95.5t95.5 143t35.5 174t-35.5 174t-95.5 143t-143 95.5t-174 35.5zM684 181q5 -5 5 -13t-5 -13l-27 -27q-5 -5 -12.5 -5t-13.5 5l-119 119l-119 -119
q-5 -5 -13 -5t-13 5l-27 27q-5 5 -5 13t5 13l119 119l-119 119q-5 5 -5 13t5 13l27 27q5 5 13 5t13 -5l119 -119l119 119q6 5 13.5 5t12.5 -5l27 -27q5 -5 5 -13t-5 -13l-119 -119z" />
    <glyph glyph-name="shangjiantou" unicode="&#xe607;" 
d="M943 123l-415 411q-11 11 -22 0l-23 -23v0l-392 -388h-27v-63h64v11l389 384l379 -374v-21h64v63h-17z" />
    <glyph glyph-name="xiajiantou" unicode="&#xe604;" 
d="M897 538v-20l-379 -375l-389 384v11h-64v-63h27l392 -388v0l23 -22q11 -11 22 0l415 410h17v63h-64z" />
    <glyph glyph-name="youjiantou" unicode="&#xe608;" 
d="M747 316l-22 22v0l-388 393v17h-63v-64h20l375 -379l-384 -389h-11v-64h63v26l410 415q11 12 0 23z" />
    <glyph glyph-name="yunhouhongbao" unicode="&#xe60c;" 
d="M960 620q0 11 -4 25l-4 11q-10 26 -34 42t-53 16h-706q-26 0 -49 -14l-3 -2q-42 -28 -42 -78v-642q0 -39 27.5 -67t66.5 -28h706q39 0 67 28t28 67v261v381v0zM864 682l-352 -223l-351 223h703zM928 -21q0 -20 -22 -42t-42 -22h-703q-21 0 -42.5 22t-21.5 42v639
q0 7 1.5 15.5t9.5 19.5t21 13l383 -249l384 249q15 1 23.5 -19t8.5 -29v-639zM640 203q20 0 20 16t-20 16h-96l96 96q1 0 2 2q18 18 10 25q-6 6 -14.5 6t-14.5 -6l-111 -111l-110 111q-6 6 -14.5 6t-15.5 -6q-7 -7 10 -25l2 -2l96 -96h-96q-20 0 -20 -16t20 -16h112v-64
h-112q-7 0 -10.5 -0.5t-6.5 -3.5t-3 -8q0 -9 6 -14.5t14 -5.5h112v-96q0 -7 2 -8.5t8 -0.5h4.5h4.5q6 -1 8 -0.5t3.5 2.5t1.5 7v96h112q9 0 14.5 5.5t5.5 14.5q0 8 -4.5 10t-15.5 2h-112v64h112z" />
    <glyph glyph-name="youhuiquan" unicode="&#xe60d;" 
d="M879 -116h-733q-34 0 -57.5 23.5t-23.5 57.5v161q0 20 12 37t32 23q36 11 60 42q23 31 23 70.5t-23 70.5q-24 31 -60 43q-20 6 -32 22.5t-12 37.5v161q0 34 23.5 57.5t57.5 23.5h733q33 0 56.5 -23.5t23.5 -57.5v-161q0 -21 -12 -37.5t-32 -22.5q-36 -12 -59 -43
q-24 -31 -24 -70t24 -71q23 -31 59 -42q20 -6 32 -22.5t12 -37.5v-161q0 -34 -23.5 -57.5t-56.5 -23.5v0zM145 682q-16 0 -32 -16t-16 -32v-160q0 -6 12 -16.5t20 -14.5q3 -2 9.5 -5.5t8.5 -4.5l7 -3.5t6.5 -3.5t5.5 -3.5t5.5 -4.5t5 -4.5t5.5 -5t5 -6t6 -7.5q32 -43 32 -96
t-32 -96q-22 -30 -80 -48q-6 -2 -11 -13t-5 -19v-160q0 -15 16 -31t32 -16h734q16 0 32 15.5t16 31.5v160q0 8 -5 19t-11 13q-57 18 -79 48q-32 43 -32 96t32 96q22 30 79 48q6 1 11 12.5t5 18.5v160q0 16 -16 32t-32 16h-734v0v0zM672 219h-144v96h144q20 0 20 16t-20 16
h-128l128 127q0 1 2 2q18 18 10 26q-6 6 -14.5 6t-15.5 -6l-142 -143l-142 143q-6 6 -14.5 6t-15.5 -6q-7 -8 11 -26l2 -2l127 -127h-127q-20 0 -20 -16t20 -16h143v-96h-143q-7 0 -11 -0.5t-6.5 -3.5t-2.5 -8q0 -9 5.5 -14.5t14.5 -5.5h143v-128q0 -7 2 -8t8 -1h4.5h4.5h8
t3.5 2.5t1.5 6.5v128h144q9 0 14.5 5.5t5.5 14.5q0 8 -5 10t-15 2v0zM672 219z" />
    <glyph glyph-name="jifen" unicode="&#xe60e;" 
d="M512 341q126 0 228.5 25.5t161 70t58.5 98t-58.5 97.5t-161 68.5t-228.5 24.5t-228.5 -24.5t-161 -68.5t-58.5 -97.5t58.5 -98t161.5 -70t228 -25.5v3v-3zM512 693q85 0 164 -15t133 -38.5t86.5 -51.5t32.5 -53.5t-32.5 -53.5t-86.5 -52t-133 -40t-163.5 -16t-163.5 16
t-133 40t-86.5 52t-32.5 53.5t32.5 53.5t86.5 51.5t133 38.5t163 15v0v0zM512 101q125 0 228 27t161 72.5t58 99.5q0 41 -39 78v1v0v0v1l-1 -1q-6 6 -14 6q-12 0 -23 -18q-3 -5 -2 -5t3 1q4 3 11 -3q1 -2 2 -3v0q12 -12 22.5 -29.5t10.5 -27.5q0 -26 -32.5 -55t-86.5 -54
t-133.5 -41.5t-164 -16.5t-164 16.5t-133.5 41.5t-86.5 54t-32.5 55q0 27 23 48h0.5h0.5v0.5v0.5v0q1 1 4.5 3t3.5 5t0.5 8t0.5 7.5t-0.5 6t-2.5 5t-6 1.5q-9 0 -16 -6v0q-38 -37 -38 -79q0 -54 57.5 -99.5t161 -72.5t227.5 -27v0v0zM920 146v0.5v0.5v0q-7 5 -15 5
q-9 0 -15.5 -6t-6.5 -15q0 -3 2 -5.5t6 -4.5t5 -4v0q33 -32 33 -50q0 -26 -32.5 -53.5t-86.5 -50.5t-133.5 -38t-164.5 -15t-164 15t-133 38t-86.5 50.5t-32.5 53.5q0 22 32 50v0v0l8 -1q6 6 6 15t-6.5 15t-15.5 6t-15 -6v0q-41 -39 -41 -76q0 -54 58.5 -98t161.5 -69
t228.5 -25t228 25t161 69t58.5 98q0 37 -39 76h-0.5h-0.5v0v0zM920 146z" />
    <glyph glyph-name="jifendingdan" unicode="&#xe60f;" 
d="M225 428h431v31h-431v-31zM225 140h103q-1 16 3 32h-106v-32zM783 555v-166q17 -3 32 -7v176q0 52 -36 89t-89 37l-34 -1v-32h32q35 0 65 -30t30 -66zM371 316h-146v-32h132q5 17 14 32zM560 747h-240v-32h240v32zM209 -83q-43 0 -77.5 34t-34.5 77v527q0 36 30 66t66 30
h32v32l-35 1q-52 0 -88.5 -37t-36.5 -89v-526q0 -61 43 -104t103 -43h165q-12 15 -20 32h-147zM432 699v-32h-96v-32h208v32h-80v32h-32zM384 220q0 -51 81 -81.5t206.5 -30.5t206.5 30.5t81 81.5q0 52 -83 90t-204.5 38t-204.5 -38t-83 -90zM927 220q0 -33 -72.5 -56.5
t-183 -23.5t-183 23.5t-72.5 56.5q0 34 74 65t181.5 31t181.5 -31t74 -65zM934 22h-1v1v0q-4 3 -9 3q-6 0 -10.5 -4t-4.5 -9q0 -6 5 -11v0q13 -12 13 -37q0 -33 -72 -56.5t-183.5 -23.5t-183.5 23.5t-72 56.5q0 26 14 38v0v0v0v0q4 4 4 10q0 5 -4 9t-10 4t-10 -4v0
q-13 -7 -19.5 -24t-6.5 -33q0 -51 81.5 -81.5t206.5 -30.5t206.5 30.5t80.5 81.5q-1 44 -25 57zM927 156l1 -1l3 -3l2 -2v0q-4 3 -10 3q-5 0 -9.5 -4t-4.5 -10t5 -10v0q13 -13 13 -37q0 -33 -72 -56.5t-183.5 -23.5t-183.5 23.5t-72 56.5q0 26 14 37v0.5v0.5v0v0q4 4 4 9
q0 6 -4 10t-10 4t-10 -4v0q-26 -13 -26 -57q0 -50 81.5 -80.5t206 -30.5t206 30.5t81.5 80.5q0 16 -8 35t-24 29zM933 149v0v0z" />
    <glyph glyph-name="shanghudingdan" unicode="&#xe610;" 
d="M225 172v-32h107q-1 17 2 32h-109zM656 460h-431v-32h431v32zM784 556v-175q16 0 32 -1v178q0 53 -36.5 90t-88.5 37l-35 -1v-32h32q35 0 65.5 -30.5t30.5 -65.5zM374 316h-149v-32h142q1 18 7 32zM209 -83q-44 0 -78 34t-34 77v528q0 35 30 65.5t66 30.5h32v32l-35 1
q-53 0 -89 -37t-36 -90v-526q0 -61 42.5 -104t103.5 -43h211q-5 16 -7 32h-206zM560 748h-240v-32h240v32zM432 700v-32h-96v-32h208v32h-80v32h-32zM947 191l-40 106l-1 1q-11 27 -26 38.5t-25 11.5h-2h-332q-16 0 -30.5 -13.5t-23.5 -34.5q-45 -112 -50 -145q-1 -2 -1 -4
l1 -3q-1 -4 -1 -6q0 -27 13 -50.5t35 -31.5v-143q0 -24 20 -44t44 -20h320q24 0 44 20t20 44v143q22 8 34 31.5t12 50.5v3q2 18 -11 46zM880 -83q0 -12 -10.5 -22t-21.5 -10h-320q-11 0 -21.5 10t-10.5 22v143q40 2 61 26l8 10l4 -6q24 -28 55 -28q33 0 54 18q5 4 9 8
q4 -4 10 -8q21 -18 54 -18q30 0 53 24q4 3 7 7q2 -4 5 -7q22 -25 64 -26v-143zM928 142v-1q-1 -20 -15 -34t-34 -14q-27 0 -40 13q-11 13 -9 31q0 6 -3.5 11t-10 6t-11.5 -3t-6 -11q-2 -18 -16 -32.5t-32 -14.5q-20 0 -34 9.5t-14 29.5q0 6 -4.5 10.5t-11 4.5t-11 -4.5
t-4.5 -10.5q0 -20 -14 -29.5t-34 -9.5q-17 0 -31 17q-15 18 -18 38v0q-1 7 -6 10.5t-11 3t-10 -5.5t-3 -12q3 -22 -11 -37q-12 -14 -38 -14q-20 0 -34.5 14.5t-14.5 34.5v1q1 2 1 3v3l-1 3q7 31 49 137v0q4 9 11.5 16t13 9t7.5 2h320q22 -10 30 -30l40 -107q0 -1 1 -1
q10 -21 8 -30v-4q0 -1 1 -2z" />
    <glyph glyph-name="gerenzhongxinzhanghuguanli" unicode="&#xe611;" 
d="M758 321l-414 420v23h-84v-85h27l368 -373l-380 -386h-15v-84h84v35l414 420q6 6 6 15t-6 15z" />
    <glyph glyph-name="xiaoxi" unicode="&#xe612;" 
d="M880 641h-736q-33 0 -56 -23.5t-23 -55.5v-526q0 -33 23 -56t56 -23h736q33 0 56 23t23 56v526q0 32 -23 55.5t-56 23.5zM144 588h736q11 0 19 -7.5t8 -18.5v-144l-369 -171l-420 173v142q0 11 7.5 18.5t18.5 7.5zM880 10h-736q-11 0 -18.5 7.5t-7.5 18.5v330l394 -172
q36 1 53 0q15 0 342 170v-328q0 -11 -8 -18.5t-19 -7.5z" />
    <glyph glyph-name="dianpu" unicode="&#xe613;" 
d="M770 234q-74 0 -129 52q-54 -52 -129 -52t-129 52q-54 -52 -129 -52q-78 0 -133.5 56t-55.5 135q0 19 4 38l3 15q10 32 29 59l61 123q3 36 29.5 61t62.5 25h516q37 0 63.5 -25t28.5 -61l61 -123q20 -27 29 -58l3 -14q4 -21 4 -40q0 -79 -55.5 -135t-133.5 -56v0zM901 452
l-3 12q-7 22 -21 42l-3 4l-67 136v7q0 15 -11 26t-26 11h-516q-15 0 -25.5 -11t-10.5 -26v-7l-70 -140q-15 -20 -22 -43l-3 -12q-2 -12 -2 -26q0 -55 39 -95t94 -40q66 0 107 55l22 30l22 -30q41 -55 107.5 -55t106.5 55l22 30l23 -30q40 -55 106 -55q55 0 94 40t39 95
q0 14 -2 27v0zM753 440h-481q-14 0 -24.5 10t-10.5 24t10.5 24.5t24.5 10.5h481q14 0 24 -10.5t10 -24.5t-10 -24t-24 -10v0zM222 -55q0 -16 10.5 -26.5t26.5 -10.5h479q15 0 25.5 10.5t10.5 26.5v229h56v-229q0 -39 -27 -66t-65 -27h-479q-39 0 -66 27t-27 66v229h56v-229
v0zM222 -55z" />
    <glyph glyph-name="danchuangguanbi" unicode="&#xe614;" 
d="M950 -96l-395 399l387 390h17v53h-52v-14l-393 -397l-396 397v14h-53v-53h17l391 -390l-399 -399h-9v-52h53v21l396 397l393 -397v-21h52v52h-9z" />
    <glyph glyph-name="shezhixinshouji" unicode="&#xe615;" 
d="M657 747h-289q-44 0 -74.5 -31t-30.5 -74v-684q0 -44 30.5 -74.5t74.5 -30.5h289q44 0 75 30.5t31 74.5v684q0 43 -31 74t-75 31zM710 -42q0 -22 -15.5 -37.5t-37.5 -15.5h-289q-22 0 -37.5 15.5t-15.5 37.5v52h395v-52zM710 63h-395v500h395v-500zM710 616h-395v26
q0 22 15.5 37t37.5 15h289q22 0 37.5 -15t15.5 -37v-26zM526 -68q11 0 18.5 7.5t7.5 18.5t-7.5 18.5t-18.5 7.5t-18.5 -7.5t-7.5 -18.5t7.5 -18.5t18.5 -7.5z" />
    <glyph glyph-name="shensuchenggong" unicode="&#xe616;" 
d="M957 602l-19 19q-9 9 -19 0l-525 -576l-288 288q-9 9 -19 0l-18 -19q-10 -9 0 -18l317 -317q9 -10 19 0l18 18q3 3 3 6l531 580q9 10 0 19z" />
    <glyph glyph-name="shensudijiao" unicode="&#xe617;" 
d="M921.5 90q-10.5 0 -18.5 -8t-8 -18v-106q0 -22 -15.5 -37.5t-37.5 -15.5h-659q-22 0 -37.5 15.5t-15.5 37.5v106q0 10 -7.5 18t-18.5 8t-18.5 -8t-7.5 -18v-106q0 -44 30.5 -74.5t74.5 -30.5h659q44 0 75 30.5t31 74.5v106q0 10 -8 18t-18.5 8zM175 361l298 298v-569
q0 -11 8 -18.5t18.5 -7.5t18.5 7.5t8 18.5v633q0 17 -16 24q-5 2 -10 2q-11 0 -19 -8l-343 -342q-8 -8 -8 -19t8 -18.5t19 -7.5t18 7zM850 335q8 -8 19 -8t18.5 8t7.5 19t-8 18l-211 211q-7 8 -18 8t-19 -7.5t-8 -18.5t8 -19z" />
    <glyph glyph-name="yanzhengshengfenzheng" unicode="&#xe618;" 
d="M262 10h184q27 0 46.5 19.5t19.5 46.5q0 47 -47 87q20 38 20 84q0 65 -38.5 111.5t-93 46.5t-93 -46.5t-38.5 -111.5q0 -46 21 -85q-47 -51 -47 -86q0 -27 19.5 -46.5t46.5 -19.5zM354 352q33 0 56 -31t23 -74t-22.5 -73.5t-54.5 -31.5h-11q-30 5 -50 35t-20 70
q0 43 23 74t56 31zM301 115q26 -26 54 -26q16 0 35.5 6.5t30.5 13.5l12 6q5 0 15.5 -16.5t10.5 -22.5t-4 -9.5t-9 -3.5h-184q-6 0 -9.5 3.5t-3.5 9.5q0 12 14 30t38 9zM354 483q0 -11 7.5 -18.5t18.5 -7.5h263q11 0 18.5 7.5t7.5 18.5t-7.5 19t-18.5 8h-26v105
q0 58 -26.5 94.5t-78.5 36.5t-79 -36.5t-27 -94.5v-105h-26q-11 0 -18.5 -8t-7.5 -19zM459 615q0 37 11 58t41.5 21t41.5 -21t11 -58v-105h-105v105zM853 589h-210v-53h210q22 0 37.5 -15.5t15.5 -37.5v-525q0 -22 -15.5 -37.5t-37.5 -15.5h-683q-22 0 -37.5 15.5
t-15.5 37.5v525q0 22 15.5 37.5t37.5 15.5h210v53h-210q-44 0 -74.5 -31t-30.5 -75v-525q0 -44 30.5 -75t74.5 -31h683q44 0 75 31t31 75v525q0 44 -31 75t-75 31zM512 641q-11 0 -19 -7.5t-8 -18.5t8 -18.5t19 -7.5t18.5 7.5t7.5 18.5t-7.5 18.5t-18.5 7.5zM775 352h-184
q-11 0 -19 -7.5t-8 -18.5t8 -19t19 -8h184q10 0 18 8t8 19t-8 18.5t-18 7.5zM801 194q0 11 -8 18.5t-18 7.5h-184q-11 0 -19 -7.5t-8 -18.5t8 -18.5t19 -7.5h184q10 0 18 7.5t8 18.5zM591 89q-11 0 -19 -7.5t-8 -18.5t8 -19t19 -8h78q11 0 19 8t8 19t-8 18.5t-19 7.5h-78z
" />
    <glyph glyph-name="weinituijian" unicode="&#xe619;" 
d="M351 240h-177q-44 0 -75 -31t-31 -75v-176q0 -44 31 -75t75 -31h177q44 0 75 31t31 75v176q0 44 -31 75t-75 31zM386 -42q0 -15 -10 -25.5t-25 -10.5h-177q-14 0 -24.5 10.5t-10.5 25.5v176q0 15 10.5 25.5t24.5 10.5h177q15 0 25 -10.5t10 -25.5v-176zM954 482l-26 175
q-6 43 -41.5 69.5t-79.5 19.5l-174 -26q-44 -6 -70 -41.5t-20 -78.5l26 -175q7 -44 42 -70t79 -19l175 26q43 6 69 41.5t20 78.5zM854 432l-174 -26q-15 -3 -27 6t-14 23l-26 175q-2 15 7 26.5t23 13.5l175 26q14 2 26 -6.5t14 -22.5l26 -175q2 -15 -6.5 -26.5t-23.5 -13.5z
M811 240h-177q-44 0 -75 -31t-31 -75v-176q0 -44 31 -75t75 -31h177q44 0 75 31t31 75v176q0 44 -31 75t-75 31zM846 -42q0 -15 -10.5 -25.5t-24.5 -10.5h-177q-15 0 -25.5 10.5t-10.5 25.5v176q0 15 10.5 25.5t25.5 10.5h177q14 0 24.5 -10.5t10.5 -25.5v-176zM351 700
h-177q-44 0 -75 -31t-31 -75v-177q0 -44 31 -75t75 -31h177q44 0 75 31t31 75v177q0 44 -31 75t-75 31zM386 417q0 -14 -10 -24.5t-25 -10.5h-177q-14 0 -24.5 10.5t-10.5 24.5v177q0 15 10.5 25t24.5 10h177q15 0 25 -10t10 -25v-177z" />
    <glyph glyph-name="rexiaoshangpin" unicode="&#xe61a;" 
d="M875 322q-1 -6 -1 -14t0.5 -16.5t0.5 -11.5v-363q0 -64 -65 -64h-596q-30 0 -47 25.5t-17 59.5v342v42q-24 -1 -44 20t-20 47v128q0 29 25 45t60 16h277l-119 124q-8 8 -8 18.5t8 18t18.5 7.5t18.5 -7l128 -128q7 -7 8 -17q0 10 7 17l128 128q8 7 18.5 7t18.5 -7.5t8 -18
t-8 -18.5l-119 -124h298q35 0 60.5 -16t25.5 -45v-128q0 -25 -18.5 -42t-45.5 -25v0zM789 -104q43 0 43 42v320q0 43 -43 43h-255v-405h255v0zM192 -62q0 -42 43 -42h256v405h-256q-43 0 -43 -43v-298v-22zM192 536q-24 0 -44 -11.5t-20 -31.5v-85q-4 -29 25 -46.5t61 -17.5
h277v192h-299v0zM896 493q0 43 -43 43h-319v-192h298q21 0 42.5 21.5t21.5 42.5v85v0zM896 493z" />
    <glyph glyph-name="jingxuanxiaodian" unicode="&#xe61b;" 
d="M214 300q-55 0 -90 30.5t-35 83.5q0 13 9.5 22t22.5 9q8 0 10 -5t-0.5 -17t-2.5 -17q0 -25 28 -44.5t57.5 -19.5t57.5 19.5t28 44.5q0 12 0.5 19t5 13.5t12.5 6.5q12 0 18.5 -11.5t6.5 -27.5q0 -51 -36 -78.5t-92 -27.5v0zM406 300q-107 0 -107 106q0 12 0.5 19t5 13.5
t12.5 6.5q12 0 18.5 -11.5t6.5 -27.5q0 -27 18 -45.5t46 -18.5q29 0 57 19.5t28 44.5q0 39 21 39t21 -39q1 -50 -32.5 -79t-73.5 -27h-21zM619 300q-54 2 -91 29t-37 77q0 39 21 39t21 -39q0 -25 28.5 -44.5t57.5 -19.5q27 0 45.5 18.5t18.5 45.5q0 16 6 27.5t19 11.5
q8 0 12 -6.5t4.5 -13.5t0.5 -19q0 -50 -30.5 -78t-75.5 -28v0zM811 300q-57 0 -92.5 27.5t-35.5 78.5q0 16 6 27.5t19 11.5q8 0 12 -6.5t4.5 -13.5t0.5 -19q0 -25 28 -44.5t57.5 -19.5t57.5 19.5t28 44.5q0 5 -1 11t-1.5 10.5t-0.5 9t2.5 6.5t7.5 2q13 0 22.5 -9t9.5 -22
q0 -53 -35 -83.5t-89 -30.5v0zM903 383q-6 0 -7 3t0.5 8t-0.5 12l-85 299h-597l-86 -299q-1 -4 -2 -9q0 -5 -1.5 -5t-7.5 1q-3 1 -4 2q-13 3 -19.5 15t-2.5 24l78 272q6 15 14.5 24t20 12.5t19 4.5t20.5 1h1h536h1q13 0 21 -1t20 -4.5t20.5 -12.5t12.5 -23l79 -283
q3 -13 -3.5 -24.5t-18.5 -15.5q-4 -1 -9 -1v0zM614 195q11 0 24 -5t24 -11t21 -12.5t15 -11.5l6 -4q6 6 15 14.5t32 21t38 6.5q64 -22 64 -85q4 -37 -16 -77.5t-48 -68.5t-52 -46.5t-33 -20.5q-59 19 -113.5 77t-59.5 120q-4 42 21 72.5t62 30.5zM614 237q-13 0 -27.5 -2.5
t-35.5 -13t-35.5 -27.5t-22.5 -50.5t-2 -78.5q8 -67 69.5 -130.5t137.5 -82.5q65 16 127 81.5t71 131.5q7 55 -6.5 93.5t-55.5 64.5q-24 14 -53 14q-21 0 -43.5 -14t-33.5 -30q-18 19 -42.5 31.5t-47.5 12.5v0v0zM423 -84h-157q-51 0 -83.5 37t-32.5 91v149q0 13 4 17.5
t17 4.5t17 -4.5t4 -17.5v-149q0 -29 19.5 -57t44.5 -28h171q12 0 17 -6.5t4 -15.5q-1 -21 -25 -21v0zM423 -84z" />
    <glyph glyph-name="gouwu" unicode="&#xe61c;" 
d="M844 -148h-663q-11 0 -18 7.5t-6 17.5l52 634q3 26 27 26h553q9 0 17.5 -8.5t9.5 -17.5l52 -633q1 -11 -7 -19q-7 -7 -17 -7v0zM236 -96h580l-53 580h-501l-53 -580h27zM710 563h-53q0 32 -10 56t-24.5 38t-33.5 23t-34 12t-29 3q-15 0 -32.5 -3t-40.5 -12t-41.5 -22.5
t-31.5 -38t-13 -56.5h-52q0 47 20 84.5t51.5 58.5t65 31.5t64.5 10.5t63.5 -10.5t62.5 -31.5t49 -58.5t19 -84.5v0zM323 386q0 21 15 36t36.5 15t36.5 -15t15 -36t-15 -35.5t-36.5 -14.5t-36.5 14.5t-15 35.5zM602 386q0 21 15 36t36.5 15t36.5 -15t15 -36t-15 -35.5
t-36.5 -14.5t-36.5 14.5t-15 35.5v0z" />
    <glyph glyph-name="shenghuofuwu" unicode="&#xe61d;" 
d="M828 324q-43 0 -78 -25l-1 25q1 13 -7.5 20t-18.5 7h-632q-26 0 -26 -27v-106q0 -92 46 -170.5t125.5 -124.5t172.5 -46q110 0 198.5 63t124.5 162q39 -41 96 -41q54 0 92.5 38.5t38.5 93t-38.5 93t-92.5 38.5zM696 219q0 -125 -81.5 -207t-207.5 -82t-207.5 82
t-81.5 207v79h578v-79zM828 114q-29 0 -50.5 18t-27.5 46q3 19 3 39q8 24 28.5 39.5t46.5 15.5q32 0 55.5 -23.5t23.5 -56t-23.5 -55.5t-55.5 -23zM512 482q2 -25 10.5 -45.5t19.5 -31t22.5 -17.5t18.5 -9l8 -2q6 -5 16 4.5t10 21.5q0 10 -10 19t-21.5 16t-18.5 25.5
t-2 44.5q2 13 16 24t29 18.5t25.5 24t8.5 38.5q-4 19 -10.5 35t-13.5 26.5t-14.5 18.5t-14.5 12.5t-12.5 7.5t-9.5 4.5l-4 1.5q-7 4 -15.5 -0.5t-12.5 -11.5q-5 -7 -3 -15t9 -12q50 -36 49 -67q0 -11 -8 -19.5t-19.5 -16t-23 -18t-20 -30t-9.5 -47.5zM354 482
q2 -25 10.5 -45.5t20 -31t22.5 -17.5t19 -9l7 -2q6 -5 16 4.5t11 21.5q-1 10 -11 19t-21.5 16t-18.5 25.5t-2 44.5q2 13 16 24t29 18.5t25.5 24t8.5 38.5q-4 19 -10.5 35t-13.5 26.5t-14.5 18.5t-14.5 12.5t-12.5 7.5t-9.5 4.5l-4 1.5q-6 4 -15 -0.5t-13 -11.5q-5 -7 -3 -15
t9 -12q50 -36 49 -67q0 -11 -8 -19.5t-19.5 -16t-23 -18t-20 -30t-9.5 -47.5zM197 482q1 -25 9.5 -45.5t19.5 -31t23 -17.5t18.5 -9t8.5 -2q6 -5 15.5 4.5t10.5 21.5q-1 10 -11 19t-21 16t-18 25.5t-3 44.5q3 13 17 24t28.5 18.5t25.5 24t8 38.5q-4 19 -10 35t-13.5 26.5
t-15 18.5t-14.5 12.5t-12.5 7.5t-9.5 4.5l-4 1.5q-6 4 -14.5 -0.5t-13.5 -11.5q-4 -7 -2.5 -15t8.5 -12q50 -36 50 -67q-1 -11 -9 -19.5t-19 -16t-22.5 -18t-20 -30t-9.5 -47.5z" />
    <glyph glyph-name="liren" unicode="&#xe61e;" 
d="M513 -149q-91 0 -174 35.5t-143 95.5t-95.5 143t-35.5 174t35.5 174t95.5 143t143 95.5t174 35.5t174 -35.5t143 -95.5t95.5 -143t35.5 -174t-35.5 -174t-95.5 -143t-143 -95.5t-174 -35.5v0v0zM514 694q-113 0 -203 -51t-141 -141.5t-51 -203t51 -203t141 -141
t202.5 -50.5t203 50.5t141.5 141t51 203t-51 203t-141.5 141.5t-202.5 51v0v0zM619 114v-26q90 -2 132.5 -16.5t78.5 -62.5q-11 -3 -29 -32q-12 14 -27 24.5t-31 16.5t-29.5 10t-30.5 5.5t-25.5 2t-23.5 0l-15 -0.5h-26v0v132h26q15 1 27.5 2t23.5 4t18.5 4.5t15.5 6t12 6
t11 7.5t8 7l8.5 8.5l7.5 7.5q-12 5 -21.5 12t-15 14.5t-9 14.5t-5 14t-2 11.5t-0.5 8.5v4v0v0q3 82 -18 147t-57 103q-15 15 -33 25t-32 13.5t-28.5 4.5t-19.5 0.5t-8 -0.5q-30 -4 -54 -19t-39 -34.5t-26 -45.5t-16 -47t-8 -45t-3 -33v-16v-1v0q-5 -31 -17 -55t-29.5 -39
t-29.5 -22.5t-30 -14.5q24 -21 45.5 -33t44.5 -16t30.5 -4.5t27.5 -0.5q10 0 17 1v0l21 5l-1 -137h-27q-66 0 -97 -9.5t-61 -42.5q-1 -2 -15 -2.5t-15 -2.5q-6 4 -13 6q-4 12 -12 19q1 0 3.5 3t3.5 5q29 45 68 60t112 17v26q-71 0 -119.5 25t-91.5 81l5 34q5 0 12 1.5
t26.5 8t35.5 16.5t31.5 29t21.5 42q3 88 39 168q49 110 145 122h27q14 0 28 -1.5t38 -9.5t44.5 -21t44 -39t40 -61t28.5 -89t14 -121q4 -25 23.5 -38.5t37.5 -13.5l18 -1l-27 -39q-3 -5 -7 -10.5t-20 -20t-35 -25.5t-51.5 -22t-70.5 -15v0v0zM619 114z" />
    <glyph glyph-name="jiudian" unicode="&#xe61f;" 
d="M443 160h140v56h-140v-56zM639 412h112v56h-112v-56zM783 748h-289q-44 0 -75.5 -32.5t-31.5 -77.5v-282h-140q-46 0 -79 -28.5t-33 -72.5v-403h56v392q0 19 16.5 37.5t34.5 18.5h340q22 0 40 -14q6 -5 11.5 -18.5t5.5 -23.5v-392h56v392q0 64 -34 91q-25 21 -78 21h-140
v280q0 20 16.5 38t39.5 18h280q28 0 42.5 -13.5t13.5 -42.5v-784h56v786q0 45 -32 77.5t-76 32.5zM639 552h112v56h-112v-56zM275 160h140v56h-140v-56zM275 48h140v56h-140v-56zM443 48h140v56h-140v-56z" />
    <glyph glyph-name="xiuxianyule" unicode="&#xe620;" 
d="M597 718q-132 0 -234 -85q-24 -20 -44 -44v0v0q-85 -101 -85 -233q0 -80 35 -154l-178 -157q-24 -21 -26 -53t20 -56l28 -31q22 -23 54 -25.5t57 17.5l140 116q11 8 11 21q0 10 -7.5 17t-18 7t-18.5 -7l-140 -113q-8 -7 -20 -6.5t-19 8.5l-29 31q-7 8 -6.5 18.5t8.5 16.5
l170 150q21 -32 49 -59q31 -29 64 -50q21 -11 32 -17q5 -2 9 -4q71 -32 148 -32q99 0 182.5 48.5t132 132t48.5 182t-48.5 182t-132 131.5t-182.5 48v0v0zM597 46q-129 0 -220 91t-91 219q0 70 29.5 132t80.5 105q57 45 129 53q101 10 180 -54t89.5 -164.5t-52.5 -177.5
q0 -1 -0.5 -1h-0.5q-34 -53 -95 -66q-62 -13 -116 22q-55 34 -69 96.5t21 116.5q17 28 48.5 35t58.5 -10.5t34 -48.5t-10 -58l-14 -22v0q-4 -6 -4 -14q0 -10 7.5 -18t18.5 -8q14 0 22 12v0l14 22q28 45 16.5 97t-57 81t-97.5 17t-81 -57l-12 -23q-34 -69 -12.5 -144.5
t88.5 -117.5q52 -33 112 -33q22 0 43 5q83 17 129 89q0 1 0.5 1h0.5q73 94 58.5 213.5t-107.5 195.5q-1 0 -2 1l-1 1q78 -38 125.5 -113t47.5 -165q0 -128 -91 -219t-220 -91v0v0zM597 46z" />
    <glyph glyph-name="meishi" unicode="&#xe621;" 
d="M91 114h842q8 0 12 1t9.5 7.5t5.5 18.5q0 13 -8.5 19.5t-18.5 6.5h-26q-1 60 -20.5 115.5t-49.5 95t-66 69.5t-69 45.5t-58 16.5q-3 56 -38 96t-94 36t-95.5 -42t-35.5 -90q-32 -4 -66.5 -20.5t-69.5 -46t-63 -68t-46 -93t-19 -114.5h-26q-9 0 -17.5 -6.5t-8.5 -19.5
q0 -10 2 -16t7.5 -8t8 -2.5t8.5 -0.5v0zM512 588q28 0 51.5 -14t27.5 -38q-10 1 -23.5 1t-30.5 -0.5t-24.5 -0.5t-24.5 0.5t-31 0.5t-24 -1q4 24 27.5 38t51.5 14v0zM512 483q94 0 171.5 -39.5t123.5 -112t47 -164.5h-684q1 92 47 164.5t123.5 112t171.5 39.5v0zM907 9h-790
q-10 0 -16 -2t-8 -8t-2 -7.5v-8.5v-4.5v-5.5t0.5 -4.5t1.5 -5t3 -3.5t5 -2.5t8 -0.5h798q14 1 20.5 9t5.5 17q0 11 -9 18.5t-17 7.5v0zM418 383q-73 -14 -126 -74q-26 -30 -38 -58q-3 -7 0 -13.5t9 -9.5q4 -1 7 -1q12 0 16 10q2 4 5.5 10.5t15.5 23.5t26.5 31t39 27.5
t51.5 18.5q7 1 11 7t3 13.5t-7 11.5t-13 3v0zM418 383z" />
    <glyph glyph-name="dingwei" unicode="&#xe622;" 
d="M513 -147q-14 15 -36 41.5t-79 101t-100.5 141.5t-79.5 145.5t-36 130.5q0 91 44.5 168.5t120.5 122.5t165.5 45t166 -45t120.5 -122.5t44 -168.5q0 -52 -34 -129t-82.5 -149.5t-97 -137.5t-82.5 -104l-34 -40v0zM513 706q-120 0 -204 -87t-84 -211q0 -45 29.5 -113
t72 -132.5t84.5 -121.5t72 -92.5l30 -35.5q11 14 30.5 37t69.5 89t88 125t69 129t31 115q0 124 -84.5 211t-203.5 87v0zM513 301q-57 0 -97.5 41t-40.5 99t40.5 99t97.5 41t97 -41t40 -99t-40 -99t-97 -41v0zM513 542q-42 0 -72 -30.5t-30 -73t30 -73t72 -30.5t71.5 30.5
t29.5 73t-29.5 73t-71.5 30.5v0zM513 542z" />
    <glyph glyph-name="huidaodingbu" unicode="&#xe623;" 
d="M511 748q-91 0 -173.5 -35.5t-142.5 -95.5t-95.5 -142.5t-35.5 -173.5t35.5 -174t95.5 -142.5t142.5 -95t173.5 -35.5t174 35.5t142.5 95t95 142.5t35.5 174t-35.5 173.5t-95 142.5t-142.5 95.5t-174 35.5zM749 175h-28v9l-208 206l-197 -196v-5h-28v28h11l199 197v0
l10 10q5 5 10 0l10 -10v0l213 -211h8v-28z" />
    <glyph glyph-name="zhifuchenggong" unicode="&#xe624;" 
d="M829 615q-86 86 -201.5 116.5t-230.5 0t-201 -116.5t-116.5 -201t0 -230.5t116.5 -201.5t201 -116.5t230.5 0t201.5 116.5t116.5 201.5t0 230.5t-116.5 201v0zM800 11q-78 -78 -183 -106t-209.5 0t-183 106t-106 183t0 209.5t106 183t183 106t209.5 0t183 -106t106 -183
t0 -209.5t-106 -183v0zM727 448l27 -26l-304 -303l-26 26l303 303v0zM478 145l-27 -26l-198 198l26 26l199 -198v0zM478 145z" />
    <glyph glyph-name="lianxifangshi" unicode="&#xe625;" 
d="M599 450q25 31 38 73q14 43 14 91q38 -14 49.5 -27t11.5 -36q0 -39 -19 -77t-39 -38q-8 0 -21 3q-12 3 -34 11v0v0zM213 21q-59 75 -84 140q-26 65 -26 139q0 80 31 156q31 75 88 132q58 58 133 89t156 31t155 -31q74 -30 132 -89q58 -57 89.5 -132t31.5 -156
q0 -80 -31.5 -155t-89.5 -132q-57 -58 -132 -89.5t-155 -31.5q-99 0 -157 32q-59 31 -59 83q0 10 4 21t13 22q9 -8 16 -12t13 -4q9 0 27 15q19 16 37 40q15 20 26 46t11 33q0 4 -13 19.5t-13 30.5q0 21 12 54q12 35 34 81q27 53 43 74t33 27q4 1 13 2q29 3 44 26
q13 23 23 58t10 59q0 21 -6 27.5t-26 6.5q-31 0 -54 -4q-22 -5 -33 -13q-14 -10 -45 -49t-63 -89q-59 -92 -96 -195q-37 -104 -37 -156q0 -10 4 -21q5 -12 16 -30q-15 -19 -22.5 -38.5t-7.5 -38.5q0 -64 69.5 -105t183.5 -41q87 0 170 34t146 97t97 145q34 83 34 171
q0 89 -34 170q-34 82 -97 146t-145 97q-82 34 -171 34q-90 0 -171.5 -34t-144.5 -97t-97 -145q-34 -83 -34 -171q0 -78 23 -143q24 -67 70 -118q9 -11 18.5 -17t17.5 -6q2 0 7 2q3 0 13 3v0v0zM363 20q38 27 63 62q24 35 35 78q27 -18 36 -28.5t9 -21.5q0 -31 -31 -73
q-31 -41 -59 -41q-8 0 -22 6q-13 6 -31 18v0zM363 20z" />
    <glyph glyph-name="shanchu" unicode="&#xe626;" 
d="M830 616q-87 86 -202.5 117t-231 0t-201.5 -117t-117 -201.5t0 -231t117 -202t201.5 -117t231 0t202 117t117 202t0 231t-116.5 201.5v0zM801 10q-79 -78 -184 -106t-210 0t-183.5 106.5t-106 183.5t0 210t106 183.5t183.5 106t210 0t183.5 -106t106.5 -183.5t0 -210
t-106 -184v0zM697 510l27 -26l-397 -397l-26 27l396 396v0zM724 114l-27 -27l-383 384l26 26l384 -383v0zM724 114z" />
    <glyph glyph-name="gouxuan" unicode="&#xe627;" 
d="M830 616q-87 86 -202.5 117t-231 0t-201.5 -117t-117 -201.5t0 -231t117 -202t201.5 -117t231 0t202 117t117 202t0 231t-116.5 201.5v0zM801 10q-79 -78 -184 -106t-210 0t-183.5 106.5t-106 183.5t0 210t106 183.5t183.5 106t210 0t183.5 -106t106.5 -183.5t0 -210
t-106 -184v0zM728 449l27 -27l-305 -304l-26 26l304 305v0zM477 144l-26 -26l-199 199l27 26l198 -199v0zM477 144z" />
    <glyph glyph-name="shangpinqingdan" unicode="&#xe628;" 
d="M776 -151h-527q-44 0 -75 31t-31 75v635q0 43 31 74t75 31h53v27q0 11 7.5 18.5t18.5 7.5h369q11 0 19 -7.5t8 -18.5v-27h52q44 0 75 -31t31 -74v-635q0 -44 -31 -75t-75 -31v0v0zM829 590q0 22 -15.5 37.5t-37.5 15.5h-79h-369h-79q-22 0 -37.5 -15.5t-15.5 -37.5v-635
q0 -22 15.5 -37.5t37.5 -15.5h527q22 0 37.5 15.5t15.5 37.5v635v0v0zM302 61h422v-53h-422v53v0v0zM302 219h422v-52h-422v52v0v0zM302 378h422v-53h-422v53v0v0zM302 537h422v-53h-422v53v0v0zM302 537z" />
    <glyph glyph-name="peisongfangshi" unicode="&#xe629;" 
d="M160 731q-39 0 -67.5 -29t-28.5 -71v-630q0 -14 9.5 -23.5t23 -9.5t22.5 9.5t9 23.5v630q0 14 9.5 24t22.5 10h465q7 0 11.5 -5t4.5 -11v-117q0 -1 0.5 -2.5t0.5 -2.5q1 -5 1 -6q1 -2 3.5 -6t3.5 -5q1 -2 5 -4q0 -1 1.5 -2t2.5 -1l210 -110q27 -21 27 -60v-334
q0 -14 9.5 -23.5t22.5 -9.5t22.5 9.5t9.5 23.5v334q0 75 -56 116l-4 2l-195 102v96q0 34 -23.5 58t-56.5 24h-465v0zM322 -66q-27 0 -47 20.5t-20 49t20 49t47.5 20.5t47.5 -20.5t20 -49t-20 -49t-48 -20.5v0zM701 -66q-27 0 -47 20.5t-20 49t20 49t47.5 20.5t47.5 -20.5
t20 -49t-20 -49t-48 -20.5v0zM322 139q-54 0 -92.5 -39.5t-38.5 -96t38.5 -96.5t92.5 -40q45 0 80 28.5t47 72.5h126q12 -44 47 -72.5t79 -28.5q55 0 93.5 40t38.5 96.5t-38.5 96t-93.5 39.5q-46 0 -81.5 -29.5t-45.5 -75.5h-124q-10 46 -46 75.5t-82 29.5v0zM673 233
q-13 0 -22.5 10t-9.5 24v132q0 14 9.5 24t22.5 10t22.5 -10t9.5 -24v-99h96q14 0 23 -10t9 -23.5t-9 -23.5t-23 -10h-128v0zM673 233z" />
    <glyph glyph-name="daohuofangshi" unicode="&#xe62a;" 
d="M160 731q-39 0 -67.5 -29t-28.5 -71v-630q0 -14 9.5 -23.5t23 -9.5t22.5 9.5t9 23.5v630q0 14 9.5 24t22.5 10h465q7 0 11.5 -5t4.5 -11v-117q0 -1 0.5 -2.5t0.5 -2.5q1 -5 1 -6q1 -2 3.5 -6t3.5 -5q1 -2 5 -4q0 -1 1.5 -2t2.5 -1l210 -110q27 -21 27 -60v-334
q0 -14 9.5 -23.5t22.5 -9.5t22.5 9.5t9.5 23.5v334q0 75 -56 116l-4 2l-195 102v96q0 34 -23.5 58t-56.5 24h-465v0zM322 -66q-27 0 -47 20.5t-20 49t20 49t47.5 20.5t47.5 -20.5t20 -49t-20 -49t-48 -20.5v0zM701 -66q-27 0 -47 20.5t-20 49t20 49t47.5 20.5t47.5 -20.5
t20 -49t-20 -49t-48 -20.5v0zM322 139q-54 0 -92.5 -39.5t-38.5 -96t38.5 -96.5t92.5 -40q45 0 80 28.5t47 72.5h126q12 -44 47 -72.5t79 -28.5q55 0 93.5 40t38.5 96.5t-38.5 96t-93.5 39.5q-46 0 -81.5 -29.5t-45.5 -75.5h-124q-10 46 -46 75.5t-82 29.5v0zM673 233
q-13 0 -22.5 10t-9.5 24v132q0 14 9.5 24t22.5 10t22.5 -10t9.5 -24v-99h96q14 0 23 -10t9 -23.5t-9 -23.5t-23 -10h-128v0zM673 233z" />
    <glyph glyph-name="jia" unicode="&#xe62b;" 
d="M928 363h-352v352q0 13 -9.5 22.5t-22.5 9.5h-64q-13 0 -22.5 -9.5t-9.5 -22.5v-352h-352q-13 0 -22.5 -9.5t-9.5 -22.5v-64q0 -13 9.5 -22.5t22.5 -9.5h352v-352q0 -13 9.5 -22.5t22.5 -9.5h64q13 0 22.5 9.5t9.5 22.5v352h352q13 0 22.5 9.5t9.5 22.5v64
q0 13 -9.5 22.5t-22.5 9.5z" />
    <glyph glyph-name="jian" unicode="&#xe62c;" 
d="M96 363h830q13 0 22.5 -9.5t9.5 -22.5v-64q0 -13 -9.5 -22.5t-22.5 -9.5h-830q-13 0 -22.5 9.5t-9.5 22.5v64q0 13 9.5 22.5t22.5 9.5z" />
    <glyph glyph-name="ditudangqianweizhi" unicode="&#xe62d;" 
d="M559 -147h-4q-9 1 -16 8t-8 16l-40 403l-402 39q-9 2 -15.5 8.5t-7.5 15.5q-3 21 16 30l837 372q18 8 31.5 -5.5t5.5 -31.5l-372 -839q-7 -16 -25 -16v0zM171 365l334 -48q10 -1 16.5 -7.5t7.5 -16.5l47 -333l321 725z" />
    <glyph glyph-name="daozheliqu" unicode="&#xe62e;" 
d="M837 494l-230 230v0l-20 20q-10 10 -20 0l-20 -20h-1l-222 -222q-10 -10 0 -20l20 -20q10 -10 20 0l188 188v-403h-353q-6 0 -10 -4t-4 -10v-368q0 -5 4 -9.5t10 -4.5h28q6 0 10 4.5t4 9.5v326h354q6 0 10 4t4 10v436l188 -187q10 -10 20 0l20 20q10 10 0 20z" />
    <glyph glyph-name="xuanzhong" unicode="&#xe62f;" 
d="M512 747q-91 0 -174 -35.5t-143 -95.5t-95.5 -143t-35.5 -174t35.5 -174t95.5 -143t143 -95.5t174 -35.5t174 35.5t143 95.5t95.5 143t35.5 174t-35.5 174t-95.5 143t-143 95.5t-174 35.5zM512.5 -60q-97.5 0 -180 48t-130.5 130.5t-48 180t48 180t130.5 130.5t180 48
t180 -48t130.5 -130.5t48 -180t-48 -180t-130.5 -130.5t-180 -48zM512 433q-56 0 -95 -39t-39 -95t39 -95.5t95 -39.5t95.5 39.5t39.5 95.5t-39.5 95t-95.5 39z" />
    <glyph glyph-name="shaixuanda" unicode="&#xe630;" 
d="M920 634v0q-181 -187 -241 -249q-13 -14 -15 -19t-2 -25l2 -466q0 -3 -1 -7.5t-7 -11.5t-17 -7q-20 0 -20 26v473q0 34 1 37t4.5 8t7.5 8t9.5 8t6.5 6q27 25 87.5 87.5t107.5 112.5l47 50v0q8 7 8 17q0 9 -6.5 15.5t-15.5 6.5h-728q-9 0 -15 -6.5t-6 -15.5q0 -10 7 -17v0
q177 -186 238 -245q1 -1 7 -6.5t10 -9.5t9 -9.5t6 -9.5l1 -41v-254q0 -1 -1 -2.5t-6.5 -4t-14.5 -2.5q-7 0 -12.5 2.5t-6.5 4.5l-2 2q-2 174 0 255q1 13 -2 22q-3 7 -15 18q-28 26 -88.5 88t-106.5 111.5l-46 49.5v0q-20 20 -20 48q0 27 19 46.5t45 19.5h728
q27 0 45.5 -19.5t18.5 -46.5q0 -28 -20 -48v0v0v0zM920 634z" />
    <glyph glyph-name="sousuo1" unicode="&#xe631;" 
d="M792 23q61 59 95.5 138t34.5 168q0 113 -55 209.5t-149.5 152.5t-206 56t-206.5 -56t-150 -152.5t-55 -210t55 -210t150 -152.5t206 -56q128 0 233 74l123 -126q11 -11 23 -2l25 20q12 9 1 21zM164 328.5q0 96.5 46.5 178t126.5 129t174.5 47.5t174.5 -47.5t126.5 -129
t46.5 -177.5q0 -77 -30.5 -145.5t-84.5 -118.5q-7 1 -11 -3l-25 -20q-4 -3 -5 -9q-87 -58 -192 -58q-94 0 -174 47t-126.5 128.5t-46.5 178z" />
    <glyph glyph-name="xiajiantouxiao" unicode="&#xe632;" 
d="M960 545h-90v-16l-364 -359l-352 346v28h-89v-89h23l402 -394q6 -7 15.5 -7t15.5 7l402 395h37v89z" />
    <glyph glyph-name="zhifufangshi" unicode="&#xe633;" 
d="M903 122v-126q0 -46 -33 -78.5t-79 -32.5h-614q-46 0 -78.5 32.5t-32.5 78.5v608q0 45 32.5 77.5t78.5 32.5h531q11 0 19 -8t8 -19v-139h56q46 0 79 -32t33 -78v-71q25 -14 40.5 -39.5t15.5 -55.5v-55q0 -30 -15.5 -55.5t-40.5 -39.5v0zM680 659h-503q-23 0 -39 -16
t-16 -39v-71q26 15 55 15h503v111v0zM847 438q0 23 -16.5 39t-39.5 16h-614q-23 0 -39 -16t-16 -39v-442q0 -23 16 -39t39 -16h614q23 0 39.5 16t16.5 39v110h-112q-46 0 -78.5 32.5t-32.5 78.5v55q0 46 32.5 78.5t78.5 32.5h112v55v0zM903 272q0 23 -16.5 39t-39.5 16h-112
q-23 0 -39 -16t-16 -39v-55q0 -23 16 -39t39 -16h112q23 0 39.5 16t16.5 39v55v0zM819 217h-56q-11 0 -19.5 8t-8.5 19.5t8.5 19.5t19.5 8h56q12 0 20 -8t8 -19.5t-8 -19.5t-20 -8v0zM819 217z" />
    <glyph glyph-name="wuliuxinxi" unicode="&#xe634;" 
d="M719 534q-44 0 -44 -24q0 -14 13 -21t31 -7q73 0 133 -81t67 -217v-35v-5h-285v447q0 27 -15 44t-39 17h-456q-25 0 -42.5 -18.5t-17.5 -45.5v-427q0 -26 18 -42t43 -16h61v-20q0 -63 38.5 -103t98.5 -40q59 0 92.5 42.5t33.5 107.5q0 1 1 6.5t1 6.5h143q-1 -1 -2.5 -6.5
t-1.5 -6.5q0 -75 40.5 -112.5t105.5 -37.5q60 0 103 44t43 106q0 1 -1.5 6.5t-2.5 6.5h41v0q15 0 26 6.5t12 19.5q4 34 3 51q-5 99 -36.5 179t-85 127.5t-119.5 47.5v0zM594 612v-468h-489v468h489zM410 83q0 -38 -21.5 -70t-59.5 -32q-30 0 -51 10.5t-31 28t-14.5 34.5
t-4.5 36q0 7 -1 13h183v-20zM838 83q0 -45 -33.5 -73.5t-68.5 -28.5q-17 0 -34.5 5.5t-34 16.5t-26 32t-7.5 48v10v10h143h61v0v-20zM838 83z" />
    <glyph glyph-name="xitongguangbo" unicode="&#xe635;" 
d="M940 664q-20 0 -20 -41v-42l-815 -188q3 41 -21 42q-21 1 -21 -36v-34v-132v-34q0 -36 21 -36q11 0 16 11.5t7 37.5l178 -42l-11 -69q-6 -26 8.5 -49.5t40.5 -29.5l256 -60q7 -1 15 -1q23 0 40.5 14t23.5 37l10 48l252 -64l-3 -29q0 -33 23 -33q21 0 21 33v66v532v66
q0 16 -5 24.5t-10 8.5h-6zM105 351l84 21v-146l-84 21v104zM296 66l11 89l339 -80l-32 -90zM230 372l690 167v-501l-690 188v146z" />
    <glyph glyph-name="youhuixinxi" unicode="&#xe636;" 
d="M350 136q11 1 15.5 5t4.5 15v61h62q10 0 15.5 4.5t4.5 16.5q-1 8 -6.5 14t-13.5 6h-62v61h62q7 0 12.5 7.5t5.5 16.5q0 17 -18 17h-41l66 60q6 6 5.5 14t-6.5 13.5t-14.5 5.5t-13.5 -6l-70 -75l-69 75q-6 6 -14 6t-14 -5.5t-6.5 -13.5t4.5 -14l50 -60h-40q-9 0 -15.5 -5
t-6.5 -12q0 -9 6.5 -16.5t15.5 -7.5h61v-61h-61q-9 0 -15 -6t-6 -14t6 -14.5t15 -6.5h61v-61q0 -8 6 -14t14 -6zM957 522q0 2 -2.5 7t-3.5 7.5t-3.5 4.5t-6.5 2h-204q-5 0 -17 -5t-16 -8q-23 -24 -48 -68v122q0 10 -9 15t-21 5h-536q-10 0 -17.5 -7t-7.5 -18v-561
q0 -10 7.5 -17.5t17.5 -7.5h450q10 0 17.5 7.5t7.5 17.5q0 16 -32 16h-427v530h509v-286v-5.5v-6v-5.5t1 -5t2 -3.5t3 -2.5t5 -1q11 0 20.5 9.5t9.5 19.5q-2 30 0 56t8.5 47t13 37t17 31.5t16 22.5t15.5 18t11 13h163q-31 -45 -56 -106t-25 -119v-244h-102q-9 0 -16 -1
t-13 -4.5t-6 -10.5q0 -10 7.5 -17.5t17.5 -7.5h124q11 0 19.5 5.5t8.5 15.5v264q0 32 10.5 66.5t22.5 58.5t28 48t22 31.5t11 12.5q11 12 4 27v0z" />
    <glyph glyph-name="huodongxiaoxi" unicode="&#xe637;" 
d="M851 581q-76 94 -184.5 137t-223.5 25.5t-207 -94.5q-74 -60 -116 -144.5t-49 -176.5q0 -5 0.5 -16t6.5 -28.5t17 -28.5q23 -24 56 -24q34 0 57.5 24t23.5 58t-23.5 58t-57.5 24q-12 0 -23 -4q33 139 140 227q84 70 188.5 83t200.5 -28.5t164 -125.5q58 -71 78.5 -160
t1 -176t-74.5 -158v0l30 -134l-117 52v0v0q-108 -73 -242 -69t-235 83q-14 10 -20 16q-50 48 -103 120q-4 3 -6.5 3.5t-4.5 -1t-3.5 -4.5t-5 -8t-6.5 -9q22 -47 54 -87q70 -86 170 -128.5t207.5 -33.5t199.5 67l156 -61l-25 189q53 79 69.5 173t-7 188.5t-86.5 171.5v0z
M151 354q17 0 29 -12t12 -29t-12 -29t-29 -12q-23 0 -35 21q-5 10 -5 20q0 13 7 24q13 17 33 17v0zM462 317q0 34 -23.5 57.5t-57 23.5t-57 -23.5t-23.5 -57t23.5 -57.5t57 -24t57 24t23.5 57v0zM341 317q0 17 12 28.5t28.5 11.5t28.5 -11.5t12 -28.5t-12 -28.5t-28.5 -11.5
t-28.5 11.5t-12 28.5v0zM681 317q0 34 -23.5 57.5t-57 23.5t-57 -23.5t-23.5 -57t23.5 -57.5t57 -24t57 24t23.5 57v0zM560 317q0 17 12 28.5t28.5 11.5t28.5 -11.5t12 -28.5t-12 -28.5t-28.5 -11.5t-28.5 11.5t-12 28.5v0zM560 317z" />
    <glyph glyph-name="shaixuan" unicode="&#xe638;" 
d="M909 606v0q-170 -178 -244 -254q-16 -17 -18 -23q-3 -6 -3 -31q0 -146 2 -416q0 -4 -1 -9t-8.5 -13.5t-20.5 -8.5q-25 0 -25 31v424q0 43 1 46q1 4 6 10t9 10t11 10t9 7q33 31 94 95t106 112l45 48v0q9 9 9 21t-7.5 20t-18.5 8h-685q-11 0 -19 -8t-8 -20t9 -21v0
q165 -176 241 -249q1 -1 8 -7.5t12.5 -11.5t11 -12t7.5 -12q1 -4 1.5 -16.5t-0.5 -23.5v-10v-207q0 -2 -1.5 -3.5t-8 -5t-17.5 -3.5q-6 0 -10.5 1.5t-7.5 3t-4.5 3t-2.5 3.5l-1 1q-3 108 0 207q1 17 -3 27q-3 10 -18 23q-22 20 -55 53.5t-65 67.5t-60 64t-46.5 49.5
t-17.5 19.5h1q-25 24 -25 59q0 34 23 58t56 24h685q32 0 55.5 -24t23.5 -58q0 -35 -25 -59v0v0v0zM909 606z" />
    <glyph glyph-name="huiyuanquanyi" unicode="&#xe639;" 
d="M512 748q-91 0 -174 -36t-143 -96t-96 -143t-36 -174t36 -174.5t96 -143.5t143 -95.5t174 -35.5t174.5 35.5t143.5 95.5t95.5 143.5t35.5 174.5t-35.5 174t-95.5 143t-143.5 96t-174.5 36zM512.5 -97q-107.5 0 -199 53t-144.5 144t-53 198.5t53 199t144.5 144.5t199 53
t198.5 -53t144 -144.5t53 -199t-53 -198.5t-144 -144t-198.5 -53zM484 35h65v60h-65v-60zM537 536q-81 0 -128 -38q-20 -16 -32 -35.5t-23 -54.5l56 -9q10 35 25 53q33 41 100 41q47 0 77.5 -22.5t30.5 -59.5q0 -29 -23 -53q-16 -15 -46 -35q-29 -19 -39 -27t-20 -21
q-25 -33 -25 -78q0 -26 -3 -42h58q-2 22 -2 36q0 36 17 59q11 15 60 49q38 25 52 42q25 32 25 72q0 55 -44.5 89t-115.5 34z" />
    <glyph glyph-name="shanghudingdanzhong" unicode="&#xe63a;" 
d="M576 448h-319v-43h319v43zM257 108h90q1 17 5 42h-95v-42zM406 681v-42h-85v-43h191v43h-64v42h-42zM379 299h-122v-43h110q5 24 12 43zM725 490v-85h42v88q0 73 -38.5 120.5t-106.5 47.5l-46 -1v-43h42q46 0 76.5 -39t30.5 -88zM533 745h-233v-43h233v43zM109 108v382
q0 49 30.5 88t75.5 39h42v43l-46 1q-67 0 -106 -47.5t-39 -120.5v-381q0 -83 47.5 -139.5t125.5 -56.5h167v43h-170q-55 0 -91 44.5t-36 104.5zM945 200l-41 110v1q-11 28 -26.5 40t-25.5 12q-1 0 -2 -1h-338q-15 0 -30.5 -13.5t-23.5 -35.5q-46 -116 -52 -149v-5l1 -3
q-1 -3 -1 -6q0 -70 42 -85v-127q0 -41 13.5 -61.5t57.5 -23.5h326q71 0 71 85v127q41 16 41 85v3q2 19 -12 47zM873 -84q0 -11 -4.5 -16t-16.5 -5h-340q-11 0 -16 5t-5 16v149q35 1 58 28l8 10l4 -6q28 -32 57 -32q36 0 64 30q4 -5 9 -9q26 -21 55 -21q18 0 37 10t24 25
q1 -1 3 -6t3.5 -6.5t4.5 -6t7.5 -6.5t11 -4.5t16 -4t20.5 -1.5v-149zM873 108q-4 0 -10 -0.5t-9 -0.5t-6.5 0.5t-6.5 2t-5 4.5q-2 2 -3 4.5l-2 5t-1.5 5t-0.5 5.5v5t0.5 4t0.5 3.5t0.5 2.5l0.5 1q1 8 -4.5 14.5t-16.5 6.5q-6 1 -10 0t-6 -2.5t-3 -4.5l-1.5 -4.5t-1 -5
t-0.5 -4.5q-2 -20 -13 -35t-29 -15t-30.5 14t-12.5 36q0 12 -6.5 16.5t-14.5 4.5q-23 0 -21 -21t-10.5 -31.5t-32.5 -10.5q-24 0 -33 10q-3 4 -5 8t-2.5 6.5t-1 8.5t-0.5 9q-1 6 -2 10t-6 8t-13 3q-24 -2 -22 -21l-2 -2l-7.5 -7.5l-11.5 -11.5q-3 -3 -5 -9t-5 -9t-11 -3
q-42 0 -43 42v0h1q17 85 42 149q8 20 21 21h319l9.5 -1t19 -5.5t13.5 -14.5q27 -96 43 -149q-1 -42 -43 -42zM449 150h-1v0v0v0h1z" />
    <glyph glyph-name="lipindingdanzhong" unicode="&#xe63b;" 
d="M256 405h320v43h-320v-43zM725 491v-86h43v89q0 73 -39 120.5t-107 47.5l-46 -1v-42h43q45 0 75.5 -39.5t30.5 -88.5zM448 231q0 -53 73.5 -88.5t182.5 -35.5t181.5 35.5t72.5 88.5q0 54 -73 93t-181 39t-182 -39t-74 -93zM917 235q0 -35 -58 -60t-154.5 -25t-155 25
t-58.5 60t58.5 60t155 25t154.5 -25t58 -60zM379 299h-123v-43h111q4 24 12 43zM107 107v384q0 49 30.5 88.5t76.5 39.5h42v42l-46 1q-68 0 -107 -47.5t-39 -120.5v-382q0 -84 48 -140.5t126 -56.5h168v43h-171q-56 0 -92 44.5t-36 104.5zM533 747h-234v-43h234v43zM939 0
q-11 3 -18.5 -5.5t-3.5 -15.5l3 -1q1 -4 -3 -20q0 -64 -213 -64t-213 64v21q2 13 -3.5 18t-11.5 4.5t-6 -1.5q-22 -3 -22 -33q0 -38 20.5 -62t78.5 -39t156 -15q134 0 196 26.5t61 80.5q-1 25 -5 32.5t-16 9.5zM406 683v-43h-86v-43h192v43h-64v43h-42zM256 107h91
q1 18 4 43h-95v-43zM939 128q-11 3 -18.5 -5.5t-3.5 -15.5l2 -1q2 -3 -2 -20q0 -64 -213 -64t-213 64v21q2 13 -3.5 18.5t-11.5 4.5l-6 -2q-22 -3 -22 -33q0 -38 20.5 -62t78.5 -39t156 -15q134 0 196 26.5t61 80.5q-1 25 -5 32.5t-16 9.5z" />
    <glyph glyph-name="tuikuanshouli" unicode="&#xe63c;" 
d="M951 385q-7 5 -15.5 4t-14.5 -8l-31 -54v0q5 3 5.5 8t-1.5 31q-3 25 -4 43q-22 107 -97.5 184.5t-180 107.5t-212.5 7q-108 -22 -191 -96.5t-120.5 -180t-15.5 -213.5q17 -83 57.5 -149.5t101 -112t146 -63.5t185.5 -2q54 9 103 42.5t99 84.5l1 1q1 0 1.5 1t0.5 2
q3 4 3 9q0 9 -17 24q-16 13 -27 0v0q-32 -32 -51 -49t-52 -36.5t-66 -26.5q-98 -20 -189.5 8t-156 98.5t-84.5 168.5q-21 99 7 191.5t98 158t167 86.5q98 20 192 -8.5t161.5 -99t87.5 -168.5q5 -22 7 -45l-44 35q-7 6 -16 5t-14.5 -8t-4.5 -15.5t8 -14.5v0l81 -93v0
q7 -6 16 -5t15 8v0l65 109v1q6 6 5 15t-8 15v0zM454 109q0 -26 28 -27q25 -1 25 26v0v55h111v0q27 0 27 28q0 10 -2 16.5t-8.5 8.5t-7.5 2h-9h-109v27h109v0v0q27 0 27 28q0 14 -8.5 20.5t-18.5 6.5h-109v27l109 82v0l4.5 3.5t6.5 5.5t4.5 6.5t1.5 9.5t-4.5 12.5t-11.5 15.5
q-6 6 -13.5 6.5t-12.5 -4.5l-111 -83l-109 82q-6 5 -14 -3t-14 -24q-7 -21 0 -27v0l109 -82v-27h-81h-28q-7 0 -12.5 -1.5t-8.5 -3t-4.5 -5.5t-1.5 -5.5v-6.5v-5q0 -28 27 -28v0h109v-27h-109q-27 0 -27 -27t41 -28v0l95 1v-55v0v0z" />
    <glyph glyph-name="dingdanliebiaoleibie" unicode="&#xe63d;" 
d="M960 299q0 13 -12 19v0l-132 65l132 64v0q12 6 12 19t-12 19v0l-427 208q-5 2 -9 2t-8 -2h-1l-426 -208q-12 -6 -12 -19t12 -19h-1l133 -64l-133 -65h1q-12 -6 -12 -19t12 -18h-1l133 -65l-133 -65h1q-12 -5 -12 -18t12 -19h-1l428 -208q4 -2 8 -2t9 2v0l427 208
q12 6 12 19t-12 18v0l-132 65l132 65v0q12 5 12 18v0zM132 466l380 185l380 -185l-380 -185l-380 185v0zM892 133l-380 -186l-380 186l124 60l248 -121q4 -2 8 -2t9 2v0l247 121l124 -60v0zM512 114l-380 185l124 61l248 -121q4 -2 8 -2t9 2v0l247 121l124 -61l-380 -185v0z
M512 114z" />
    <glyph glyph-name="yinlianzhanghu" unicode="&#xe63e;" 
d="M378 199h-44v-112h44v112v0zM244 199h-44v-112h44v112v0zM876 645h-728q-34 0 -58 -24t-24 -58v-527q0 -34 24 -58.5t58 -24.5h728q34 0 58.5 24.5t24.5 58.5v527q0 34 -24.5 58t-58.5 24v0zM914 65q0 -67 -67 -67h-670q-67 0 -67 67v335h804v-335v0zM914 444h-804v90
q0 67 67 67h670q67 0 67 -67v-90zM512 199h-44v-112h44v112v0zM512 199z" />
    <glyph glyph-name="liantong" unicode="&#xe63f;" 
d="M922 381q-32 22 -67 22q-33 0 -69 -22l-39 -41l-54 54l-39 -42l54 -53l-50 -51l36 -42l55 55l6 -6q53 -58 95 -58h1v0q87 4 103 76q19 64 -32 108v0zM856 254v0h-3q-40 9 -59 43l-2 3l2 4q17 38 60 40l1 1v5l1 -6q46 -4 48 -43q2 -37 -48 -47v0zM366 248l-49 51l54 53
l-39 42l-54 -54l-41 42q-35 21 -68 21q-34 0 -67 -22q-51 -44 -32 -107q16 -73 104 -77h1q41 0 95 57l6 7l55 -55l35 42v0zM231 297q-19 -34 -60 -43v0h-3q-50 10 -47 47q1 39 48 43l1 1l-1 5l1 -6q43 -2 61 -40l1 -4l-1 -3v0zM548 300l169 181q30 58 -14 120q-41 34 -82 34
q-24 0 -49 -12l-61 -60l-64 58q-22 14 -46 14q-35 0 -77 -28q-51 -54 -25 -111q3 -10 5 -12q3 -5 13 -13l156 -169l-168 -180q-36 -56 14 -129q39 -29 73 -29q27 0 53 18l65 58l61 -57q30 -15 56 -15q40 0 75 35q47 48 12 121l-166 176v0zM359 497q-9 11 -11 14
q0 2 -1.5 4.5t-2 4.5l-0.5 2v0q-5 22 10 42q12 17 35 17q14 0 31 -6h1l49 -44l-41 -45l36 -38l46 45l44 -44l43 40l-45 39l41 47q21 11 37 11q18 0 29 -12q28 -24 11 -63l-162 -171l-150 157v0zM658 25q-13 -7 -28 -7q-18 0 -38 11l-41 47l45 39l-42 40l-45 -45l-45 45
l-37 -37l41 -45l-49 -44q-22 -12 -39 -12t-28 10q-28 25 -7 67l162 169l164 -168q23 -42 -13 -70v0zM658 25z" />
    <glyph glyph-name="tishi" unicode="&#xe669;" 
d="M183 455h-67q-11 0 -19.5 -8t-8.5 -19t8.5 -18.5t19.5 -7.5h67q12 0 20 7.5t8 18.5t-8 19t-20 8zM281.5 624q11.5 0 19.5 8t8 19t-8 18l-47 46q-8 8 -19.5 8t-20 -8t-8.5 -19t9 -19l47 -45q8 -8 19.5 -8zM514.5 714q11.5 0 19.5 8t8 19v64q0 11 -8 19t-19.5 8t-19.5 -8
t-8 -19v-64q0 -11 8 -19t19.5 -8zM746 620q11 0 20 8l47 45q8 8 8 19t-8 19t-19.5 8t-19.5 -8l-48 -46q-8 -8 -8 -19t8.5 -18.5t19.5 -7.5zM698 575q-77 74 -186 74t-186 -74t-77 -178.5t77 -178.5t186 -74t186 74t77 178.5t-77 178.5zM511.5 197q-85.5 0 -146.5 58.5
t-61 141t61 141t146.5 58.5t146.5 -58.5t61 -141t-61 -141t-146.5 -58.5zM907 449h-67q-12 0 -20 -8t-8 -19t8 -18.5t20 -7.5h67q12 0 20 7.5t8 18.5t-8 19t-20 8zM577 -11h-131q-11 0 -19 -7.5t-8 -19t8 -19t19 -7.5h131q11 0 19.5 7.5t8.5 19t-8.5 19t-19.5 7.5zM614 90
h-205q-11 0 -19.5 -7.5t-8.5 -18.5t8.5 -19t19.5 -8h205q12 0 20 8t8 19t-8 18.5t-20 7.5z" />
    <glyph glyph-name="chulizhong" unicode="&#xe640;" 
d="M461 6q-65 7 -127 41t-109.5 85t-76.5 121.5t-29 146.5q0 17 4.5 43t17 61.5t31 71t50 71t71 62t96.5 43t124 15.5q43 0 68.5 -2t67 -14.5t74.5 -35.5l-29 -55q-6 -9 -3 -14t13 -5l124 21q4 1 5.5 2.5t1.5 4t-1 5.5t-3 7t-3 7l-17 107q-3 10 -9 11t-12 -8l-28 -40
q-94 63 -249 62q-80 -1 -147 -21t-112.5 -52t-80.5 -74t-55 -84t-32.5 -85t-16 -75t-2.5 -56v0q17 -141 92 -245q20 -27 42 -50h1v0v0q27 -26 57 -47q81 -57 177 -74q15 -3 28 5.5t14 23.5q0 8 -4.5 13t-7.5 6t-5 1v0zM487 662q-12 0 -19 -7t-7 -19v-263l240 -145
q6 -3 13 -3q18 0 26 15q6 11 2 22.5t-14 16.5l-215 121v236q0 13 -8.5 19.5t-17.5 6.5zM894 485q4 -12 17 -8l25 8q12 4 8 17l-24 75q-4 12 -17 8l-25 -8q-12 -4 -8 -17zM946 452h-26q-5 0 -9 -3.5t-4 -9.5v-79q0 -5 4 -9t9 -4h26q6 0 9.5 4t3.5 9v79q0 6 -3.5 9.5t-9.5 3.5
zM942 300l-25 6q-13 3 -16 -10l-17 -77q-3 -12 10 -15l25 -6q13 -3 16 10l17 77q3 12 -10 15zM883 157q-9 9 -19 0l-56 -55q-10 -9 -1 -18l19 -19q9 -9 18 0l57 54q9 10 0 19zM765 66q-5 12 -17 6l-72 -32q-12 -6 -6 -18l11 -24q5 -12 17 -6l72 33q12 5 6 17zM641 2
q-1 5 -5.5 8t-9.5 2l-78 -14q-5 0 -8 -4.5t-2 -10.5l4 -26q1 -5 5.5 -8t10.5 -2l77 14q6 1 9 5.5t2 9.5z" />
    <glyph glyph-name="tanhao" unicode="&#xe641;" 
d="M525 832h-26q-5 0 -9 -4t-4 -9v-658q0 -5 4 -9t9 -4h26q6 0 9.5 4t3.5 9v658q0 5 -3.5 9t-9.5 4zM525 69h-26q-5 0 -9 -4t-4 -9v-105q0 -6 4 -9.5t9 -3.5h26q6 0 9.5 3.5t3.5 9.5v105q0 5 -3.5 9t-9.5 4z" />
    <glyph glyph-name="tuikuan" unicode="&#xe642;" 
d="M118 411h-53v-52h53v52zM906 726v-131q-59 108 -162.5 172.5t-231.5 64.5q-163 0 -290 -105t-157 -263h53q34 135 143 225t251.5 90t251 -90t142.5 -225h53v262h-53zM906 359h53v52h-53v-52zM512.5 -9q-142.5 0 -251.5 89.5t-143 225.5h-53v-263h53v132
q59 -109 162.5 -173t231.5 -64q164 0 290.5 104.5t156.5 263.5h-53q-34 -136 -142.5 -225.5t-251 -89.5zM437 490q-19 29 -65 66l-37 -27q43 -39 61 -70zM322 221l31 -43q38 48 55 48q5 0 11 -2.5t16 -8.5t17 -10q42 -20 118 -20q67 0 136 4q1 21 13 49q-64 -9 -147 -9
q-77 0 -112 17q-7 3 -18 9.5t-15 8.5v156h-97v-46h49v-113q-27 -12 -57 -40zM472 555v-230q0 -26 -20 -38q15 -16 22 -38q13 7 113 30q-3 20 -3 41l-61 -11v80h139q-19 -17 -43 -33q-27 21 -40 30l-33 -24q84 -63 119 -110l36 28q-14 18 -50 50q30 17 58 36l-33 27v162h-204
zM627 429h-104v25h104v-25zM627 491h-104v24h104v-24z" />
    <glyph glyph-name="shanchu1" unicode="&#xe644;" 
d="M934 726h-226l-98 98q-8 7 -19 7h-158q-11 0 -19 -7l-97 -98h-226q-11 0 -19 -7.5t-8 -18.5t8 -19t19 -8h237q11 0 18 8l98 98h136l98 -98q8 -8 19 -8h237q11 0 18.5 8t7.5 19t-7.5 18.5t-18.5 7.5zM828.5 568q-10.5 0 -18.5 -8t-8 -19v-500q0 -22 -15.5 -37.5
t-37.5 -15.5h-474q-22 0 -37.5 15.5t-15.5 37.5v500q0 11 -7.5 19t-18.5 8t-18.5 -8t-7.5 -19v-500q0 -44 30.5 -75t74.5 -31h474q44 0 75 31t31 75v500q0 11 -8 19t-18.5 8zM433 120v421q0 11 -7.5 19t-18.5 8t-19 -8t-8 -19v-421q0 -11 8 -19t19 -8t18.5 8t7.5 19z
M644 120v421q0 11 -7.5 19t-18.5 8t-19 -8t-8 -19v-421q0 -11 8 -19t19 -8t18.5 8t7.5 19z" />
    <glyph glyph-name="woyaojiaofei" unicode="&#xe645;" 
d="M833 832h-641q-53 0 -90.5 -37.5t-37.5 -90.5v-641q0 -53 37.5 -90.5t90.5 -37.5h641q53 0 90.5 37.5t37.5 90.5v641q0 53 -37.5 90.5t-90.5 37.5zM897 63q0 -27 -19 -45.5t-45 -18.5h-641q-27 0 -45.5 18.5t-18.5 45.5v641q0 26 18.5 45t45.5 19h641q26 0 45 -19t19 -45
v-641zM614 585l-94 -178h-2q-7 16 -30.5 60t-43.5 81l-20 37h-80l116 -192h-90v-56h111v-46h-111v-57h111v-81h71v81h106v57h-106v46h106v56h-86l118 192h-76z" />
    <glyph glyph-name="woyaoquche" unicode="&#xe646;" 
d="M297 598h-154q-7 0 -11.5 -4.5t-4.5 -10.5v-31q0 -7 4.5 -11.5t11.5 -4.5h154q6 0 10.5 4.5t4.5 11.5v31q0 6 -4.5 10.5t-10.5 4.5zM297 721h-216q-6 0 -10.5 -4.5t-4.5 -10.5v-31q0 -6 4.5 -10.5t10.5 -4.5h216q6 0 10.5 4.5t4.5 10.5v31q0 6 -4.5 10.5t-10.5 4.5z
M959 196v249q0 12 -12 13q-66 4 -125 78.5t-63 172.5q-1 5 -4.5 8.5t-8.5 3.5h-358q-4 0 -7 -1t-5.5 -8t-1.5 -21v-494v-3v-4.5t0.5 -4.5t1.5 -5t3.5 -4.5t5.5 -4t8 -3t12 -1.5h95q11 -53 53.5 -88.5t97.5 -35.5t98 36t53 89q2 -1 3 -1h124q9 0 15 1.5t9 4t5 6.5t2 6
t-0.5 6.5zM651 105q-38 0 -65 27t-27 65t27 65.5t65 27.5t65.5 -27.5t27.5 -65.5t-27.5 -65t-65.5 -27zM898 228h-93q-1 0 -3 -2q-10 54 -53 89.5t-98 35.5t-97.5 -35t-53.5 -88h-65v432h278q7 -101 61.5 -169t123.5 -78v-185zM297 475h-93q-6 0 -10.5 -4.5t-4.5 -11.5v-30
q0 -7 4.5 -11.5t10.5 -4.5h93q6 0 10.5 4.5t4.5 11.5v30q0 7 -4.5 11.5t-10.5 4.5z" />
    <glyph glyph-name="woyaotingche" unicode="&#xe647;" 
d="M511 833q-90 0 -173 -36t-143 -96.5t-96 -143.5t-36 -173t36 -173t96 -143t143 -96t173 -36t173 36t143.5 96t96.5 143t36 173t-36 173t-96.5 143.5t-143.5 96.5t-173 36zM511 0q-168 0 -276 108t-108 276t108 276.5t276 108.5t276 -108.5t108 -276.5t-108 -276
t-276 -108zM543 577h-128q-14 1 -21.5 -5t-9 -12.5t-1.5 -15.5v-384q0 -9 8.5 -19t17.5 -10q18 0 27 5.5t11 23.5v160h96q26 0 45.5 2t42 9.5t37.5 21t25 38t10 57.5q0 57 -37 92.5t-123 36.5zM639 448q0 -37 -23 -50.5t-73 -13.5h-96v128h96q34 2 56 -4.5t29.5 -18.5t9 -20
t1.5 -18v-3z" />
    <glyph glyph-name="tingchechangditu" unicode="&#xe648;" 
d="M324 544q0 26 -19 45t-46 19t-46 -19t-19 -45t19 -45t46 -19t46 19t19 45zM238 544q0 9 6 15t15 6t15.5 -6t6.5 -15t-6.5 -15t-15.5 -6t-15 6t-6 15zM259 214q9 0 15 6l238 164l155 -103q12 -7 24 0l268 167v234q0 4 -0.5 9.5t-5 20.5t-13 26t-26.5 20.5t-42 9.5h-719
q-24 0 -42 -9t-26 -21.5t-13 -25t-6 -21.5l-1 -9v-596q0 -3 0.5 -9t5 -20.5t13 -25.5t26 -20.5t41.5 -9.5h723q4 0 9.5 0.5t20.5 5t26 12.5t20 25.5t9 41.5v234q0 16 -21 22q-20 5 -31.5 -3t-11.5 -19v-191q-1 -3 1 -17.5t-6.5 -31t-26.5 -15.5h-702q-1 0 -3.5 0.5t-8 4
t-9.5 9.5t-7.5 19t-3.5 31v543q0 1 0.5 3t3.5 7.5t9 10t19.5 8t31.5 3.5h639q18 0 31 -3.5t19 -8t9.5 -9.5t3.5 -8v-3v-192l-223 -128l-160 96q-7 5 -16.5 5t-15.5 -5l-223 -159q0 -1 -7 -6t-9.5 -9t-5.5 -12t-1 -18.5t10 -23.5q3 -6 15 -6z" />
    <glyph glyph-name="meixihushangchengyouhuiquan" unicode="&#xe649;" 
d="M853 393q1 -93 0 -277q0 -1 0.5 -6.5t0.5 -8t-1 -6.5q0 -2 -1 -6q-3 -16 -5.5 -24t-11 -17.5t-24.5 -13t-43 -3.5h-512h-1q-16 -3 -32 -1t-28.5 7.5t-19 25.5t-4.5 53v256v21h-43v-319q0 -32 27 -59t59 -27h596q8 0 14 2q28 5 50 30.5t22 53.5v319h-43zM171 671
q0 3 0.5 17.5t2.5 20t7.5 14t19 11t34.5 1.5h554q22 1 36 -3.5t19.5 -15t7 -18.5t1.5 -22v-5h43q0 14 -1 36v10q-7 31 -31.5 45.5t-54.5 14.5h-328h-267q-85 0 -86 -106h43zM895 717q1 -2 1 -4q0 3 -1 4zM491 329v0v0zM235 159q0 -29 17.5 -46.5t46.5 -17.5h21q43 -1 86 0
q17 0 29.5 2t26 8t21 19.5t8.5 34.5q1 22 0 149l0.5 10.5t-0.5 10.5q0 1 -21 0.5t-22 -0.5v-170q0 -11 -13.5 -16t-28.5 -5h-43h-43q-28 -1 -35 3t-7 18v170v0h-43q-1 0 -0.5 -10.5l0.5 -10.5q-1 -99 0 -149zM235 329v0v0zM96 692h-21q-4 0 -7.5 -3t-3.5 -8v-298
q0 -5 3.5 -8t7.5 -3h21q5 0 8 3t3 8v298q0 5 -3 8t-8 3zM533.5 223q0.5 -29 18 -46.5t45.5 -17.5h22q42 -1 85 0q18 0 30 2t26 8t21.5 19.5t7.5 34.5q1 13 0 85l0.5 10.5t-0.5 10.5h-42v-106q0 -11 -13.5 -16t-29.5 -5h-42.5h-42.5q-29 -1 -36 3t-7 18v106v0h-42
q-1 0 -0.5 -10.5l0.5 -10.5q-1 -56 -0.5 -85zM534 329v0v0zM789 329v0v0zM949 692h-21q-4 0 -7.5 -3t-3.5 -8v-298q0 -5 3.5 -8t7.5 -3h21q5 0 8 3t3 8v298q0 5 -3 8t-8 3zM779 393q4 0 7 3.5t3 7.5v256q0 4 -3 7.5t-7 3.5h-22q-4 0 -7 -3.5t-3 -7.5v-256q0 -4 3 -7.5
t7 -3.5h22zM246 393h21q4 0 7.5 3.5t3.5 7.5v256q0 4 -3.5 7.5t-7.5 3.5h-21q-5 0 -8 -3.5t-3 -7.5v-256q0 -4 3 -7.5t8 -3.5zM438 393q4 0 7 3.5t3 7.5v256q0 4 -3 7.5t-7 3.5h-22q-4 0 -7 -3.5t-3 -7.5v-256q0 -4 3 -7.5t7 -3.5h22zM587 393h21q5 0 8 3.5t3 7.5v256
q0 4 -3 7.5t-8 3.5h-21q-5 0 -8 -3.5t-3 -7.5v-256q0 -4 3 -7.5t8 -3.5z" />
    <glyph glyph-name="lianmengyouhuiquan" unicode="&#xe64a;" 
d="M958 350q0 -44 -15.5 -80t-50.5 -51q1 -3 6 -15t6 -15.5t4 -13.5t4 -16t2.5 -14.5t1.5 -16.5q0 -47 -20 -81.5t-54 -55.5t-87 -33.5t-110.5 -16.5t-134 -4t-133.5 4t-110.5 16.5t-87 33.5t-53.5 55.5t-20 81.5t22 87q-32 19 -48.5 55t-16.5 80q0 70 39.5 128.5
t120.5 95.5q-32 61 -32 108q0 61 52 105t140 44q69 0 128 -64q58 64 128 64q87 0 139 -44t52 -105q0 -47 -32 -108q82 -37 121 -95.5t39 -128.5v0v0zM511 -21q73 0 134.5 7.5t114.5 23.5t83 46.5t30 71.5q-3 77 -85 165t-175 111q68 77 68 150q0 67 -52.5 108.5t-117.5 41.5
q-68 0 -130 -45.5t-62 -104.5q0 -70 70 -150q-124 -73 -182 -135.5t-58 -140.5q0 -149 362 -149v0v0zM106 346q0 -17 14.5 -45.5t28.5 -44.5q28 47 72.5 92t97.5 74q-48 65 -49 128q-78 -36 -121 -90t-43 -114v0v0zM234 661q0 -8 1.5 -16t6.5 -18t8 -15t11 -18t10 -16
q7 54 64.5 106t132.5 62q-4 17 -33 30t-52 13q-73 0 -111 -36.5t-38 -91.5v0v0zM735 558q49 47 53 103q2 36 -11 62t-37 39.5t-49 20t-52 6.5q-5 0 -10 -1t-9 -2t-9.5 -3.5t-9 -4.5t-9.5 -5.5t-9 -5t-8.5 -5.5t-7.5 -5.5t-7.5 -5.5t-6.5 -5q78 -18 124.5 -72.5t46.5 -119.5
q0 -76 -43 -127q57 -26 109 -74.5t83 -96.5q15 15 29 42t14 43q-1 44 -14 78t-40 59t-55.5 42.5t-71.5 37.5v0v0zM572 384l-61 -285l-61 285l61 -64l61 64v0v0zM572 384z" />
    <glyph glyph-name="mendianyouhuiquan" unicode="&#xe64b;" 
d="M940 535l-66 179v1q-19 45 -43.5 65t-40.5 20q-3 0 -5 -1h-549q-25 0 -49 -22q-25 -23 -38 -58q-75 -189 -84 -244q-1 -4 0 -8v-5q-1 -6 -1 -9q0 -44 23.5 -77t62.5 -47v-256q0 -41 29.5 -74t68.5 -33h530q39 0 68.5 33t29.5 74v256q38 15 61 48t23 75q0 3 -1 6
q4 30 -19 77v0zM770 9h-513q-21 0 -43 20t-22 44v256q39 2 65 7.5t40 22.5q7 8 12 17l8 -10q31 -37 89 -37q24 0 35.5 0.5t28 5t27.5 13.5q8 7 15 14q7 -7 15 -14q11 -9 28 -13.5t28.5 -5t36.5 -0.5q58 0 85 29q6 6 11 12q4 -6 9 -11q15 -17 41.5 -23t67.5 -7v-277
q0 -18 -22 -30.5t-42 -12.5v0zM940 458q-21 1 -21 0v0q0 -34 -28.5 -60.5t-61.5 -26.5q-46 0 -66 22q-19 21 -16 51q1 11 -5.5 19t-17 9.5t-18.5 -5t-10 -17.5q-4 -30 -26.5 -54.5t-51.5 -24.5q-33 0 -56.5 16t-23.5 49q0 11 -7.5 18.5t-18.5 7.5t-18 -7.5t-7 -18.5
q0 -33 -23.5 -49t-56.5 -16q-27 0 -51 28q-25 30 -29 64v1q-2 10 -10 16.5t-18.5 5t-17 -9.5t-5.5 -19q5 -39 -17 -64q-20 -22 -64 -22q-33 0 -60.5 26.5t-27.5 60.5v0v0v0v21q3 15 14 41.5t32.5 77t38.5 95.5v0q7 16 16.5 31.5t16.5 24t10 8.5h556q6 -3 19 -21t24 -43
l64 -171v0q24 -49 21 -64v0h21zM919 458z" />
    <glyph glyph-name="yunhouwangyouhuiquan" unicode="&#xe64c;" 
d="M828 819h-608q-59 0 -105 -39q-50 -42 -50 -101v-587q0 -58 49 -103q47 -43 106 -43h608q56 0 93.5 42t37.5 104v587q0 61 -37 100.5t-94 39.5zM917 95q0 -40 -23.5 -73t-62.5 -33h-617q-29 0 -67 35q-39 35 -39 71v575q0 40 34 73.5t72 33.5h617q37 0 61.5 -32t24.5 -75
v-575zM757.5 637.5q-9.5 1.5 -17.5 -4.5t-9 -15q-8 -56 -29 -97t-49 -63t-58 -32.5t-62 -10.5q-34 0 -67 11.5t-64 34.5t-53.5 63.5t-31.5 93.5q-1 10 -9 15.5t-17.5 4t-15.5 -9.5t-4 -17q24 -122 93.5 -180.5t168.5 -58.5q96 2 164 66t80 173q1 10 -4.5 17.5t-15 9z" />
    <glyph glyph-name="tishi1" unicode="&#xe64d;" 
d="M228 694q-9 8 -21 8t-21 -8.5t-9 -21t9 -21.5l42 -42q9 -9 21.5 -9t21 9t8.5 21.5t-9 20.5l-42 43v0zM796 694l-42 -43q-9 -8 -9 -20.5t9 -21.5t21 -9t21 9l42 42q9 9 9 21.5t-8.5 21t-21 8.5t-21.5 -8v0zM153 457h-59q-13 0 -21.5 -8.5t-8.5 -21t8.5 -21.5t21.5 -9h59
q13 0 21.5 9t8.5 21.5t-8.5 21t-21.5 8.5v0zM931 457h-60q-12 0 -21 -8.5t-9 -21t9 -21.5t21 -9h60q12 0 21 9t9 21.5t-9 21t-21 8.5v0zM482 801v-60q0 -12 9 -21t21.5 -9t21 9t8.5 21v60q0 12 -8.5 21t-21 9t-21.5 -9t-9 -21v0zM303 382q0 87 61.5 148.5t148 61.5
t147.5 -61.5t61 -148t-61 -148t-147.5 -61.5t-148 61.5t-61.5 147.5v0zM243 382q0 -111 79 -190t190.5 -79t190 79t78.5 190.5t-78.5 190t-190 78.5t-190.5 -78.5t-79 -190.5v0zM452 -36q0 -13 9 -21.5t21 -8.5h60q12 0 21 8.5t9 21t-9 21.5t-21 9h-60q-12 0 -21 -9t-9 -21
v0zM393 53q0 -12 8.5 -20.5t21.5 -8.5h179q12 0 21 8.5t9 21t-9 21t-21 8.5h-179q-13 0 -21.5 -8.5t-8.5 -21.5v0zM393 53z" />
    <glyph glyph-name="saoyisao" unicode="&#xe64e;" 
d="M118 620q0 66 46 112t112 46h105v52h-105q-87 0 -149 -61.5t-62 -148.5v-105h53v105zM118 147v105h-53v-105q0 -87 62 -148.5t149 -61.5h105v52h-105q-66 0 -112 46.5t-46 111.5zM749 830h-105v-52h105q65 0 111 -46t46 -112v-105h53v105q0 87 -61.5 148.5t-148.5 61.5z
M906 147q0 -65 -46 -111.5t-111 -46.5h-105v-52h105q87 0 148.5 61.5t61.5 148.5v105h-53v-105zM946 410h-867q-6 0 -10 -4t-4 -9v-26q0 -6 4 -10t10 -4h867q5 0 9 4t4 10v26q0 5 -4 9t-9 4z" />
    <glyph glyph-name="qiaquanhaojifen" unicode="&#xe64f;" 
d="M920.5 794.5q-38.5 38.5 -93.5 38.5t-94 -38l-66 -67h-247q-11 0 -19 -8l-307 -333q-31 -31 -31 -75t31 -75l269 -269q31 -31 75 -31t75 31l333 334q8 8 8 18v162q0 11 -7.5 19t-18.5 8t-19 -8t-8 -19v-151l-325 -325q-16 -16 -38 -16t-38 16l-269 269q-15 15 -15 37
t15 38l300 325h189q-23 -37 -17 -82.5t38 -78.5q1 -1 2 -1q7 -7 17 -7t18 7q8 8 8.5 18.5t-6.5 18.5l-3 3q-23 23 -22.5 55.5t23.5 56.5l93 92q23 24 56 24t56.5 -23.5t23.5 -56.5t-24 -56l-50 -50q-7 -8 -7 -19t7.5 -18.5t18.5 -7.5t18 8l51 50q38 38 38 93t-38.5 93.5z
" />
    <glyph glyph-name="pingjia" unicode="&#xe650;" 
d="M772 -56v0q-22 -11 -53 -2q-75 22 -215 66q-145 -45 -221 -66q-7 -2 -12.5 -6.5t-6 -3.5t-9.5 5q-31 24 -32 64q-1 35 -0.5 128.5t0.5 95.5q-4 6 -65 90.5t-84 121.5q-17 27 -8 59q9 33 41 45q70 28 213 80q89 118 139 182q12 15 26 22q22 12 45.5 5.5t39.5 -28.5
q47 -63 133 -182q135 -50 208 -79q36 -15 45 -45q10 -30 -13 -65q-18 -28 -49.5 -73t-60.5 -85t-34 -48q0 -6 1.5 -95.5t-1.5 -128.5q-3 -45 -27 -57zM159 449q128 -175 128 -192v-6.5v-17.5t-0.5 -25.5t-0.5 -32.5v-35.5t0.5 -37.5t0.5 -37q0 -3 -0.5 -11.5t-1 -12.5
t1.5 -8q7 -5 23 0q15 4 34 10t36.5 12t35 12.5t32 12t25.5 9.5t18 7l7 3q7 2 14 0q0 -1 6 -3.5t17 -6.5t25 -9.5t31 -12t34 -12.5t35.5 -12t34.5 -11q8 -1 8 1q1 1 9.5 -1t14.5 -2.5t8 3.5q2 40 1 98t-2 85t1 41l3 4.5t8 12.5t12 18.5t15 23t17 26t18.5 28t19 28t18.5 27
t17 24.5t8 20t-8 12q-183 62 -199 66l-22 31t-55.5 77.5t-54.5 74.5q-12 15 -24 9q-6 -3 -10 -9q-22 -28 -59.5 -75t-62.5 -78.5l-25 -31.5q-9 -9 -35 -17t-72.5 -20.5t-84.5 -26.5q-8 -9 -10.5 -13.5t-2 -6t5 -5t7.5 -7.5z" />
    <glyph glyph-name="daozheliqu1" unicode="&#xe651;" 
d="M761 668l-145 164l-145 -164h119v-285h-303q-6 0 -11 -5t-5 -11v-414q0 -7 5 -11.5t11 -4.5h32q7 0 11.5 4.5t4.5 11.5v366h303q6 0 11 4.5t5 11.5v333h107z" />
    <glyph glyph-name="tianjiashoucang" unicode="&#xe652;" 
d="M862 204h-98v97q0 6 -4 10t-10 4h-28q-5 0 -9.5 -4t-4.5 -10v-97h-97q-6 0 -10 -4t-4 -10v-28q0 -6 4 -10t10 -4h97v-98q0 -6 4.5 -10t9.5 -4h28q6 0 10 4t4 10v98h98q6 0 10 4t4 10v28q0 6 -4 10t-10 4zM703 791q-55 0 -104.5 -22t-85.5 -63q-37 40 -86.5 62.5
t-103.5 22.5q-107 0 -182 -76.5t-75 -184.5q0 -66 23 -131.5t59 -117t83 -99.5t90.5 -81.5t85.5 -61t63.5 -39.5t29.5 -16q7 -4 12.5 -4t13.5 4q35 16 102 61q-23 31 -43 42q-38 -26 -72 -44q-20 11 -44 25.5t-63.5 42.5t-75.5 58.5t-75 73t-67 85.5t-46.5 96t-18.5 106
q0 84 58.5 143t141.5 59q50 0 93.5 -24t72.5 -66q8 -13 24 -13t24 13q28 42 72 66t94 24q82 0 140.5 -59t58.5 -143q0 -112 -80 -224q25 -21 57 -21q81 121 81 245q0 108 -75.5 184.5t-181.5 76.5z" />
    <glyph glyph-name="jianchushoucang" unicode="&#xe653;" 
d="M703 791q-55 0 -104.5 -22t-85.5 -63q-37 40 -86.5 62.5t-103.5 22.5q-107 0 -182 -76.5t-75 -184.5q0 -66 23 -131.5t59 -117t83 -99.5t90.5 -81.5t85.5 -61t63.5 -39.5t29.5 -16q7 -4 12.5 -4t13.5 4q35 16 102 61q-23 31 -43 42q-38 -26 -72 -44q-20 11 -44 25.5
t-63.5 42.5t-75.5 58.5t-75 73t-67 85.5t-46.5 96t-18.5 106q0 84 58.5 143t141.5 59q50 0 93.5 -24t72.5 -66q8 -13 24 -13t24 13q28 42 72 66t94 24q82 0 140.5 -59t58.5 -143q0 -112 -80 -224q25 -21 57 -21q81 121 81 245q0 108 -75.5 184.5t-181.5 76.5zM862 204h-251
q-6 0 -10 -4t-4 -10v-28q0 -6 4 -10t10 -4h251q6 0 10 4t4 10v28q0 6 -4 10t-10 4z" />
    <glyph glyph-name="qia" unicode="&#xe60a;" 
d="M864 640h-704h-2q-4 -1 -14.5 0.5t-24 -3t-25.5 -11t-20.5 -23.5t-8.5 -42v-529q0 -39 28 -66.5t67 -27.5h704q39 0 67 27.5t28 66.5v165v364q-2 32 -16 49q-24 30 -79 30zM927 34q0 -21 -21.5 -42.5t-42.5 -21.5h-702q-21 0 -42.5 21.5t-21.5 42.5v398h830v-398z
M927 464h-830v96q0 6 2 14.5t9.5 19.5t20.5 14h766q15 1 23.5 -19t8.5 -29v-96zM153 257h415q8 0 8 8v16q0 8 -8 8h-415q-8 0 -8 -8v-16q0 -8 8 -8zM711 257h160q8 0 8 8v16q0 8 -8 8h-160q-8 0 -8 -8v-16q0 -8 8 -8zM153 145h255q8 0 8 8v16q0 8 -8 8h-255q-8 0 -8 -8v-16
q0 -8 8 -8z" />
    <glyph glyph-name="danchuangzujianjia" unicode="&#xe656;" 
d="M947 411h-408v408q0 6 -4 10t-10 4h-26q-5 0 -9 -4t-4 -10v-408h-409q-5 0 -9 -4t-4 -9v-27q0 -5 4 -9t9 -4h409v-409q0 -5 4 -9t9 -4h26q6 0 10 4t4 9v409h408q6 0 9.5 4t3.5 9v27q0 5 -3.5 9t-9.5 4z" />
    <glyph glyph-name="danchuangzujianguanbi" unicode="&#xe657;" 
d="M562 385l391 391q5 6 5 13.5t-5 12.5l-25 25q-5 5 -12.5 5t-12.5 -5l-392 -391l-391 391q-5 5 -12.5 5t-12.5 -5l-25 -25q-6 -5 -6 -12.5t6 -13.5l391 -391l-391 -391q-6 -5 -6 -12.5t6 -12.5l25 -26q5 -5 12.5 -5t12.5 5l391 392l392 -392q5 -5 12.5 -5t12.5 5l25 26
q5 5 5 12.5t-5 12.5z" />
    <glyph glyph-name="danchuangzujianfanhui" unicode="&#xe658;" 
d="M745 788h14v43h-43v-12l-428 -408q-2 -1 -3 -2l-15 -15q-8 -8 0 -15l15 -15v0l410 -411v-17h43v43h-8l-407 407z" />
    <glyph glyph-name="28pxshouye" unicode="&#xe66f;" 
d="M884 496q0 -35 -24.5 -60t-60.5 -25q-47 0 -72 41q-25 -41 -72.5 -41t-72.5 41q-25 -41 -72.5 -41t-72.5 41q-25 -41 -72.5 -41t-72.5 41q-25 -41 -72 -41q-36 0 -60.5 25t-24.5 60q0 9 1 17h-1l85 213q0 18 12.5 30t29.5 12h9v0h477v0h9q17 0 29.5 -12t12.5 -30l85 -213
h-1q1 -8 1 -17zM441 360h137h51h238v-308q0 -20 -14.5 -35t-35.5 -15h-189q-21 0 -35.5 15t-14.5 35v172h-137v-172q0 -20 -14.5 -35t-35.5 -15h-189q-21 0 -35.5 15t-14.5 35v308h255h34z" />
    <glyph glyph-name="28pxgouwuche" unicode="&#xe66b;" 
d="M808 746h-592q-28 0 -47 -19.5t-19 -46.5v-592q0 -28 19 -47t47 -19h592q27 0 46.5 19t19.5 47v592q0 27 -19.5 46.5t-46.5 19.5zM742 565h-33v-107q0 -79 -55.5 -134t-133.5 -55h-16q-79 0 -134.5 55t-55.5 134v107h-33q-6 0 -11 4.5t-5 11.5t5 12t11 5h99q7 0 12 -5
t5 -12t-5 -11.5t-12 -4.5h-33v-107q0 -65 46 -111t111 -46h16q65 0 110.5 46t45.5 111v107h-33q-6 0 -11 4.5t-5 11.5t5 12t11 5h99q7 0 12 -5t5 -12t-5 -11.5t-12 -4.5z" />
    <glyph glyph-name="28pxshangpinfenlei" unicode="&#xe66c;" 
d="M400 342h-205q-28 0 -48 -20t-20 -49v-205q0 -28 20 -48t48 -20h205q29 0 49 20t20 48v205q0 29 -20 49t-49 20zM810 342h-205q-28 0 -48 -20t-20 -49v-205q0 -28 20 -48t48 -20h205q29 0 49 20t20 48v205q0 29 -20 49t-49 20zM400 752h-205q-28 0 -48 -20t-20 -49v-205
q0 -28 20 -48t48 -20h205q29 0 49 20t20 48v205q0 29 -20 49t-49 20zM637 395l201 35q28 5 44.5 28.5t11.5 51.5l-36 201q-5 28 -28 44.5t-51 11.5l-202 -36q-28 -5 -44 -28t-11 -51l35 -202q5 -28 28.5 -44t51.5 -11z" />
    <glyph glyph-name="28pxwode" unicode="&#xe66d;" 
d="M719 318l-106 44q-16 16 -18 37l1 15q37 24 55 71q17 0 25 22t5.5 45t-11.5 28q3 17 2 37.5t-3.5 41.5t-13.5 40.5t-27 34.5t-45.5 24.5t-68.5 10.5v0h-1h-1h-0.5h-0.5v0q-39 -1 -68.5 -10.5t-46 -24.5t-27.5 -34.5t-13 -40.5t-3.5 -41.5t1.5 -37.5q-9 -5 -11 -28
t5.5 -45t24.5 -22q19 -47 55 -71l1 -15q-1 -9 -5.5 -18.5t-8.5 -13.5l-3 -5l-107 -44q-128 -71 -128 -237q3 -3 9.5 -8.5t33.5 -19t61 -24.5t95.5 -19.5t134.5 -8.5v0h1h1v0q73 0 134 8.5t96.5 20t60.5 24t34 19.5t9 8q1 4 1 9.5t-1 23.5t-4.5 35.5t-12.5 41.5t-22.5 45.5
t-36.5 43.5t-52 38v0zM719 318z" />
    <glyph glyph-name="ditudaohang" unicode="&#xe659;" 
d="M911 -65h-796q-29 0 -42.5 21.5t0.5 46.5l115 215q4 7 5.5 9t5 6t6.5 2.5t9 -2.5q21 -11 21 -21l-128 -235h811l-216 344l-139 -249q-15 -24 -41 -24q-24 -1 -40 24q-11 16 -26.5 42t-51.5 91t-63 123.5t-48 125t-19 110.5q2 60 23.5 110.5t55 83.5t75 52t84.5 21
q42 2 83 -13t76.5 -45t60.5 -81.5t34 -116.5q1 -11 -6 -19.5t-19 -11.5q-6 -1 -11 6t-7 19q-6 55 -29 99t-54 70t-64 39t-64 11q-69 -3 -128.5 -71t-63.5 -164q-3 -74 69.5 -226t132.5 -235l140 249q15 25 40.5 25t40.5 -25l207 -337q15 -25 2.5 -47t-41.5 -22v0z" />
    <glyph glyph-name="wangfudianzixiaopiao" unicode="&#xe65a;" 
d="M844 832h-0.5h-0.5h-657q-34 0 -59.5 -22.5t-29.5 -56.5v-1v-1v-797v-0.5v-1.5q0 -3 1 -4q1 -3 3 -5v-0.5v-0.5v0q3 -2 6 -3.5t6 -1.5t6 2q3 1 5 3h0.5h0.5v0v0l167 134l152 -133v0v-0.5v-0.5q1 0 4 -2l0.5 -0.5l0.5 -0.5q4 -2 7 -2t6 2l0.5 0.5t1.5 0.5q2 1 3 1v1v0v0h1
l176 143l176 -143q2 -2 5 -3.5t6.5 -1.5t6.5 2q6 2 9 9q1 2 1 5v704q34 3 57 28t23 59q0 35 -24.5 60.5t-59.5 27.5zM816 -15l-161 135q-11 11 -23 0l-175 -142l-151 132l-1 1v0l-1 0.5t-1 1.5q-2 1 -3 1q0 1 -2.5 1.5t-3.5 0.5l-3 -0.5l-3 -0.5q-1 0 -3 -2l-1 -0.5t-2 -0.5
v-1v0l-153 -126v751q0 25 16.5 44.5t40.5 19.5t40.5 -18t14.5 -46q-2 -22 -17 -35t-38 -13q-7 0 -12 -4.5t-5 -11.5q0 -15 24 -15h623v-672zM838 688h-583q20 25 20 56q0 34 -18 56h591q22 0 35 -19.5t13 -44.5q-1 -17 -18 -32.5t-40 -15.5zM249 481h447q8 0 8 8v16
q0 8 -8 8h-447q-8 0 -8 -8v-16q0 -8 8 -8zM249 369h447q8 0 8 8v16q0 8 -8 8h-447q-8 0 -8 -8v-16q0 -8 8 -8zM249 257h447q8 0 8 8v16q0 8 -8 8h-447q-8 0 -8 -8v-16q0 -8 8 -8z" />
    <glyph glyph-name="wangfuhuiyuanqia" unicode="&#xe65b;" 
d="M942 322q17 0 17 14v369q0 26 -18.5 44t-43.5 18h-771q-25 0 -43.5 -18t-18.5 -44v-643q0 -26 18.5 -44t43.5 -18h771q25 0 43.5 18t18.5 44v162q0 7 -5 12t-11.5 5t-11 -5t-4.5 -12v0v0v-160q0 -13 -10 -22.5t-24 -9.5h-312v0h-451q-14 0 -24 9.5t-10 22.5v399h831v-127
q0 -14 15 -14v0zM96 703q0 13 9.5 22.5t22.5 9.5h767q13 0 22.5 -9.5t9.5 -22.5v-80h-831v80v0zM96 495v96h831v-96h-831v0zM767 240v-144h16v48h48q27 0 37.5 11t10.5 36q-3 46 -54 49h-58v0zM863 192q0 -21 -9.5 -26.5t-33.5 -5.5h-37v64h32q22 1 34.5 -8t13.5 -24v0z
M719 96v144h-16v-144h16v0zM208 128v64h-64v-64h64v0zM602 117q-57 120 -59 123h-15l63 -144h16l68 144h-20q-52 -118 -53 -123v0v0z" />
    <glyph glyph-name="wangfulipindingdan" unicode="&#xe65c;" 
d="M224 217h151q0 16 3 32h-154v-32zM783 632v-160q18 -1 32 -4v167q0 53 -36 89.5t-89 36.5l-34 -1v-32h31q36 0 66 -30t30 -66zM656 537h-432v-32h432v32zM419 393h-195v-32h181q5 17 14 32zM432 776v-32h-96v-32h208v32h-80v32h-32zM560 824h-240v-32h240v32zM927 313
h-23q23 23 23 55q0 23 -14.5 40t-45.5 17q-41 0 -92 -33.5t-71 -63.5q-20 30 -71.5 63.5t-92.5 33.5q-31 0 -46 -17t-15 -40q0 -32 24 -55h-23q-14 0 -23 -9.5t-9 -22.5v-80q0 -15 8.5 -23.5t23.5 -8.5v0v-191q0 -14 9.5 -23t22.5 -9h383q13 0 22.5 9t9.5 23v192h2
q30 0 30 32v79q0 13 -9.5 22.5t-22.5 9.5zM540 393q29 0 73.5 -27t62.5 -53h-86q-31 0 -55 15t-24 40t29 25zM687 -22h-163q-12 0 -12 11v180h175v-191zM687 201h-193q-14 0 -14 13v58q0 6 2 7.5t7 1.5h198v-80zM867 393q29 0 29 -25t-23.5 -40t-53.5 -15h-86q17 26 61 53
t73 27zM895 -14q0 -8 -10 -8h-166v191q130 0 176 1v-184zM927 217q0 -16 -14 -16h-194v80h201l7 -8v-56zM208 -6q-43 0 -77 34t-34 77v527q0 36 30 66t65 30h32v32l-34 1q-53 0 -89 -36.5t-36 -89.5v-526q0 -61 42.5 -104t103.5 -43h213q-12 15 -20 32h-196z" />
    <glyph glyph-name="wangfushezhi" unicode="&#xe65d;" 
d="M882 267h-19q-8 -24 -20 -49l13 -13q23 -23 23 -55.5t-23 -54.5l-55 -55q-22 -23 -54.5 -23t-55.5 23l-13 13q-25 -12 -49 -20v-19q0 -32 -23 -55t-55 -23h-78q-32 0 -55 23t-23 55v19q-24 8 -48 20l-14 -13q-23 -23 -55 -23t-55 23l-55 55q-23 22 -23 54.5t23 55.5
l14 13q-13 25 -21 49h-19q-32 0 -55 23t-23 55v78q0 32 23 55t55 23h19q8 24 21 48l-14 14q-23 23 -23 55t23 55l55 55q23 23 55 23t55 -23l14 -14q24 13 48 21v19q0 32 23 55t55 23h78q32 0 55 -23t23 -55v-19q24 -8 49 -21l13 14q23 23 55.5 23t54.5 -23l55 -55
q23 -23 23 -55t-23 -55l-13 -14q12 -24 20 -48h19q32 0 55 -23t23 -55v-78q0 -32 -23 -55t-55 -23v0zM916 422q0 16 -11 27.5t-27 11.5h-9h-39q-12 48 -39 93l28 28l6 6q11 11 11 27t-11 27l-54 55q-12 11 -27.5 11t-27.5 -11l-6 -6v0l-28 -29q-45 28 -93 39v40v8
q0 16 -11 27.5t-27 11.5h-77q-16 0 -27.5 -11.5t-11.5 -27.5v-8v-40q-48 -11 -93 -39l-28 29l-6 6q-11 11 -27 11t-27 -11l-55 -55q-11 -11 -11 -27t11 -27l6 -6l29 -28q-28 -45 -40 -93h-39h-8q-16 0 -27.5 -11.5t-11.5 -27.5v-77q0 -16 11.5 -27t27.5 -11h8h39
q12 -48 40 -93l-29 -28l-6 -6q-11 -12 -11 -27.5t11 -27.5l55 -54q11 -11 27 -11t27 11l34 34q46 -27 93 -39v-39v-9q0 -16 11.5 -27t27.5 -11h77q16 0 27 11t11 27v9v39q48 12 93 39l34 -34q12 -11 27.5 -11t27.5 11l54 54q11 12 11 27.5t-11 27.5l-6 6l-28 28q27 45 39 93
h39h9q16 0 27 11t11 27v77v0v0zM512 189q-80 0 -137.5 57t-57.5 137.5t57.5 138t138 57.5t137.5 -57.5t57 -138t-57 -137.5t-138 -57v0zM512 534q-62 0 -106 -44t-44 -106t44 -106t106 -44t106 44t44 106t-44 106t-106 44v0z" />
    <glyph glyph-name="wangfuwodetingche" unicode="&#xe65e;" 
d="M298 617q19 16 41 35q8 8 2 19q-4 9 -17 10q-8 -3 -8 -4q-25 -21 -40 -35q-11 -10 0 -22q11 -13 22 -3zM390 680q-11 -7 -12 -7q-11 -11 -57 -54q-36 -34 -44 -41q-12 -12 -1 -24t25 -1l6 6q44 42 57 54q21 19 41 38q9 8 4 19q-4 10 -19 10zM960 463q-4 24 -39 43l-10 5
q24 17 26 18q7 6 6.5 14.5t-8.5 13.5q-9 5 -21 -3q-5 -3 -46 -27q-5 9 -5 10q-10 21 -30 95.5t-30 96.5q-25 54 -85 54h-205h-206q-63 0 -89 -56q-10 -21 -29.5 -94t-28.5 -94q0 -1 -5 -10l-6 3q-31 18 -42 25q-15 9 -24 -3q-11 -13 2 -23q3 -3 18 -14q1 0 6 -3
q-38 -19 -45 -51q0 -8 0.5 -135.5t-0.5 -136.5q8 -51 48 -80q2 -1 10.5 -1.5t11.5 -7.5q-6 -5 -6 -23q0 -54 25.5 -75t70.5 -21q35 0 57.5 29.5t22.5 66.5v16h416v-8.5v-7.5q1 -32 11.5 -54t25 -30t25.5 -10.5t18 -1.5q29 1 51.5 20.5t28.5 59.5v32q0 6 14 13q11 4 19 8.5
t14.5 11l10.5 10.5t8 13.5t5 12t4.5 14.5t4.5 13q1 8 0.5 139.5t-0.5 132.5zM252 717q16 34 52 34h192h192q3 0 16 0.5t16 -0.5q16 -1 30 -10t20 -23q11 -23 32 -100t32 -100v-2q-122 -38 -322 -37q-207 1 -325 38q11 23 32.5 100.5t32.5 99.5zM208 15q-19 1 -32.5 15
t-15.5 33v32h112q11 -64 -49 -78l-14 -2h-1zM798 15v0v0zM799 15q-19 -2 -33 15t-16 40q0 4 1 12.5t1 12.5h96q3 -22 -2.5 -38.5t-16 -25t-17.5 -12t-13 -4.5zM928 207q-2 -32 -25 -56t-55 -24h-103h-130h-103q-31 0 -102.5 0.5t-130.5 0.5t-103 -1q-31 0 -55.5 21.5
t-24.5 58.5v240q0 21 27 39q24 21 62 -3q70 -25 162 -33q38 -3 181 -3q192 0 300 32q11 3 34 10q6 6 21.5 4t22.5 -13q22 -17 22 -33q1 -210 0 -240zM832 319q-20 0 -34 -14t-13.5 -34t14.5 -34t33 -14q20 0 34 14t14 34t-14 34t-34 14zM192 319q-20 0 -33.5 -14t-14.5 -33
q0 -20 14 -34.5t34 -14.5t34 14t14 34t-14 34t-34 14zM728 271h-432q-8 0 -8 -8v-16q0 -8 8 -8h432q8 0 8 8v16q0 8 -8 8z" />
    <glyph glyph-name="wangfuwodeyaoqingma" unicode="&#xe65f;" 
d="M936 521l-396 299q-15 11 -35 11t-35 -12l-381 -298q-24 -18 -24 -48v-473q0 -25 17.5 -42.5t42.5 -17.5h776q24 0 41.5 17.5t17.5 42.5v472q0 31 -24 49v0zM928 0q0 -12 -8 -20t-19 -8h-776q-12 0 -19.5 8t-7.5 20v473q0 13 10 22l382 298q7 5 16 5q8 0 15 -5l396 -299
q11 -8 11 -22v-472v0zM639 241q2 2 2 3l117 171q12 22 0 42q-11 20 -42 20h-423q-20 0 -31 -20q-12 -22 0 -43l123 -171q1 -1 1 -2h1l-98 -148q-10 -12 2 -23q4 -4 10 -4q8 0 13 6l100 151q4 -7 9 -7h179q8 0 9 7l93 -151q5 -6 13 -6q5 0 10 4q13 10 3 23l-91 148v0z
M290 431q-3 5 0 10v1q2 2 3 2h423q12 0 14 -3q3 -5 0 -10l-117 -171q-6 -11 -11 -11h-179q-4 0 -10 11l-123 171v0z" />
    <glyph glyph-name="wangfuxiaoxi" unicode="&#xe660;" 
d="M896 724h-767q-27 0 -45.5 -19t-18.5 -45v-554q0 -27 18.5 -45.5t45.5 -18.5h767q26 0 44.5 18.5t18.5 45.5v554q0 26 -18.5 45t-44.5 19zM129 681h767q21 0 21 -21v-154l-379 -175l-430 176v153q0 10 6.5 16.5t14.5 4.5zM896 85h-767q-21 0 -21 21v353l404 -161h43
q15 -1 362 160v-352q0 -21 -21 -21z" />
    <glyph glyph-name="wangfuyue" unicode="&#xe661;" 
d="M895 404q-17 0 -22.5 7.5t-11.5 30.5q-18 39 -38 65t-28.5 32.5t-25.5 16.5q-18 9 -24.5 13t-11 14t0 25t17.5 43q0 3 5 16t6 20q5 29 -2 34q-5 5 -16.5 5t-17.5 -4q-71 -43 -108 -89q-10 -17 -22.5 -19t-26.5 2q-119 38 -228 -11t-180 -184q-30 4 -49.5 28.5t-16.5 51.5
t30 38q4 5 3 13t1 15q-14 1 -28.5 -8t-24.5 -25.5t-12.5 -36.5t9.5 -45t39 -48q4 -2 11 -5t10.5 -5.5t4.5 -6.5q9 2 16 2h5q2 0 3 -1q10 6 23 6v0q3 10 12 27t26.5 41t40 48t56 44.5t70.5 33t86 12.5t101 -17q26 -4 41 1t27 28q33 40 57 62t30 7q-27 -61 -32 -94
q-4 -34 27 -47q83 -35 102 -119q12 -52 58 -48q44 4 40 -34q-1 -19 0 -32q4 -30 -7.5 -48.5t-41.5 -17.5q-10 1 -16 -2.5t-16 -13.5q-54 -72 -98 -98q-31 -28 -16 -65q4 -16 4.5 -25t-7.5 -16t-14.5 -10t-17 -7t-14.5 -7q-19 -12 -34.5 -3t-17.5 33q-5 19 -17 27.5t-27 8.5
t-35 -1q-65 -6 -114 0q-26 6 -46 1t-25 -30q-7 -29 -22 -37t-37 1q-25 9 -33.5 27t3.5 44q12 23 7.5 40.5t-26.5 35.5q-74 58 -81 130q-4 1 -9 6.5t-6 6.5q-6 -1 -9 -1h-4q-2 -11 -9 -21q16 -74 80 -132q13 -10 18 -14.5t10.5 -13t3.5 -18.5t-10 -25q-22 -52 31 -82
q9 -3 32 -12q39 -15 58 -7t34 49q6 16 15 20t24 -2q46 -5 118 1q21 2 31 -3.5t15 -28.5q11 -30 26.5 -34t54.5 3q29 10 43 16q28 12 36.5 29.5t-0.5 46.5q-2 7 -2.5 12.5t0 8.5t4.5 7.5t6 6.5l8 8q47 42 74 81q11 17 21.5 24t28.5 7q56 -1 58 60q1 34 0 76q-1 31 -16.5 43.5
t-47.5 11.5zM520 665q-32 -12 -31 25q-3 45 -37 72t-79 17q-57 -4 -83.5 -46t-6.5 -90q4 -18 -2.5 -25t-23.5 -9q-20 35 -14 80t36 79q31 30 78 39.5t89 -5.5q39 -18 58.5 -56.5t15.5 -80.5zM787 376q-8 -7 -19 -17.5t-17.5 -15.5t-13.5 -6q-17 -3 -28.5 8t-8.5 28
q2 11 13.5 22.5t21.5 12.5q5 1 12 -3t19 -14t21 -15z" />
    <glyph glyph-name="wangfudaohuofangshi" unicode="&#xe662;" 
d="M856 766h-687q-26 1 -44.5 -1.5t-29.5 -9.5t-17.5 -13t-9 -19t-3 -21t-0.5 -25v-11v-566q-2 -28 3.5 -48t13.5 -30t24.5 -15t28.5 -6t34 -1h687h6q18 0 26.5 0.5t22.5 3t20.5 9t14 17t10.5 28.5t3 42v566q1 21 -2 37.5t-6.5 27t-12.5 17.5t-16 10.5t-20.5 5.5t-21 2
h-24.5v0zM353 734h319v-223v-2.5t0.5 -4.5t-0.5 -2q-20 4 -35.5 6.5t-37 2.5t-36.5 -6t-29.5 -20.5t-21.5 -37.5q-7 27 -35 46.5t-63 23.5q-10 1 -32 -1.5t-30 -5.5v213zM928 64v0q0 -10 -11 -21t-21 -11h-767q-10 0 -21 11t-11 21v639q0 10 11 20.5t21 10.5h192v-287
q-3 -22 11.5 -26t19.5 14q1 5 1 12q0 18 16.5 24.5t47.5 7.5q15 0 36.5 -13t29.5 -29q14 -28 28.5 -29.5t26.5 25.5q10 24 30.5 35.5t39.5 10.5q14 -1 36 -13.5t28 -18.5q-2 -25 13 -29q13 -3 18 17q1 5 1 12v287h192q10 0 21 -10.5t11 -20.5v-639v0zM705 160
q-13 0 -23 -9.5t-10 -22.5t10 -22.5t23.5 -9.5t23 9.5t9.5 22.5t-9.5 22.5t-23.5 9.5v0zM830 160q-13 0 -23 -9.5t-10 -22.5t10 -22.5t23.5 -9.5t23.5 9.5t10 22.5t-10 22.5t-24 9.5v0z" />
    <glyph glyph-name="wangfulianxifangshi" unicode="&#xe663;" 
d="M362 382l11 17v31v62q-1 73 -84 70q-29 -1 -49.5 -21t-20.5 -49v-93l31 -14l-61 -17q-15 -3 -23 -13.5t-8 -16.5v-62q0 -21 4.5 -26t26.5 -5h215q21 0 26 5t5 26q-1 55 0 80zM373 276h-154h-4.5h-5t-5.5 0.5t-5 1l-4 2t-3.5 4t-2.5 5.5t-1 7.5t1 10.5v31l82 25q8 4 10 8
l2 3t3 5.5t0 8t-5 11.5l-32 18v74q0 19 11 32t29 13q26 1 39.5 -12t13.5 -32v-62q1 -22 0 -31q-15 -8 -12.5 -23.5t18.5 -21.5l56 -19v-28q0 -8 -0.5 -11t-3 -9t-9 -8.5t-18.5 -2.5zM219 399v0v0zM835 276h-308q-12 -1 -16 -8.5t1 -15t15 -7.5h308q12 0 16.5 8t-0.5 15.5
t-16 7.5zM927 645h-400v93q0 28 -31 31h-414q-5 0 -11 -10t-6 -16v-713q0 -13 9.5 -21.5t21.5 -9.5h216q17 2 24.5 8t5.5 23v92h62v-92q-2 -29 31 -31h154q9 0 14.5 1t10.5 8.5t5 21.5v92h62v-92q0 -31 31 -31h215q18 0 24.5 6.5t6.5 24.5v585q0 30 -31 30zM927 30h-215v92
q0 15 -6.5 23t-24.5 8h-62q-34 0 -30 -31v-92h-154l-1 93q1 29 -30 30h-62q-19 1 -25 -7.5t-5 -23.5v-92h-216v708h400v-93q-2 -13 6 -22t25 -8h400v-585zM835 399h-308q-12 0 -16 -8t1 -15.5t15 -7.5h308v31zM527 492h308q12 0 16.5 7.5t-0.5 15t-16 7.5h-308q-12 0 -16 -8
t1 -15.5t15 -6.5z" />
    <glyph glyph-name="wangfupeisongfangshi" unicode="&#xe664;" 
d="M894 527l-191 96v95q0 44 -22 70t-56 26h-463q-40 0 -68 -29.5t-28 -70.5v-627q0 -19 8 -27t16 0t8 27v627q1 26 20.5 47t43.5 21h446q25 7 44.5 -9t19.5 -41v-116q0 -1 0.5 -3l0.5 -2q1 -5 2 -7q0 -1 2.5 -5.5t3.5 -5.5q31 -13 84.5 -37.5t91.5 -42.5l37 -18
q32 -24 32 -78v-332q0 -19 8 -27t16 0t8 27v332q0 87 -64 110zM799 368h-128v127q0 20 -7.5 28t-15.5 0t-8 -28v-127q0 -14 9 -23t22 -9h128h7h7t6 0.5t5.5 1.5t3.5 2.5t3 4.5t1 6q0 12 -7 14.5t-22 2.5h-4zM687 240q-55 0 -95.5 -36.5t-46.5 -90.5h-66q-6 54 -46.5 90.5
t-95.5 36.5q-59 0 -101 -41.5t-42 -101t42 -101.5t101 -42q55 0 95.5 36.5t46.5 90.5h66q6 -54 46.5 -90.5t95.5 -36.5q60 0 102 42t42 101.5t-42 101t-102 41.5zM337 -14q-46 0 -79 32.5t-33 78.5t33 79t79 33t78.5 -33t32.5 -79t-32.5 -78.5t-78.5 -32.5zM687.5 -14
q-46.5 0 -79 32.5t-32.5 78.5t32.5 79t79 33t79 -33t32.5 -79t-32.5 -78.5t-79 -32.5z" />
    <glyph glyph-name="wangfushangpinqingdan" unicode="&#xe665;" 
d="M305 543h414v31h-414v-31zM782 766h-63v31q0 11 -10.5 21.5t-21.5 10.5h-351q-10 0 -20.5 -10.5t-10.5 -21.5v-31h-64q-44 0 -70 -25.5t-26 -68.5v-630q0 -43 31 -74t74 -31h523q44 0 74.5 31t30.5 74v630q0 43 -26 68.5t-70 25.5zM846 33q0 -22 -21 -43t-43 -21h-541
q-22 0 -43 21t-21 43v637q0 22 21 43t43 21h95v63h351v-63h95q22 0 43 -21t21 -43v-637zM305 415h414v32h-414v-32zM305 288h414v32h-414v-32zM305 160h414v32h-414v-32z" />
    <glyph glyph-name="wangfuzhifufangshi" unicode="&#xe666;" 
d="M895 192v-128q0 -46 -24.5 -70.5t-71.5 -24.5h-606q-66 -3 -97 26.5t-31 80.5v608q0 48 26 81t70 33h543q11 0 21.5 -10t10.5 -21v-160h63q47 0 71.5 -25t24.5 -71v-64q27 -15 45.5 -40.5t18.5 -54.5v-55q0 -30 -15 -55.5t-41 -40.5zM704 766h-543q-28 0 -46 -33t-18 -62
v-96q7 15 26.5 23.5t37.5 8.5h543v128v31zM863 511q0 23 -20 43.5t-44 20.5h-638q-23 0 -43.5 -20.5t-20.5 -43.5v-447q1 -19 21.5 -41.5t42.5 -22.5h638q24 0 44 20.5t20 43.5v128h-127q-43 0 -69.5 25.5t-26.5 70.5v64q0 45 24.5 70t71.5 25h127v64v0zM927 352
q0 22 -20.5 42.5t-43.5 20.5h-127q-23 0 -43.5 -20.5t-20.5 -42.5v-64q0 -23 20.5 -43.5t43.5 -20.5h127q23 0 43.5 20.5t20.5 43.5v64v0zM819 297h-55q-12 0 -20 8t-8 19.5t8 19.5t20 8h55q12 0 20 -8t8 -19.5t-8 -19.5t-20 -8v0zM819 297z" />
    <glyph glyph-name="wangfuguanlichepai" unicode="&#xe667;" 
d="M255 687h514q13 0 22 9.5t9 22.5t-9 22.5t-22 9.5h-514q-12 0 -21 -9.5t-9 -22.5t9 -22.5t21 -9.5zM919 556l41 3h-863q-16 0 -24 -13t-8 -31v-458q0 -17 12 -29t28 -12h814q17 0 29 12t12 29v458q0 17 -12 29t-29 12zM896 80h-767v415h767v-415zM159 591h706
q13 0 22 9.5t9 22.5t-9 22.5t-22 9.5h-706q-12 0 -21 -9.5t-9 -22.5t9 -22.5t21 -9.5zM224.5 144q13.5 0 22.5 9t9 22.5t-9 23t-22.5 9.5t-22.5 -9.5t-9 -23t9 -22.5t22.5 -9zM800 367q13 0 22.5 9.5t9.5 23t-9.5 22.5t-22.5 9t-22.5 -9t-9.5 -22.5t9.5 -23t22.5 -9.5z
M224.5 367q13.5 0 22.5 9.5t9 23t-9 22.5t-22.5 9t-22.5 -9t-9 -22.5t9 -23t22.5 -9.5zM800 144q13 0 22.5 9t9.5 22.5t-9.5 23t-22.5 9.5t-22.5 -9.5t-9.5 -23t9.5 -22.5t22.5 -9z" />
    <glyph glyph-name="wangfutongyifangshi" unicode="&#xe668;" 
d="M838 833h-652q-50 0 -86 -35.5t-36 -86.5v-652q0 -51 36 -86.5t86 -35.5h652q51 0 86.5 35.5t35.5 86.5v652q0 51 -35.5 86.5t-86.5 35.5zM920 59q0 -34 -24 -58t-58 -24h-652q-34 0 -57.5 24t-23.5 58v652q0 34 23.5 57.5t57.5 23.5h652q34 0 58 -23.5t24 -57.5v-652z
M716 580l-285 -286l-146 146l-35 -35l146 -146h-1l35 -35h1v0l35 35v0l285 286z" />
    <glyph glyph-name="wangfudizhiguanli" unicode="&#xe66a;" 
d="M624 591.5q0 46.5 -33 79t-79 32.5t-79 -32.5t-33 -79t33 -79t79 -32.5t79 32.5t33 79zM432 591q0 33 23.5 56.5t56.5 23.5t56.5 -23.5t23.5 -56.5t-23.5 -56t-56.5 -23t-56.5 23t-23.5 56zM496 227q7 -6 16.5 -6t16.5 6q10 9 27 24t54.5 55.5t66.5 81.5t52 97t23 106
q0 98 -71 169t-169 71t-168.5 -71t-70.5 -169q0 -50 23 -106t52 -97t66 -81.5t54 -55.5t28 -24zM512 799q76 0 142 -65.5t66 -142.5q0 -44 -25 -98t-62 -102t-67 -80.5t-54 -54.5q-203 184 -207 335q-3 76 63.5 142t143.5 66zM945 590.5q-14 7.5 -27 -1.5l-102 -77
q-20 -19 -5 -32q11 -9 21 0l95 79v-463q-172 -91 -223 -119v271q0 8 -8 8h-16q-8 0 -8 -8v-264q-42 26 -117.5 74t-131 83l-55.5 35v104q0 8 -7 8h-16q-8 0 -8 -8v-104l-240 -175v399l112 80q22 13 11 28q-11 13 -27 4l-112 -80q-16 -11 -16 -22v-421q0 -15 13 -22.5
t26 -0.5l249 178l331 -204q6 -3 12 -3q7 0 12 3l237 131q14 7 14 23v474q0 15 -14 22.5z" />
    <glyph glyph-name="wangfu-mima" unicode="&#xe733;" 
d="M811 405h-555v150q0 62 37 117t96 86t123 31q63 0 117.5 -37t86 -96t31.5 -123q0 -9 6 -15t15 -6t15.5 6t6.5 15q0 76 -37 145t-101.5 111.5t-139.5 42.5q-76 0 -144.5 -37t-111 -101.5t-42.5 -138.5v-150q-36 0 -61 -25t-25 -60v-299q0 -35 25 -60t61 -25h597
q35 0 60 25t25 60v299q0 35 -25 60t-60 25zM854 21q0 -17 -13 -30t-30 -13h-597q-18 0 -30.5 13t-12.5 30v299q0 17 12.5 30t30.5 13h597q17 0 30 -13t13 -30v-299zM512.5 277q-17.5 0 -30 -12.5t-12.5 -29.5q0 -25 21 -37v-70q0 -13 6.5 -38.5t14.5 -25.5t15 25.5t7 38.5
v70q21 12 21 37q0 17 -12.5 29.5t-30 12.5z" />
    <glyph glyph-name="wangfu-riqi" unicode="&#xe734;" 
d="M338 629h8q8 0 12 12t4 25v122q0 13 -4.5 22.5t-12.5 9.5h-8q-8 0 -12.5 -9.5t-4.5 -22.5v-127q0 -9 5 -20.5t13 -11.5zM700 629h8q8 0 12 12t4 25v122q0 13 -4.5 22.5t-13.5 9.5h-8q-8 0 -12.5 -9.5t-4.5 -22.5v-127q0 -9 5.5 -20.5t13.5 -11.5zM476 332l6 -5
q10 -7 29 12v-188q0 -10 5.5 -21t13.5 -11h7q9 0 13 11.5t4 25.5v228q0 8 -2 16q0 7 -5 11l-6 5q-13 11 -33 -14l-26 -33q-6 -8 -9 -19t3 -18zM660 757h-276v-43h276v43zM851 757h-106v-43h106q24 0 44 -29t20 -56v-64h-808v64q0 27 20 56t44 29h127v43h-106q-49 0 -88 -41
t-39 -88v-543q0 -48 37.5 -92.5t85.5 -44.5h661q44 0 76.5 42.5t32.5 94.5v543q-5 52 -32.5 90.5t-74.5 38.5zM915 97q0 -34 -18.5 -70t-45.5 -36h-659h-2q-25 1 -54 30.5t-29 54.5v447h808v-426z" />
    <glyph glyph-name="wangfu-xingbie" unicode="&#xe735;" 
d="M746 404v299h76l10 11q-82 97 -107 117q-3 2 -5.5 2t-4.5 -1l-1 -1l-96 -117l10 -11h76v-299q-90 -8 -151.5 -75t-61.5 -158q0 -97 68.5 -165.5t165.5 -68.5t165.5 68.5t68.5 165.5q0 91 -61.5 158t-151.5 75zM725 -21q-79 0 -135.5 56.5t-56.5 135.5t56.5 135t135.5 56
t135.5 -56t56.5 -135t-56.5 -135.5t-135.5 -56.5zM459 277h-138v86q90 9 151 75.5t61 158.5q0 96 -68.5 165t-165.5 69t-165.5 -69t-68.5 -165q0 -92 61.5 -158.5t151.5 -75.5v-86h-159q-5 0 -8 -3t-3 -7v-22q0 -4 3 -7t8 -3h159v-288q0 -4 3 -7t8 -3h21q4 0 7.5 3t3.5 7
v288h138q4 0 7.5 3t3.5 7v22q0 4 -3.5 7t-7.5 3zM299.5 405q-79.5 0 -135.5 56t-56 135.5t56 135.5t135.5 56t135.5 -56t56 -135.5t-56 -135.5t-135.5 -56z" />
    <glyph glyph-name="wangfu-yiliaierjulebu" unicode="&#xe736;" 
d="M518 -32q-103 0 -191.5 49.5t-142.5 136.5l-3 5h-6q-47 3 -78.5 36.5t-31.5 79.5q0 31 15.5 58t42.5 42l6 3v6q6 72 38 137t86 114q112 102 265 102q22 0 43 -2q7 -1 11 -6.5t4 -11.5q-1 -6 -5.5 -10.5t-10.5 -4.5q-1 0 -2 1q-20 2 -40 2q-95 0 -176 -45t-129.5 -122.5
t-52.5 -171.5v-10l-10 -4q-24 -10 -38.5 -31t-14.5 -46q0 -35 24.5 -59t60.5 -24h7l10 1l5 -9q47 -85 131.5 -134t182.5 -49q97 0 180.5 48t131.5 131l5 8h9q34 0 59 24.5t25 58.5q0 22 -11.5 41.5t-31.5 30.5l-9 5v9q-1 112 -68 202q-4 6 -3 12.5t7 10.5q4 3 9 3v0
q8 0 13 -6q68 -93 74 -207v-5l4 -3q48 -35 48 -93q0 -43 -29 -76t-72 -39h-6l-3 -5q-54 -86 -142 -134.5t-190 -48.5zM512 85q-74 0 -136.5 38t-95.5 103q-3 7 -1 13t8 9q4 2 7 2q10 0 15 -9q29 -57 83.5 -90t119.5 -33q61 0 114.5 30t83.5 82q3 6 6 11q4 9 14 9q4 0 7 -2
q6 -3 8 -9t-1 -13q-3 -6 -7 -12q-34 -60 -94.5 -94.5t-130.5 -34.5zM682.5 324q-18.5 0 -31.5 12.5t-13 31t13 31.5t31 13t31 -13t13 -31q0 -19 -12.5 -31.5t-31 -12.5zM347 324q-18 0 -31 12.5t-13 31t13 31.5t31 13t31 -13t13 -31q0 -19 -13 -31.5t-31 -12.5zM645 561
q-50 0 -85 34q-5 5 -5 11.5t4.5 11.5t11 5t11.5 -5q26 -25 63 -25t63 26q26 25 25.5 61t-26.5 62q-25 24 -61 25q-6 0 -10.5 5t-4.5 11.5t4.5 11t11.5 4.5q48 0 83 -34q35 -35 35.5 -84.5t-35 -84.5t-85.5 -35z" />
    <glyph glyph-name="wangfu-muyingzhuanjiazixun" unicode="&#xe737;" 
d="M484 708q46 14 102 15q42 1 83 -12q15 9 9 30q-46 13 -94 13q-60 0 -112 -16q-13 -3 -18 -11.5t2 -20.5q1 -2 3 -3t5 -0.5t5 1t7 2t8 2.5zM504 498.5q0 -13.5 9 -23t22.5 -9.5t23 9.5t9.5 23t-9.5 22.5t-23 9t-22.5 -9t-9 -22.5zM648 242q-34 27 -63 39t-65 9
q-20 0 -35 -8.5t-28.5 -23t-16.5 -16.5q-30 29 -58 83.5t-29 77.5l7 2t14 4.5t18 8.5t20 13t18.5 19.5t15.5 27.5t9 37t1 47q-10 73 -49 124.5t-95 51.5q-41 -1 -74 -13t-54.5 -29.5t-37 -41t-24 -46t-13 -48.5t-5.5 -43t0 -35q6 -131 89 -275q69 -121 167 -195t189 -74
q8 0 15.5 0.5t25.5 3.5t32.5 9t32 18t29 28t20 42.5t8.5 58.5q1 46 -13 80.5t-51 63.5zM552 -30q-71 1 -159 64.5t-161 175.5q-96 167 -97 280q-2 136 85 190q38 24 92 26q38 0 69 -37t43 -107q10 -104 -80 -128q-8 -1 -13 -5t-7 -8t-2 -10t1 -10t3 -9t2 -6q14 -56 31 -85
q12 -21 36 -54q14 -19 24 -28.5t19 -9t15.5 5t15.5 14.5q2 1 14 15t21 14q9 3 20.5 1t17.5 -1t15 -2.5t12.5 -3.5t11 -4t10 -5.5t9.5 -6.5t10 -7.5t10.5 -9t11.5 -9.5q51 -43 48 -112q1 -21 -5.5 -43t-20.5 -41.5t-40.5 -31.5t-61.5 -12zM869 596q-15 7 -23 -4.5t1 -28.5
q0 1 -4 3q41 -70 45 -148q3 -66 -32 -132t-80 -108q-12 -10 -2 -22q1 -1 4 -2.5t9 -1t13 6.5q57 48 88.5 116t31.5 143q0 96 -51 178zM731 386q-2 0 -3 0.5t-2 0l-2 -1t-2 -2t-2.5 -3t-3.5 -4.5l-4 -6q-1 -1 -9 -8t-24 -15t-31 -9q-29 1 -48 33q-8 14 -14.5 17t-14.5 -2
q-14 -9 0 -31q11 -15 17.5 -22.5t22 -15t37.5 -11.5q74 11 92 48q11 22 -7 31q-1 0 -2 1zM808 498.5q0 13.5 -9.5 22.5t-22.5 9t-22.5 -9t-9.5 -22.5t9.5 -23t22.5 -9.5t22.5 9.5t9.5 23zM685 797q35 7 65 -12q31 -20 38 -55.5t-13 -65.5t-57 -38q-36 -7 -67 13
q-5 3 -11.5 2t-9.5 -7q-3 -4 -3 -9q0 -9 7 -14q42 -26 90 -17q50 10 77.5 51.5t17.5 90.5t-52 76q-40 26 -88 17q-6 -1 -10 -6.5t-2.5 -12t7 -10.5t11.5 -3z" />
    <glyph glyph-name="jiankangdangan" unicode="&#xe74e;" 
d="M205 550q-23 0 -23 -23.5t23 -23.5h259q23 0 23 23.5t-23 23.5h-259zM346 9h-141q-37 0 -65.5 37.5t-28.5 80.5v517q0 43 28.5 80.5t65.5 37.5h565q36 0 65 -37.5t29 -80.5v-47q0 -24 23 -24q13 0 19 6t6 18v50q0 67 -44.5 114.5t-106.5 47.5h-546q-62 0 -106.5 -47.5
t-44.5 -114.5v-524q0 -67 44.5 -114t106.5 -47h122q13 0 23 6t10 17q0 24 -24 24zM791 299q34 24 53.5 67t19.5 90q0 66 -54 115t-135 49q-60 0 -112 -46.5t-52 -117.5q0 -48 17.5 -91t50.5 -66q-72 -36 -119.5 -106.5t-47.5 -139.5q0 -15 8.5 -29.5t19.5 -14.5q25 0 24 47
q-1 32 14 69t41.5 70t68 53.5t87.5 19.5q47 4 92 -16.5t75.5 -53.5t49.5 -71.5t19 -70.5q0 -16 6 -31.5t17.5 -15.5t17.5 14t6 30q0 69 -43 134t-124 112zM675 315q-48 0 -82.5 44.5t-34.5 96.5q0 42 34.5 79.5t82.5 37.5q53 1 97.5 -34t44.5 -83q0 -56 -37 -99t-105 -42z
M393 385h-178q-14 0 -23.5 -6t-9.5 -17q0 -24 23 -24h188q24 0 24 23.5t-24 23.5z" />
    <glyph glyph-name="pingjia1" unicode="&#xe74f;" 
d="M773 -50v0q-22 -12 -53 -3q-76 22 -215 66q-145 -44 -220 -66q-8 -2 -13 -6t-5.5 -3.5t-10.5 5.5q-30 23 -32 63q-1 35 -0.5 128t0.5 95q-3 6 -64.5 90t-83.5 121q-17 26 -9 57q10 34 41 46q71 27 214 79q88 117 138 181q12 15 27 22q21 11 44.5 4.5t39.5 -27.5
q47 -63 133 -181q134 -50 207 -79q37 -14 46 -44t-13 -65q-18 -27 -50 -72t-60.5 -84.5t-33.5 -47.5q0 -6 1 -95.5t-1 -127.5q-3 -44 -27 -56z" />
    <glyph glyph-name="xiangji" unicode="&#xe750;" 
d="M905 40h-786q-22 0 -37.5 16t-15.5 38v472q0 22 15.5 38t37.5 16h161q18 0 34 17t26 37.5t22.5 37.5t24.5 17h232q18 0 35 -17t28.5 -37.5t28 -37.5t33.5 -17h161q22 0 38 -16t16 -38v-472q0 -22 -16 -38t-38 -16zM512 566q-89 0 -151.5 -64t-62.5 -154t62.5 -153.5
t151.5 -63.5t152 63.5t63 153.5t-63 154t-152 64zM771 566q-11 0 -19 -8t-8 -19.5t8 -19.5t19 -8t19 8t8 19.5t-8 19.5t-19 8zM512.5 185q-66.5 0 -114 48t-47.5 115.5t47.5 115t114 47.5t113.5 -47.5t47 -115t-47 -115.5t-113.5 -48zM155 674q0 8 5 13t13 5h53q8 0 13 -5
t5 -13v-18h-89v18z" />
    <glyph glyph-name="kuaisutiwen" unicode="&#xe751;" 
d="M718 580.5q-29 26.5 -74 26.5q-21 0 -41 -7t-36 -21.5t-23 -33t-8 -54.5h37q0 82 71 82q31 0 47.5 -17.5t16.5 -40t-9 -32.5q-6 -11 -19 -19.5t-24.5 -14.5t-21.5 -22t-12 -41h37q1 13 12 26t24.5 21t26.5 19.5t18 21.5q7 17 7 36q0 44 -29 70.5zM621 301h42v45h-42v-45z
M884 724h-511q-31 0 -51.5 -20t-20.5 -50v-165h-188q-25 0 -36 -10t-11 -33v-295q0 -26 12 -44t35 -18h70l43 -47l75 47h211q23 0 34.5 18t11.5 44v33h95l91 -75l50 75h94q32 0 51.5 18t19.5 48v401q0 31 -22 52t-53 21zM512 160q0 -24 -23 -24h-212l-45 -31l-25 31h-71
q-23 0 -23 24v259q0 23 23 23h165v-188q0 -30 19.5 -50t50.5 -20h141v-24zM888 231h-94l-56 -60l-85 60h-282q-19 0 -21 2t-2 21v400q0 18 2 20.5t21 2.5h517q19 0 21.5 -2.5t2.5 -20.5v-400q0 -19 -2.5 -21t-21.5 -2z" />
    <glyph glyph-name="chunyuyisheng" unicode="&#xe752;" 
d="M574 401h177v0q87 3 147.5 65.5t60.5 149.5q0 89 -63 152.5t-153 63.5q-87 0 -149.5 -60.5t-65.5 -147.5v0v-177q17 -5 29.5 -17t16.5 -29zM560 592h2q-2 12 -2 24q0 76 54 130t129.5 54t129.5 -54t54 -130t-54 -129.5t-130 -53.5q-12 0 -23 1v-1h-131q-2 8 -11 17.5
t-18 11.5v130zM281 832q-89 0 -152 -63.5t-63 -152.5q0 -87 60 -149.5t147 -65.5v0h177l0.5 0.5l0.5 0.5q0 1 1 3v2v0v0l0.5 0.5l0.5 0.5q1 4 3 8v0q1 0 1 1q1 2 3 4v0q1 1 1 2v0q0 1 1 2l1 1v0l4 4v0v0v0l2 2q3 2 5 4l2 2v0h1v0l4 2v0.5v0.5v0h1v0h1l2 2v0l1 0.5t1.5 0.5h1
h0.5q3 2 7 3v177v0q-3 87 -65.5 147.5t-149.5 60.5zM464 592v-130q-9 -2 -18 -11.5t-10 -17.5h-131v1q-12 -1 -24 -1q-76 0 -130 53.5t-54 129.5t54 130t130 54t129.5 -54t53.5 -130q0 -12 -1 -24h1zM751 369v0h-177q0 -2 -1 -3q0 -2 -1 -3v0q0 -1 -1 -3v0q-1 -1 -1 -2v-1v0
l-2 -2v-0.5v-0.5q0 -1 -1 -2v0q-1 -2 -2 -3v0q-1 -1 -1 -2q-1 0 -1 -1l-2 -2v0l-2 -2l-2 -2v0q-1 -1 -2 -3q-1 0 -2 -1v0l-3 -3q-1 0 -2 -1v0q-1 -1 -3 -2v0q-1 0 -2 -1h-1l-2 -2v0h-1t-2 -1v0q-2 -1 -3 -1v0q-2 -1 -3.5 -1.5t-2.5 -0.5v-177v0q3 -87 65.5 -147.5
t149.5 -60.5q90 0 153 63t63 153q0 87 -60.5 149.5t-147.5 65.5zM743.5 -30q-75.5 0 -129.5 54t-54 130q0 12 2 23h-2v131q9 2 18 11.5t11 17.5h131v-2q11 2 23 2q76 0 130 -53.5t54 -129.5t-54 -130t-129.5 -54zM494 324h-1v0q-2 0 -3 0.5t-2 1.5q-1 0 -2 1v0h-1h-0.5h-0.5
v0v0l-1 0.5t-2 1.5v0q-2 1 -4 3v0v0h-1v0q-4 3 -7 6l-1 1q-2 1 -3 3v0l-2 2q-1 2 -2 3h-0.5t-0.5 1v0q0 1 -1 1v0v0q0 1 -1 2v0l-1 1q0 1 -1 2v0.5v0.5v0q-1 1 -1 2v0v1v0v0q-1 0 -1.5 1l-0.5 1v0q0 2 -1 3v0v0v0v1v0q-1 2 -1 4v0l-0.5 0.5l-0.5 0.5h-177v0
q-87 -3 -147 -65.5t-60 -149.5q0 -90 63 -153t152 -63q87 0 149.5 60.5t65.5 147.5v0v177v0q-1 0 -2 1zM464 177h-1q1 -11 1 -23q0 -76 -53.5 -130t-129.5 -54t-130 54t-54 130t54 129.5t130 53.5q12 0 24 -2v2h131q1 -8 10 -17.5t18 -11.5v-131z" />
  </font>
</defs>
</svg>
